<svg id="Warstwa_1" data-name="Warstwa 1" xmlns="http://www.w3.org/2000/svg" viewBox="0 0 1367.9 602.95">
  <rect width="1367.9" height="602" style="fill: #1b1464"/>
  <g id="right-hand">
    <polygon points="167.32 250.49 156.68 239.73 139.12 266.61 143.31 268.66 156.48 247.68 163.47 254.21 167.32 250.49" style="fill: #f15a24"/>
    <path d="M171.85,309.7a15.26,15.26,0,0,1-.72-9.23h0q4.77-16.05,9.52-32.13c.11-.2.23-.41.37-.63a7.93,7.93,0,0,1,2.33-2.43c2.65-1.71,5.54-.89,7-.45a17.18,17.18,0,0,1,9.09,6.34,28.91,28.91,0,0,1,3.9,6.64l.09.21c-1.08,4.8-5.34,23.63-9.66,34.93a11.75,11.75,0,0,1-3.61,5.3c-.39.29-5.78,4.13-12.5-1.16A16.79,16.79,0,0,1,171.85,309.7Z" transform="translate(-1.1 1)" style="fill: #e78279"/>
    <path d="M124.66,284.7a16.18,16.18,0,0,1-1.11-5.07h0a13.7,13.7,0,0,1,.37-4.15q4.75-16.07,9.52-32.14a8.23,8.23,0,0,1,2.7-3.06c2.65-1.71,5.54-.89,7-.45a17.26,17.26,0,0,1,9.1,6.34,29.45,29.45,0,0,1,4,6.84c-.5,2.24-1.68,7.48-3.24,13.6-1.16,4.54-2.53,9.57-4,14.19-.8,2.56-1.63,5-2.46,7.15a11.7,11.7,0,0,1-3.61,5.3c-.39.29-5.77,4.14-12.5-1.15A16.9,16.9,0,0,1,124.66,284.7Z" transform="translate(-1.1 1)" style="fill: #e78279"/>
    <path d="M148.19,295.46c-.95-2.64-.88-5,0-10.06.3-1.69.59-3.23.88-4.61a81.29,81.29,0,0,1,2.16-8.62c.68-2,1.27-3.87,1.8-5.57,4.21-13.54,4.11-16.89,7.82-18.79a10.64,10.64,0,0,1,7.57-.53,15.68,15.68,0,0,1,9.8,6.74,19.45,19.45,0,0,1,3,6.78,13.61,13.61,0,0,1,.13,5.63c-.08.4-.19.83-.29,1.27-1.68,7.17-5.06,20.8-9.16,31.1-.17.44-.41,1-.73,1.66h0a11.23,11.23,0,0,1-3.21,4c-.42.31-6.25,4.46-13.48-1.16A17.57,17.57,0,0,1,148.19,295.46Z" transform="translate(-1.1 1)" style="fill: #e78279"/>
    <path d="M175.06,237.37a51.5,51.5,0,0,1-3.6-6.57c-1.07-2.35-4-8.79-4.33-15.8-.18-4.21.67-6.71,2-10.46a32.63,32.63,0,0,1,5.36-10" transform="translate(-1.1 1)" style="fill: #db7671"/>
    <path d="M90.24,301.29c6.55-21.8,11.06-40.38,14-53.55,5.87-26.18,8.3-43.17,18.5-61.76,6.59-12,11.84-16.31,15.3-18.59a34.52,34.52,0,0,1,4.27-2.38l-.73-.27q6.22-19.43,12.47-38.85c.34.19.68.38,1,.58,0,.12,0,.24-.07.35l59.26,36.78q-4.38,12.18-8.74,24.36h0c3.44,6.22,6.11,13.2,9.16,21.14,5.7,14.9,4.35,16.39,10.15,32.29a187.63,187.63,0,0,0,15.39,33.33,147.76,147.76,0,0,0,13.39,18.93l.27.34a30.79,30.79,0,0,1,.66,4.47c.15,2,.49,6.49-1.23,9.79-2.94,5.63-9.61,3.46-11.5,2.84C235.2,309,230,302.55,227,299c-1.47-1.81-2.81-3.64-12.21-19.06-2.94-4.8-5.36-8.81-7.07-11.65q-2.19,4.75-4.39,9.51a28.91,28.91,0,0,0-3.9-6.64,17.18,17.18,0,0,0-9.09-6.34c-1.48-.44-4.37-1.26-7,.45A7.93,7.93,0,0,0,181,267.7c.1-.44.21-.87.29-1.27a13.61,13.61,0,0,0-.13-5.63,19.45,19.45,0,0,0-3-6.78,15.68,15.68,0,0,0-9.8-6.74,10.64,10.64,0,0,0-7.57.53c-3.71,1.9-3.61,5.25-7.82,18.79,1.56-6.12,2.74-11.36,3.24-13.6a29.45,29.45,0,0,0-4-6.84,17.26,17.26,0,0,0-9.1-6.34c-1.47-.44-4.36-1.26-7,.45a8.23,8.23,0,0,0-2.7,3.06q-4.77,16.06-9.52,32.14a13.7,13.7,0,0,0-.37,4.15h0c-.32,1.05-.65,2.11-1,3.18q-3.51,10.81-7,21.63c-.8,2.75-3.28,9.85-9.63,11.23-2.31.5-6.94,1.5-11.09-3.5C91.62,308.25,90.54,302.92,90.24,301.29Z" transform="translate(-1.1 1)" style="fill: #db7671"/>
    <path d="M235.14,332.39l-18.65-10" transform="translate(-1.1 1)" style="fill: none;stroke: #f15a24;stroke-miterlimit: 10;stroke-width: 5px"/>
    <path d="M206.66,360.4l-12.2-28.63" transform="translate(-1.1 1)" style="fill: none;stroke: #f15a24;stroke-miterlimit: 10;stroke-width: 5px"/>
    <path d="M167.93,364.37q1.8-11.76,3.59-23.52" transform="translate(-1.1 1)" style="fill: none;stroke: #f15a24;stroke-miterlimit: 10;stroke-width: 5px"/>
    <path d="M140.4,117.77q5.28-15.43,10.36-31.48C160,57.05,167.91,28.64,174.68,1.2l108.52-2q-29,85.61-57.93,171.22l-11-6.83L155,126.82c0-.11,0-.23.07-.35-.33-.2-.67-.39-1-.58-2.83-1.65-5.67-3.28-8.51-4.92Z" transform="translate(-1.1 1)"/>
  </g>
  <g id="left-hand">
    <polygon points="1214.19 263.37 1200.67 278.28 1177.52 241.91 1182.88 239.02 1200.26 267.42 1209.15 258.36 1214.19 263.37" style="fill: #f15a24"/>
    <path d="M1330.64,226l.44-.54" transform="translate(-1.1 1)"/>
    <path d="M1218.61,180.06a22.14,22.14,0,0,0-.77,12.64h0q6.44,21.82,12.87,43.69c.14.27.3.55.49.85a10.35,10.35,0,0,0,3,3.27c3.45,2.28,7.16,1.11,9.06.49,2.06-.7,6.86-2.3,11.62-8.84a40.66,40.66,0,0,0,4.9-9.14l.11-.29c-1.47-6.54-7.33-32.17-13.1-47.52a16,16,0,0,0-4.77-7.17c-.5-.39-7.52-5.54-16.09,1.82A22.77,22.77,0,0,0,1218.61,180.06Z" transform="translate(-1.1 1)" style="fill: #e78279"/>
    <path d="M1158.19,215.13a23.15,23.15,0,0,0-1.34,7h0a19.77,19.77,0,0,0,.56,5.66q6.43,21.84,12.87,43.71a11.16,11.16,0,0,0,3.54,4.12c3.46,2.28,7.16,1.11,9.05.48,2.07-.69,6.87-2.3,11.63-8.83a41.1,41.1,0,0,0,5-9.43c-.68-3.05-2.31-10.18-4.43-18.5-1.58-6.19-3.44-13-5.37-19.31-1.08-3.48-2.19-6.79-3.3-9.72a16.1,16.1,0,0,0-4.76-7.17c-.5-.38-7.52-5.54-16.1,1.82A22.82,22.82,0,0,0,1158.19,215.13Z" transform="translate(-1.1 1)" style="fill: #e78279"/>
    <path d="M1188.34,200c-1.18,3.63-1,6.82.15,13.74.41,2.3.82,4.4,1.22,6.28a117.78,117.78,0,0,0,2.94,11.73c.92,2.76,1.72,5.27,2.43,7.58,5.68,18.4,5.62,23,10.45,25.5a13,13,0,0,0,9.77.58,20.25,20.25,0,0,0,12.52-9.4,27.42,27.42,0,0,0,3.71-9.31,19.78,19.78,0,0,0,.07-7.7c-.12-.54-.26-1.12-.4-1.73-2.3-9.76-6.91-28.31-12.39-42.3-.23-.59-.55-1.38-1-2.24h0a14.89,14.89,0,0,0-4.21-5.43c-.54-.43-8.15-6-17.37,1.83A24,24,0,0,0,1188.34,200Z" transform="translate(-1.1 1)" style="fill: #e78279"/>
    <path d="M1224.08,278.79a72.73,72.73,0,0,0-4.52,9c-1.34,3.23-5,12.1-5.29,21.67-.16,5.75,1,9.15,2.71,14.25a45.26,45.26,0,0,0,7.1,13.5" transform="translate(-1.1 1)" style="fill: #db7671"/>
    <path d="M1113.48,193.15c8.85,29.65,15,54.93,19.06,72.86,8.06,35.65,11.51,58.8,25,84,8.71,16.22,15.56,22.05,20.07,25.09a45.79,45.79,0,0,0,5.56,3.18l-.94.37,16.8,52.82,1.29-.81c0-.16-.07-.33-.09-.48L1276,378.78q-5.87-16.56-11.73-33.11l0,0c4.32-8.55,7.64-18.14,11.43-29.05,7.08-20.46,5.31-22.47,12.5-44.3a262.72,262.72,0,0,1,19.24-45.83,203.46,203.46,0,0,1,16.91-26.11l.35-.47a44.49,44.49,0,0,0,.76-6.12c.17-2.7.52-8.88-1.76-13.34-3.9-7.63-12.46-4.54-14.89-3.66-8.44,3-15.09,11.88-18.81,16.8-1.86,2.49-3.55,5-15.4,26.26-3.69,6.61-6.75,12.14-8.89,16-2-4.3-3.89-8.6-5.85-12.89a40.66,40.66,0,0,1-4.9,9.14c-4.76,6.54-9.56,8.14-11.62,8.84-1.9.62-5.61,1.79-9.06-.49a10.35,10.35,0,0,1-3-3.27c.14.61.28,1.19.4,1.73a19.78,19.78,0,0,1-.07,7.7,27.42,27.42,0,0,1-3.71,9.31,20.25,20.25,0,0,1-12.52,9.4,13,13,0,0,1-9.77-.58c-4.83-2.52-4.77-7.1-10.45-25.5,2.12,8.32,3.75,15.45,4.43,18.5a41.1,41.1,0,0,1-5,9.43c-4.76,6.53-9.56,8.14-11.63,8.83-1.89.63-5.59,1.8-9.05-.48a11.16,11.16,0,0,1-3.54-4.12q-6.45-21.86-12.87-43.71a19.77,19.77,0,0,1-.56-5.66h0c-.44-1.43-.87-2.87-1.3-4.33q-4.72-14.7-9.42-29.41c-1.08-3.74-4.4-13.38-12.62-15.14-3-.64-9-1.92-14.25,5C1115.13,183.62,1113.83,190.92,1113.48,193.15Z" transform="translate(-1.1 1)" style="fill: #db7671"/>
    <path d="M1299.84,147.84l-23.88,14" transform="translate(-1.1 1)" style="fill: none;stroke: #f15a24;stroke-miterlimit: 10;stroke-width: 5px"/>
    <path d="M1262.57,110.14l-15.2,39.34" transform="translate(-1.1 1)" style="fill: none;stroke: #f15a24;stroke-miterlimit: 10;stroke-width: 5px"/>
    <path d="M1212.54,105.48q2.52,16,5.06,32.05" transform="translate(-1.1 1)" style="fill: none;stroke: #f15a24;stroke-miterlimit: 10;stroke-width: 5px"/>
    <path d="M1181.58,442.82q7.11,21,14,42.8C1208,525.36,1218.71,564,1228,601.36l140,.59q-38.94-116.36-77.9-232.71L1276,378.78l-75.77,51.39c0,.15.06.32.09.48l-1.29.81c-3.62,2.31-7.25,4.59-10.88,6.89Z" transform="translate(-1.1 1)"/>
  </g>
</svg>
