<svg id="Warstwa_1" data-name="Warstwa 1" xmlns="http://www.w3.org/2000/svg" viewBox="0 0 1366 1001.17">
  <g id="bg">
    <rect width="1366" height="1001.17" style="fill: #0071bc"/>
    <polygon points="179.36 152.83 153.31 292.8 292.5 239.25 179.36 152.83" style="fill: #1b1464"/>
    <polygon points="1228.79 458.68 1207.44 553.84 1308.41 514.99 1228.79 458.68" style="fill: #1b1464"/>
    <polygon points="0 326.71 0.03 428.46 95.48 361.9 0 326.71" style="fill: #1b1464"/>
    <polygon points="1167.11 325.07 1227.1 230.55 1118.72 224.12 1167.11 325.07" style="fill: #ed1c24"/>
    <polygon points="309.82 434.12 221.19 436.53 278.64 517.12 309.82 434.12" style="fill: #ed1c24"/>
    <polygon points="1011.24 236.71 951.36 242.71 986.05 291.37 1011.24 236.71" style="fill: #ed1c24"/>
    <polygon points="1131.4 109.74 1090.14 108.45 1119.17 149.17 1131.4 109.74" style="fill: #fcee21"/>
    <polygon points="396.07 625.58 334.88 673 414.72 700.72 396.07 625.58" style="fill: #f15a24"/>
    <polygon points="199.09 820.28 161.12 887.75 245.46 882.28 199.09 820.28" style="fill: #f15a24"/>
    <polygon points="352.34 914.56 332.32 953.07 377.17 950.17 352.34 914.56" style="fill: #fcee21"/>
    <polygon points="1027.91 834.05 1037.14 948.75 1139.61 861.73 1027.91 834.05" style="fill: #1b1464"/>
    <polygon points="132.55 636.38 71.36 683.8 151.2 711.52 132.55 636.38" style="fill: #fcee21"/>
    <polygon points="1143.43 657.98 1082.24 705.4 1162.08 733.12 1143.43 657.98" style="fill: #ed1c24"/>
    <polygon points="1007.13 484.06 1081.55 392.27 1083.09 510.43 1007.13 484.06" style="fill: #fcee21"/>
    <polygon points="1076.73 406.15 1015.51 481.67 1078 503.37 1076.73 406.15" style="fill: #fcee21"/>
    <polygon points="943.15 434.9 905.24 472.83 949.4 488.16 943.15 434.9" style="fill: #1b1464"/>
  </g>
  <g id="me">
    <path d="M586.15,873.69c58.84,28,119,10.39,134.75,5.47,10.54-3.29,73.72-23.08,98.17-60.65,21.66-33.27-8.6-47.42,6.29-101.94,16.73-61.24,65-80.52,57.88-125.56a147.47,147.47,0,0,0-12-38.85c-11-22.94-23.71-30.11-30.1-66.35-14.68-83.32,39.56-106.75,23.1-180.21-10.23-45.66-44.58-96.44-90.17-112.66s-62.58,16.49-122.66,5c-66.46-12.67-79.13-59.11-120.57-53.23-38.44,5.45-59.12,49.89-84.36,104.11C421,303.78,405,338.16,420.64,369.43c16.4,32.69,54.49,36.19,74.78,85,5.39,12.95,5.92,24.83,6.27,31.19,2.09,38.53-18,49.78-27.33,87-13.74,54.52,9.22,110,18,126,1.5,2.73,9.49,16.94,19.86,37.43,5.41,10.7,8.53,15.88,9.86,20.09,8.75,27.57-.4,39.35,10.8,64.8C546.8,852.51,575.51,868.63,586.15,873.69Z" transform="translate(0.17 -0.83)" style="fill: #1b1464"/>
    <g id="proj-me">
      <g>
        <path d="M734,629.87c-1.24,4.81,0,5.62-.37,12.8s-2,13.09-3.64,19.19c-1.55,5.69-2,5.95-2.54,9.4-.53,3.69-.12,4.51-.37,13-.18,6.43-.44,6.64-.18,9.2.16,1.54.77,4.17,2,9.39,1.06,4.5,1.37,5.64,2,8.6.91,4.24,1.37,6.39,1.34,7.73-.1,4.44-1.88,4.63-2.31,9.2-.5,5.36,2,7,.37,10.13-1.38,2.6-3.87,3.24-3.85,5.33,0,1.79,1.84,2,3.45,4.6,2.56,4.05,2.54,10.64-.09,13.09-1.27,1.19-2.38.7-2.82,1.7a1.86,1.86,0,0,0,0,1.31c-1.46.29-3,.53-4.62.69a54.75,54.75,0,0,1-18.75-1.31c-.12-.31-.24-.6-.35-.89-2.26-5.78-1.48-10-2.54-16.79-1.65-10.51-2.47-15.77-2.92-17.59-2.65-10.83-4.59-10.35-6.54-20a103,103,0,0,1-1.82-18c-.19-8.18.69-8,0-11.6-1.58-8.22-5.88-8.09-9.1-17.59-1.46-4.31-.65-4.54-3.27-14.39-2.49-9.33-3.46-10-4-10-1,0-1.67,2.22-3.27,9.2-3.23,14.12-4.83,21.34-4,28.78.27,2.43.57,3.44.73,6.4.28,5.6-.53,7.91.36,12.4.47,2.39.75,2,1.45,4.8.9,3.57,1.19,7.17.73,16-.22,4.37-.37,4.84-.73,10-1.11,16.1,0,15.06-1.09,20-1.6,7.08-4.17,10.11-2.54,14.39a3.89,3.89,0,0,0,.21.51,32.32,32.32,0,0,1-11.67,2.69A45.6,45.6,0,0,1,641.93,761l.24-.35c-4.44-4-5.81-7.67-6.19-10.39-.43-3.07.41-4.85-.18-9.6a44.09,44.09,0,0,0-1.82-7.5c-.12-.44-1.51-5.62-4.27-16-1.83-6.85-2.75-10.3-2.82-11.3a62.13,62.13,0,0,1,1.18-15.19c.67-3.4,1.09-4.14,1-6.2-.2-4.61-3.12-7.35-4.18-10.09-4.2-10.91-4.26-13.67-7.46-21.2-4.24-10-5.4-8.08-7.82-15.49-1.15-3.5-3.74-11.44-2.64-20.39.14-1.14.22-1.35,1.36-9.1.57-3.83.81-5.55,1.28-8.6s.87-5.53,1.15-7.19a98.74,98.74,0,0,1,12.13.3c9.56.82,14.66,2.68,20.61,4,14,3.1,26.89,1.18,52.64-2.66,11-1.64,12.31-2.38,24.49-4q4.44-.59,8.45-1a5,5,0,0,0,0,.9c1.13,7.54,7.22,9.06,6.55,15.19-.37,3.44-2.41,4.12-2.18,7.8s2.3,4.27,2.73,8C736.6,624.24,735.12,625.63,734,629.87Z" transform="translate(0.17 -0.83)"/>
        <path d="M666.91,764.22c0,3.38-3.55,5.72-5.46,7.2-10.51,8.15-7.54,17.29-17.83,24-2.14,1.39-6.74,4.29-12.37,3.2-1.21-.24-7.88-1.72-9.82-7.6s2.25-11.75,3.28-13.19c2.63-3.72,4.85-4,9.45-8a46,46,0,0,0,7.55-8.52l.22-.33a45.6,45.6,0,0,0,11.34,1.25,32.32,32.32,0,0,0,11.67-2.69C665.79,761.43,666.94,762.28,666.91,764.22Z" transform="translate(0.17 -0.83)"/>
        <path d="M751.36,793.49c-1,4.21-5.21,6.2-7.37,7.2-1.66.78-9.85,4.61-15.91.2-5-3.6-6.57-11.31-7.46-15.59-.77-3.68-.69-6-2.64-8.9-1.66-2.43-3.07-2.68-5.37-5.5a23.86,23.86,0,0,1-3.65-6.41,54.72,54.72,0,0,0,18.75,1.32c1.62-.17,3.16-.41,4.62-.69.43,1.48,2.21,4,6.75,8.68,6.78,7,9.87,8.82,11.65,14C751.84,791.05,751.5,792.89,751.36,793.49Z" transform="translate(0.17 -0.83)"/>
        <path d="M749.78,462.52c-8.93,18-18.58,19.31-18.21,30.59,0,0,.5,17-1.71,26a12,12,0,0,0-.37,2.42c-.2,3.31.72,3.05,1.46,10,.8,7.55-.25,8.27.35,14,1,9.65,4.25,10.06,4,17.19-.1,2.78-.57,2.41-3.28,12.8-1.85,7.16-2.91,11.24-2.95,13.5q-4,.43-8.45,1c-12.18,1.62-13.53,2.36-24.5,4-25.74,3.85-38.62,5.76-52.62,2.66-6-1.31-11.06-3.17-20.62-4a98.82,98.82,0,0,0-12.14-.3l0-.21-4.45-2.29c-.47-1.86-1.11-4.55-1.83-7.8-1-4.66-1.59-7.28-2-10a63,63,0,0,1-.27-17.69A58.42,58.42,0,0,1,605,541.7c1.28-3.66,2.68-6.23,1.82-9.39-.44-1.62-1.22-2.47-1.55-4.7a12.93,12.93,0,0,1,.37-5.3c1.35-5,.75-22.49-2.7-31.73-5-13.34-17.35-13.15-28.46-25.53-7.12-7.93-14.21-21.57-10.63-46,.52-5.4,1.24-12.38,2.28-20.81.71-5.85,1.07-8.34,3.52-10.63,3.36-3.17,8.25-3.68,9.06-7,0,0,.74-3.15,2.37-4a1.51,1.51,0,0,1,.68-.21h0c.69,0,1.42.05,2.22.13h0a28.45,28.45,0,0,1,12.17,4.07,29,29,0,0,1,3.87,2.81h0c.6.5,1.14,1,1.66,1.51a14.87,14.87,0,0,0-.43,2.2,10.81,10.81,0,0,1-.24,1.27,12.29,12.29,0,0,1-.67,2c-1.3,3-2.43,3.18-2.67,5.06-.33,2.6,1.63,3.54,2.67,6.94.61,2,.31,3-.08,5.92-.06.51-.13,1.08-.21,1.73h0c0,.43-.09.9-.13,1.41,0,.26,0,.52-.07.79a83.33,83.33,0,0,0,0,12.26c.09,1.21.1,1,1.21,9.86,1.23,9.62,1.48,11.91,3.4,13.6l.42.34a5.71,5.71,0,0,0,.77.44,9.1,9.1,0,0,1,2.11,1.32l.34.29a2.09,2.09,0,0,0,.22.2c.18.17.34.32.47.47l.26.26.47.54a37.54,37.54,0,0,0,2.71,3.07,15.43,15.43,0,0,0,2.67,2.4c2,1.22,2.88.52,6.3,1.33s3.33,1.68,5.33,1.6c2.39-.09,2.76-1.34,4.85-1.07a5.64,5.64,0,0,1,2.37,1,3.81,3.81,0,0,0,.73.34,2.33,2.33,0,0,0,.47.14,4.19,4.19,0,0,0,.56.13l.35.05h.07a1.51,1.51,0,0,0,.32,0h0a6.11,6.11,0,0,0,.64,0,5.18,5.18,0,0,0,4.66-2.57,53.47,53.47,0,0,0,12.62,4.44,44.34,44.34,0,0,0,17.69.87c.76-.12,1.53-.28,2.32-.46s1.63-.41,2.42-.66,1.55-.5,2.29-.78a39.53,39.53,0,0,0,4.22-1.86,10.22,10.22,0,0,0,1.37.37l.93.18,1.37.21a17.39,17.39,0,0,0,7.4-.4c5.41-1.5,6.64-4.66,9.95-3.87a9,9,0,0,1,1.3.46c.27.11.52.23.76.32l.53.18a1.66,1.66,0,0,0,1.1-.06l.2-.09.19-.14c.88-.72.8-2.08,2-2.8a1.62,1.62,0,0,1,.53-.21,1.21,1.21,0,0,1,.38-.06l.36,0,.55.09a3.89,3.89,0,0,0,1.09,0c3.42-.46,5.37-5.84,5.58-6.4.08-.23.15-.45.22-.68s.11-.44.17-.66.13-.62.17-.91a2.36,2.36,0,0,0,.07-.44,13.16,13.16,0,0,0,.1-2.06,1.62,1.62,0,0,1,0-.18,37.92,37.92,0,0,1,1.43-10.68c.83-2.83,0-3.14-1-21.34A134.38,134.38,0,0,0,718,396a17,17,0,0,0-2.6-6.62l-.13-.18c-.39-.53-.78-1-1.16-1.44-.19-.21-.37-.42-.56-.62-.56-.58-1.09-1.1-1.64-1.57-.36-.32-.72-.62-1.08-.91l1.74-.88,18.6-9.48,1.08-.55c.94.92,2.24,2.24,4.31,4.26,3.87,3.81,6.81,6.52,7.09,6.79,4,3.78,12.64,18.23,13.69,38.67A76.77,76.77,0,0,1,749.78,462.52Z" transform="translate(0.17 -0.83)" style="fill: #0071bc"/>
      </g>
      <path d="M690,429.54c-.19.78-1.71,7-5,7.46-1.43.23-2-.79-3.16-.26-.68.33-1.37,1.17-2.06,4.8a57.25,57.25,0,0,0-.73,8.93c-.23,5.44-.37,5.9.13,6.8a5.59,5.59,0,0,0,3.47,2.57,38.66,38.66,0,0,1-4.22,1.86c-.74.28-1.51.54-2.29.78s-1.59.46-2.42.65-1.56.34-2.32.47a44.34,44.34,0,0,1-17.69-.87,53.47,53.47,0,0,1-12.62-4.44,12.05,12.05,0,0,0,1.22-2.89c2.18-7.13-3.93-17.53-4.62-18.66a5.63,5.63,0,0,1-5.09-.53,6.31,6.31,0,0,1-2.67-5.6c.19-1.5,1-1.46,1.7-3.73.82-2.5.53-4.47,1-4.54s.94,2.07,1.21,2,.06-.86-.07-2.16c1.48,1.75,3.18,3.29,4.2,2.75s1.55-3.54,1-5.84c-.43-1.68-1.5-2.81-1.08-3.62s1.9-.16,2.42-1c.61-1-1.13-2.63-1-4.53s2.16-3.25,4.1-4.32c4.3-2.38,8.27-4.57,14.52-4.72,2.75-.07,6,.71,12.47,2.31,5.82,1.42,7.38,2.26,8.83,3.62.37.35,4.9,4.73,4.1,9.05C683,417.51,682.13,418,682,420s.55,4.39,1.7,4.82c.83.32,2-.45,3.24-2a.73.73,0,0,0,.21.47c.61.61,1.69-.44,2.55.13C691.2,424.4,690.11,429,690,429.54Z" transform="translate(0.17 -0.83)" style="fill: #e6ab91"/>
      <path d="M687.28,419.81a22.61,22.61,0,0,1-.52,2.7,5.77,5.77,0,0,0-.3,1.72c-1.25,1.66-2.4,2.46-3.24,2.13-1.15-.46-1.78-3.07-1.69-5.08s.94-2.63,1.25-4.35c.8-4.54-3.73-9.16-4.1-9.53a7,7,0,0,0-1.13-1c-2.59-1.74-6-1.39-7.68-1.3-6,.36-5.39-1.48-13.29-1.57-4.47-.06-9.42-.06-13.72,2.56-1.48.9-3.93,2.4-4.09,4.55-.15,2,1.59,3.69,1,4.77-.52.89-2,.17-2.42,1.06s.66,2.05,1.08,3.82c.57,2.41.07,5.53-1,6.14s-2.72-1.05-4.2-2.89a28.73,28.73,0,0,1,0-7.49,21.3,21.3,0,0,1,4.61-10,23.7,23.7,0,0,1,8.79-6.95A31.06,31.06,0,0,1,660.47,396c5.25,0,8.82,1.33,14.19,3.36,9.42,3.55,10.6,6.63,10.91,7.72a5.22,5.22,0,0,1,.19,1.54c0,.48.09,1.26.3,2.81C686.61,415.38,687.77,417.27,687.28,419.81Z" transform="translate(0.17 -0.83)" style="fill: #392e28"/>
    </g>
    <g id="laptop">
      <polygon points="771 264.5 770.12 364.64 700.51 365.37 555.84 366.33 556.71 267.85 771 264.5" style="fill: #e6e6e6;stroke: #000;stroke-miterlimit: 10;stroke-width: 3px"/>
      <g>
        <path d="M781.9,262l-2.32,103,0,.75-79.19.53,69.6-.72.88-100.15-214.29,3.36-.87,98.48-39.18.26a1,1,0,0,1,.15-.45c.57-.81,2.27.17,2.27.17l27.45-.56s1.33-100.7,1.77-108,.89-5.6.89-5.6l3.54.56s213-.56,221.37-.56S781.9,262,781.9,262Z" transform="translate(0.17 -0.83)"/>
        <path d="M779.54,365.68a20.48,20.48,0,0,1-3.61,10.57,13.13,13.13,0,0,1-8,5.41h0l-8.38.12h0c-25.11.31-56.87.7-88.31,1.11l-4.6.06-40.22.49s0,0,0,0l-3.69,0-1.57,0-2.6,0-4.12.05-2,0-4,0-5.89.07-3.83.05-21.57.27-2.7,0-3.44,0-2.55,0c-4.85.06-9.17.12-12.88.15-8.7.12-13.92.18-14.4.18-2.11,0-6.85-1.18-10.37-2.14-.06-.24-.09-.46-.14-.66l-13.28-9.23c-.34-1.54-.55-2.84-.67-3.77a6.05,6.05,0,0,1-.1-1.27l39.18-.26v.55l144.69-1.52Z" transform="translate(0.17 -0.83)"/>
      </g>
    </g>
  </g>
  <g id="button">
    <rect x="614.29" y="300.75" width="95.88" height="37.96" style="fill: #f15a24;stroke: #fff;stroke-miterlimit: 10;stroke-width: 2px"/>
    <g>
      <line x1="687.66" y1="319.19" x2="704.54" y2="319.41" style="fill: #fff"/>
      <g>
        <line x1="687.66" y1="319.19" x2="696.07" y2="319.3" style="fill: none;stroke: #fff;stroke-miterlimit: 10;stroke-width: 4px"/>
        <polygon points="704.54 319.41 692.53 324.13 695.43 319.29 692.66 314.38 704.54 319.41" style="fill: #fff"/>
      </g>
    </g>
    <text transform="translate(625.5 327.78) scale(0.4 1)" style="font-size: 25.28260040283203px;fill: #fff;font-family: Poppins-ExtraBold, Poppins;font-weight: 800"><tspan xml:space="preserve"> Projects</tspan></text>
  </g>
</svg>
