<svg id="Warstwa_1" data-name="Warstwa 1" xmlns="http://www.w3.org/2000/svg" viewBox="0 0 242.68 410.59">
  <polygon points="98.23 281.11 84.89 269 62.81 299.19 68.06 301.5 84.63 277.93 93.4 285.28 98.23 281.11" style="fill: #f15a24"/>
  <path d="M257.79,348.59a15.44,15.44,0,0,1-.9-10.38h0q6-18,12-36.09c.14-.22.29-.46.47-.71a9.21,9.21,0,0,1,2.92-2.72c3.34-1.92,7-1,8.81-.51a22,22,0,0,1,11.42,7.13,32,32,0,0,1,4.88,7.47l.12.23c-1.36,5.4-6.75,26.55-12.18,39.24a13.1,13.1,0,0,1-4.55,5.95c-.48.32-7.25,4.64-15.68-1.3A19.49,19.49,0,0,1,257.79,348.59Z" transform="translate(-155.32 0.17)" style="fill: #e78279"/>
  <path d="M198.57,320.46a16.3,16.3,0,0,1-1.39-5.7h0a13.85,13.85,0,0,1,.48-4.66q6-18,12-36.1a9.56,9.56,0,0,1,3.4-3.43c3.33-1.92,6.95-1,8.8-.51a22,22,0,0,1,11.42,7.13,32.63,32.63,0,0,1,5,7.69c-.63,2.52-2.13,8.41-4.09,15.27-1.46,5.11-3.19,10.76-5,15.95-1,2.87-2.05,5.6-3.09,8a13.22,13.22,0,0,1-4.55,5.95c-.48.32-7.25,4.64-15.69-1.31A19.41,19.41,0,0,1,198.57,320.46Z" transform="translate(-155.32 0.17)" style="fill: #e78279"/>
  <path d="M228.09,332.56c-1.19-3-1.1-5.59,0-11.3.37-1.89.74-3.62,1.11-5.17a85.2,85.2,0,0,1,2.72-9.69c.86-2.28,1.6-4.35,2.27-6.26,5.31-15.2,5.18-19,9.85-21.1a14.85,14.85,0,0,1,9.5-.59c2.91.72,8.12,2,12.3,7.58a20.83,20.83,0,0,1,3.73,7.62,13.72,13.72,0,0,1,.16,6.33c-.11.45-.24.93-.36,1.42-2.12,8.06-6.38,23.37-11.55,34.94a20.32,20.32,0,0,1-.91,1.86h0a12.75,12.75,0,0,1-4,4.51c-.52.36-7.86,5-16.93-1.3C234,340.1,230,337.3,228.09,332.56Z" transform="translate(-155.32 0.17)" style="fill: #e78279"/>
  <path d="M261.91,267.33A56.93,56.93,0,0,1,257.4,260c-1.35-2.65-5-9.89-5.42-17.76-.22-4.73.86-7.55,2.46-11.75a35.41,35.41,0,0,1,6.75-11.19" transform="translate(-155.32 0.17)" style="fill: #db7671"/>
  <path d="M155.32,339.07c8.25-24.49,13.93-45.36,17.66-60.15,7.41-29.42,10.48-48.49,23.32-69.37,8.27-13.44,14.88-18.32,19.22-20.87a44,44,0,0,1,5.37-2.68l-.92-.3,15.71-43.64,1.27.65a2.88,2.88,0,0,0-.09.4l74.37,41.36-11,27.37-.05,0c4.31,7,7.65,14.84,11.48,23.77,7.14,16.74,5.44,18.41,12.7,36.28a200.06,200.06,0,0,0,19.29,37.46,168.65,168.65,0,0,0,16.78,21.28l.35.38a33.87,33.87,0,0,1,.81,5c.19,2.22.61,7.29-1.55,11-3.7,6.32-12.07,3.88-14.44,3.18-8.26-2.39-14.84-9.59-18.51-13.59-1.85-2-3.52-4.08-15.31-21.41-3.68-5.4-6.72-9.91-8.86-13.1q-2.76,5.34-5.53,10.68a32,32,0,0,0-4.88-7.47,22,22,0,0,0-11.42-7.13c-1.85-.49-5.47-1.41-8.81.51a9.21,9.21,0,0,0-2.92,2.72c.12-.49.25-1,.36-1.42a13.72,13.72,0,0,0-.16-6.33,20.83,20.83,0,0,0-3.73-7.62c-4.18-5.58-9.39-6.86-12.3-7.58a14.85,14.85,0,0,0-9.5.59c-4.67,2.13-4.54,5.9-9.85,21.1,2-6.86,3.46-12.75,4.09-15.27a32.63,32.63,0,0,0-5-7.69,22,22,0,0,0-11.42-7.13c-1.85-.5-5.47-1.41-8.8.51a9.56,9.56,0,0,0-3.4,3.43q-6,18-12,36.1a13.85,13.85,0,0,0-.48,4.66h0c-.41,1.18-.82,2.37-1.22,3.57q-4.41,12.15-8.8,24.3c-1,3.09-4.13,11.06-12.1,12.61-2.91.55-8.72,1.68-13.93-3.94C157,346.89,155.69,340.9,155.32,339.07Z" transform="translate(-155.32 0.17)" style="fill: #db7671"/>
  <path d="M337.24,374.13l-23.41-11.21" transform="translate(-155.32 0.17)" style="fill: none;stroke: #f15a24;stroke-miterlimit: 10;stroke-width: 5px"/>
  <path d="M301.43,405.58,286.16,373.4" transform="translate(-155.32 0.17)" style="fill: none;stroke: #f15a24;stroke-miterlimit: 10;stroke-width: 5px"/>
  <path d="M252.8,410l4.53-26.41" transform="translate(-155.32 0.17)" style="fill: none;stroke: #f15a24;stroke-miterlimit: 10;stroke-width: 5px"/>
  <path d="M218.54,132.92q6.66-17.32,13.05-35.36C243.23,64.73,253.19,32.8,261.73,2L398-.17Q361.54,96,325,192.16l-13.81-7.69-74.37-41.36a2.88,2.88,0,0,1,.09-.4l-1.27-.65c-3.56-1.86-7.11-3.69-10.67-5.54Z" transform="translate(-155.32 0.17)"/>
</svg>
