<svg id="Warstwa_1" data-name="Warstwa 1" xmlns="http://www.w3.org/2000/svg" viewBox="0 0 312.35 556.52">
  <g id="contact-signs">
    <path d="M85.73,260.35,115,276" transform="translate(-2.08 -212.48)" style="fill: none;stroke: #f15a24;stroke-miterlimit: 10;stroke-width: 5px"/>
    <path d="M131.46,218.12l18.66,44.07" transform="translate(-2.08 -212.48)" style="fill: none;stroke: #f15a24;stroke-miterlimit: 10;stroke-width: 5px"/>
    <path d="M192.87,212.9q-3.1,18-6.22,35.9" transform="translate(-2.08 -212.48)" style="fill: none;stroke: #f15a24;stroke-miterlimit: 10;stroke-width: 5px"/>
  </g>
  <g id="contact-hand">
    <g id="hand">
      <path d="M314.44,311.1C303.58,344.31,296,372.63,291,392.72c-9.89,39.93-14.12,65.85-30.7,94.07-10.69,18.16-19.1,24.69-24.63,28.1a57.17,57.17,0,0,1-6.82,3.56l1.15.42L209.42,578l-1.59-.9a5.41,5.41,0,0,0,.12-.55L115,519l14.4-37.09,0,0c-5.3-9.59-9.37-20.33-14-32.55-8.69-22.91-6.52-25.17-15.34-49.62-4.18-11.6-11-30.32-23.61-51.33a228.46,228.46,0,0,0-20.76-29.25c-.15-.18-.3-.35-.43-.52a48.5,48.5,0,0,1-.94-6.86c-.2-3-.63-9.94,2.17-14.94,4.78-8.55,15.29-5.09,18.27-4.1,10.36,3.4,18.53,13.31,23.08,18.81,2.3,2.79,4.36,5.62,18.9,29.42,4.54,7.41,8.29,13.6,10.92,18q3.6-7.23,7.17-14.45a44.51,44.51,0,0,0,6,10.25c5.84,7.32,11.74,9.11,14.26,9.89,2.33.71,6.88,2,11.12-.54A12.12,12.12,0,0,0,170,360.5c-.16.68-.34,1.33-.49,1.93a20.16,20.16,0,0,0,.09,8.63,29.44,29.44,0,0,0,4.55,10.43c5.17,7.67,11.72,9.5,15.37,10.53,1.77.49,6.94,1.76,12-.65,5.93-2.83,5.84-8,12.82-28.57-2.61,9.32-4.6,17.31-5.44,20.73A44.59,44.59,0,0,0,215,394.09c5.85,7.31,11.73,9.11,14.27,9.89,2.32.71,6.87,2,11.11-.54a12.7,12.7,0,0,0,4.34-4.62q7.92-24.46,15.8-48.95a20.49,20.49,0,0,0,.69-6.34v0q.81-2.4,1.6-4.84,5.79-16.47,11.55-32.95c1.33-4.18,5.41-15,15.5-17,3.67-.71,11-2.15,17.49,5.6C312.41,300.43,314,308.6,314.44,311.1Z" transform="translate(-2.08 -212.48)" style="fill: #db7671"/>
      <path d="M185.41,296.44a22.57,22.57,0,0,1,.94,14.15v0q-7.91,24.43-15.8,48.94c-.17.29-.37.61-.6.95a12.12,12.12,0,0,1-3.74,3.66c-4.24,2.56-8.79,1.25-11.12.54-2.52-.78-8.42-2.57-14.26-9.89a44.51,44.51,0,0,1-6-10.25l-.13-.32c1.81-7.32,9-36,16.08-53.23a17.86,17.86,0,0,1,5.85-8c.61-.44,9.23-6.21,19.75,2A25.8,25.8,0,0,1,185.41,296.44Z" transform="translate(-2.08 -212.48)" style="fill: #e78279"/>
      <path d="M259.56,335.72a24,24,0,0,1,1.65,7.79v0a20.49,20.49,0,0,1-.69,6.34q-7.89,24.47-15.8,48.95a12.7,12.7,0,0,1-4.34,4.62c-4.24,2.56-8.79,1.25-11.11.54-2.54-.78-8.42-2.58-14.27-9.89a44.59,44.59,0,0,1-6.14-10.56c.84-3.42,2.83-11.41,5.44-20.73,1.94-6.93,4.22-14.59,6.59-21.63,1.33-3.89,2.69-7.6,4.05-10.88a17.87,17.87,0,0,1,5.85-8c.61-.43,9.23-6.2,19.75,2A25.86,25.86,0,0,1,259.56,335.72Z" transform="translate(-2.08 -212.48)" style="fill: #e78279"/>
      <path d="M222.56,318.76c1.45,4.06,1.28,7.64-.19,15.39-.5,2.57-1,4.92-1.49,7a123.54,123.54,0,0,1-3.61,13.15c-1.13,3.09-2.1,5.89-3,8.48-7,20.61-6.89,25.74-12.82,28.57-5.05,2.41-10.22,1.14-12,.65-3.65-1-10.2-2.86-15.37-10.53a29.44,29.44,0,0,1-4.55-10.43,20.16,20.16,0,0,1-.09-8.63c.15-.6.33-1.25.49-1.93,2.82-10.94,8.49-31.71,15.21-47.38.28-.66.67-1.54,1.19-2.51v0a17.21,17.21,0,0,1,5.17-6.08c.67-.47,10-6.69,21.33,2.06C215.21,308.39,220.25,312.27,222.56,318.76Z" transform="translate(-2.08 -212.48)" style="fill: #e78279"/>
    </g>
    <path d="M230.86,590.76q-8.72,23.49-17.13,47.93c-15.28,44.52-28.44,87.82-39.79,129.64L2.08,769Q49.89,638.67,97.69,508.34L115,519l93,57.55a5.41,5.41,0,0,1-.12.55l1.59.9c4.45,2.59,8.89,5.14,13.35,7.72Z" transform="translate(-2.08 -212.48)"/>
  </g>
</svg>
