<svg id="gears" xmlns="http://www.w3.org/2000/svg" viewBox="0 0 319.92 203.76">
  <path id="gear-5" d="M735.12,323.81l-.76,9.83,8.12,1.71c0,.26-.05.53-.07.8a55.17,55.17,0,0,0-.09,7.38l-7.67,8,4.56,7.5,5.2-2.76a58.94,58.94,0,0,0,2.66,7.39q-3.29,3.44-6.59,6.86L745,378l7.86-4.17a52.86,52.86,0,0,0,6.19,7.13l-4.66,8.64,7.78,4.53,4.9-6.93a45,45,0,0,0,7.17,3.62c-.12,3.48-.24,7-.35,10.44l8.64,1.91c.66-3.22,1.31-6.45,2-9.67a41.4,41.4,0,0,0,8.22.28q1.37,4.92,2.71,9.84l8-.93-.33-11a41.09,41.09,0,0,0,7.09-3.21c1.66,2.77,3.31,5.56,5,8.33l6.81-4.52q-2.29-4.49-4.58-9a45.23,45.23,0,0,0,5.39-5.66l9.76,4.48,3.55-7.38-7.6-6.1a50.81,50.81,0,0,0,3.31-8.61l10.31,1.16.82-8.45-9.07-5.26a57.29,57.29,0,0,0-.13-7.65,53.18,53.18,0,0,0,5.88-1.1c1.25-.31,2.47-.65,3.65-1-.28-2.89-.55-5.79-.83-8.68l-10.62.15a56.82,56.82,0,0,0-3.23-8.75l8-6.27-4.21-7.79-9,5.16a51,51,0,0,0-4.62-5.59q1.53-5.16,3-10.32-3.35-2.72-6.71-5.41-2.61,4.17-5.23,8.3a45.09,45.09,0,0,0-7.41-3.89c.32-3.28.63-6.55,1-9.82l-9.05-3-1.14,10.14-1.23-.2a40.81,40.81,0,0,0-7.77-.36c-.55-3.18-1.09-6.35-1.64-9.53l-8.31.2c.11,3.65.21,7.31.32,11a41.05,41.05,0,0,0-7.78,3.23l-5.22-8.78-6.38,5.27,4.47,8.35a45.77,45.77,0,0,0-6.73,7l-8.14-5.13c-1.33,2.22-2.67,4.43-4,6.64,2.22,2.45,4.43,4.91,6.65,7.35a51.76,51.76,0,0,0-3,7.94Zm55.69-8.94c13.34,1.88,23.23,15.54,22.08,30.53S800,371,786.63,369.11s-23.24-15.54-22.08-30.53S777.46,313,790.81,314.87Z" transform="translate(-523.4 -281.79)" style="opacity: 0.6000000000000001"/>
  <path id="gear-4" d="M524.16,405.75l-.76,9.83,8.12,1.71c0,.26,0,.54-.07.8a55.21,55.21,0,0,0-.09,7.38l-7.68,8,4.57,7.49,5.2-2.76a58.08,58.08,0,0,0,2.66,7.4l-6.59,6.85,4.56,7.5,7.86-4.16a52.77,52.77,0,0,0,6.19,7.12c-1.55,2.89-3.11,5.76-4.66,8.65l7.77,4.52c1.64-2.31,3.28-4.61,4.91-6.92a45.45,45.45,0,0,0,7.17,3.62c-.12,3.47-.24,7-.35,10.44l8.64,1.9c.66-3.22,1.31-6.45,2-9.67a40.64,40.64,0,0,0,8.22.28q1.35,4.92,2.71,9.84l8-.93-.33-11a40.35,40.35,0,0,0,7.09-3.21q2.48,4.17,5,8.34l6.81-4.53-4.59-9a45.36,45.36,0,0,0,5.4-5.67l9.76,4.48,3.55-7.38-7.6-6.1a51.67,51.67,0,0,0,3.31-8.61l10.31,1.16.82-8.45L623,429.41a57.11,57.11,0,0,0-.13-7.64,51.06,51.06,0,0,0,5.88-1.11c1.25-.3,2.47-.65,3.65-1-.28-2.9-.55-5.79-.83-8.69l-10.62.15a57.21,57.21,0,0,0-3.23-8.75c2.68-2.08,5.35-4.18,8-6.27l-4.2-7.79-9,5.16a50.87,50.87,0,0,0-4.62-5.58q1.53-5.17,3-10.33l-6.71-5.4q-2.61,4.16-5.23,8.29a45.09,45.09,0,0,0-7.41-3.89c.32-3.28.63-6.54,1-9.82l-9-3c-.39,3.38-.76,6.76-1.14,10.14-.41-.07-.82-.14-1.23-.19a41.66,41.66,0,0,0-7.77-.37c-.55-3.18-1.09-6.35-1.64-9.53l-8.31.2c.11,3.65.21,7.31.32,11a40.38,40.38,0,0,0-7.78,3.22l-5.23-8.78-6.37,5.27,4.47,8.35a46.24,46.24,0,0,0-6.73,7l-8.14-5.12q-2,3.31-4,6.63l6.64,7.35a52.78,52.78,0,0,0-3,7.94Zm55.69-8.94c13.34,1.88,23.23,15.55,22.08,30.53s-12.92,25.6-26.26,23.72-23.24-15.55-22.08-30.53S566.5,394.93,579.85,396.81Z" transform="translate(-523.4 -281.79)" style="opacity: 0.6000000000000001"/>
  <path id="gear-3" d="M668.69,381.48l-.12,6.91,5.7.77c0,.19,0,.38,0,.56a40.25,40.25,0,0,0,.24,5.17l-5,6,3.48,5,3.51-2.2a38,38,0,0,0,2.15,5l-4.3,5.13,3.48,5,5.29-3.31a36.77,36.77,0,0,0,4.59,4.66l-2.88,6.28,5.59,2.76,3.12-5.1a30.31,30.31,0,0,0,5.13,2.16c.07,2.44.12,4.88.19,7.32l6.08.88c.33-2.28.65-4.57,1-6.86a28.57,28.57,0,0,0,5.72-.22c.76,2.24,1.53,4.48,2.29,6.73l5.54-1.06q-.35-3.84-.68-7.68a28.6,28.6,0,0,0,4.8-2.61l3.79,5.57,4.55-3.51c-1.18-2-2.37-4-3.55-6a32.14,32.14,0,0,0,3.51-4.24l7,2.63q1.08-2.67,2.17-5.34L735.47,408a36.77,36.77,0,0,0,1.95-6.18c2.41.08,4.81.18,7.21.27l.23-5.95-6.52-3.2a40.92,40.92,0,0,0-.41-5.34A34.86,34.86,0,0,0,742,386.5c.85-.28,1.68-.58,2.49-.91l-.93-6-7.38.65a39,39,0,0,0-2.6-5.94c1.77-1.6,3.55-3.21,5.33-4.8l-3.25-5.23-6.07,4.07a35.17,35.17,0,0,0-3.44-3.66c.57-2.46,1.13-4.91,1.69-7.37l-4.89-3.43q-1.63,3-3.29,6.07a31.38,31.38,0,0,0-5.31-2.34c.09-2.31.17-4.61.26-6.91l-6.42-1.62c-.12,2.38-.25,4.76-.37,7.14l-.87-.07a28.6,28.6,0,0,0-5.41.15L700,349.7l-5.77.57q.35,3.83.67,7.64a29.59,29.59,0,0,0-5.27,2.66l-4-5.87-4.22,4,3.45,5.6a32.55,32.55,0,0,0-4.39,5.21l-5.87-3.16-2.51,4.84L677,376a37.82,37.82,0,0,0-1.79,5.7ZM707,372.36c9.35.62,16.78,9.66,16.6,20.19s-7.93,18.55-17.28,17.92-16.79-9.66-16.6-20.19S697.67,371.73,707,372.36Z" transform="translate(-523.4 -281.79)" style="opacity: 0.6000000000000001"/>
  <path id="gear-2" d="M581.37,322.86l-.13,6.91,5.71.78c0,.18,0,.37,0,.56a38.29,38.29,0,0,0,.24,5.16l-5,6,3.48,5,3.51-2.2a37.47,37.47,0,0,0,2.15,5c-1.44,1.71-2.87,3.43-4.31,5.13l3.48,5,5.3-3.32a36.11,36.11,0,0,0,4.59,4.66c-1,2.1-1.93,4.19-2.89,6.28l5.59,2.76,3.13-5.09a30.79,30.79,0,0,0,5.13,2.16l.18,7.31,6.09.89c.32-2.29.65-4.58,1-6.86a28.64,28.64,0,0,0,5.73-.23l2.28,6.73,5.55-1.06q-.35-3.84-.68-7.68a29.19,29.19,0,0,0,4.79-2.6l3.8,5.56,4.55-3.51-3.56-6a32.73,32.73,0,0,0,3.52-4.24l7,2.62,2.16-5.34-5.53-3.87a36.77,36.77,0,0,0,2-6.18l7.21.28.22-5.95L651,334.29a39,39,0,0,0-.4-5.33,37.57,37.57,0,0,0,4-1.08c.86-.27,1.69-.58,2.5-.9l-.93-6-7.38.65a38.47,38.47,0,0,0-2.61-5.94l5.33-4.8-3.24-5.23-6.07,4.08a35.17,35.17,0,0,0-3.44-3.66c.56-2.46,1.13-4.92,1.69-7.38l-4.89-3.43-3.29,6.07A30.56,30.56,0,0,0,627,299c.08-2.31.17-4.61.26-6.92l-6.42-1.62q-.2,3.57-.37,7.14l-.87-.07a28.6,28.6,0,0,0-5.41.15l-1.53-6.57-5.77.56c.22,2.55.45,5.1.67,7.65A28.89,28.89,0,0,0,602.3,302c-1.33-1.95-2.67-3.9-4-5.86l-4.21,4,3.45,5.6a32.54,32.54,0,0,0-4.39,5.22l-5.87-3.17-2.51,4.85,4.92,4.79a36.5,36.5,0,0,0-1.79,5.71Zm38.33-9.12c9.36.63,16.79,9.66,16.6,20.19s-7.92,18.55-17.28,17.93-16.78-9.66-16.59-20.19S610.35,313.11,619.7,313.74Z" transform="translate(-523.4 -281.79)" style="opacity: 0.6000000000000001"/>
  <path id="gear-1" d="M659.48,317.65,659.4,322l3.6.49c0,.11,0,.23,0,.35a25,25,0,0,0,.15,3.25c-1,1.25-2.1,2.51-3.16,3.76l2.2,3.15,2.2-1.38a24.65,24.65,0,0,0,1.36,3.16L663,338l2.19,3.15,3.33-2.09a21.71,21.71,0,0,0,2.9,2.93c-.61,1.32-1.22,2.64-1.82,4l3.52,1.74,2-3.21a18.71,18.71,0,0,0,3.23,1.36l.12,4.61,3.83.55c.2-1.43.41-2.88.61-4.32a17.3,17.3,0,0,0,3.61-.14L688,350.8l3.49-.67c-.14-1.61-.29-3.22-.43-4.83a17.34,17.34,0,0,0,3-1.65l2.39,3.51L699.3,345l-2.24-3.8a21.25,21.25,0,0,0,2.22-2.67l4.38,1.65,1.37-3.36-3.49-2.44a22.6,22.6,0,0,0,1.23-3.89l4.54.17.14-3.75-4.1-2a24.83,24.83,0,0,0-.26-3.36,23.11,23.11,0,0,0,2.55-.68c.54-.18,1.06-.37,1.57-.57-.2-1.27-.39-2.53-.59-3.8l-4.64.41a25.06,25.06,0,0,0-1.64-3.74l3.35-3-2-3.3-3.83,2.57a21.54,21.54,0,0,0-2.16-2.31c.35-1.55.71-3.09,1.06-4.64l-3.07-2.16-2.08,3.82a19.47,19.47,0,0,0-3.34-1.47c0-1.45.1-2.9.16-4.36l-4-1-.24,4.5-.54,0a17.57,17.57,0,0,0-3.41.09c-.32-1.38-.65-2.76-1-4.14l-3.63.36.42,4.81a18.81,18.81,0,0,0-3.32,1.68l-2.51-3.7-2.66,2.53,2.17,3.53a20.32,20.32,0,0,0-2.76,3.28l-3.7-2-1.58,3.05,3.1,3a24.6,24.6,0,0,0-1.13,3.59Zm24.15-5.75c5.89.39,10.57,6.09,10.45,12.72s-5,11.68-10.88,11.29-10.58-6.09-10.46-12.72S677.73,311.51,683.63,311.9Z" transform="translate(-523.4 -281.79)" style="opacity: 0.6000000000000001"/>
</svg>
