<svg id="Warstwa_1" data-name="Warstwa 1" xmlns="http://www.w3.org/2000/svg" viewBox="0 0 590.61 709.07">
  <path d="M507.76,504.68c1.49,48.52,2.23,72.78,8.64,90.72,31.87,89.27,149,158.21,259.2,140.4,77.8-12.57,126.06-64.15,140.4-79.92,16.42-18.06,53.4-58.72,58.32-116.64,4.41-51.95-22.54-65.24-28.08-112.32-13.57-115.38,113.74-170.41,97.2-250.56C1030.58,114.05,941.27,83,870.64,61.88,711.58,14.4,492.19,13.34,458.08,98.6c-21.24,53.08,54.05,77.57,60.48,203C521.81,365.07,504.35,393.56,507.76,504.68Z" transform="translate(-454.32 -29.55)" style="fill: #1b1464"/>
  <g id="projects-me">
    <path d="M807.52,500c-1.23,4.81,0,5.62-.36,12.79s-2,13.1-3.64,19.2c-1.55,5.69-2,5.95-2.55,9.39-.53,3.7-.12,4.51-.36,13-.19,6.43-.45,6.64-.18,9.2.16,1.53.77,4.17,2,9.39,1.05,4.5,1.36,5.64,2,8.6.91,4.24,1.36,6.39,1.33,7.73-.1,4.44-1.87,4.63-2.3,9.2-.51,5.36,2,7,.36,10.13-1.37,2.6-3.86,3.24-3.85,5.33,0,1.79,1.84,2.05,3.46,4.6,2.56,4,2.54,10.64-.09,13.09-1.27,1.18-2.38.7-2.82,1.7a1.76,1.76,0,0,0,0,1.31c-1.46.28-3,.52-4.62.69A54.53,54.53,0,0,1,777.12,634c-.12-.3-.23-.6-.34-.88-2.26-5.79-1.48-10-2.55-16.79-1.64-10.52-2.46-15.77-2.91-17.6-2.66-10.83-4.6-10.34-6.55-20a105.15,105.15,0,0,1-1.82-18c-.18-8.18.7-8,0-11.6-1.58-8.22-5.88-8.1-9.1-17.59-1.46-4.31-.64-4.54-3.27-14.4-2.49-9.32-3.46-10-4-10-1,0-1.68,2.22-3.28,9.19-3.23,14.13-4.82,21.35-4,28.79.27,2.42.58,3.44.73,6.4.28,5.6-.53,7.9.36,12.4.48,2.38.76,2,1.46,4.79.89,3.58,1.19,7.18.73,16-.23,4.36-.37,4.84-.73,10-1.12,16.1,0,15.07-1.09,20-1.61,7.08-4.18,10.11-2.55,14.39l.21.51a32.22,32.22,0,0,1-11.67,2.69,45.93,45.93,0,0,1-11.33-1.25c.08-.12.16-.23.23-.35-4.43-4-5.8-7.67-6.18-10.39-.43-3.07.4-4.85-.18-9.6a44.09,44.09,0,0,0-1.82-7.5c-.13-.44-1.51-5.62-4.28-16-1.83-6.86-2.74-10.3-2.82-11.3a62.13,62.13,0,0,1,1.18-15.19c.67-3.4,1.1-4.14,1-6.2-.21-4.62-3.13-7.35-4.19-10.1-4.2-10.9-4.26-13.66-7.46-21.19-4.24-10-5.4-8.08-7.82-15.49-1.14-3.5-3.73-11.44-2.64-20.4.14-1.13.22-1.35,1.37-9.09.56-3.83.8-5.56,1.27-8.6s.87-5.53,1.15-7.19a98.58,98.58,0,0,1,12.13.29c9.57.83,14.66,2.69,20.62,4,14,3.1,26.88,1.18,52.63-2.66,11-1.64,12.31-2.39,24.5-4,3-.4,5.77-.74,8.44-1a4.86,4.86,0,0,0,.05.89c1.12,7.55,7.21,9.07,6.55,15.2-.38,3.44-2.41,4.11-2.19,7.8s2.31,4.27,2.73,8C810.09,494.34,808.61,495.73,807.52,500Z" transform="translate(-454.32 -29.55)" style="fill: #fff"/>
    <path d="M740.39,634.32c0,3.38-3.55,5.72-5.45,7.2-10.51,8.15-7.54,17.29-17.83,24-2.14,1.39-6.75,4.29-12.37,3.2-1.22-.24-7.88-1.72-9.83-7.6s2.25-11.75,3.28-13.19c2.64-3.72,4.85-4,9.46-8a46.08,46.08,0,0,0,7.55-8.53l.22-.32a45.93,45.93,0,0,0,11.33,1.25,32.22,32.22,0,0,0,11.67-2.69C739.27,631.53,740.42,632.38,740.39,634.32Z" transform="translate(-454.32 -29.55)"/>
    <path d="M819.81,662.87c-1,4.21-5.22,6.2-7.37,7.2-1.66.78-9.86,4.6-15.92.2-4.95-3.6-6.56-11.31-7.46-15.59-.77-3.69-.69-6-2.64-8.9-1.66-2.43-3.06-2.68-5.36-5.5a23.66,23.66,0,0,1-3.66-6.41,54.56,54.56,0,0,0,18.76,1.31c1.61-.16,3.15-.4,4.62-.69.42,1.49,2.21,4,6.75,8.69,6.77,7,9.86,8.82,11.64,14C820.29,660.43,820,662.27,819.81,662.87Z" transform="translate(-454.32 -29.55)"/>
    <path d="M759.35,243.77h0a16.35,16.35,0,0,1-3.67-1.13m29.73,20.89c.89-1.29-1.55-4.27-2.34-5.2a1.34,1.34,0,0,1-.11-.14c-.35-.42-.7-.79-1-1.13l-.51-.49c-.5-.46-1-.87-1.47-1.24-.32-.25-.65-.48-1-.71m-65.78-16.09h0m-32.24,16.3a10.81,10.81,0,0,0-.37,1.73c-.06.32-.12.64-.22,1a8.12,8.12,0,0,1-.61,1.57c-1.16,2.39-2.17,2.5-2.39,4-.3,2,1.46,2.79,2.39,5.46.55,1.58.29,2.35-.06,4.66-.06.4-.13.85-.19,1.36h0c-.05.34-.09.71-.13,1.11,0,.2,0,.4-.05.62a57.48,57.48,0,0,0,0,9.64c.07.95.08.82,1.09,7.76,1.09,7.56,1.32,9.37,3,10.7l.38.26a5,5,0,0,0,.69.35,8.77,8.77,0,0,1,1.9,1l.3.23h0l.19.16.42.36.23.21.43.42a28.64,28.64,0,0,0,2.43,2.42,13.6,13.6,0,0,0,2.39,1.89c1.81,1,2.6.4,5.66,1s3,1.33,4.79,1.26c2.14-.07,2.47-1.05,4.36-.84a5.4,5.4,0,0,1,2.12.79,6.37,6.37,0,0,0,.66.27l.42.11c.15,0,.32.07.5.09a1.68,1.68,0,0,1,.32.05h.06a2.16,2.16,0,0,0,.29,0h0l.58,0a5.46,5.46,0,0,0,2.44-.52,4.68,4.68,0,0,0,1.74-1.5,8.87,8.87,0,0,0,1.1-2.27c2-5.62-3.53-13.79-4.15-14.68a5.72,5.72,0,0,1-4.57-.42,4.74,4.74,0,0,1-2.39-4.41c.17-1.17.85-1.15,1.52-2.93.74-2,.47-3.51.87-3.57s.84,1.63,1.09,1.58,0-.68-.07-1.7a17.67,17.67,0,0,1,0-5.59,15,15,0,0,1,4.14-7.45,21.32,21.32,0,0,1,7.89-5.18,32,32,0,0,1,12.41-2.42c4.71,0,7.91,1,12.74,2.52,8.45,2.65,9.51,4.95,9.8,5.76s0,.54.43,3.26c.68,4.08,1.31,4.46,1.1,6.29-.19,1.59-.81,2.68-.74,3.3a.58.58,0,0,0,.19.37c.55.47,1.51-.35,2.29.1,1.32.78.34,4.37.22,4.82-.17.62-1.53,5.47-4.47,5.87-1.28.18-1.83-.62-2.83-.2-.61.26-1.23.91-1.85,3.77a39.16,39.16,0,0,0-.66,7c-.21,4.28-.33,4.64.12,5.35a5,5,0,0,0,3.11,2,12.24,12.24,0,0,0,1.23.29l.84.14,1.23.16a17.53,17.53,0,0,0,6.65-.31c4.85-1.18,6-3.66,8.92-3a8.65,8.65,0,0,1,1.18.36c.23.09.46.18.68.25a3.1,3.1,0,0,0,.47.14,1.76,1.76,0,0,0,1,0l.18-.08.17-.11c.79-.56.72-1.63,1.79-2.2a1.68,1.68,0,0,1,.47-.17,1.32,1.32,0,0,1,.34,0l.33,0,.49.07a3.47,3.47,0,0,0,1,0c3.07-.36,4.82-4.59,5-5a3.93,3.93,0,0,0,.2-.54,5.08,5.08,0,0,0,.15-.52c.07-.25.12-.49.17-.72s0-.23,0-.34a8.22,8.22,0,0,0,.09-1.76m-92.6-56.66h0m52.14-3.41h0" transform="translate(-454.32 -29.55)" style="fill: none"/>
    <path d="M823.27,332.62c-8.93,18-18.59,19.31-18.22,30.58,0,0,.51,17-1.71,26a12.73,12.73,0,0,0-.37,2.41c-.2,3.32.72,3.06,1.46,10,.8,7.55-.24,8.27.36,14,1,9.65,4.25,10.06,4,17.19-.09,2.78-.57,2.41-3.28,12.8-1.85,7.16-2.91,11.24-3,13.5-2.66.29-5.49.63-8.44,1-12.19,1.62-13.54,2.36-24.5,4C743.87,468,731,469.88,717,466.78c-6-1.31-11.06-3.17-20.62-4a96.75,96.75,0,0,0-12.13-.3l0-.21L679.82,460c-.46-1.86-1.11-4.55-1.82-7.8-1-4.66-1.6-7.29-2-10a63,63,0,0,1-.27-17.69,59,59,0,0,1,2.73-12.7c1.29-3.66,2.69-6.24,1.82-9.4-.44-1.61-1.22-2.46-1.55-4.69a13.29,13.29,0,0,1,.37-5.3c1.35-5,.75-22.49-2.7-31.73-5-13.34-17.35-13.15-28.46-25.54-7.12-7.92-14.21-21.57-10.63-46,.52-5.39,1.25-12.37,2.28-20.8.72-5.85,1.08-8.34,3.52-10.64,3.36-3.17,8.26-3.67,9.07-7,0,0,.74-3.15,2.36-4a1.51,1.51,0,0,1,.68-.21h0c.68,0,1.42,0,2.21.13h0a28.48,28.48,0,0,1,12.18,4.07,28,28,0,0,1,3.86,2.81h0c.61.5,1.14,1,1.66,1.51a14.76,14.76,0,0,0-.42,2.2c-.06.41-.13.82-.24,1.27a12.45,12.45,0,0,1-.68,2c-1.3,3-2.42,3.18-2.67,5.06-.32,2.59,1.64,3.54,2.67,6.94.61,2,.32,3-.07,5.92-.07.51-.14,1.08-.21,1.73h0c0,.43-.1.9-.14,1.41,0,.25,0,.52-.06.79a81.93,81.93,0,0,0,0,12.26c.08,1.21.09,1,1.21,9.86,1.22,9.62,1.47,11.91,3.39,13.6.15.13.3.24.42.33a4.91,4.91,0,0,0,.77.45,9.1,9.1,0,0,1,2.11,1.32l.34.29.22.2c.18.17.34.32.48.47l.25.26c.17.18.33.36.47.53A37.55,37.55,0,0,0,685.7,325a15.43,15.43,0,0,0,2.67,2.4c2,1.21,2.89.51,6.3,1.33s3.34,1.68,5.34,1.6c2.38-.09,2.75-1.34,4.85-1.07a5.59,5.59,0,0,1,2.36,1,4.28,4.28,0,0,0,.74.34,2.06,2.06,0,0,0,.46.14,4.19,4.19,0,0,0,.56.13l.36.05h.06l.33,0h0a6.25,6.25,0,0,0,.64,0,5.51,5.51,0,0,0,2.72-.66,5.31,5.31,0,0,0,1.94-1.91,53.79,53.79,0,0,0,12.62,4.44,44.34,44.34,0,0,0,17.69.87c.76-.12,1.53-.28,2.32-.46s1.63-.42,2.42-.66,1.55-.5,2.29-.78a38.66,38.66,0,0,0,4.22-1.86,12.56,12.56,0,0,0,1.37.37l.94.18,1.37.21a17.39,17.39,0,0,0,7.4-.4c5.41-1.5,6.63-4.66,9.94-3.87a8.06,8.06,0,0,1,1.31.46l.76.32.52.18a1.66,1.66,0,0,0,1.1-.06.88.88,0,0,0,.2-.09,1.56,1.56,0,0,0,.19-.14c.89-.72.8-2.08,2-2.8a1.93,1.93,0,0,1,.53-.22,1.65,1.65,0,0,1,.38-.05l.37,0,.55.08a3.78,3.78,0,0,0,1.08,0c3.43-.46,5.38-5.84,5.58-6.4.08-.23.16-.46.22-.68s.12-.44.17-.66.14-.62.18-.91a3.56,3.56,0,0,0,.06-.44,12.34,12.34,0,0,0,.11-2.06,1.62,1.62,0,0,1,0-.18,37.69,37.69,0,0,1,1.42-10.68c.83-2.83,0-3.14-1-21.34a131.36,131.36,0,0,0-1.87-14.76,17.1,17.1,0,0,0-2.6-6.63l-.13-.17c-.39-.54-.78-1-1.16-1.44-.19-.22-.36-.42-.55-.62-.56-.59-1.1-1.1-1.65-1.58l-1.07-.9,1.74-.88,18.59-9.48,1.09-.55c.94.92,2.23,2.24,4.3,4.26,3.88,3.81,6.81,6.52,7.09,6.79,4,3.78,12.64,18.23,13.7,38.67A76.89,76.89,0,0,1,823.27,332.62Z" transform="translate(-454.32 -29.55)"/>
    <path d="M742.94,627.32a40.25,40.25,0,0,1-4.52,2.31" transform="translate(-454.32 -29.55)" style="fill: none"/>
    <path d="M715.42,631.07a30.78,30.78,0,0,0-3.41-.75,14.29,14.29,0,0,0,3.19,1.07l.45.13" transform="translate(-454.32 -29.55)" style="fill: none"/>
    <path d="M763.93,299.64c-.19.78-1.71,6.95-5,7.46-1.42.23-2-.79-3.15-.26-.69.33-1.37,1.16-2.07,4.8a57.25,57.25,0,0,0-.73,8.93c-.23,5.44-.36,5.9.13,6.8a5.61,5.61,0,0,0,3.47,2.57,38.66,38.66,0,0,1-4.22,1.86c-.74.28-1.51.54-2.29.78s-1.59.45-2.42.65-1.56.34-2.32.47a44.34,44.34,0,0,1-17.69-.87A53.79,53.79,0,0,1,715,328.39a11.66,11.66,0,0,0,1.22-2.89c2.19-7.14-3.93-17.53-4.61-18.66a5.63,5.63,0,0,1-5.09-.53,6.3,6.3,0,0,1-2.67-5.6c.19-1.5,1-1.46,1.7-3.73.82-2.5.52-4.47,1-4.54s.93,2.07,1.21,2,.05-.86-.08-2.16c1.48,1.75,3.19,3.29,4.2,2.74s1.55-3.53,1-5.83c-.42-1.68-1.5-2.81-1.08-3.62s1.9-.16,2.42-1c.61-1-1.13-2.63-1-4.53s2.15-3.25,4.09-4.33c4.3-2.37,8.27-4.57,14.53-4.72,2.75-.07,6,.72,12.47,2.32,5.82,1.42,7.38,2.26,8.82,3.61.37.35,4.9,4.74,4.1,9.06-.3,1.63-1.16,2.13-1.25,4.12s.55,4.4,1.69,4.83c.84.31,2-.45,3.24-2a.78.78,0,0,0,.21.47c.61.6,1.69-.44,2.55.13C765.15,294.5,764.06,299.06,763.93,299.64Z" transform="translate(-454.32 -29.55)" style="fill: #e6ab91"/>
    <path d="M761.74,289.91a22.61,22.61,0,0,1-.52,2.7,5.76,5.76,0,0,0-.3,1.71c-1.25,1.66-2.4,2.47-3.24,2.13-1.14-.45-1.78-3.07-1.69-5.08s1-2.62,1.25-4.34c.8-4.54-3.73-9.16-4.1-9.53a6.9,6.9,0,0,0-1.12-1c-2.6-1.74-6-1.4-7.69-1.3-6,.36-5.39-1.48-13.29-1.57-4.47-.06-9.42-.06-13.72,2.55-1.48.9-3.93,2.41-4.09,4.56s1.59,3.69,1,4.77c-.52.89-2,.17-2.42,1.06s.66,2,1.08,3.81c.57,2.42.07,5.54-1,6.14s-2.72-1.05-4.2-2.88a28.73,28.73,0,0,1,0-7.49,21.45,21.45,0,0,1,4.61-10,23.84,23.84,0,0,1,8.79-6.94,30.91,30.91,0,0,1,13.82-3.22c5.25,0,8.82,1.33,14.19,3.36,9.42,3.55,10.6,6.63,10.92,7.72a5.56,5.56,0,0,1,.18,1.54c0,.48.09,1.26.3,2.81C761.07,285.48,762.23,287.36,761.74,289.91Z" transform="translate(-454.32 -29.55)" style="fill: #392e28"/>
  </g>
  <g id="projects-laptop">
    <path d="M877.16,106.1l-2.77,125.81,0,.92-94.38.64,82.95-.88L864,110.2,608.6,114.3l-1.05,120.36-46.68.32a1.05,1.05,0,0,1,.18-.55c.68-1,2.7.21,2.7.21l32.71-.68s1.58-123.08,2.11-132,1.06-6.84,1.06-6.84l4.22.68s253.78-.68,263.81-.68S877.16,106.1,877.16,106.1Z" transform="translate(-454.32 -29.55)" style="stroke: #f15a24;stroke-miterlimit: 10;stroke-width: 0.2px"/>
    <polygon points="409.65 80.65 408.59 203.04 325.65 203.92 153.24 205.1 154.28 84.75 409.65 80.65" style="fill: #000012;stroke: #f15a24;stroke-miterlimit: 10;stroke-width: 0.2px"/>
    <path d="M874.34,232.84A25.41,25.41,0,0,1,870,245.75a15.58,15.58,0,0,1-9.53,6.62h0l-10,.14h0c-29.93.38-67.77.86-105.25,1.36l-5.48.08c-16.36.2-32.54.42-47.92.6l0,0-4.39.05c-.63,0-1.26,0-1.88,0-1,0-2.07,0-3.09,0l-4.91.06-2.43,0-4.77.06c-2.37,0-4.72,0-7,.09l-4.57,0-25.7.33-3.23,0-4.09.05-3,0c-5.78.07-10.94.14-15.36.18l-17.15.22c-2.53,0-8.17-1.44-12.36-2.62-.08-.29-.12-.56-.17-.8l-15.83-11.28c-.4-1.89-.65-3.47-.8-4.61a7.5,7.5,0,0,1-.11-1.55l46.69-.33,0,.68L780,233.47Z" transform="translate(-454.32 -29.55)" style="stroke: #f15a24;stroke-miterlimit: 10;stroke-width: 0.2px"/>
  </g>
  <g id="gears">
    <path d="M611.61,141.48v5.25l5.44.66v.43a24.63,24.63,0,0,0,.3,3.94l-4.66,4.47,3.38,3.86,3.3-1.63a28.93,28.93,0,0,0,2.13,3.85l-4,3.85,3.38,3.86,5-2.46a33.8,33.8,0,0,0,4.44,3.61l-2.64,4.74,5.35,2.17,2.9-3.83A34.71,34.71,0,0,0,640.8,176c.1,1.85.19,3.71.29,5.57l5.79.75c.28-1.74.55-3.47.83-5.21a32.65,32.65,0,0,0,5.43-.1l2.28,5.16,5.26-.74q-.39-2.92-.77-5.85a29.79,29.79,0,0,0,4.52-1.92l3.69,4.28,4.28-2.61-3.48-4.64a26,26,0,0,0,3.28-3.18l6.66,2.09,2-4-5.32-3a23.55,23.55,0,0,0,1.75-4.69l6.87.31.11-4.53L678,151.08a26.28,26.28,0,0,0-.47-4.07c1.23-.18,2.5-.43,3.83-.76.81-.2,1.59-.42,2.35-.66-.32-1.53-.65-3.06-1-4.6l-7,.4a27.64,27.64,0,0,0-2.57-4.55l5-3.59-3.16-4-5.71,3a32.3,32.3,0,0,0-3.33-2.83l1.5-5.59-4.7-2.67-3,4.57a35,35,0,0,0-5.09-1.84c0-1.76.1-3.51.14-5.26l-6.12-1.32c-.09,1.81-.17,3.62-.25,5.43l-.82-.06a34,34,0,0,0-5.15,0l-1.56-5-5.47.35c.25,1.94.51,3.89.76,5.83a29.68,29.68,0,0,0-5,2l-3.89-4.51-3.95,3,3.37,4.31a25.28,25.28,0,0,0-4.09,3.91L617,130.05c-.76,1.22-1.53,2.44-2.3,3.65l4.75,3.72a23.52,23.52,0,0,0-1.61,4.32ZM647.92,135c8.9.6,16.11,7.57,16.09,15.58s-7.24,14-16.14,13.42-16.11-7.57-16.1-15.58S639,134.43,647.92,135Z" transform="translate(-454.32 -29.55)" style="fill: #fff;opacity: 0.2"/>
    <path d="M685.79,138.52v3.31l3.42.42v.27a15.75,15.75,0,0,0,.19,2.48l-2.93,2.82,2.13,2.42,2.08-1a17.93,17.93,0,0,0,1.33,2.43l-2.52,2.42,2.13,2.43,3.14-1.55a20.47,20.47,0,0,0,2.79,2.27l-1.66,3,3.37,1.37,1.83-2.42a21.29,21.29,0,0,0,3.09,1.08l.18,3.51,3.65.47c.17-1.09.35-2.19.52-3.28a21.57,21.57,0,0,0,3.42-.06l1.44,3.25,3.31-.47c-.16-1.23-.33-2.45-.49-3.68a19.06,19.06,0,0,0,2.85-1.21c.78.89,1.55,1.8,2.33,2.7l2.69-1.65-2.19-2.92a15.74,15.74,0,0,0,2.07-2l4.19,1.32,1.25-2.54-3.35-1.9a14.52,14.52,0,0,0,1.1-3l4.33.19.07-2.85-3.94-1.59a14.54,14.54,0,0,0-.29-2.56c.77-.12,1.58-.27,2.41-.48.51-.13,1-.27,1.48-.42-.2-1-.41-1.93-.61-2.89l-4.41.25a18.05,18.05,0,0,0-1.62-2.87l3.14-2.26-2-2.53-3.6,1.9a21.09,21.09,0,0,0-2.09-1.78c.31-1.18.62-2.35.94-3.52l-3-1.69-1.92,2.89a21.39,21.39,0,0,0-3.2-1.17l.09-3.31-3.86-.83-.15,3.42-.52,0a21.82,21.82,0,0,0-3.24,0c-.33-1.06-.66-2.11-1-3.17l-3.45.23c.16,1.22.32,2.45.47,3.67a18.51,18.51,0,0,0-3.13,1.23l-2.45-2.85-2.48,1.89,2.12,2.72a16.28,16.28,0,0,0-2.58,2.46l-3.55-1.56-1.45,2.3,3,2.34a14.75,14.75,0,0,0-1,2.72Zm22.87-4.06c5.61.38,10.15,4.77,10.14,9.82s-4.56,8.83-10.17,8.45-10.15-4.77-10.14-9.82S703.06,134.08,708.66,134.46Z" transform="translate(-454.32 -29.55)" style="fill: #fff;opacity: 0.2"/>
  </g>
  <g id="projects-button">
    <rect x="223.61" y="123.51" width="114.26" height="46.39" style="stroke: #fff;stroke-miterlimit: 10;stroke-width: 2px"/>
    <text transform="translate(236.25 157.99) scale(0.39 1)" style="font-size: 30.89855194091797px;fill: #fff;stroke: #f15a24;stroke-miterlimit: 10;stroke-width: 0.20000000298023224px;font-family: Poppins-ExtraBold, Poppins;font-weight: 800"><tspan xml:space="preserve"> PROJECTS</tspan></text>
    <g>
      <line x1="310.34" y1="147.49" x2="330.44" y2="147.76"/>
      <g>
        <line x1="310.34" y1="147.49" x2="321.97" y2="147.64" style="fill: none;stroke: #fff;stroke-miterlimit: 10;stroke-width: 4px"/>
        <polygon points="330.44 147.76 318.44 152.47 321.34 147.63 318.57 142.72 330.44 147.76" style="fill: #fff"/>
      </g>
    </g>
  </g>
</svg>
