<svg xmlns="http://www.w3.org/2000/svg" xmlns:xlink="http://www.w3.org/1999/xlink" viewBox="0 0 1366 767.91">
  <defs>
    <radialGradient id="Gradient_bez_nazwy_112" data-name="Gradient bez nazwy 112" cx="1009.31" cy="222.89" r="80.16" gradientTransform="translate(-1.59 -117.84) scale(1 1.38)" gradientUnits="userSpaceOnUse">
      <stop offset="0" stop-color="#fff"/>
      <stop offset="0.26" stop-color="#fff"/>
      <stop offset="1" stop-color="#1b1464"/>
    </radialGradient>
  </defs>
  <g style="isolation: isolate">
    <g id="Warstwa_1" data-name="Warstwa 1">
      <rect width="1366" height="765.91" style="fill: #f2f2f2"/>
      <path d="M573.19,568.38q-6.8-1.7-14.9-3.64c.75,0,1.49.1,2.2.16A35.55,35.55,0,0,1,573.19,568.38Z" transform="translate(0 -2.09)" style="fill: none"/>
      <path d="M573.87,568.55l-.66-.16" transform="translate(0 -2.09)" style="fill: none"/>
      <path d="M556,594a30.67,30.67,0,0,1,7.89-4.85" transform="translate(0 -2.09)" style="fill: none"/>
      <path d="M785.31,290.24l-.14-.25" transform="translate(0 -2.09)" style="fill: none;stroke: #000;stroke-miterlimit: 10;stroke-width: 0.75px"/>
      <path d="M772.76,357.08a21.41,21.41,0,0,1,5.74,8.28c.82,2.15,2,5.28.46,7.41-.74,1-1.55,1-2.21,1.74" transform="translate(0 -2.09)" style="fill: none"/>
      <path d="M767.28,440.3c-.75-.18-1.53-.35-2.34-.52" transform="translate(0 -2.09)" style="fill: none"/>
      <path d="M580.82,541.43c-10.65,25.26,39.42,77.27,84.5,104.89,9.92,6.08,51.22,30.36,110.49,34.2a243.49,243.49,0,0,0,75.83-6.84c79.28-20.43,125.47-76.89,138.65-93.48,38.44-48.35,19.3-60.28,52-100.33,53.44-65.45,106.85-40,151.66-100.33,27.84-37.5,43.7-96.49,26-141.37s-53.65-36.27-84.5-88.93c-34.12-58.24-7.29-98.09-39-125.41C1067-1.51,1019.79,12,962.13,28.39c-58.4,16.65-95,27.07-108.33,59.29-14,33.68,8.44,64.6-15.16,111.73-5.53,11.05-10,19.62-19.5,25.08-27.8,15.91-54-20.47-88.83-16-43.44,5.63-78.41,72.08-86.66,123.13-4.48,27.78-5.48,78.39-2.16,123.13,1.44,19.5,3.62,36.82-6.5,52.44C618.41,532.8,588.14,524.1,580.82,541.43Z" transform="translate(0 -2.09)" style="fill: #1b1464"/>
      <path d="M1032.67,276.91c-28.59,8.33-68.13-36.1-75.92-81.65-6.18-36.1,5.5-85.24,31.94-93.16,28.17-8.44,64.73,32.42,74.53,73.13C1072.92,215.54,1059.59,269.06,1032.67,276.91Z" transform="translate(0 -2.09)" style="mix-blend-mode: lighten;fill: url(#Gradient_bez_nazwy_112)"/>
      <path d="M1076.13,171.75c-12.35-51.51-58.44-103.21-94-92.54a35.7,35.7,0,0,0-10.64,5.34C945.77,103.17,935,156.61,941.9,197.11c7.77,45.66,40.69,90.43,72,101.82a42.88,42.88,0,0,0,14.54,2.77h0l.32-.07,13.21-2.93,0,.09.14-.06c.32-.15.65-.3,1-.47-.09-.23-.19-.45-.28-.68l-.16-.39,18.45-15.89h0C1078.5,255.24,1085.07,209,1076.13,171.75Zm-43.46,105.16c-28.59,8.33-68.13-36.1-75.92-81.65-6.18-36.1,5.5-85.24,31.94-93.16,28.17-8.44,64.73,32.42,74.53,73.13C1072.92,215.54,1059.59,269.06,1032.67,276.91Z" transform="translate(0 -2.09)" style="fill: #1b1451"/>
      <path d="M1042,298.79a32.43,32.43,0,0,1-4.34,1.63,30.42,30.42,0,0,1-4.39.95l-.66.08a32.58,32.58,0,0,1-3.84.25h-.33l.32-.07,13.21-2.93Z" transform="translate(0 -2.09)" style="fill: #1b1451"/>
      <path d="M1042.62,297.19l18.45-15.89c-5.11,7.63-11.15,13.53-18,17C1042.92,297.9,1042.76,297.55,1042.62,297.19Z" transform="translate(0 -2.09)" style="fill: #1b1451"/>
      <path d="M1028.39,301.7l-12.46,2.77-1.08.11A48.78,48.78,0,0,1,997.49,307c-39.75-1.94-73.5-55.37-82-103.09-5.55-31.23-5.08-87.68,27.81-110.29a55.82,55.82,0,0,1,28.12-9.39c0,.12,0,.24.07.36C945.77,103.17,935,156.61,941.9,197.11c7.77,45.66,40.69,90.43,72,101.82A42.88,42.88,0,0,0,1028.39,301.7Z" transform="translate(0 -2.09)" style="fill: #1b143b"/>
      <path d="M1028.73,301.7c0,.84-3.77,1.76-12.8,2.77l12.46-2.77a42.88,42.88,0,0,1-14.54-2.77c10.24.93,14.63,1.82,14.87,2.7A.17.17,0,0,1,1028.73,301.7Z" transform="translate(0 -2.09)" style="fill: #1b1451"/>
      <path d="M1135,521.1a34,34,0,0,1-19.44,6,31.53,31.53,0,0,1-9-1.51l-91.65-220.89c.35-.09.72-.16,1.08-.24,9-1,12.8-1.93,12.8-2.77a32.58,32.58,0,0,0,3.84-.25l.66-.08a30.42,30.42,0,0,0,4.39-.95,32.43,32.43,0,0,0,4.34-1.63Q1088.47,409.94,1135,521.1Z" transform="translate(0 -2.09)" style="fill: #1b143b"/>
      <path d="M1028.73,301.7c0,.84-3.77,1.76-12.8,2.77l12.46-2.77Z" transform="translate(0 -2.09)" style="fill: #1b1451"/>
      <path d="M1042,298.79a32.43,32.43,0,0,1-4.34,1.63,30.42,30.42,0,0,1-4.39.95l-.66.08a32.58,32.58,0,0,1-3.84.25h-.33l.32-.07,13.21-2.93Z" transform="translate(0 -2.09)" style="fill: #1b1451"/>
      <path d="M1143.53,521a12.19,12.19,0,0,1-7.87,1Q1089,410.68,1042.37,299.39c-.15-.36-.3-.71-.44-1.07l18.44-15.89h0l.29-.25Q1106,392.81,1151.4,503.44C1152,511.29,1148.82,518.26,1143.53,521Z" transform="translate(0 -2.09)" style="fill: #1b1451"/>
      <path d="M840.13,578.13A39.45,39.45,0,0,1,827,583.69a22.44,22.44,0,0,1-3.22.44c-1.25.11-3,.24-5.9.4-18.45,1.13-21.23.93-23.78.57a53.22,53.22,0,0,1-12.5-3.48c-6.42-2.47-18.06-6.15-40-11.79a14,14,0,0,1,1.72-5.11c4.13-7.2,13.34-7.16,14.23-7.14l64.92,20.28Z" transform="translate(0 -2.09)" style="fill: #db7671"/>
      <path d="M823.79,584.13a60.26,60.26,0,0,1-11.36,10.26,56.47,56.47,0,0,1-17.19,8.08c-17.91-4.77-31.65-8.66-42.18-12.21-3.32-1.12-9.43-3.25-16.84-1.5a24.46,24.46,0,0,0-4.21,1.41l-24.08-10.43a18,18,0,0,1,5.2-10.14c4-3.66,9-3.82,13.5-3.54h0c5.21,1.29,10,2.49,14.34,3.6h0l.62.31c0-.06,0-.1,0-.15,21.93,5.64,33.57,9.32,40,11.79a53.22,53.22,0,0,0,12.5,3.48c2.55.36,5.33.56,23.78-.57C820.75,584.37,822.54,584.24,823.79,584.13Z" transform="translate(0 -2.09)" style="fill: #db7671"/>
      <path d="M1017.92,683.72,945.48,716l-.09-.28,8.68-4.14L925.26,665a171.85,171.85,0,0,0-47.91-16.15c-1.28-.23-5.17-.47-10.42-1.51-9.71-1.91-15.94-4.6-21.87-6.76-8.9-3.23-15.43-4.66-26.73-7.14A238.08,238.08,0,0,0,784,628.58l-61.11-25.92a16.09,16.09,0,0,1,4.52-9.39,13.39,13.39,0,0,1,4.86-3l-.22-.09a24.46,24.46,0,0,1,4.21-1.41c7.41-1.75,13.52.38,16.84,1.5,10.53,3.55,24.27,7.44,42.18,12.21a56.47,56.47,0,0,0,17.19-8.08,60.26,60.26,0,0,0,11.36-10.26,22.44,22.44,0,0,0,3.22-.44,39.45,39.45,0,0,0,13.12-5.56h0l7.35.11-.08-.06,3.9,2.31a171.84,171.84,0,0,0,46.17,36.07c25.69,13.61,38.35,11.33,43,10.14,3.25-.82,18.36-5.21,20.49-15.4.93-4.5-1.08-8.08-2.07-11.83,2.47,2.53,6,6.28,9.88,11.08a178.53,178.53,0,0,1,17,25C991.51,645.39,1001,660.53,1017.92,683.72Z" transform="translate(0 -2.09)" style="fill: #e78279"/>
      <path d="M1078.87,769.83,958.4,770l-16.92-54,72.44-32.3c.07.08.14.18.21.27l9.52-4.61.14-.06L1029,677Z" transform="translate(0 -2.09)"/>
      <path d="M1365.82,552.07V704.85L1165.59,512.24l5.61-11.73,5.18-10.05-.27-.22,23.3-48.69.81,1.07c.92-2.75,1.85-5.51,2.78-8.26Z" transform="translate(0 -2.09)"/>
      <path d="M1165.27,512l5.93-11.49-5.61,11.73Z" transform="translate(0 -2.09)" style="fill: #e6827a"/>
      <path d="M1199.41,441.55l-23.3,48.69c-15.88-12.87-29.66-17.51-39.54-19.32s-16.82-1-25-7c-5.2-3.83-7.89-8.22-15.5-22.79-11.62-22.2-10.66-23.06-16.67-33.06-7.41-12.34-8.72-10.31-22.91-30.81-10.85-15.65-14.44-23.11-14.58-32.3,0-2-.22-13.63,5.55-16.53,4.21-2.11,9.76,1.31,12.5,3a26.8,26.8,0,0,1,8.33,8.27l29.4,34.06-23.15-58.86.09,0c11.64,4.61,20.71,8.86,25.6,11.24,7.43,3.61,11.14,5.42,13.19,6.77,13.28,8.73,16.23,19.9,27.78,36.81,5.26,7.71,5.6,6.78,20.83,24.8C1171.33,405.55,1184.25,421.32,1199.41,441.55Z" transform="translate(0 -2.09)" style="fill: #e6827a"/>
      <path d="M1069.68,435.36a10.52,10.52,0,0,1-6.48-2.76c-1.85-1.78-2.07-3.52-4.86-6.76a29.5,29.5,0,0,0-3-3c-3.66-3.33-6.59-7.07-12-14-6.63-8.47-7.65-10.77-8.34-13a28.32,28.32,0,0,1-1.15-7c-.34-10.23,5.65-17.94,7.63-20.29Q1055.57,401.92,1069.68,435.36Z" transform="translate(0 -2.09)" style="fill: #e6827a"/>
      <path d="M1028.25,336.18c-5.44,7.74-9.81,14.1-13.19,18.79a21,21,0,0,0-3.7,9c-.45,2.94.07,4.14.46,4.76,1.31,2.08,4.16,2.2,5.55,2.25,7.82.32,17.85-7.88,20.37-10Q1033,348.57,1028.25,336.18Z" transform="translate(0 -2.09)" style="fill: #e6827a"/>
      <line x1="1176.11" y1="488.15" x2="1171.2" y2="498.42" style="fill: none"/>
      <line x1="840.14" y1="576.04" x2="840.13" y2="576.04" style="fill: none"/>
      <path d="M876.11,366.19h0a22.34,22.34,0,0,0-3.55.22,21.46,21.46,0,0,0-4.86,1.35,30.45,30.45,0,0,1,7.07-1.19c.74,0,1.31,0,1.81,0ZM873,363.9c-4.15.28-6,.45-8.09,1.32a15,15,0,0,0-3.07,1.66,43.76,43.76,0,0,1,5.83-1.92,24.78,24.78,0,0,1,5.59-.86Z" transform="translate(0 -2.09)" style="fill: none"/>
      <path d="M814.51,569a7.15,7.15,0,0,1-2.91,4.06,8.43,8.43,0,0,1-3.68,1.46,10.07,10.07,0,0,0-3.67,3.63c-2,3.5.7,5.82-.32,9.44-1.09,3.92-5.58,5.94-9.18,7.55a26.5,26.5,0,0,1-15.33,1.74c-3.33-.53-6-.94-7.5-3s-1-5-.31-8.42c.45-2.17.83-4.07,2.44-5.67.48-.45.59-.44,3.22-2.47a28.13,28.13,0,0,0,2.91-2.32c1.71-2.34.28-4.76,2-6,.87-.61,1.6-.23,2-.87.62-1-1.2-2.21-.78-3.93.22-.86.78-.87,1.85-2.47.45-.67.75-1.15.93-1.48a41.6,41.6,0,0,1,5.08-.94,30.12,30.12,0,0,1,5-.11c3,.16,5,.29,5.86,1.52s-.14,2.77.69,3.27c.27.16.75.23,3.11-.87a33.52,33.52,0,0,0,3.1-1.64,9.4,9.4,0,0,1,2-.87c.1.53.89,1.15,1.62,2.07C813,563,815.19,565.91,814.51,569Z" transform="translate(0 -2.09)"/>
      <path d="M904.79,592.1c-.38.52-1.35,1.63-5.18,2.95a26.21,26.21,0,0,1-12.17,1.85c-3.3-.34-7.58-.72-10.92-3.92a12.25,12.25,0,0,1-3.68-6.64c-.57-3.57,1.22-4.93,0-7.19-.83-1.55-1.85-1.27-5.63-3.93-3.1-2.18-4.65-3.27-5.17-4.89-.65-2.06.47-3.55.87-5.05,2-.12,3.64-.17,4.88-.18,1.76,0,3.22,0,3.79-.88s-.27-1.65.12-2.72,1.62-1.76,4.93-2.28a33.93,33.93,0,0,1,9.65,0c.55,0,1.14.13,1.75.21a.43.43,0,0,0,0,.12c0,1,.75,1,1.61,2.93s.39,2.65,1,4c.76,1.63,2.12,2.22,3.67,3.26,2.23,1.5,3.64,3.25,6.44,6.75s4.31,5.41,4.94,8.39C906,586.38,906.68,589.58,904.79,592.1Z" transform="translate(0 -2.09)"/>
      <g>
        <path d="M894.11,392.33c-.59,2-1.28,3.23-2.65,3.85-.45.21-.81.28-5.18,0-7.7-.49-10-.94-10.68.11-.48.74.24,1.63,1.15,3.59,2.15,4.66.76,5.44,2.64,11,1.16,3.43,2,5.94,4.25,8.61,2,2.36,3.57,3.08,3.56,4.89,0,2.57-3.17,4.84-3.45,5-1.84,1.28-2.92,1-3.33,2.07s.27,2.22,1.5,4.79c.61,1.27.92,1.68.8,2.4-.21,1.34-1.62,2-1.37,2.5.11.22.48.22.88.21a16.74,16.74,0,0,1-1.92.52c-1.92.4-2.24.09-6.82.22-5.38.14-8.12.22-10.42,1.3-1.84.86-2.14,1.54-3.83,1.81-2.15.36-2.75-.56-5.9-.94-2.07-.25-5.25-.64-7.43,1-1,.81-1.06,1.49-2.22,1.89-1.51.51-2.49-.32-3.83.36-1.06.53-.8,1.26-1.6,1.67-2.18,1.09-5.91-3.17-7.35-2.26-.92.59.26,2.43-.85,3.56s-2.67,0-5.9.3c-4.11.33-4.86,2.27-7.43,1.67-2.23-.52-1.89-2-4.29-2.91-3.26-1.17-4.86,1.27-8.74.36-2.62-.61-2.29-1.85-5.2-2.68-3.12-.9-4.71.17-8.2.07s-5.5-1.21-8.5-2.47a91,91,0,0,0-14.52-4.57l0-.22a10.05,10.05,0,0,1-1.68-4.57c-.15-1.53.62-2.24.23-3.27-.66-1.75-3-1.45-4.36-2.61-4.07-3.5,5.79-15.95,1.15-21.57-1-1.24-1.49-.62-4.14-2.61a21.28,21.28,0,0,1-4.47-4.57c.7.28,1.42.61,2.17,1,2.66,1.32,2.75,1.82,4.72,2.5s2.89.55,8.27,1c1.6.13,3.21.3,4.82.43,8,.68,10.25,2,15.63,2.4,3.85.32,2-.39,14.94-1.31,7-.5,10.12-.46,13-2.72a11.86,11.86,0,0,0,3.67-5.33c.22-.55.46-1.12.73-1.7,2.39.45,6.78.85,15.7.28,7.07-.45,14.1-1.34,20.8-2.18,2.42-.3,5.22-.67,9.2-.87,5.38-.27,9.33,0,10.34,0C881.39,394.48,886.38,394.11,894.11,392.33Z" transform="translate(0 -2.09)" style="fill: #1b148c"/>
        <path d="M900.65,358.71c-.6-3.43-3.23-7.22-8.5-14.81-4.47-6.44-4.2-4.62-8.51-10.34a11.42,11.42,0,0,0-3.1-2.95,12.61,12.61,0,0,0-5.28-1.74,148,148,0,0,1-25.9-5.76c-3-1.07-4.45-1.61-6.05-2.84a7.87,7.87,0,0,0-2.45-1.6,5.83,5.83,0,0,0-.66-.17c-.94,1.29-1.84,2.39-2.63,3.3-4.39,5-7.25,6.22-8.05,6.53-5.37,2.14-10.71.91-16.55-.43a62,62,0,0,1-12.17-4.36c-2.42-1.09-4.6-2.19-6.53-3.24-.09.14-.2.27-.3.41-.68.89-1.46,1.4-8.27,3.77-4.15,1.45-6.23,2.16-8.89,2.9-4.19,1.17-5.87,1.39-8.57,2-5,1.21-11.61,2.84-16.55,7-3.87,3.24-5.31,6.87-7.43,12.2a45.78,45.78,0,0,0-3.68,21.78c.42,4.55,3.81,11.53,10.58,25.48a31,31,0,0,0,2.88,5c.7.28,1.42.61,2.17,1,2.66,1.32,2.75,1.82,4.72,2.5s2.89.55,8.27,1c1.6.13,3.21.3,4.82.43,8,.68,10.25,2,15.63,2.4,3.85.32,2-.39,14.94-1.31,7-.5,10.12-.46,13-2.72a11.86,11.86,0,0,0,3.67-5.33c.22-.55.46-1.12.73-1.7,2.39.45,6.78.85,15.7.28,7.07-.45,14.1-1.34,20.8-2.18,2.42-.3,5.22-.67,9.2-.87,5.38-.27,9.33,0,10.34,0,3.37.15,8.36-.22,16.09-2v0c.58-2.05,1.06-5,2.06-9.08.16-.66.3-1.23.42-1.74,1.17-4.45,1.48-4.09,2.45-8.62C900.55,365.88,901.29,362.39,900.65,358.71Zm-105.48,19.4a3.92,3.92,0,0,0-1.5,2.39c-.14,1.25.69,1.92,1,3a4.33,4.33,0,0,1-.18,2.79A6.09,6.09,0,0,0,791.8,385a5.83,5.83,0,0,0-2,0l-1-.44c-5.54-2.24-8.12,0-10.8-2.6-1.89-1.85-2.76-5.06-1.62-7a2.54,2.54,0,0,1,.31-.42c.59-.21,1.23-.38,1.88-.55,2-.56,2.58-.26,5.63-.66,4.7-.62,4.42-1.47,6.43-1.2,2.8.39,4.19,2.16,6.32,1.41a5.39,5.39,0,0,0,1.27-.76,6.36,6.36,0,0,1,1.64-.67A29.66,29.66,0,0,1,795.17,378.11Zm81.39-11.56h0a23.61,23.61,0,0,0,3.85-.08c.48,0,1.6-.07,3.85-.11a7.77,7.77,0,0,1,2.19.3c.67.2,1.23.37,1.38.82s-.36,1.15-.5,1.29a2.79,2.79,0,0,1-1.34.77c-1.54.43-2.24-.12-4.08,0-1.43.07-1.39.41-2.82.49a9.77,9.77,0,0,1-3.5-.49c-1.51-.45-4-.61-9-.93a55.89,55.89,0,0,0-14.31,1.09c-.45.11-.91.22-1.37.36s-1,.28-1.44.45l1.25-.79.65-.4a4.41,4.41,0,0,1,.74-2.07c1.46-2.12,4.35-2,9.2-3.53,3-.94,2.21-1.07,4.48-1.69a14.36,14.36,0,0,1,3.85-.62,31.34,31.34,0,0,0,6.47-.44c2.33-.4,4.15-.93,5.44.07.07.06.93.75.76,1.39-.22.81-2.07,1-5.36,1.22l-3.93.29.26.2a36.4,36.4,0,0,0,7.81-.55,21.12,21.12,0,0,1,5.66.14,1.86,1.86,0,0,1,1.39.62,1.49,1.49,0,0,1-.38,1.89,1.87,1.87,0,0,1-1.39.14c-2.69-.54-5.48,0-8.23-.11l-2,0Z" transform="translate(0 -2.09)" style="fill: #1b148c"/>
      </g>
      <path d="M840.2,318.5c-.94,1.29-1.84,2.39-2.63,3.3-4.39,5-7.25,6.22-8.05,6.53-5.37,2.14-10.71.91-16.55-.43a62,62,0,0,1-12.17-4.36c-2.42-1.09-4.6-2.19-6.53-3.24,1.29-2,1.05-4.41.78-7a25.3,25.3,0,0,0-4.49-11.76,8.29,8.29,0,0,1-2.71-.15,6.42,6.42,0,0,1-3.52-1.74c-1.42-1.56-.13-2.6-1.54-5.95a4.84,4.84,0,0,1-.46-2.33c0-.25.15-1.62.92-1.88s1.66.8,2.07.76c1.72,2.86,2.41,3.34,2.72,3.23.53-.18,0-1.87.46-4.47.43-2.21,1-2.58.92-4.24a26.59,26.59,0,0,0-.69-3c-.59-2.35-.65-2.22-.69-2.61a6,6,0,0,1,3.68-5.56c1.74-.65,2.28.39,6.55.22a10.1,10.1,0,0,0,4-.66c2.26-1,2.06-2.3,3.68-2.93,1.36-.54,2.31.07,8.39,2.28,4.49,1.63,5.28,1.77,6.31,1.63,2.55-.31,3.13-1.79,4.83-1.41s2.57,2.09,3.91,4.57a15.1,15.1,0,0,1,1.61,3.81c.75,3.19-.23,4.88,1,7.95.29.72.48,1.34,1,1.53,1.32.45,3.2-1.83,3.38-2.05a2.16,2.16,0,0,1-.05.27A2.12,2.12,0,0,1,838,288a2.2,2.2,0,0,1,1.55,1c1.46,1.9.21,5-.35,6.38-.73,1.84-1.12,2.78-2.18,3.37-1.88,1-3.82-.22-4.88.87-.52.54-.43,1.22-.36,2.78.15,3.43-.35-1.53,0,5.95.28,6.13.49,6.76.84,7.41a8.94,8.94,0,0,0,3.29,3.34A7.73,7.73,0,0,1,840.2,318.5Z" transform="translate(0 -2.09)" style="fill: #e6ab91"/>
      <path d="M891.69,555c0,1.81-3.46,2.5-3.66,4.46-.61-.08-1.2-.16-1.75-.21a33.93,33.93,0,0,0-9.65,0c-3.31.52-4.57,1.3-4.93,2.28s.44,1.89-.12,2.72-2,.85-3.79.88c-1.24,0-2.87.06-4.88.18a2.88,2.88,0,0,0-.18-2.14c-1-1.88-2.92-1.15-4.94-3.26-1.81-1.9-1.28-3.56-2.53-8.29-1-3.83-1.46-3.09-2.76-7.4-1.64-5.47-.82-6.33-2.53-10.67-1.3-3.36-1.91-3.16-2.52-5.67a20.64,20.64,0,0,1,0-8.49c.77-5,2-5.41,1.38-7.63-.79-2.85-3-2.79-4.37-6.09-1.15-2.84.25-3.5-.45-6.76-.9-4.12-3.36-4.17-6.33-9.91a20.06,20.06,0,0,1-2.64-7.73c-.37-3.82.88-4.85.11-7.95-.72-2.9-2.95-6.5-5.06-6.43-1.88.07-2.94,3.08-6.2,12.2-5.78,16.2-6.79,18.85-7.58,24.18s-1.22,8.14-.58,11.66c.42,2.26,1.09,4.06,1,7.29,0,2.79-.59,3.67-.8,6.21-.26,3.2.36,4.8,1.15,8.93,1,5.31,2.4,13,0,17.86-.77,1.55-1.75,3.55-3.79,4.24-1,.34-2,.3-2.18.88a.57.57,0,0,0,0,.32,9.4,9.4,0,0,0-2,.87,33.52,33.52,0,0,1-3.1,1.64c-2.36,1.1-2.84,1-3.11.87-.83-.5.17-2-.69-3.27s-2.82-1.36-5.86-1.52a30.12,30.12,0,0,0-5,.11,41.6,41.6,0,0,0-5.08.94,1.51,1.51,0,0,0,.29-.84c-.1-1-1.3-1.35-2.29-2.17-1.41-1.16-1.59-2.55-2.46-7.12-1.45-7.59-1.46-6.49-1.54-7.69-.36-6,1.67-7.94-.15-11.18-.92-1.67-1.72-1.64-2.29-3.35-.77-2.27.36-3.11.61-6.82.24-3.5-.68-3.82-.3-7.56a32.73,32.73,0,0,1,.91-4.64c.85-3.52,1.73-6.07,1.85-6.39,2.12-6.39-7.48-23.72-10.13-29.33-3.2-6.79-6-17.31-3.4-32.89a91,91,0,0,1,14.52,4.57c3,1.26,5.11,2.37,8.5,2.47s5.08-1,8.2-.07c2.91.83,2.58,2.07,5.2,2.68,3.88.91,5.48-1.53,8.74-.36,2.4.87,2.06,2.39,4.29,2.91,2.57.6,3.32-1.34,7.43-1.67,3.23-.27,4.86.77,5.9-.3s-.07-3,.85-3.56c1.44-.91,5.17,3.35,7.35,2.26.8-.41.54-1.14,1.6-1.67,1.34-.68,2.32.15,3.83-.36,1.16-.4,1.17-1.08,2.22-1.89,2.18-1.66,5.36-1.27,7.43-1,3.15.38,3.75,1.3,5.9.94,1.69-.27,2-1,3.83-1.81,2.3-1.08,5-1.16,10.42-1.3,4.58-.13,4.9.18,6.82-.22a16.74,16.74,0,0,0,1.92-.52,3.32,3.32,0,0,1,.84,0c3.47.78,1.27,19.28,1.27,19.28-1.7,14.14-2.55,19.78-3.11,25.48a163.24,163.24,0,0,0-.69,20.69,5.26,5.26,0,0,1,2.18,2.19c.91,1.75,0,2.93.81,5.33.55,1.72,1.05,1.29,1.49,2.83.85,2.91-.82,4.9.46,6.2.54.55.91.29,1.49.77,1.65,1.34.14,4.57-.23,8-.53,4.92,2,4.46,2.19,11,.15,4.59-1,7.49,1.15,9.8C890.84,553.72,891.66,554.1,891.69,555Z" transform="translate(0 -2.09)"/>
      <path d="M836.46,290.6c-.18.24-2.06,2.73-3.38,2.23-.54-.21-.74-.89-1-1.66-1.26-3.36-.28-5.2-1-8.67a16.71,16.71,0,0,0-1.61-4.16c-1.34-2.71-2.28-4.59-3.91-5s-2.28,1.2-4.83,1.55c-1,.14-1.82,0-6.32-1.79-6.07-2.4-7-3.08-8.38-2.49-1.63.7-1.43,2.12-3.68,3.21a9.4,9.4,0,0,1-4,.71c-4.27.18-4.8-1-6.55-.24a6.56,6.56,0,0,0-3.68,6.06c0,.43.1.3.69,2.85a32.36,32.36,0,0,1,.69,3.32c.12,1.82-.49,2.23-.92,4.64-.5,2.82.07,4.67-.46,4.87-.31.11-1-.41-2.73-3.53l.09,0c.42-.29-.53-2.36-.92-3.48-2.13-6,1.66-12.52,1.84-12.83,1.57-2.63,3.53-4,5.82-5.54a29.45,29.45,0,0,1,10.26-4.28,31.3,31.3,0,0,1,8.28-1.1,32.41,32.41,0,0,1,11.18,2.37c5.49,1.93,8.3,2.92,10.73,5.86a18.37,18.37,0,0,1,3.52,7.92A24.47,24.47,0,0,1,836.46,290.6Z" transform="translate(0 -2.09)" style="fill: #392e28"/>
      <path d="M876.09,366.19h0" transform="translate(0 -2.09)" style="fill: none"/>
      <path d="M799.91,372.09c2.4-.61,5.41,0,8.93.68,3.27.66,4.52,1.21,5.63.43.92-.65.85-1.58,2.07-2.39a5.51,5.51,0,0,1,3.21-.77c7.27.08,12,.51,16.44.22,5-.33,5.49-1.31,9.19-.87,2.18.26,3.52.78,4.94,0l.18-.1" transform="translate(0 -2.09)" style="fill: none"/>
      <path d="M794.53,386.32a8.73,8.73,0,0,0,3.85,2.24l.38.08c2,.41,2.3-.32,4.68,0,3.55.52,4.77,2.46,8.85,4.79a42.78,42.78,0,0,0,7.81,3.16,16.3,16.3,0,0,0,1.88.47" transform="translate(0 -2.09)" style="fill: none"/>
      <path d="M799.91,372.09a29.66,29.66,0,0,1-4.74,6,3.92,3.92,0,0,0-1.5,2.39c-.14,1.25.69,1.92,1,3a4.33,4.33,0,0,1-.18,2.79A6.09,6.09,0,0,0,791.8,385a5.83,5.83,0,0,0-2,0l-1-.44c-5.54-2.24-8.12,0-10.8-2.6-1.89-1.85-2.76-5.06-1.62-7a2.54,2.54,0,0,1,.31-.42c.59-.21,1.23-.38,1.88-.55,2-.56,2.58-.26,5.63-.66,4.7-.62,4.42-1.47,6.43-1.2,2.8.39,4.19,2.16,6.32,1.41a5.39,5.39,0,0,0,1.27-.76A6.36,6.36,0,0,1,799.91,372.09Z" transform="translate(0 -2.09)" style="fill: #e6ab91"/>
      <path d="M800.91,370.48c-.34.57-.68,1.11-1,1.61" transform="translate(0 -2.09)" style="fill: none"/>
      <path d="M887.84,367.48c.19.53-.36,1.15-.5,1.29a2.79,2.79,0,0,1-1.34.77c-1.54.43-2.24-.12-4.08,0-1.43.07-1.39.41-2.82.49a9.77,9.77,0,0,1-3.5-.49c-1.51-.45-4-.61-9-.93a55.89,55.89,0,0,0-14.31,1.09c-.45.11-.91.22-1.37.36s-1,.28-1.44.45l1.25-.79.65-.4a4.41,4.41,0,0,1,.74-2.07c1.46-2.12,4.35-2,9.2-3.53,3-.94,2.21-1.07,4.48-1.69a14.36,14.36,0,0,1,3.85-.62,31.34,31.34,0,0,0,6.47-.44c2.33-.4,4.15-.93,5.44.07.07.06.93.75.76,1.39-.22.81-2.07,1-5.36,1.22l-3.93.29c-4.15.28-6,.45-8.09,1.32a15,15,0,0,0-3.07,1.66,43.76,43.76,0,0,1,5.83-1.92,24.78,24.78,0,0,1,5.59-.86,36.4,36.4,0,0,0,7.81-.55,21.12,21.12,0,0,1,5.66.14,1.86,1.86,0,0,1,1.39.62,1.49,1.49,0,0,1-.38,1.89,1.87,1.87,0,0,1-1.39.14c-2.69-.54-5.48,0-8.23-.11l-2,0h0a22.34,22.34,0,0,0-3.55.22,21.46,21.46,0,0,0-4.86,1.35,30.45,30.45,0,0,1,7.07-1.19c.74,0,1.31,0,1.81,0h0a23.61,23.61,0,0,0,3.85-.08c.48,0,1.6-.07,3.85-.11a7.77,7.77,0,0,1,2.19.3C887.13,366.86,887.69,367,887.84,367.48Z" transform="translate(0 -2.09)" style="fill: #e6ab91"/>
      <polyline points="850.5 367.2 850.71 367.6 850.89 367.94" style="fill: none"/>
      <path d="M961,611.3c-2.13,10.19-17.24,14.58-20.49,15.4-4.7,1.19-17.36,3.47-43-10.14a171.84,171.84,0,0,1-46.17-36.07l-3.9-2.31-29.08-24.73a24.82,24.82,0,0,1,7.29-7.89c11.46-7.83,25.1-1.54,26.73-.75a117.6,117.6,0,0,1,26,16.9c2.77,2.37,5.31,4.77,7.64,7.14a116.66,116.66,0,0,1,19.78-1.13c10.63.3,17.29.49,25.35,4.13,9.26,4.19,15.44,10.72,18.75,14.28,1.91,2,5.54,4.68,7.63,9.77a23.89,23.89,0,0,1,1.05,3.19l.36.38C959.94,603.22,962,606.8,961,611.3Z" transform="translate(0 -2.09)" style="fill: #db7671"/>
    </g>
  </g>
</svg>
