<svg id="Warstwa_1" data-name="Warstwa 1" xmlns="http://www.w3.org/2000/svg" xmlns:xlink="http://www.w3.org/1999/xlink" viewBox="0 0 523.25 321.84">
  <defs>
    <clipPath id="clip-path" transform="translate(-425.99 -235.71)">
      <path d="M616.23,403.79c-.46,5.38.36,5.21-.49,6.44s-2,1.83-2.93,3.79c-.61,1.3-.52,1.94-.17,2.47.72,1.06,2.41,1.55,3.27,1.8,2.17.63,5.7,1,6.86.09.55-.42.16-.83-.17-2.37a14.81,14.81,0,0,1-.16-4.26,10.1,10.1,0,0,1,.65-3.79c.9-2.15,2-2.21,2.78-4.08,1-2.33-.47-2.79.33-4.83s2.63-2.29,5.06-4.74a12.48,12.48,0,0,0,3.76-7s-3.52,3.65-1.42,6.54c.44.6,1.43,1.6,1,2.84a4,4,0,0,1-1.08,1.49c-1.36,1.4-2.37,1.61-3.22,2.49a3.3,3.3,0,0,0-.7,3.19c.33,2.07,1.78,2,2.61,4.44.37,1.09.94,2.77-.33,4.26a5.32,5.32,0,0,0-.73.95,2.94,2.94,0,0,0,0,2.75l20.82.81a1.09,1.09,0,0,0,.16-1.28c-.35-.54-1.23-.75-2.28-1-3.84-1.07-3.57-1.46-8.41-2.7l-1.15-.28c-1.16-2.57-.68-4.34,0-5.5s1.68-1.87,1.42-3.16c-.18-.85-.8-1.36-.55-2.4.16-.68.49-.71.76-1.51.41-1.17-.16-1.41.06-2.4.3-1.39,1.55-1.52,2-2.85.27-.88-.22-1-.49-2.46-.53-2.73,1.07-3.19.32-5.4-.46-1.37-1.47-2.38-1-2.56s1.06.41,2.45.6a8.74,8.74,0,0,0,3.35-.27,11.21,11.21,0,0,0,4.33-4.27,7.14,7.14,0,0,0,.65-3.27c.12-2-.39-2.44-.89-2.6s-1.16.12-1.39-.05.7-.72.9-1.47-.64-1.2-1.15-2c-.86-1.34.37-1.95.25-3.32-.25-2.7-5.47-4.62-6.94-5.16a26.66,26.66,0,0,0-5.88-1.37l-.44-2.39-1-.14a9.22,9.22,0,0,0,.82-3.49c0-2.18.08-3.62-1.72-4.5a10,10,0,0,0-7.68.09c-1.61.85-1.65,2.12-1.71,3.84a7.18,7.18,0,0,0,.82,3.51,3.76,3.76,0,0,0-.57.56,2.59,2.59,0,0,0-.63,1.73,19,19,0,0,0-5.91-.11c-1.32.18-4.22.59-6,1.89a5,5,0,0,1-2.28,1.14,6.2,6.2,0,0,1-1.72.09c-2.31-.12-5.32.92-6.86,1.42-6.73,2.22-9.58,2.17-16.9,5.07-6.68,2.65-12.79,5.08-16.5,9.67a12.8,12.8,0,0,0-2.85,6.35l17-7.91a15,15,0,0,1,1.72,2.37c1.59,2.75,1,4,2,6.54s1.61,4.2,4.24,5.45c2.89,1.36,7,1.53,10,1.65,3.47.15,3.68-.23,5.64.15.73.14,5.52,1.05,7.1,3.27a2.58,2.58,0,0,0,1.72,1.37c.89.16,1.69-.22,2,0s-.74,1.06-1.31,1.61C616.75,400.29,616.47,401,616.23,403.79Z" style="fill: none"/>
    </clipPath>
  </defs>
  <g id="HTML">
    <polyline points="37.4 120.03 80.78 120.03 123.56 120.03 116.76 174.32 80.78 180.01 44.3 174.07 37.4 121.52" style="fill: #e44d26"/>
    <path d="M536.08,406.13,507,410.82q-.24-25-.46-50l36.22-.26Q539.42,383.35,536.08,406.13Z" transform="translate(-425.99 -235.71)" style="fill: #f16529"/>
    <polygon points="107.7 131.36 53.43 131.36 55.27 151.42 93.93 151.42 92.93 159.75 80.78 161.39 69.09 159.48 68.15 154.54 56.7 154.28 57.66 164.7 80.48 169.38 102.94 165.21 106.75 144.64 66.7 144.39 66.24 138.39 107.7 138.39 107.7 131.36" style="fill: #fff"/>
  </g>
  <g>
    <path d="M708,349l7.78,54.26,34.8,5.72,35.23-6.8L794.2,349Zm39.7,47.27L722.83,392c0-2,.13-4.08.2-6.11l16.54,2.43v-27.8h8.17ZM779.66,400l-28.41,4.84V353.8h34.64Z" transform="translate(-425.99 -235.71)" style="fill: #f1ff16"/>
    <path d="M747.74,360.51v35.72L722.83,392c0-2,.13-4.08.2-6.11l16.34,2.42q.11-13.89.2-27.8Z" transform="translate(-425.99 -235.71)" style="fill: #fff"/>
    <polygon points="355.24 131.25 338.11 131.25 338.11 139.98 354.45 138.76 352.51 156.23 328.3 160.52 328.3 153.58 345.39 151.52 345.89 146.02 328.3 147.96 328.3 124.8 356.61 124.8 355.24 131.25" style="fill: #fff"/>
    <path d="M751.25,353.8v51L779.66,400l6.23-46.24Zm12.85,21.89,16.34-1.24-2,17.47-24.21,4.29v-6.94l17.1-2.06.5-5.5-17.6,1.94V360.51H782.6L781.21,367H764.09Z" transform="translate(-425.99 -235.71)" style="fill: #f1f469"/>
  </g>
  <g id="css-logo">
    <polygon points="437.04 0.59 523.25 0.59 516.43 55.01 480.94 61.33 444.75 55.91 437.04 0.59" style="fill: #1573b7"/>
    <path d="M936.11,287.51l-29,4.37V240.8l34.56-.27Z" transform="translate(-425.99 -235.71)" style="fill: #36a9de"/>
    <polygon points="454.55 10.73 454.55 18.26 495.01 18.26 495.19 24.34 468.78 24.34 468.57 31.78 493.66 31.78 492.85 39.74 480.94 42.48 469.03 40.51 468.57 34.6 457.83 34.6 458.3 45.38 480.15 49.32 503.59 45.64 507.44 10.73 454.55 10.73" style="fill: #e4edeb"/>
  </g>
  <g>
    <path d="M703.27,235.71v60H790.7v-60Zm83.08,57.56H707.63V238.88h78.72Z" transform="translate(-425.99 -235.71)" style="fill: #ff2bc2"/>
    <path d="M707.63,238.88v54.39h78.72V238.88Zm32.78,39.2-6.9-10.62-7,10.85-7.36-.11,10-14.06-9.7-13.46-.18-.24-.67-.73,8.51,0,7.21,10.05,6.11-10.05,7.52.11-9.87,14.06,10.18,14.39Zm25.74.65a20,20,0,0,1-6.26-.08,15.5,15.5,0,0,1-6.37-2.66,9.61,9.61,0,0,1-4.18-8.23,9,9,0,0,1,2.29-5.94,15.11,15.11,0,0,1,8.78-4.72c.36-.05,1.72-.18,3.45-.23,1,0,1.85,0,2.4,0,0-2.44.07-4.87.1-7.31l7,.38.21,26.73A24.46,24.46,0,0,1,766.15,278.73Z" transform="translate(-425.99 -235.71)" style="fill: #2e001e"/>
    <polygon points="322.25 42.6 314.42 42.37 307.52 31.75 300.47 42.6 293.11 42.48 303.14 28.43 293.44 14.96 293.27 14.72 292.59 14 301.1 14.04 308.31 24.09 314.42 14.04 321.94 14.15 312.07 28.2 322.25 42.6" style="fill: #ff2bc2"/>
    <path d="M773.36,249.94l-7-.38c0,2.44-.07,4.87-.1,7.31-.55,0-1.39,0-2.4,0-1.73.05-3.09.18-3.45.23a15.11,15.11,0,0,0-8.78,4.72,9,9,0,0,0-2.29,5.94,9.61,9.61,0,0,0,4.18,8.23,15.5,15.5,0,0,0,6.37,2.66,20,20,0,0,0,6.26.08,24.46,24.46,0,0,0,7.42-2.06Zm-14.1,23.38a5.63,5.63,0,0,1-2.3-2.59,5.93,5.93,0,0,1-.1-5.1,7.89,7.89,0,0,1,3.76-3.89,11.52,11.52,0,0,1,1.67-.68l4-.08q0,6.51.1,13C765.86,274.12,762.06,274.94,759.26,273.32Z" transform="translate(-425.99 -235.71)" style="fill: #ff2bc2"/>
    <path d="M766.36,274c-.5.11-4.3.93-7.1-.69a5.63,5.63,0,0,1-2.3-2.59,5.93,5.93,0,0,1-.1-5.1,7.89,7.89,0,0,1,3.76-3.89,11.52,11.52,0,0,1,1.67-.68l4-.08Q766.31,267.49,766.36,274Z" transform="translate(-425.99 -235.71)" style="fill: #2e001e"/>
  </g>
  <g>
    <path d="M554.11,238.74v60h86.16v-60Zm82.07,57.05h-78v-53.9h78Z" transform="translate(-425.99 -235.71)" style="fill: #ff7a04"/>
    <polygon points="164.35 21.7 168.33 32.76 159.49 32.69 163.17 21.63 164.35 21.7" style="fill: none"/>
    <polygon points="164.35 21.7 168.33 32.76 159.49 32.69 163.17 21.63 164.35 21.7" style="fill: none"/>
    <path d="M558.2,241.89v53.9h78v-53.9ZM598.14,281l-3.38-8H584.45l-2.65,8.06h-7.66l11-28.56h9L606.1,281Zm19.3.08h-7.36l.14-21.09,7.37-.08Zm-3.31-23.58c-2.48,0-4.5-1.23-4.5-2.75s2-2.74,4.5-2.74,4.49,1.22,4.49,2.74S616.6,257.49,614.13,257.49Z" transform="translate(-425.99 -235.71)" style="fill: #2a1a10"/>
    <polygon points="180.11 45.28 172.16 45.28 168.77 37.3 158.46 37.3 155.81 45.36 148.15 45.36 159.19 16.8 168.18 16.8 180.11 45.28" style="fill: #2a1a10"/>
    <path d="M585.92,252.58" transform="translate(-425.99 -235.71)" style="fill: none"/>
    <path d="M594.17,252.51h-9l-11,28.56h7.66l2.65-8.06h10.31l3.38,8h8Zm-8.69,15.89,3.68-11.06,1.18.07,4,11.06Z" transform="translate(-425.99 -235.71)" style="fill: #ff7a04"/>
    <polygon points="168.33 32.76 159.49 32.69 163.17 21.63 164.35 21.7 168.33 32.76" style="fill: none"/>
    <polygon points="168.33 32.76 159.49 32.69 163.17 21.63 164.35 21.7 168.33 32.76" style="fill: none"/>
    <polygon points="191.6 24.19 191.45 45.36 184.09 45.36 184.23 24.27 191.6 24.19" style="fill: #ff7a04"/>
    <ellipse cx="188.14" cy="19.03" rx="4.49" ry="2.75" style="fill: #ff7a04"/>
  </g>
  <ellipse cx="166.71" cy="231.97" rx="21.41" ry="2.71" style="fill: none"/>
  <ellipse cx="166.71" cy="231.97" rx="21.41" ry="2.71" style="fill: none"/>
  <g>
    <path d="M592.51,463.72c-13.15,0-23.81,2-23.81,4.44s10.66,4.44,23.81,4.44,23.8-2,23.8-4.44S605.65,463.72,592.51,463.72Zm.19,6.67c-11.83,0-21.41-1.21-21.41-2.71S580.87,465,592.7,465s21.41,1.22,21.41,2.72S604.53,470.39,592.7,470.39Z" transform="translate(-425.99 -235.71)" style="fill: #eea61c"/>
    <path d="M616.31,468.16c0,2.45-10.66,4.44-23.8,4.44s-23.81-2-23.81-4.44l.12,13.43s3.49,5.36,23.93,4.86,23.8-4.74,23.8-4.74Zm-44.3,8.5a.84.84,0,1,1,.81-.84A.83.83,0,0,1,572,476.66Z" transform="translate(-425.99 -235.71)" style="fill: #eea61c"/>
    <path d="M616.35,485.36l0-.06a72.88,72.88,0,0,1-47.13-.19h-.09L569,499.46s3.48,5.63,23.86,5.11,23.73-5,23.73-5Zm-43.67,10.37a.84.84,0,1,1,.82-.84A.83.83,0,0,1,572.68,495.73Z" transform="translate(-425.99 -235.71)" style="fill: #eea61c"/>
    <path d="M616.35,504.45l0-.06a73.05,73.05,0,0,1-47.13-.19h-.09L569,518.55s3.48,5.63,23.86,5.11,23.73-5,23.73-5ZM572.71,514a.85.85,0,1,1,.82-.84A.83.83,0,0,1,572.71,514Z" transform="translate(-425.99 -235.71)" style="fill: #eea61c"/>
    <path d="M632.73,492.71l7.94.09a11.2,11.2,0,0,0,0-3.09,9.56,9.56,0,0,0-1.85-4.63,8.78,8.78,0,0,0-3.56-2.67,10.29,10.29,0,0,0-6.9-.42,9,9,0,0,0-3.79,2.06,10.35,10.35,0,0,0-2.52,10.2c.63,2.07,1.86,3.38,3.56,5.19,2.46,2.63,3.52,2.47,5.55,5.1s2.22,4.3,2.2,5.43c0,.64,0,2.13-1,2.76a2,2,0,0,1-1.67.19,2.09,2.09,0,0,1-1.12-1l-.09-6.36-7.58-.05v7.11a8.69,8.69,0,0,0,1.73,3.7c2.53,3.09,6.54,3.11,8.24,3.12a8.5,8.5,0,0,0,5.47-1.31,9,9,0,0,0,3.09-5,13.77,13.77,0,0,0,.21-7.17,15,15,0,0,0-4.13-7.1c-.94-.88-1.23-.9-3.86-3.13-1.9-1.62-2.63-2.36-3-3.56-.3-.94-.56-2.75.36-3.43a1.71,1.71,0,0,1,2,.06,2.36,2.36,0,0,1,.6,1.44A8.35,8.35,0,0,1,632.73,492.71Z" transform="translate(-425.99 -235.71)" style="fill: #eea61c"/>
    <path d="M660.25,516.89a9.6,9.6,0,0,0,1.74-3.46,10,10,0,0,0,.32-3l0-21.15c-.29-.89-1.87-5.42-6-6.92a9.68,9.68,0,0,0-4.06-.47,9.52,9.52,0,0,0-6.44,2.29,9.07,9.07,0,0,0-2.57,5l.06,24.07a9.23,9.23,0,0,0,4.45,5.8,8.51,8.51,0,0,0,6.67.5l6,3.62,3.12-4.18Zm-5.83-6.08c0,1.68-.5,2.25-2,2.25s-1.57-2.44-1.57-2.44l-.05-20.21s.59-2,1.8-2,1.76,1.78,1.76,1.78S654.46,509.13,654.42,510.81Z" transform="translate(-425.99 -235.71)" style="fill: #eea61c"/>
    <polygon points="240.06 246.56 240.06 283.71 255.93 283.71 256.02 277.53 247.81 277.53 247.81 246.47 240.06 246.56" style="fill: #eea61c"/>
  </g>
  <g id="excel-logo">
    <path d="M878.53,346.39l-45.28,6.39V407l44.94,5.75h6V346.36Zm-9.46,45.55h-6.79s-4.7-9.06-5-9.06-4.73,8.53-4.73,8.53h-6.75s8-11.49,7.88-11.87-6.87-12.11-6.87-12.11h6.38l4.09,8.79,5.07-9.32h6.05s-7.29,11.8-7.17,12.43,8.22,12.61,7.88,12.61Z" transform="translate(-425.99 -235.71)" style="fill: #006837"/>
    <path d="M884.17,352.6H917.5a3.09,3.09,0,0,1,1.91,2.85v48.22s-.66,2.4-2.7,2.4H884.17v-2.81h29.57c1.85,0,2.46-2.13,2.46-2.13V358.37a2.75,2.75,0,0,0-1.73-2.52h-30.3Z" transform="translate(-425.99 -235.71)" style="fill: #006837"/>
    <rect x="458.29" y="124" width="7.77" height="5.33" style="fill: #006837"/>
    <rect x="469.77" y="124" width="13.85" height="5.33" style="fill: #006837"/>
    <rect x="458.29" y="132.52" width="7.77" height="5.33" style="fill: #006837"/>
    <rect x="469.77" y="132.52" width="13.85" height="5.33" style="fill: #006837"/>
    <rect x="458.29" y="141.04" width="7.77" height="5.33" style="fill: #006837"/>
    <rect x="469.77" y="141.04" width="13.85" height="5.33" style="fill: #006837"/>
    <rect x="458.29" y="149.3" width="7.77" height="5.33" style="fill: #006837"/>
    <rect x="469.77" y="149.3" width="13.85" height="5.33" style="fill: #006837"/>
    <rect x="458.29" y="157.82" width="7.77" height="5.33" style="fill: #006837"/>
    <rect x="469.77" y="157.82" width="13.85" height="5.33" style="fill: #006837"/>
  </g>
  <text transform="translate(439.64 205.14) scale(1.04 1)" style="font-size: 12px;fill: #1b1464;font-family: Poppins-Bold, Poppins;font-weight: 700">Excel</text>
  <text transform="translate(125.71 88.49) scale(1.1 1)" style="font-size: 12px;fill: #1b1464;font-family: Poppins-Bold, Poppins;font-weight: 700">Adobe Illustrator</text>
  <text transform="translate(276.25 88.49) scale(1.24 1)" style="font-size: 12px;fill: #1b1464;font-family: Poppins-Bold, Poppins;font-weight: 700">Adobe Design</text>
  <g>
    <path d="M732.07,463.23v60H819.5v-60Zm83.08,57.56H736.43V466.4h78.72Z" transform="translate(-425.99 -235.71)" style="fill: #ff2bc2"/>
    <path d="M736.43,466.4v54.39h78.72V466.4Zm32.78,39.2L762.31,495l-7,10.85-7.36-.11,10-14.06-9.7-13.46-.18-.24-.67-.73,8.51,0,7.21,10.05,6.11-10.05,7.52.11-9.87,14.06L777,505.83Zm25.74.65a20,20,0,0,1-6.26-.08,15.5,15.5,0,0,1-6.37-2.66,9.61,9.61,0,0,1-4.18-8.23,9,9,0,0,1,2.29-5.94,15.11,15.11,0,0,1,8.78-4.72c.36-.05,1.72-.18,3.45-.23,1,0,1.85,0,2.4,0,0-2.44.07-4.87.1-7.31l7,.38.21,26.73A24.46,24.46,0,0,1,795,506.25Z" transform="translate(-425.99 -235.71)" style="fill: #2e001e"/>
    <polygon points="351.05 270.12 343.22 269.89 336.32 259.26 329.27 270.12 321.91 270 331.94 255.95 322.24 242.49 322.07 242.24 321.39 241.52 329.9 241.56 337.11 251.61 343.22 241.56 350.74 241.67 340.87 255.72 351.05 270.12" style="fill: #ff2bc2"/>
    <path d="M802.16,477.46l-7-.38c0,2.44-.07,4.87-.1,7.31-.55,0-1.39,0-2.4,0-1.73.05-3.09.18-3.45.23a15.11,15.11,0,0,0-8.78,4.72,9,9,0,0,0-2.29,5.94,9.61,9.61,0,0,0,4.18,8.23,15.5,15.5,0,0,0,6.37,2.66,20,20,0,0,0,6.26.08,24.46,24.46,0,0,0,7.42-2.06Zm-14.1,23.38a5.63,5.63,0,0,1-2.3-2.59,5.93,5.93,0,0,1-.1-5.1,7.89,7.89,0,0,1,3.76-3.89,11.52,11.52,0,0,1,1.67-.68l4-.08q0,6.51.1,13C794.66,501.64,790.86,502.46,788.06,500.84Z" transform="translate(-425.99 -235.71)" style="fill: #ff2bc2"/>
    <path d="M795.16,501.53c-.5.11-4.3.93-7.1-.69a5.63,5.63,0,0,1-2.3-2.59,5.93,5.93,0,0,1-.1-5.1,7.89,7.89,0,0,1,3.76-3.89,11.52,11.52,0,0,1,1.67-.68l4-.08Q795.11,495,795.16,501.53Z" transform="translate(-425.99 -235.71)" style="fill: #2e001e"/>
  </g>
  <text transform="translate(304.6 314.57) scale(1.24 1)" style="font-size: 12px;fill: #1b1464;font-family: Poppins-Bold, Poppins;font-weight: 700">Adobe Design</text>
  <text transform="translate(468.76 89.57) scale(1.24 1)" style="font-size: 12px;fill: #1b1464;font-family: Poppins-Bold, Poppins;font-weight: 700">CSS</text>
  <text transform="translate(61.6 205.49) scale(1.24 1)" style="font-size: 12px;fill: #1b1464;font-family: Poppins-Bold, Poppins;font-weight: 700">HTML</text>
  <text transform="translate(294.63 204.66) scale(1.04 1)" style="font-size: 12px;fill: #1b1464;font-family: Poppins-Bold, Poppins;font-weight: 700">Javascript</text>
  <text transform="translate(178.6 313.49) scale(1.24 1)" style="font-size: 12px;fill: #1b1464;font-family: Poppins-Bold, Poppins;font-weight: 700">SQL</text>
  <g id="excel-logo-2" data-name="excel-logo">
    <path d="M471.27,239.58,426,245.87v53.35l44.94,5.66h6V239.55Zm-9.46,44.84H455s-4.69-8.92-5-8.92-4.73,8.4-4.73,8.4h-6.76s8-11.31,7.89-11.69-6.87-11.91-6.87-11.91h6.38L450,269l5.07-9.18h6.05s-7.29,11.61-7.18,12.24,8.23,12.41,7.89,12.41Z" transform="translate(-425.99 -235.71)" style="fill: #ed1c24"/>
    <path d="M476.91,245.69h33.33a3.07,3.07,0,0,1,1.91,2.8V296s-.66,2.36-2.7,2.36H476.91v-2.76h29.57c1.85,0,2.46-2.1,2.46-2.1V251.38a2.73,2.73,0,0,0-1.73-2.49H476.9Z" transform="translate(-425.99 -235.71)" style="fill: #ed1c24"/>
    <rect x="51.02" y="16.98" width="7.77" height="5.25" style="fill: #ed1c24"/>
    <rect x="62.51" y="16.98" width="13.85" height="5.25" style="fill: #ed1c24"/>
    <rect x="51.02" y="25.37" width="7.77" height="5.25" style="fill: #ed1c24"/>
    <rect x="62.51" y="25.37" width="13.85" height="5.25" style="fill: #ed1c24"/>
    <rect x="51.02" y="33.76" width="7.77" height="5.25" style="fill: #ed1c24"/>
    <rect x="62.51" y="33.76" width="13.85" height="5.25" style="fill: #ed1c24"/>
    <rect x="51.02" y="41.89" width="7.77" height="5.25" style="fill: #ed1c24"/>
    <rect x="62.51" y="41.89" width="13.85" height="5.25" style="fill: #ed1c24"/>
    <rect x="51.02" y="50.28" width="7.77" height="5.25" style="fill: #ed1c24"/>
    <rect x="62.51" y="50.28" width="13.85" height="5.25" style="fill: #ed1c24"/>
  </g>
  <text transform="translate(25.6 88.49) scale(1.26 1)" style="font-size: 12px;fill: #1b1464;font-family: Poppins-Bold, Poppins;font-weight: 700">VBA</text>
  <g style="clip-path: url(#clip-path)">
    <image width="306" height="165" transform="translate(132.6 100.41) scale(0.86 0.59)" xlink:href="../../../Users/gadzi/Desktop/HTML%20scr/Designs/gsap.png"/>
  </g>
  <text transform="translate(182.46 205.49) scale(0.88 1)" style="font-size: 12px;fill: #1b1464;font-family: Poppins-Bold, Poppins;font-weight: 700">GSAP</text>
</svg>
