<svg id="Warstwa_1" data-name="Warstwa 1" xmlns="http://www.w3.org/2000/svg" xmlns:xlink="http://www.w3.org/1999/xlink" width="473.53" height="291.41" viewBox="0 0 473.53 291.41">
  <defs>
    <clipPath id="clip-path">
      <polygon points="0.01 147.2 0.12 89.82 121.23 72.8 121.12 130.18 0.01 147.2" style="fill: none"/>
    </clipPath>
    <clipPath id="clip-path-2">
      <polygon points="0.01 92.2 0.12 34.82 121.23 17.8 121.12 75.18 0.01 92.2" style="fill: none"/>
    </clipPath>
    <clipPath id="clip-path-3">
      <polygon points="0.01 37.2 0.12 -20.18 121.23 -37.2 121.12 20.18 0.01 37.2" style="fill: none"/>
    </clipPath>
    <pattern id="Nowy_wzorek_6" data-name="Nowy wzorek 6" width="121.23" height="110" patternTransform="translate(0 -50)" patternUnits="userSpaceOnUse" viewBox="0 0 121.23 110">
      <rect width="121.23" height="110" style="fill: none"/>
      <g style="isolation: isolate">
        <g style="clip-path: url(#clip-path)">
          <g>
            <path d="M10.11,126.56a2.1,2.1,0,0,0,1.33-.83,7.54,7.54,0,0,0,1.13-1.92,18.29,18.29,0,0,0,.9-2.71c.26-1,.47-2.06.65-3.15s.32-2.18.42-3.27.14-2.11.16-3.08a19,19,0,0,0-.07-2.06,6.7,6.7,0,0,0-.29-1.55,2.25,2.25,0,0,0-.55-.92,1.06,1.06,0,0,0-.84-.22h0a2.68,2.68,0,0,0-1.61,1.08,12,12,0,0,0-1.56,2.6,27.15,27.15,0,0,0-1.33,3.7,28.73,28.73,0,0,0-.84,4.43L7,123.27a7.44,7.44,0,0,0,1.34,2.59,2,2,0,0,0,1.74.71h0m4.41-27h.08a2.86,2.86,0,0,1,2.29.59,5.34,5.34,0,0,1,1.47,2.24,14.52,14.52,0,0,1,.77,3.51,38.31,38.31,0,0,1,.2,4.42c0,1.45-.13,3-.29,4.71s-.43,3.37-.75,5.06A44.58,44.58,0,0,1,17.07,125a22.7,22.7,0,0,1-1.73,4.24,11.86,11.86,0,0,1-2.26,3.05,5,5,0,0,1-2.77,1.38h-.08a3,3,0,0,1-1.33-.11,3.28,3.28,0,0,1-1.13-.61,4.79,4.79,0,0,1-.94-1,8.63,8.63,0,0,1-.72-1.3L4.49,144.28a2.2,2.2,0,0,1-.19.63,1.39,1.39,0,0,1-.42.5,2.2,2.2,0,0,1-.72.37,5,5,0,0,1-1,.22l-.13,0a5,5,0,0,1-1.07,0,1.72,1.72,0,0,1-.65-.2.68.68,0,0,1-.3-.42,1.63,1.63,0,0,1,0-.59l5.13-42.26a1.47,1.47,0,0,1,.56-1.08,3.45,3.45,0,0,1,1.5-.49h.1a4.71,4.71,0,0,1,.89,0,1.43,1.43,0,0,1,.55.17.65.65,0,0,1,.27.37,1.37,1.37,0,0,1,0,.58L8.46,107a14,14,0,0,1,.89-2.4,14.59,14.59,0,0,1,1.42-2.34,9.88,9.88,0,0,1,1.81-1.84,4.15,4.15,0,0,1,1.94-.87" style="fill: #fff"/>
            <path d="M32.49,97.32a2.59,2.59,0,0,0-1.31.66,7.92,7.92,0,0,0-1.34,1.56,16.93,16.93,0,0,0-1.22,2.23,23.53,23.53,0,0,0-1,2.77l.57-4.82a1.58,1.58,0,0,0,0-.58.61.61,0,0,0-.25-.37,1.28,1.28,0,0,0-.54-.16,4,4,0,0,0-.9,0,4.6,4.6,0,0,0-.91.2,2.12,2.12,0,0,0-.64.31,1.24,1.24,0,0,0-.37.45,1.83,1.83,0,0,0-.17.6l-3.65,30.27a1.55,1.55,0,0,0,0,.58.62.62,0,0,0,.31.37,1.4,1.4,0,0,0,.65.18,4.77,4.77,0,0,0,1.08-.06l.2,0a5.48,5.48,0,0,0,.89-.19,2.41,2.41,0,0,0,.72-.34,1.34,1.34,0,0,0,.42-.47,1.67,1.67,0,0,0,.17-.6l1.65-13.6a31.16,31.16,0,0,1,.76-4,26.44,26.44,0,0,1,1.17-3.44,13.37,13.37,0,0,1,1.35-2.46,2.29,2.29,0,0,1,1.28-1h0a1,1,0,0,1,.54,0l.42.18.35.19a.48.48,0,0,0,.32.08c.13,0,.25-.18.37-.51a8.46,8.46,0,0,0,.33-1.25c.09-.5.18-1,.26-1.61s.15-1.14.21-1.68.09-1,.13-1.42,0-.69,0-.84a.85.85,0,0,0-.39-.91,2.32,2.32,0,0,0-.42-.19,4,4,0,0,0-.52-.11,2,2,0,0,0-.54,0h0" style="fill: #fff"/>
            <path d="M41.52,123.14a2.74,2.74,0,0,0,1.58-.84,7.64,7.64,0,0,0,1.3-1.93,17.54,17.54,0,0,0,1-2.7,31.19,31.19,0,0,0,.73-3.16c.19-1.1.34-2.2.44-3.31s.16-2.15.18-3.16a16.86,16.86,0,0,0-.12-2.47,5.41,5.41,0,0,0-.47-1.78,2.28,2.28,0,0,0-.87-1,1.92,1.92,0,0,0-1.31-.24h0a2.78,2.78,0,0,0-1.58.85,7.51,7.51,0,0,0-1.3,1.91,15.77,15.77,0,0,0-1,2.69,28.35,28.35,0,0,0-.72,3.14,33.12,33.12,0,0,0-.45,3.3c-.11,1.12-.16,2.18-.17,3.18a19,19,0,0,0,.1,2.49,6,6,0,0,0,.47,1.8,2.46,2.46,0,0,0,.87,1,2,2,0,0,0,1.32.24h0m2.95-27.3.1,0a5.44,5.44,0,0,1,3.1.41,5,5,0,0,1,2.14,2,10.42,10.42,0,0,1,1.24,3.59,27.15,27.15,0,0,1,.35,5c0,1.61-.14,3.27-.32,5a46.85,46.85,0,0,1-.85,5.06,36.6,36.6,0,0,1-1.39,4.72,20.28,20.28,0,0,1-2,4,11.85,11.85,0,0,1-2.63,2.88A6.69,6.69,0,0,1,41,129.84l-.14,0a5.43,5.43,0,0,1-3.1-.4,5.09,5.09,0,0,1-2.15-2,10.71,10.71,0,0,1-1.23-3.59,26.49,26.49,0,0,1-.35-5c0-1.6.13-3.26.32-5a46.65,46.65,0,0,1,.84-5A35,35,0,0,1,36.64,104a19.49,19.49,0,0,1,2-4,11.35,11.35,0,0,1,2.63-2.86,6.73,6.73,0,0,1,3.2-1.33" style="fill: #fff"/>
            <path d="M59,94.6l.15,0a4.91,4.91,0,0,1,1.07,0,1.43,1.43,0,0,1,.66.2.61.61,0,0,1,.3.39,1.36,1.36,0,0,1,0,.58l-3.86,31.76a47.75,47.75,0,0,1-.87,5.13,18.49,18.49,0,0,1-1.31,3.86A7.55,7.55,0,0,1,53.36,139,4.58,4.58,0,0,1,51,140h-.09a3.84,3.84,0,0,1-1.47-.07,1.36,1.36,0,0,1-.73-.4,2.1,2.1,0,0,1-.12-.42c0-.15,0-.38,0-.69,0-.16,0-.4,0-.73s.06-.69.1-1.08.1-.8.16-1.22.14-.8.21-1.14a5.49,5.49,0,0,1,.26-.85c.09-.22.19-.34.29-.35h.2l.19,0a1.06,1.06,0,0,1,.24,0,1.51,1.51,0,0,0,.36,0,1.47,1.47,0,0,0,.79-.37,2.78,2.78,0,0,0,.66-.93,9.06,9.06,0,0,0,.51-1.61,20.88,20.88,0,0,0,.4-2.5l3.81-31.44a2,2,0,0,1,.18-.62,1.54,1.54,0,0,1,.42-.48,2.67,2.67,0,0,1,.72-.37A5,5,0,0,1,59,94.6m1.69-13.29h.08a2.48,2.48,0,0,1,1.22.08,1.26,1.26,0,0,1,.72.68A3.53,3.53,0,0,1,63,83.4a15,15,0,0,1-.13,2,18.63,18.63,0,0,1-.39,2.14A5,5,0,0,1,61.87,89a2.33,2.33,0,0,1-.87.84,3.85,3.85,0,0,1-1.2.37h-.08a2.74,2.74,0,0,1-1.22-.07,1.2,1.2,0,0,1-.7-.65,3.34,3.34,0,0,1-.26-1.34,15.81,15.81,0,0,1,.13-2.1A16.06,16.06,0,0,1,58.05,84a4.66,4.66,0,0,1,.59-1.44,2.66,2.66,0,0,1,.89-.88,3.21,3.21,0,0,1,1.19-.38" style="fill: #fff"/>
            <path d="M69.67,106.27a6.93,6.93,0,0,0,2.19-.62,5,5,0,0,0,1.57-1.14,4.34,4.34,0,0,0,.88-1.53,6.21,6.21,0,0,0,.29-1.79A3.73,3.73,0,0,0,74.08,99a1.56,1.56,0,0,0-1.61-.68h0a2.75,2.75,0,0,0-1.57.79,6.48,6.48,0,0,0-1.26,1.78,13.55,13.55,0,0,0-1,2.52,26.66,26.66,0,0,0-.66,3l1.49-.19.2,0m3.2-14H73a4.75,4.75,0,0,1,2.77.38,4.65,4.65,0,0,1,1.88,1.67,7.66,7.66,0,0,1,1.08,2.57A13.47,13.47,0,0,1,79,100a15.51,15.51,0,0,1-.65,4.4A10.14,10.14,0,0,1,76.51,108a9.66,9.66,0,0,1-3.14,2.51,12.91,12.91,0,0,1-4.14,1.24l-.34,0-1.64.21c0,.51-.1,1-.13,1.54s-.06,1-.06,1.39a8.13,8.13,0,0,0,.68,4,2.18,2.18,0,0,0,2.38,1.08l.18,0a6.84,6.84,0,0,0,1.94-.55,12.6,12.6,0,0,0,1.65-.9c.47-.32.86-.6,1.18-.85a1.8,1.8,0,0,1,.66-.4h0a.25.25,0,0,1,.29.19,2.21,2.21,0,0,1,.08.73c0,.38,0,.81-.07,1.31s-.11,1-.18,1.48a13.49,13.49,0,0,1-.27,1.38,4.59,4.59,0,0,1-.36,1,3.14,3.14,0,0,1-.79.9,8.58,8.58,0,0,1-1.39.91,11.19,11.19,0,0,1-1.81.77,9.92,9.92,0,0,1-1.9.46h-.13a5.92,5.92,0,0,1-3-.3,4.59,4.59,0,0,1-2.1-1.78A9.17,9.17,0,0,1,62.93,121a25.18,25.18,0,0,1-.35-5c0-1.5.13-3.11.3-4.84s.45-3.43.8-5.13a42.49,42.49,0,0,1,1.37-4.93,21.19,21.19,0,0,1,2-4.23,12.43,12.43,0,0,1,2.61-3.08,6.5,6.5,0,0,1,3.25-1.44" style="fill: #fff"/>
            <path d="M90.36,90.19a5.89,5.89,0,0,0-3.16,1.47,11.82,11.82,0,0,0-2.53,3.14,22.92,22.92,0,0,0-1.87,4.3A43.33,43.33,0,0,0,81.52,104a48.88,48.88,0,0,0-.74,5c-.17,1.64-.26,3.15-.28,4.51q-.1,5.66,1.37,8.35a4.15,4.15,0,0,0,4.51,2.33h.08a5.35,5.35,0,0,0,1.57-.46,7.32,7.32,0,0,0,1.48-.88,7.7,7.7,0,0,0,1.21-1.13,6.59,6.59,0,0,0,.77-1.09,4.52,4.52,0,0,0,.41-1.23c.12-.52.21-1.07.3-1.66s.16-1.17.22-1.74.09-1,.09-1.43a3.87,3.87,0,0,0-.07-.87c0-.19-.13-.28-.25-.26h0c-.19,0-.41.21-.66.55s-.54.73-.89,1.16a7.48,7.48,0,0,1-1.23,1.22,3.37,3.37,0,0,1-1.62.68h-.1a1.77,1.77,0,0,1-2-1.15,10.08,10.08,0,0,1-.56-4c0-.71.06-1.56.14-2.54s.21-2,.38-3.08.39-2.15.64-3.22a17.7,17.7,0,0,1,.94-2.88A8.43,8.43,0,0,1,88.55,98a2.62,2.62,0,0,1,1.63-1h0a2,2,0,0,1,1.41.25,3.56,3.56,0,0,1,.91.8c.24.31.44.58.6.83s.33.36.51.34.37-.24.53-.65a7.7,7.7,0,0,0,.42-1.51c.12-.59.21-1.21.3-1.87S95,94,95,93.45a3.73,3.73,0,0,0-.06-.72,1.7,1.7,0,0,0-.26-.65,3.62,3.62,0,0,0-.63-.77,4.12,4.12,0,0,0-1-.7,4.87,4.87,0,0,0-1.24-.4,4.61,4.61,0,0,0-1.39,0h-.09" style="fill: #fff"/>
            <path d="M102.59,81.38a4.81,4.81,0,0,0-.89.18,2.77,2.77,0,0,0-.71.36,1.52,1.52,0,0,0-.42.5,1.84,1.84,0,0,0-.17.62l-.82,6.75L97.67,90c-.22,0-.4.27-.56.71a9.86,9.86,0,0,0-.41,1.57c-.09.6-.17,1.21-.22,1.83s-.09,1.12-.09,1.49a3.38,3.38,0,0,0,.09,1.08.31.31,0,0,0,.33.25l1.92-.25L97,111.45c0,.29-.08.62-.12,1s-.07.73-.1,1.09-.07.7-.08,1,0,.6,0,.85a16.58,16.58,0,0,0,.23,3.37,6,6,0,0,0,.79,2.21A2.89,2.89,0,0,0,99,122.17a3.81,3.81,0,0,0,1.88.18,4.68,4.68,0,0,0,1-.24,5.78,5.78,0,0,0,.94-.44,4.5,4.5,0,0,0,.76-.55,2.7,2.7,0,0,0,.49-.63,5,5,0,0,0,.32-1c.1-.42.19-.9.28-1.41s.16-1,.21-1.58.08-1,.09-1.44a2.25,2.25,0,0,0-.08-.8c-.06-.17-.14-.24-.23-.23a.59.59,0,0,0-.31.15l-.38.32a3.41,3.41,0,0,1-.53.33,2,2,0,0,1-.66.2h-.08a1,1,0,0,1-1.06-.48,4.17,4.17,0,0,1-.31-1.92c0-.29,0-.66.07-1.13s.07-.85.11-1.2l1.73-14.2,3.48-.43q.18,0,.36-.36a4.64,4.64,0,0,0,.32-.84c.1-.33.18-.71.26-1.12s.13-.82.18-1.22.09-.79.12-1.14,0-.63,0-.85a4,4,0,0,0-.09-1.06c-.06-.24-.2-.34-.4-.31l-3.44.42.83-6.75a1.66,1.66,0,0,0,0-.6.71.71,0,0,0-.31-.4,1.22,1.22,0,0,0-.65-.2,5.31,5.31,0,0,0-1.07.06l-.21,0" style="fill: #fff"/>
            <path d="M116.66,86.91a6.16,6.16,0,0,0-2.9,1.2,9,9,0,0,0-2.28,2.66A14,14,0,0,0,110,94.51a20,20,0,0,0-.56,4.47,12,12,0,0,0,.38,3.56,7,7,0,0,0,1.06,2.27,6.52,6.52,0,0,0,1.4,1.46c.51.39,1,.76,1.42,1.13a5.68,5.68,0,0,1,1.07,1.24,3.41,3.41,0,0,1,.4,1.85,7.37,7.37,0,0,1-.19,1.59,5,5,0,0,1-.55,1.38,3.21,3.21,0,0,1-.91,1,2.76,2.76,0,0,1-1.22.47h-.06a3.22,3.22,0,0,1-1.75-.2,4.93,4.93,0,0,1-1.17-.76,8,8,0,0,1-.77-.79c-.2-.24-.37-.36-.54-.33s-.19.12-.27.31a5,5,0,0,0-.25.79c-.08.32-.14.67-.2,1s-.11.77-.16,1.16-.08.74-.11,1,0,.57,0,.77a3.94,3.94,0,0,0,0,.76,1.59,1.59,0,0,0,.2.54,3,3,0,0,0,.63.73,3.69,3.69,0,0,0,1,.64,7.24,7.24,0,0,0,1.38.4,5.53,5.53,0,0,0,1.63,0h.1a6.66,6.66,0,0,0,3.11-1.27,9.59,9.59,0,0,0,2.44-2.75,14.41,14.41,0,0,0,1.57-3.92,21.16,21.16,0,0,0,.59-4.76,12,12,0,0,0-.38-3.56,7.87,7.87,0,0,0-1.09-2.31,6.59,6.59,0,0,0-1.43-1.49q-.76-.57-1.44-1.11a5.36,5.36,0,0,1-1.11-1.18,2.8,2.8,0,0,1-.42-1.68,6.82,6.82,0,0,1,.19-1.53,4.76,4.76,0,0,1,.51-1.28,2.94,2.94,0,0,1,.83-.92,2.31,2.31,0,0,1,1.06-.43h0a2.94,2.94,0,0,1,1.39.13,4.64,4.64,0,0,1,1,.55c.28.23.53.43.74.62a.77.77,0,0,0,.54.25c.14,0,.27-.23.39-.64a9.87,9.87,0,0,0,.31-1.42c.09-.54.17-1.08.22-1.61s.08-.93.08-1.2a2.16,2.16,0,0,0-.18-1.11,2,2,0,0,0-.58-.67,4.82,4.82,0,0,0-2.22-.87,5.86,5.86,0,0,0-1.45,0h-.11" style="fill: #fff"/>
          </g>
        </g>
      </g>
      <g style="isolation: isolate">
        <g style="clip-path: url(#clip-path-2)">
          <g>
            <path d="M10.11,71.56a2.1,2.1,0,0,0,1.33-.83,7.54,7.54,0,0,0,1.13-1.92,18.29,18.29,0,0,0,.9-2.71c.26-1,.47-2.06.65-3.15s.32-2.18.42-3.27.14-2.11.16-3.08a19,19,0,0,0-.07-2.06A6.7,6.7,0,0,0,14.34,53a2.25,2.25,0,0,0-.55-.92,1.06,1.06,0,0,0-.84-.22h0a2.68,2.68,0,0,0-1.61,1.08,12,12,0,0,0-1.56,2.6,27.15,27.15,0,0,0-1.33,3.7,28.73,28.73,0,0,0-.84,4.43L7,68.27a7.44,7.44,0,0,0,1.34,2.59,2,2,0,0,0,1.74.71h0m4.41-27h.08a2.86,2.86,0,0,1,2.29.59,5.34,5.34,0,0,1,1.47,2.24,14.52,14.52,0,0,1,.77,3.51,38.31,38.31,0,0,1,.2,4.42c0,1.45-.13,3-.29,4.71s-.43,3.37-.75,5.06A44.58,44.58,0,0,1,17.07,70a22.7,22.7,0,0,1-1.73,4.24,11.86,11.86,0,0,1-2.26,3,5,5,0,0,1-2.77,1.38h-.08a3,3,0,0,1-1.33-.11,3.28,3.28,0,0,1-1.13-.61,4.79,4.79,0,0,1-.94-1,8.63,8.63,0,0,1-.72-1.3L4.49,89.28a2.2,2.2,0,0,1-.19.63,1.39,1.39,0,0,1-.42.5,2.2,2.2,0,0,1-.72.37,5,5,0,0,1-1,.22l-.13,0a5,5,0,0,1-1.07,0,1.72,1.72,0,0,1-.65-.2.68.68,0,0,1-.3-.42,1.63,1.63,0,0,1,0-.59L5.15,47.58a1.47,1.47,0,0,1,.56-1.08A3.45,3.45,0,0,1,7.21,46h.1a4.71,4.71,0,0,1,.89,0,1.43,1.43,0,0,1,.55.17.65.65,0,0,1,.27.37,1.37,1.37,0,0,1,0,.58L8.46,52a14,14,0,0,1,.89-2.4,14.59,14.59,0,0,1,1.42-2.34,9.88,9.88,0,0,1,1.81-1.84,4.15,4.15,0,0,1,1.94-.87" style="fill: #fff"/>
            <path d="M32.49,42.32a2.59,2.59,0,0,0-1.31.66,7.92,7.92,0,0,0-1.34,1.56,16.93,16.93,0,0,0-1.22,2.23,23.53,23.53,0,0,0-1,2.77l.57-4.82a1.58,1.58,0,0,0,0-.58.61.61,0,0,0-.25-.37,1.28,1.28,0,0,0-.54-.16,4,4,0,0,0-.9,0,4.6,4.6,0,0,0-.91.2,2.12,2.12,0,0,0-.64.31,1.24,1.24,0,0,0-.37.45,1.83,1.83,0,0,0-.17.6L20.72,75.46a1.55,1.55,0,0,0,0,.58.62.62,0,0,0,.31.37,1.4,1.4,0,0,0,.65.18,4.77,4.77,0,0,0,1.08-.06l.2,0a5.48,5.48,0,0,0,.89-.19,2.41,2.41,0,0,0,.72-.34,1.34,1.34,0,0,0,.42-.47,1.67,1.67,0,0,0,.17-.6l1.65-13.6a31.16,31.16,0,0,1,.76-4.05,26.44,26.44,0,0,1,1.17-3.44,13.37,13.37,0,0,1,1.35-2.46,2.29,2.29,0,0,1,1.28-1h0a1,1,0,0,1,.54.05l.42.18.35.19a.48.48,0,0,0,.32.08c.13,0,.25-.18.37-.51a8.46,8.46,0,0,0,.33-1.25c.09-.5.18-1,.26-1.61s.15-1.14.21-1.68.09-1,.13-1.42,0-.69,0-.84a.85.85,0,0,0-.39-.91,2.32,2.32,0,0,0-.42-.19,4,4,0,0,0-.52-.11,2,2,0,0,0-.54,0h0" style="fill: #fff"/>
            <path d="M41.52,68.14a2.74,2.74,0,0,0,1.58-.84,7.64,7.64,0,0,0,1.3-1.93,17.54,17.54,0,0,0,1-2.7,31.19,31.19,0,0,0,.73-3.16c.19-1.1.34-2.2.44-3.31s.16-2.15.18-3.16a16.86,16.86,0,0,0-.12-2.47,5.41,5.41,0,0,0-.47-1.78,2.28,2.28,0,0,0-.87-1A1.92,1.92,0,0,0,44,47.51h0a2.78,2.78,0,0,0-1.58.85,7.51,7.51,0,0,0-1.3,1.91,15.77,15.77,0,0,0-1,2.69,28.35,28.35,0,0,0-.72,3.14,33.12,33.12,0,0,0-.45,3.3c-.11,1.12-.16,2.18-.17,3.18a19,19,0,0,0,.1,2.49,6,6,0,0,0,.47,1.8,2.46,2.46,0,0,0,.87,1,2,2,0,0,0,1.32.24h0m2.95-27.3.1,0a5.44,5.44,0,0,1,3.1.41,5,5,0,0,1,2.14,2,10.42,10.42,0,0,1,1.24,3.59,27.15,27.15,0,0,1,.35,5c0,1.61-.14,3.27-.32,5a46.85,46.85,0,0,1-.85,5.06,36.6,36.6,0,0,1-1.39,4.72,20.28,20.28,0,0,1-2,4,11.85,11.85,0,0,1-2.63,2.88A6.69,6.69,0,0,1,41,74.84l-.14,0a5.43,5.43,0,0,1-3.1-.4,5.09,5.09,0,0,1-2.15-2,10.71,10.71,0,0,1-1.23-3.59,26.49,26.49,0,0,1-.35-5.05c0-1.6.13-3.26.32-5a46.65,46.65,0,0,1,.84-5.05A35,35,0,0,1,36.64,49a19.49,19.49,0,0,1,2-4,11.35,11.35,0,0,1,2.63-2.86,6.73,6.73,0,0,1,3.2-1.33" style="fill: #fff"/>
            <path d="M59,39.6l.15,0a4.91,4.91,0,0,1,1.07,0,1.43,1.43,0,0,1,.66.2.61.61,0,0,1,.3.39,1.36,1.36,0,0,1,0,.58L57.38,72.49a47.75,47.75,0,0,1-.87,5.13,18.49,18.49,0,0,1-1.31,3.86A7.55,7.55,0,0,1,53.36,84,4.58,4.58,0,0,1,51,85h-.09A3.84,3.84,0,0,1,49.42,85a1.36,1.36,0,0,1-.73-.4,2.1,2.1,0,0,1-.12-.42c0-.15,0-.38,0-.69,0-.16,0-.4,0-.73s.06-.69.1-1.08.1-.8.16-1.22.14-.8.21-1.14a5.49,5.49,0,0,1,.26-.85c.09-.22.19-.34.29-.35h.2l.19,0a1.06,1.06,0,0,1,.24,0,1.51,1.51,0,0,0,.36,0,1.47,1.47,0,0,0,.79-.37,2.78,2.78,0,0,0,.66-.93,9.06,9.06,0,0,0,.51-1.61,20.88,20.88,0,0,0,.4-2.5l3.81-31.44a2,2,0,0,1,.18-.62,1.54,1.54,0,0,1,.42-.48,2.67,2.67,0,0,1,.72-.37A5,5,0,0,1,59,39.6m1.69-13.29h.08a2.48,2.48,0,0,1,1.22.08,1.26,1.26,0,0,1,.72.68A3.53,3.53,0,0,1,63,28.4a15,15,0,0,1-.13,2.05,18.63,18.63,0,0,1-.39,2.14A5,5,0,0,1,61.87,34a2.33,2.33,0,0,1-.87.84,3.85,3.85,0,0,1-1.2.37h-.08a2.74,2.74,0,0,1-1.22-.07,1.2,1.2,0,0,1-.7-.65,3.34,3.34,0,0,1-.26-1.34,15.81,15.81,0,0,1,.13-2.1A16.06,16.06,0,0,1,58.05,29a4.66,4.66,0,0,1,.59-1.44,2.66,2.66,0,0,1,.89-.88,3.21,3.21,0,0,1,1.19-.38" style="fill: #fff"/>
            <path d="M69.67,51.27a6.93,6.93,0,0,0,2.19-.62,5,5,0,0,0,1.57-1.14A4.34,4.34,0,0,0,74.31,48a6.21,6.21,0,0,0,.29-1.79A3.73,3.73,0,0,0,74.08,44a1.56,1.56,0,0,0-1.61-.68h0a2.75,2.75,0,0,0-1.57.79,6.48,6.48,0,0,0-1.26,1.78,13.55,13.55,0,0,0-1,2.52,26.66,26.66,0,0,0-.66,3l1.49-.19.2,0m3.2-14H73a4.75,4.75,0,0,1,2.77.38,4.65,4.65,0,0,1,1.88,1.67,7.66,7.66,0,0,1,1.08,2.57A13.47,13.47,0,0,1,79,45a15.51,15.51,0,0,1-.65,4.4A10.14,10.14,0,0,1,76.51,53a9.66,9.66,0,0,1-3.14,2.51,12.91,12.91,0,0,1-4.14,1.24l-.34,0L67.25,57c0,.51-.1,1-.13,1.54s-.06,1-.06,1.39a8.13,8.13,0,0,0,.68,4,2.18,2.18,0,0,0,2.38,1.08l.18,0a6.84,6.84,0,0,0,1.94-.55,12.6,12.6,0,0,0,1.65-.9c.47-.32.86-.6,1.18-.85a1.8,1.8,0,0,1,.66-.4h0a.25.25,0,0,1,.29.19,2.21,2.21,0,0,1,.08.73c0,.38,0,.81-.07,1.31s-.11,1-.18,1.48a13.49,13.49,0,0,1-.27,1.38,4.59,4.59,0,0,1-.36,1,3.14,3.14,0,0,1-.79.9,8.58,8.58,0,0,1-1.39.91,11.19,11.19,0,0,1-1.81.77,9.92,9.92,0,0,1-1.9.46h-.13a5.92,5.92,0,0,1-3-.3,4.59,4.59,0,0,1-2.1-1.78A9.17,9.17,0,0,1,62.93,66a25.18,25.18,0,0,1-.35-5c0-1.5.13-3.11.3-4.84s.45-3.43.8-5.13a42.49,42.49,0,0,1,1.37-4.93,21.19,21.19,0,0,1,2-4.23,12.43,12.43,0,0,1,2.61-3.08,6.5,6.5,0,0,1,3.25-1.44" style="fill: #fff"/>
            <path d="M90.36,35.19a5.89,5.89,0,0,0-3.16,1.47,11.82,11.82,0,0,0-2.53,3.14,22.92,22.92,0,0,0-1.87,4.3A43.33,43.33,0,0,0,81.52,49a48.88,48.88,0,0,0-.74,5c-.17,1.64-.26,3.15-.28,4.51q-.1,5.65,1.37,8.35a4.15,4.15,0,0,0,4.51,2.33h.08A5.35,5.35,0,0,0,88,68.73a7.32,7.32,0,0,0,1.48-.88,7.7,7.7,0,0,0,1.21-1.13,6.59,6.59,0,0,0,.77-1.09,4.52,4.52,0,0,0,.41-1.23c.12-.52.21-1.07.3-1.66s.16-1.17.22-1.74.09-1,.09-1.43a3.87,3.87,0,0,0-.07-.87c0-.19-.13-.28-.25-.26h0c-.19,0-.41.21-.66.55s-.54.73-.89,1.16a7.48,7.48,0,0,1-1.23,1.22,3.37,3.37,0,0,1-1.62.68h-.1a1.77,1.77,0,0,1-2-1.15,10.08,10.08,0,0,1-.56-4c0-.71.06-1.56.14-2.54s.21-2,.38-3.08.39-2.15.64-3.22a17.7,17.7,0,0,1,.94-2.88A8.43,8.43,0,0,1,88.55,43a2.62,2.62,0,0,1,1.63-1h0a2,2,0,0,1,1.41.25,3.56,3.56,0,0,1,.91.8c.24.31.44.58.6.83s.33.36.51.34.37-.24.53-.65a7.7,7.7,0,0,0,.42-1.51c.12-.59.21-1.21.3-1.87S95,39,95,38.45a3.73,3.73,0,0,0-.06-.72,1.7,1.7,0,0,0-.26-.65,3.62,3.62,0,0,0-.63-.77,4.12,4.12,0,0,0-1-.7,4.87,4.87,0,0,0-1.24-.4,4.61,4.61,0,0,0-1.39,0h-.09" style="fill: #fff"/>
            <path d="M102.59,26.38a4.81,4.81,0,0,0-.89.18,2.77,2.77,0,0,0-.71.36,1.52,1.52,0,0,0-.42.5,1.84,1.84,0,0,0-.17.62l-.82,6.75L97.67,35c-.22,0-.4.27-.56.71a9.86,9.86,0,0,0-.41,1.57c-.09.6-.17,1.21-.22,1.83s-.09,1.12-.09,1.49a3.38,3.38,0,0,0,.09,1.08.31.31,0,0,0,.33.25l1.92-.25L97,56.45c0,.29-.08.62-.12,1s-.07.73-.1,1.09-.07.7-.08,1,0,.6,0,.85a16.58,16.58,0,0,0,.23,3.37A6,6,0,0,0,97.63,66,2.89,2.89,0,0,0,99,67.17a3.81,3.81,0,0,0,1.88.18,4.68,4.68,0,0,0,1-.24,5.78,5.78,0,0,0,.94-.44,4.5,4.5,0,0,0,.76-.55,2.7,2.7,0,0,0,.49-.63,5,5,0,0,0,.32-1c.1-.42.19-.9.28-1.41s.16-1,.21-1.58.08-1,.09-1.44a2.25,2.25,0,0,0-.08-.8c-.06-.17-.14-.24-.23-.23a.59.59,0,0,0-.31.15l-.38.32a3.41,3.41,0,0,1-.53.33,2,2,0,0,1-.66.2h-.08a1,1,0,0,1-1.06-.48,4.17,4.17,0,0,1-.31-1.92c0-.29,0-.66.07-1.13s.07-.85.11-1.2l1.73-14.2,3.48-.43q.18,0,.36-.36a4.64,4.64,0,0,0,.32-.84c.1-.33.18-.71.26-1.12s.13-.82.18-1.22.09-.79.12-1.14,0-.63,0-.85a4,4,0,0,0-.09-1.06c-.06-.24-.2-.34-.4-.31l-3.44.42.83-6.75a1.66,1.66,0,0,0,0-.6.71.71,0,0,0-.31-.4,1.22,1.22,0,0,0-.65-.2,5.31,5.31,0,0,0-1.07.06l-.21,0" style="fill: #fff"/>
            <path d="M116.66,31.91a6.16,6.16,0,0,0-2.9,1.2,9,9,0,0,0-2.28,2.66A14,14,0,0,0,110,39.51a20,20,0,0,0-.56,4.47,12,12,0,0,0,.38,3.56,7,7,0,0,0,1.06,2.27,6.52,6.52,0,0,0,1.4,1.46c.51.39,1,.76,1.42,1.13a5.68,5.68,0,0,1,1.07,1.24,3.41,3.41,0,0,1,.4,1.85,7.37,7.37,0,0,1-.19,1.59,5,5,0,0,1-.55,1.38,3.21,3.21,0,0,1-.91,1,2.76,2.76,0,0,1-1.22.47h-.06a3.22,3.22,0,0,1-1.75-.2,4.93,4.93,0,0,1-1.17-.76,8,8,0,0,1-.77-.79c-.2-.24-.37-.36-.54-.33s-.19.12-.27.31a5,5,0,0,0-.25.79c-.08.32-.14.67-.2,1s-.11.77-.16,1.16-.08.74-.11,1.05,0,.57,0,.77a3.94,3.94,0,0,0,0,.76,1.59,1.59,0,0,0,.2.54,3,3,0,0,0,.63.73,3.69,3.69,0,0,0,1,.64,7.24,7.24,0,0,0,1.38.4,5.53,5.53,0,0,0,1.63,0h.1a6.66,6.66,0,0,0,3.11-1.27,9.59,9.59,0,0,0,2.44-2.75,14.41,14.41,0,0,0,1.57-3.92,21.16,21.16,0,0,0,.59-4.76,12,12,0,0,0-.38-3.56,7.87,7.87,0,0,0-1.09-2.31A6.59,6.59,0,0,0,116.82,46q-.76-.57-1.44-1.11a5.36,5.36,0,0,1-1.11-1.18,2.8,2.8,0,0,1-.42-1.68,6.82,6.82,0,0,1,.19-1.53,4.76,4.76,0,0,1,.51-1.28,2.94,2.94,0,0,1,.83-.92,2.31,2.31,0,0,1,1.06-.43h0a2.94,2.94,0,0,1,1.39.13,4.64,4.64,0,0,1,1,.55c.28.23.53.43.74.62a.77.77,0,0,0,.54.25c.14,0,.27-.23.39-.64a9.87,9.87,0,0,0,.31-1.42c.09-.54.17-1.08.22-1.61s.08-.93.08-1.2a2.16,2.16,0,0,0-.18-1.11,2,2,0,0,0-.58-.67,4.82,4.82,0,0,0-2.22-.87,5.86,5.86,0,0,0-1.45,0h-.11" style="fill: #fff"/>
          </g>
        </g>
      </g>
      <g style="isolation: isolate">
        <g style="clip-path: url(#clip-path-3)">
          <g>
            <path d="M10.11,16.56a2.1,2.1,0,0,0,1.33-.83,7.54,7.54,0,0,0,1.13-1.92,18.29,18.29,0,0,0,.9-2.71c.26-1,.47-2.06.65-3.15s.32-2.18.42-3.27.14-2.11.16-3.08a19,19,0,0,0-.07-2.06A6.7,6.7,0,0,0,14.34-2a2.25,2.25,0,0,0-.55-.92A1.06,1.06,0,0,0,13-3.15h0a2.68,2.68,0,0,0-1.61,1.08A12,12,0,0,0,9.76.53a27.15,27.15,0,0,0-1.33,3.7,28.73,28.73,0,0,0-.84,4.43L7,13.27a7.44,7.44,0,0,0,1.34,2.59,2,2,0,0,0,1.74.71h0m4.41-27h.08a2.86,2.86,0,0,1,2.29.59,5.34,5.34,0,0,1,1.47,2.24,14.52,14.52,0,0,1,.77,3.51A38.31,38.31,0,0,1,19.33.3c0,1.45-.13,3-.29,4.71s-.43,3.37-.75,5.06A44.58,44.58,0,0,1,17.07,15a22.7,22.7,0,0,1-1.73,4.24,11.86,11.86,0,0,1-2.26,3.05,5,5,0,0,1-2.77,1.38h-.08a3,3,0,0,1-1.33-.11,3.28,3.28,0,0,1-1.13-.61,4.79,4.79,0,0,1-.94-1,8.63,8.63,0,0,1-.72-1.3L4.49,34.28a2.2,2.2,0,0,1-.19.63,1.39,1.39,0,0,1-.42.5,2.2,2.2,0,0,1-.72.37,5,5,0,0,1-1,.22l-.13,0a5,5,0,0,1-1.07,0,1.72,1.72,0,0,1-.65-.2.68.68,0,0,1-.3-.42,1.63,1.63,0,0,1,0-.59L5.15-7.42A1.47,1.47,0,0,1,5.71-8.5,3.45,3.45,0,0,1,7.21-9h.1A4.71,4.71,0,0,1,8.2-9a1.43,1.43,0,0,1,.55.17A.65.65,0,0,1,9-8.49a1.37,1.37,0,0,1,0,.58L8.46-3a14,14,0,0,1,.89-2.4,14.59,14.59,0,0,1,1.42-2.34,9.88,9.88,0,0,1,1.81-1.84,4.15,4.15,0,0,1,1.94-.87" style="fill: #fff"/>
            <path d="M32.49-12.68a2.59,2.59,0,0,0-1.31.66,7.92,7.92,0,0,0-1.34,1.56,16.93,16.93,0,0,0-1.22,2.23,23.53,23.53,0,0,0-1,2.77l.57-4.82a1.58,1.58,0,0,0,0-.58.61.61,0,0,0-.25-.37,1.28,1.28,0,0,0-.54-.16,4,4,0,0,0-.9,0,4.6,4.6,0,0,0-.91.2,2.12,2.12,0,0,0-.64.31,1.24,1.24,0,0,0-.37.45,1.83,1.83,0,0,0-.17.6L20.72,20.46a1.55,1.55,0,0,0,0,.58.62.62,0,0,0,.31.37,1.4,1.4,0,0,0,.65.18,4.77,4.77,0,0,0,1.08-.06l.2,0a5.48,5.48,0,0,0,.89-.19,2.41,2.41,0,0,0,.72-.34,1.34,1.34,0,0,0,.42-.47,1.67,1.67,0,0,0,.17-.6l1.65-13.6a31.16,31.16,0,0,1,.76-4,26.44,26.44,0,0,1,1.17-3.44,13.37,13.37,0,0,1,1.35-2.46,2.29,2.29,0,0,1,1.28-1h0a1,1,0,0,1,.54,0l.42.18.35.19a.48.48,0,0,0,.32.08c.13,0,.25-.18.37-.51a8.46,8.46,0,0,0,.33-1.25c.09-.5.18-1,.26-1.61s.15-1.14.21-1.68.09-1,.13-1.42,0-.69,0-.84a1.34,1.34,0,0,0-.1-.62,1.33,1.33,0,0,0-.29-.29,2.32,2.32,0,0,0-.42-.19,4,4,0,0,0-.52-.11,2,2,0,0,0-.54,0h0" style="fill: #fff"/>
            <path d="M41.52,13.14a2.74,2.74,0,0,0,1.58-.84,7.64,7.64,0,0,0,1.3-1.93,17.54,17.54,0,0,0,1-2.7,31.19,31.19,0,0,0,.73-3.16c.19-1.1.34-2.2.44-3.31s.16-2.15.18-3.16a16.86,16.86,0,0,0-.12-2.47,5.41,5.41,0,0,0-.47-1.78,2.28,2.28,0,0,0-.87-1A1.92,1.92,0,0,0,44-7.49h0a2.78,2.78,0,0,0-1.58.85,7.51,7.51,0,0,0-1.3,1.91,15.77,15.77,0,0,0-1,2.69,28.35,28.35,0,0,0-.72,3.14,33.12,33.12,0,0,0-.45,3.3c-.11,1.12-.16,2.18-.17,3.18a19,19,0,0,0,.1,2.49,6,6,0,0,0,.47,1.8,2.46,2.46,0,0,0,.87,1,2,2,0,0,0,1.32.24h0m2.95-27.3.1,0a5.44,5.44,0,0,1,3.1.41,5,5,0,0,1,2.14,2,10.42,10.42,0,0,1,1.24,3.59,27.15,27.15,0,0,1,.35,5c0,1.61-.14,3.27-.32,5a46.85,46.85,0,0,1-.85,5.06,36.6,36.6,0,0,1-1.39,4.72,20.28,20.28,0,0,1-2,4,11.85,11.85,0,0,1-2.63,2.88A6.69,6.69,0,0,1,41,19.84l-.14,0a5.43,5.43,0,0,1-3.1-.4,5.09,5.09,0,0,1-2.15-2,10.71,10.71,0,0,1-1.23-3.59,26.49,26.49,0,0,1-.35-5.05c0-1.6.13-3.26.32-5a46.65,46.65,0,0,1,.84-5A35,35,0,0,1,36.64-6a19.49,19.49,0,0,1,2-4,11.35,11.35,0,0,1,2.63-2.86,6.73,6.73,0,0,1,3.2-1.33" style="fill: #fff"/>
            <path d="M59-15.4l.15,0a4.91,4.91,0,0,1,1.07,0,1.43,1.43,0,0,1,.66.2.61.61,0,0,1,.3.39,1.36,1.36,0,0,1,0,.58L57.38,17.49a47.75,47.75,0,0,1-.87,5.13,18.49,18.49,0,0,1-1.31,3.86A7.55,7.55,0,0,1,53.36,29,4.58,4.58,0,0,1,51,30h-.09A3.84,3.84,0,0,1,49.42,30a1.36,1.36,0,0,1-.73-.4,2.1,2.1,0,0,1-.12-.42c0-.15,0-.38,0-.69,0-.16,0-.4,0-.73s.06-.69.1-1.08.1-.8.16-1.22.14-.8.21-1.14a5.49,5.49,0,0,1,.26-.85c.09-.22.19-.34.29-.35h.2l.19,0a1.06,1.06,0,0,1,.24,0,1.51,1.51,0,0,0,.36,0,1.47,1.47,0,0,0,.79-.37,2.78,2.78,0,0,0,.66-.93,9.06,9.06,0,0,0,.51-1.61,20.88,20.88,0,0,0,.4-2.5l3.81-31.44a2,2,0,0,1,.18-.62,1.54,1.54,0,0,1,.42-.48,2.67,2.67,0,0,1,.72-.37A5,5,0,0,1,59-15.4m1.69-13.29h.08a2.48,2.48,0,0,1,1.22.08,1.26,1.26,0,0,1,.72.68A3.53,3.53,0,0,1,63-26.6a15,15,0,0,1-.13,2.05,18.63,18.63,0,0,1-.39,2.14A5,5,0,0,1,61.87-21a2.33,2.33,0,0,1-.87.84,3.85,3.85,0,0,1-1.2.37h-.08a2.74,2.74,0,0,1-1.22-.07,1.2,1.2,0,0,1-.7-.65,3.34,3.34,0,0,1-.26-1.34,15.81,15.81,0,0,1,.13-2.1A16.06,16.06,0,0,1,58.05-26a4.66,4.66,0,0,1,.59-1.44,2.66,2.66,0,0,1,.89-.88,3.21,3.21,0,0,1,1.19-.38" style="fill: #fff"/>
            <path d="M69.67-3.73a6.93,6.93,0,0,0,2.19-.62,5,5,0,0,0,1.57-1.14A4.34,4.34,0,0,0,74.31-7a6.21,6.21,0,0,0,.29-1.79A3.73,3.73,0,0,0,74.08-11a1.56,1.56,0,0,0-1.61-.68h0a2.75,2.75,0,0,0-1.57.79A6.48,6.48,0,0,0,69.6-9.07a13.55,13.55,0,0,0-1,2.52,26.66,26.66,0,0,0-.66,3l1.49-.19.2,0m3.2-13.95H73a4.75,4.75,0,0,1,2.77.38,4.65,4.65,0,0,1,1.88,1.67,7.66,7.66,0,0,1,1.08,2.57A13.47,13.47,0,0,1,79-10a15.51,15.51,0,0,1-.65,4.4A10.14,10.14,0,0,1,76.51-2,9.66,9.66,0,0,1,73.37.46,12.91,12.91,0,0,1,69.23,1.7l-.34,0L67.25,2c0,.51-.1,1-.13,1.54s-.06,1-.06,1.39a8.13,8.13,0,0,0,.68,4,2.18,2.18,0,0,0,2.38,1.08l.18,0a6.84,6.84,0,0,0,1.94-.55,12.6,12.6,0,0,0,1.65-.9c.47-.32.86-.6,1.18-.85a1.8,1.8,0,0,1,.66-.4h0A.25.25,0,0,1,76,7.4a2.21,2.21,0,0,1,.08.73c0,.38,0,.81-.07,1.31s-.11,1-.18,1.48a13.49,13.49,0,0,1-.27,1.38,4.59,4.59,0,0,1-.36,1,3.14,3.14,0,0,1-.79.9,8.58,8.58,0,0,1-1.39.91,11.19,11.19,0,0,1-1.81.77,9.92,9.92,0,0,1-1.9.46h-.13a5.92,5.92,0,0,1-3-.3,4.59,4.59,0,0,1-2.1-1.78A9.17,9.17,0,0,1,62.93,11a25.18,25.18,0,0,1-.35-5c0-1.5.13-3.11.3-4.84s.45-3.43.8-5.13a42.49,42.49,0,0,1,1.37-4.93,21.19,21.19,0,0,1,2-4.23,12.43,12.43,0,0,1,2.61-3.08,6.5,6.5,0,0,1,3.25-1.44" style="fill: #fff"/>
            <path d="M90.36-19.81a5.89,5.89,0,0,0-3.16,1.47,11.82,11.82,0,0,0-2.53,3.14,22.92,22.92,0,0,0-1.87,4.3A43.33,43.33,0,0,0,81.52-6a48.88,48.88,0,0,0-.74,5c-.17,1.64-.26,3.15-.28,4.51q-.1,5.66,1.37,8.35a4.15,4.15,0,0,0,4.51,2.33h.08A5.35,5.35,0,0,0,88,13.73a7.32,7.32,0,0,0,1.48-.88,7.7,7.7,0,0,0,1.21-1.13,6.59,6.59,0,0,0,.77-1.09A4.52,4.52,0,0,0,91.9,9.4c.12-.52.21-1.07.3-1.66s.16-1.17.22-1.74.09-1,.09-1.43a3.87,3.87,0,0,0-.07-.87c0-.19-.13-.28-.25-.26h0c-.19,0-.41.21-.66.55s-.54.73-.89,1.16a7.48,7.48,0,0,1-1.23,1.22,3.37,3.37,0,0,1-1.62.68h-.1a1.77,1.77,0,0,1-2-1.15,10.08,10.08,0,0,1-.56-4c0-.71.06-1.56.14-2.54s.21-2,.38-3.08S86.05-5.9,86.3-7a17.7,17.7,0,0,1,.94-2.88A8.43,8.43,0,0,1,88.55-12a2.62,2.62,0,0,1,1.63-1h0a2,2,0,0,1,1.41.25,3.56,3.56,0,0,1,.91.8c.24.31.44.58.6.83s.33.36.51.34.37-.24.53-.65a7.7,7.7,0,0,0,.42-1.51c.12-.59.21-1.21.3-1.87S95-16,95-16.55a3.73,3.73,0,0,0-.06-.72,1.7,1.7,0,0,0-.26-.65,3.62,3.62,0,0,0-.63-.77,4.12,4.12,0,0,0-1-.7,4.87,4.87,0,0,0-1.24-.4,4.61,4.61,0,0,0-1.39,0h-.09" style="fill: #fff"/>
            <path d="M102.59-28.62a4.81,4.81,0,0,0-.89.18,2.77,2.77,0,0,0-.71.36,1.52,1.52,0,0,0-.42.5,1.84,1.84,0,0,0-.17.62l-.82,6.75L97.67-20c-.22,0-.4.27-.56.71a9.86,9.86,0,0,0-.41,1.57c-.09.6-.17,1.21-.22,1.83s-.09,1.12-.09,1.49a3.38,3.38,0,0,0,.09,1.08.31.31,0,0,0,.33.25l1.92-.25L97,1.45c0,.29-.08.62-.12,1s-.07.73-.1,1.09-.07.7-.08,1,0,.6,0,.85a16.58,16.58,0,0,0,.23,3.37A6,6,0,0,0,97.63,11,2.89,2.89,0,0,0,99,12.17a3.81,3.81,0,0,0,1.88.18,4.68,4.68,0,0,0,1-.24,5.78,5.78,0,0,0,.94-.44,4.5,4.5,0,0,0,.76-.55,2.7,2.7,0,0,0,.49-.63,5,5,0,0,0,.32-1c.1-.42.19-.9.28-1.41s.16-1,.21-1.58.08-1,.09-1.44a2.25,2.25,0,0,0-.08-.8c-.06-.17-.14-.24-.23-.23a.59.59,0,0,0-.31.15l-.38.32a3.41,3.41,0,0,1-.53.33,2,2,0,0,1-.66.2h-.08a1,1,0,0,1-1.06-.48,4.17,4.17,0,0,1-.31-1.92c0-.29,0-.66.07-1.13s.07-.85.11-1.2l1.73-14.2,3.48-.43q.18,0,.36-.36a4.64,4.64,0,0,0,.32-.84c.1-.33.18-.71.26-1.12s.13-.82.18-1.22.09-.79.12-1.14,0-.63,0-.85a4,4,0,0,0-.09-1.06c-.06-.24-.2-.34-.4-.31l-3.44.42.83-6.75a1.66,1.66,0,0,0,0-.6.71.71,0,0,0-.31-.4,1.22,1.22,0,0,0-.65-.2,5.31,5.31,0,0,0-1.07.06l-.21,0" style="fill: #fff"/>
            <path d="M116.66-23.09a6.16,6.16,0,0,0-2.9,1.2,9,9,0,0,0-2.28,2.66A14,14,0,0,0,110-15.49a20,20,0,0,0-.56,4.47,12,12,0,0,0,.38,3.56,7,7,0,0,0,1.06,2.27,6.52,6.52,0,0,0,1.4,1.46c.51.39,1,.76,1.42,1.13a5.68,5.68,0,0,1,1.07,1.24,3.41,3.41,0,0,1,.4,1.85A7.37,7.37,0,0,1,115,2.08a5,5,0,0,1-.55,1.38,3.21,3.21,0,0,1-.91,1,2.76,2.76,0,0,1-1.22.47h-.06a3.22,3.22,0,0,1-1.75-.2A4.93,4.93,0,0,1,109.34,4a8,8,0,0,1-.77-.79c-.2-.24-.37-.36-.54-.33s-.19.12-.27.31a5,5,0,0,0-.25.79c-.08.32-.14.67-.2,1s-.11.77-.16,1.16-.08.74-.11,1,0,.57,0,.77a3.94,3.94,0,0,0,0,.76,1.59,1.59,0,0,0,.2.54,3,3,0,0,0,.63.73,3.69,3.69,0,0,0,1,.64,7.24,7.24,0,0,0,1.38.4,5.53,5.53,0,0,0,1.63,0h.1a6.66,6.66,0,0,0,3.11-1.27,9.59,9.59,0,0,0,2.44-2.75,14.41,14.41,0,0,0,1.57-3.92,21.16,21.16,0,0,0,.59-4.76,12,12,0,0,0-.38-3.56,7.87,7.87,0,0,0-1.09-2.31A6.59,6.59,0,0,0,116.82-9q-.76-.57-1.44-1.11a5.36,5.36,0,0,1-1.11-1.18,2.8,2.8,0,0,1-.42-1.68,6.82,6.82,0,0,1,.19-1.53,4.76,4.76,0,0,1,.51-1.28,2.94,2.94,0,0,1,.83-.92,2.31,2.31,0,0,1,1.06-.43h0a2.94,2.94,0,0,1,1.39.13,4.64,4.64,0,0,1,1,.55c.28.23.53.43.74.62a.77.77,0,0,0,.54.25c.14,0,.27-.23.39-.64a9.87,9.87,0,0,0,.31-1.42c.09-.54.17-1.08.22-1.61s.08-.93.08-1.2a2.16,2.16,0,0,0-.18-1.11,2,2,0,0,0-.58-.67,4.71,4.71,0,0,0-1-.54,4.67,4.67,0,0,0-1.25-.33,5.86,5.86,0,0,0-1.45,0h-.11" style="fill: #fff"/>
          </g>
        </g>
      </g>
    </pattern>
  </defs>
  <path id="ball-projects" d="M912.28,452.46q0,39.56-.07,79.12H450.31c23.65-113.73,141.1-192,246.49-194.4C821.23,334.36,901.42,438,912.28,452.46Z" transform="translate(-438.76 -240.18)" style="fill: url(#Nowy_wzorek_6)"/>
  <g id="pc">
    <g>
      <rect x="524.86" y="263.94" width="71.58" height="149" rx="10.12" transform="translate(-512.25 -65.22) rotate(-16.66)"/>
      <line x1="88.49" y1="65.88" x2="130.69" y2="53.25" style="fill: #f0f;stroke: #fff;stroke-linecap: round;stroke-miterlimit: 10;stroke-width: 5px"/>
      <line x1="93.35" y1="82.12" x2="135.55" y2="69.49" style="fill: #f0f;stroke: #fff;stroke-linecap: round;stroke-miterlimit: 10;stroke-width: 5px"/>
      <line x1="98.47" y1="99.21" x2="140.67" y2="86.58" style="fill: #f0f;stroke: #fff;stroke-linecap: round;stroke-miterlimit: 10;stroke-width: 5px"/>
      <ellipse cx="568.81" cy="368.12" rx="7.57" ry="8.03" transform="translate(-520.42 -61.63) rotate(-16.66)" style="fill: #fff"/>
    </g>
    <g>
      <path d="M763.28,240.18H640.39a12.54,12.54,0,0,0-12.54,12.54v83.77A12.53,12.53,0,0,0,640.39,349H763.28a12.53,12.53,0,0,0,12.54-12.54V252.72A12.54,12.54,0,0,0,763.28,240.18ZM767.91,329H637.83v-80.3H767.91Z" transform="translate(-438.76 -240.18)"/>
      <rect x="265.06" y="8.48" width="64.09" height="80.3" style="fill: #fff"/>
      <rect x="199.07" y="8.48" width="65.99" height="80.3" style="fill: #fff"/>
      <path d="M687.38,348.58q-2.76,12-5.51,24.09H669.48a5.93,5.93,0,0,0-2.06.89c-3.22,2.19-4,7.06-4.13,8h77.77c.45-3.39-.33-6.55-2.06-8a3.85,3.85,0,0,0-2.07-.89H721.79q-2.74-12-5.51-24.09Z" transform="translate(-438.76 -240.18)"/>
    </g>
  </g>
  <g id="arrow-r-projects">
    <g>
      <path d="M815.28,303.58a63.21,63.21,0,0,1,27,0,63.88,63.88,0,0,1,30.41,16.78" transform="translate(-438.76 -240.18)" style="fill: none;stroke: #fff;stroke-miterlimit: 10;stroke-width: 4px"/>
      <path d="M887.28,339.58c-10.32-6.34-24.67-13-36-15.19l19.22-6.31,10.74-17.14C880.57,312.51,883.6,328,887.28,339.58Z" transform="translate(-438.76 -240.18)" style="fill: #fff"/>
    </g>
  </g>
  <g id="arrow-l-projects">
    <g>
      <path d="M451.45,385.6c11.45-26.15,37.68-35.37,42.64-37" transform="translate(-438.76 -240.18)" style="fill: none;stroke: #fff;stroke-miterlimit: 10;stroke-width: 4px"/>
      <polygon points="7.58 173.21 31.8 137.69 13.93 143.53 0 130.89 7.58 173.21" style="fill: #fff"/>
    </g>
  </g>
</svg>
