<svg xmlns="http://www.w3.org/2000/svg" width="156.98" height="175.5" viewBox="0 0 156.98 175.5">
  <g id="Warstwa_2" data-name="Warstwa 2">
    <g id="Warstwa_2-2" data-name="Warstwa 2">
      <path d="M144.63,1l-7,7V168l-7.5,7.5-13.6-.11L7.13,174.5a12.84,12.84,0,0,1-4-3,13.16,13.16,0,0,1-3-6A7.81,7.81,0,0,1,0,164.22,1.93,1.93,0,0,1,0,164c0-3.8,2.3-7.72,6.06-10.44l.06,0h13V8.5L25.63,0Z"/>
      <path d="M0,163.36C-.31,169,7.13,174.5,7.13,174.5l109.4,1s.1-2.5,1.1-9.5a27.55,27.55,0,0,1,5.74-12.5H19.13c.5.5-13,0-13,0S.39,156.72,0,163.36Z"/>
      <path d="M157,13.56A14.66,14.66,0,0,1,152.83,23h-15.2V8l7-7h5a12.91,12.91,0,0,1,4,3A13.79,13.79,0,0,1,157,13.56Z"/>
      <path d="M152.83,23l-.06.06" style="fill: none;stroke: #000;stroke-miterlimit: 10"/>
      <g>
        <path d="M99.63,84c.09-11.11-5.18-21.2-14-26-8.65-4.71-17.41-2.66-20-2A30,30,0,0,0,52,63.79" style="fill: none;stroke: #fff;stroke-miterlimit: 10;stroke-width: 5px"/>
        <polygon points="46.82 56.69 44.63 74 60.72 67.24 46.82 56.69" style="fill: #fff"/>
      </g>
      <g>
        <path d="M45.21,85.5c.14,2.11,1.24,15.39,12.42,23.5,1.82,1.32,10.69,7.69,22,5A24.85,24.85,0,0,0,92,106.69" style="fill: none;stroke: #fff;stroke-miterlimit: 10;stroke-width: 5px"/>
        <polygon points="97.55 113.42 98.63 96 83.01 103.77 97.55 113.42" style="fill: #fff"/>
      </g>
    </g>
  </g>
</svg>
