<svg xmlns="http://www.w3.org/2000/svg" viewBox="0 0 290.19 288.21"><defs><style>.cls-1{fill:gray;}.cls-1,.cls-10,.cls-13,.cls-14,.cls-15,.cls-16,.cls-19,.cls-3,.cls-6{stroke:#000;}.cls-1,.cls-10,.cls-13,.cls-14,.cls-15,.cls-16,.cls-17,.cls-18,.cls-2,.cls-3,.cls-6,.cls-7,.cls-8,.cls-9{stroke-miterlimit:10;}.cls-1,.cls-6{stroke-width:4px;}.cls-11,.cls-2,.cls-7,.cls-8{fill:#f15a24;}.cls-18,.cls-2,.cls-7,.cls-8,.cls-9{stroke:#42210b;}.cls-10,.cls-13,.cls-2,.cls-9{stroke-width:2px;}.cls-3{fill:#4a3d49;stroke-width:7px;}.cls-13,.cls-14,.cls-4,.cls-9{fill:none;}.cls-5{fill:#ed1c24;}.cls-6{fill:#d49a00;}.cls-7{stroke-width:6px;}.cls-14,.cls-16,.cls-18,.cls-8{stroke-width:3px;}.cls-10{fill:#1b1464;}.cls-12{fill:#42210b;}.cls-15{stroke-width:0.75px;}.cls-16,.cls-17{fill:#fff;stroke-linecap:round;}.cls-17{stroke:#fff;}.cls-18{fill:#fbb03b;}.cls-19{stroke-linecap:square;stroke-linejoin:round;}</style></defs><g id="Warstwa_2" data-name="Warstwa 2"><g id="Drawing"><path class="cls-1" d="M253,151.71l-18,7-5,2s-3.19,1.18-6,2c-4.11,1.2-17,.91-34-2q-.49,7.5-1,15l-24,3c-6.48-7.41-16.7-19.33-22.83-37.32-.06-.23-.12-.46-.17-.68-1.76-7.21-2.42-17.16-4-37-.29-3.69-.53-7-.72-9.71,0,0,0-.08,0-.12,0-1.37-.07-2.74-.1-4.11l1.19.43,1.83.65,1.09.37A156.89,156.89,0,0,0,157,95.71c1.45.33,2.87.64,4.27.91q2.78.59,5.73,1.09a181.3,181.3,0,0,0,43,2c2.64-.19,4.31-.36,7.93-.89h0A227.16,227.16,0,0,0,245,94.71v3a10.31,10.31,0,0,1,2,9,39.32,39.32,0,0,0,10,5c5,1.67,8.85-.5,13,2a12.26,12.26,0,0,1,4,4,17.19,17.19,0,0,1,2,7C276.6,134.92,267.31,145.42,253,151.71Z"/><path class="cls-2" d="M201.51,260.21H214c3.87,1.08,6.72,4,7,7,.39,4.28-4.27,9.36-11,9h-2.82"/><path class="cls-3" d="M229,43.71v29h-3c-.5-2.41-1-4.83-1.51-7.24a35.29,35.29,0,0,0-.49-3.76A38.8,38.8,0,0,0,222.53,56a.06.06,0,0,0,0,0c-.5-2.42-1-4.85-1.51-7.27a24,24,0,0,0-5-6,23.19,23.19,0,0,0-3.7-2.61c-12.23-10.49-29.62-7.71-38.56-5.27L172,34.71a47.9,47.9,0,0,0-14,7,48.58,48.58,0,0,0-11,11.22c-.87,1.12-1.54,2.08-2,2.78a56.44,56.44,0,0,0-9.45,24.41c-.23,1-.41,1.87-.55,2.59l.06,2.47c-.1,1.86-.09,3.4-.06,4.53s.16,2.58.27,4.17c0,0,0,.08,0,.12l.72,29.71a94.27,94.27,0,0,0,3,14c.37,1.25.76,2.48,1.17,3.68,2.27,8.87,7.74,22.55,22.83,37.32a137.13,137.13,0,0,0,26,23q1-20,2-40l8,1c-.18,4.65-.31,10.57-.19,17.48A162.12,162.12,0,0,0,199.5,198c.32,6.09.7,9.93,1.51,12.75.14.48.3,1,.47,1.55A160.93,160.93,0,0,0,206,230.71c.31-.18.68-.4,1.09-.66a52.31,52.31,0,0,1,1.91,9.66,8.47,8.47,0,0,1-1,5c-1.42,2.39-4,3.43-6,4a129.69,129.69,0,0,1-19.17,3.92L164,253.71V254a187.06,187.06,0,0,1-43-4.26,51,51,0,0,1-9.1-2.92l.1-.08-12-9-6-8-.08.11A41.53,41.53,0,0,1,89,215.71c-.78-5.27-.19-10.51,1-21a104.82,104.82,0,0,1,2-13,145.47,145.47,0,0,1,10-29,15.13,15.13,0,0,0,2-8c-.22-3.59-1.94-5.93-4-9-6.58-9.84-9.86-14.75-11-21s.95-7.66-1-10c-3.59-4.3-10.85.32-23-3-3.55-1-8.14-2.22-12-6-4.95-4.84-5.67-10.86-7-22-1-8.72-2-16.43,1-26a48.57,48.57,0,0,1,7-14c.71-.84,15.88-18.23,36-15,12.69,2,21,11,21,11a34.24,34.24,0,0,1,5,7,76.54,76.54,0,0,1,17-10,78.38,78.38,0,0,1,35-6c.92-11.84,10.66-18.5,17-17,5.55,1.32,10.59,9.4,9,19l24,4a19,19,0,0,1,11,17Z"/><path class="cls-3" d="M217,217.71c-1.82,6.49-6.93,10.46-9.91,12.34-1.72-6.32-4.19-13.17-5.62-17.79-.56-3-1.06-6.23-1.47-9.55-.2-1.61-.37-3.19-.51-4.75-.17-3.11-.31-6.81-.49-11.25-.09-2.26-.15-4.44-.19-6.52,0-1.9.1-3.73.19-5.48a114.57,114.57,0,0,1,16,22,45.63,45.63,0,0,1,2,8C217.59,208.45,218.31,213.09,217,217.71Z"/><path class="cls-4" d="M199,186.71c.18,4.44.32,8.14.49,11.25a162.12,162.12,0,0,1-.68-17.77C198.86,182.27,198.92,184.45,199,186.71Z"/><path class="cls-4" d="M207.1,230.05c-.41.26-.78.48-1.09.66a160.93,160.93,0,0,1-4.53-18.45C202.91,216.88,205.38,223.73,207.1,230.05Z"/><path class="cls-5" d="M190,176.71q-.49,12.49-1,25l-26-23Z"/><path class="cls-4" d="M135.18,89.77c0,1.37.07,2.74.1,4.11-.11-1.59-.2-3-.27-4.17Z"/><path class="cls-4" d="M140.18,141.39c6.13,18,16.35,29.91,22.83,37.32C147.92,163.94,142.45,150.26,140.18,141.39Z"/><path class="cls-4" d="M215.94,98.82c-3.62.53-5.29.7-7.93.89a181.3,181.3,0,0,1-43-2q-3-.51-5.73-1.09c16.55,3.34,29.8,3.23,39.73,3.09C204,99.64,209.65,99.39,215.94,98.82Z"/><path class="cls-6" d="M285,85.71l-15,5c-6.09.89-15.49,2.27-27,4C227.62,97,220.34,98.18,216,98.82h0c-6.29.57-12,.82-16.93.89-9.93.14-23.18.25-39.73-3.09a171,171,0,0,1-20-5.4l-1.09-.37-1.83-.65-1.19-.43c0-1.53-.07-3.06-.11-4.59s.23-3.2.49-5.06c.35-1.54.83-3.38,1.45-5.41,1.48-4.82,4.14-13.5,10-21.78a51,51,0,0,1,21-16.22,52.91,52.91,0,0,1,5.74-1.88L190,32.71l12,2,10.3,5.39c.24.19.47.4.7.61A36.27,36.27,0,0,1,222.52,56a.06.06,0,0,1,0,0c.66,3.15,1.31,6.3,2,9.45A39.85,39.85,0,0,1,224,75.71l61,1a5.06,5.06,0,0,1,3,3A5.29,5.29,0,0,1,285,85.71Z"/><path class="cls-4" d="M135.07,85.18c0,1.53.07,3.06.11,4.59l-.17-.06C135,88.58,135,87,135.07,85.18Z"/><path class="cls-4" d="M145,55.71c.49-.7,1.16-1.66,2-2.78-5.89,8.28-8.55,17-10,21.78-.62,2-1.1,3.87-1.45,5.41A56.44,56.44,0,0,1,145,55.71Z"/><path class="cls-4" d="M202,34.71a40,40,0,0,0-13-2,50.72,50.72,0,0,0-15.26,2.12c8.94-2.44,26.33-5.22,38.56,5.27A37.62,37.62,0,0,0,202,34.71Z"/><path class="cls-4" d="M224.5,65.47c-.66-3.15-1.31-6.3-2-9.45A38.8,38.8,0,0,1,224,61.71,35.29,35.29,0,0,1,224.5,65.47Z"/><path class="cls-7" d="M91.93,231.82a77.7,77.7,0,0,1-12.35,13.57A85.78,85.78,0,0,1,68,253.71c-26.87,15.72-54.72,9.79-62,8a4.83,4.83,0,0,0-3,4,5,5,0,0,0,4,5c16.07,3.6,38,4,38,4,13.23-2.64,36.24-8.94,64.9-25.92"/><path class="cls-4" d="M111.91,246.79l.1-.08-1.24-.93-8.7-6.53-1-.72-1.1-.82c-.27-.36-.54-.71-.8-1.07l-1.55-2.07h0l-.93-1.24a0,0,0,0,0,0,0L94,229.71l-.08.11"/><path class="cls-4" d="M105.87,243.28a41.48,41.48,0,0,1-9.13-9.1"/><path class="cls-8" d="M209.44,275.21a11.47,11.47,0,0,1-6.43,1.5H169l-5-6V267.2a301.33,301.33,0,0,0,32-6.49h11c3.87,1.08,6.72,4,7,7C214.26,270.42,212.48,273.44,209.44,275.21Z"/><path class="cls-4" d="M182.84,252.63A159.59,159.59,0,0,1,164,254v-.26Z"/><path class="cls-9" d="M80.51,246.21a17.83,17.83,0,0,0,10,14"/><path class="cls-9" d="M63.44,255.13s.78,15.38,5.92,13.73"/><path class="cls-9" d="M37.79,264.21s.12,8.48,1.92,8.74"/><path class="cls-9" d="M21,264.21s-6.52,4,0,6"/><path class="cls-10" d="M195.5,259.71a44.43,44.43,0,0,1-32,6.49V253a159.59,159.59,0,0,0,18.83-1.34l16.17-.92a9.55,9.55,0,0,1-.5,5.5A9.36,9.36,0,0,1,195.5,259.71Z"/><path class="cls-2" d="M125.63,281.38a6.55,6.55,0,0,1-8.76,2,5.92,5.92,0,0,1-2.57-8.21,6.32,6.32,0,0,1,6.43-2.77,6.82,6.82,0,0,1,2.32.8A5.91,5.91,0,0,1,125.63,281.38Z"/><path class="cls-2" d="M143.4,283.21c-2.42,4-8.09,5.2-12.67,2.68-4.06-2.23-5.89-6.65-4.55-10.4a6.94,6.94,0,0,1,.67-1.37c2.41-4,8.08-5.2,12.66-2.69a9.74,9.74,0,0,1,3.79,3.68l0,0A7.82,7.82,0,0,1,143.4,283.21Z"/><path class="cls-2" d="M155,279.4a6,6,0,0,0-2.53-7.62,6.34,6.34,0,0,0-4.1-.65,6.85,6.85,0,0,0-4.65,3.18,5.8,5.8,0,0,0-.37.69,6,6,0,0,0,2.45,7.8,6.66,6.66,0,0,0,8.76-2.53,5.4,5.4,0,0,0,.43-.87"/><path class="cls-11" d="M143.28,274.58a9.11,9.11,0,0,0-4.13-3.66,9.76,9.76,0,0,0-3.92-.77c-4.2,0-8.37,2.2-9.49,4.17a1.83,1.83,0,0,1-.15.25,6.7,6.7,0,0,1-.79-.72,11.79,11.79,0,0,0-.9-.83,7.42,7.42,0,0,0-3.86-1.48c1.3-1.4,2.64-2.77,4-4.09,1.13-1.1,2.3-2.19,3.49-3.24h.52c1.18.52,7,3,12.27,3a11.6,11.6,0,0,0,4.5-.8c.74.57,1.47,1.15,2.17,1.75,1,.83,1.9,1.7,2.8,2.6a9.4,9.4,0,0,0-3.69,1.19A8.39,8.39,0,0,0,143.28,274.58Z"/><path class="cls-12" d="M127.9,265.23c1.64.71,7.29,3,12.43,3a12.87,12.87,0,0,0,4.33-.67c.58.45,1.14.91,1.69,1.38s.94.82,1.39,1.24a10.47,10.47,0,0,0-2.13.92,9.51,9.51,0,0,0-2.29,1.84,9.78,9.78,0,0,0-3.77-2.9,10.88,10.88,0,0,0-4.32-.85c-3.75,0-7.95,1.72-9.81,3.9-.27-.26-.56-.54-.89-.81a7.55,7.55,0,0,0-2.54-1.31c.9-.94,1.82-1.87,2.75-2.77s2.09-2,3.16-2.93m.38-2h-1.11q-1.89,1.65-3.82,3.52c-2,1.95-3.84,3.87-5.5,5.73h.65a7.31,7.31,0,0,1,4.78,1.35c.88.71,1.61,1.8,2.37,1.8h.16c.47-.1.7-.61.8-.78.91-1.61,4.77-3.66,8.62-3.66a9,9,0,0,1,3.53.68,8.79,8.79,0,0,1,4.52,5,7.34,7.34,0,0,1,3.33-4,8.51,8.51,0,0,1,4.26-1.1,9.2,9.2,0,0,1,1.3.09,50.33,50.33,0,0,0-4.52-4.4c-.92-.78-1.82-1.5-2.7-2.15a9.94,9.94,0,0,1-4.62,1c-5.6,0-12.05-3-12.05-3Z"/><path class="cls-9" d="M151.59,272a1.34,1.34,0,0,0-.3-.59"/><path class="cls-10" d="M120.59,251.48l30.94,1s-2.19,16.43-14.65,16.13S119.69,253.53,120.59,251.48Z"/><path d="M138.49,36.71a74.71,74.71,0,0,0-8.11,13.12,68.49,68.49,0,0,0-6.76,29.24,75.37,75.37,0,0,0,1.52,15.35,39.68,39.68,0,0,1-4.66-15.19,48.94,48.94,0,0,1,7.15-30.92A40,40,0,0,1,138.49,36.71Z"/><path d="M119.82,184.42c-.3,5-.88,10-1.08,14.94a58.07,58.07,0,0,0,1,14.53,33.24,33.24,0,0,0,5.87,13,23.72,23.72,0,0,0,11.64,8.46,17.65,17.65,0,0,1-7.33-2.13,23.15,23.15,0,0,1-6.1-4.83,30,30,0,0,1-7-13.84,43.61,43.61,0,0,1-.84-7.7,54.1,54.1,0,0,1,.47-7.65A85,85,0,0,1,119.82,184.42Z"/><path d="M134,240.43c1.46-2.43,3-4.78,4.49-7.14s3-4.72,4.37-7.11c.71-1.19,1.39-2.4,2-3.61s1.33-2.42,2-3.66c1.24-2.47,2.46-4.95,3.61-7.47l.74,1.88a21,21,0,0,1-4.69-3,21.71,21.71,0,0,1-3.68-4.11,20.09,20.09,0,0,1-2.41-4.87,16.67,16.67,0,0,1-.92-5.25,24.35,24.35,0,0,0,2,4.78,23.22,23.22,0,0,0,2.92,4.12,21,21,0,0,0,3.66,3.33,18.57,18.57,0,0,0,4.26,2.37l1.32.52-.57,1.37a80.7,80.7,0,0,1-3.63,7.71c-.67,1.25-1.37,2.49-2.09,3.71s-1.53,2.4-2.33,3.58a75.66,75.66,0,0,1-5.2,6.72A77.13,77.13,0,0,1,134,240.43Z"/><path class="cls-13" d="M182,200.33a30.12,30.12,0,0,1,11.85,17.5,39.43,39.43,0,0,1-2.19-21.54"/><path class="cls-14" d="M135.75,87.81a350.82,350.82,0,0,0,90.48-11.12"/><path class="cls-4" d="M165.07,106.3l21,4"/><path class="cls-15" d="M165.17,106.21l21.34,4.47s-1.18,11-10.67,13.31S158.09,109.2,165.17,106.21Z"/><path d="M177.5,154.09a23.51,23.51,0,0,0,4.77,2.17,36.44,36.44,0,0,0,5,1.28c1.69.32,3.43.24,5.09.65.84.19,1.68.39,2.53.66a16.76,16.76,0,0,1,2.61.93v.3a9.74,9.74,0,0,1-2.71.87,13.62,13.62,0,0,1-2.77.22,16.84,16.84,0,0,1-5.36-1.3,27.28,27.28,0,0,1-5-2.25,20.68,20.68,0,0,1-4.34-3.29Z"/><path class="cls-16" d="M236.51,160.33c0,1.8,0,3.61.05,5.41l7.48-.39,0-8.14"/><path class="cls-17" d="M166.68,109.21c-1.21,1.21-.69,4.11,1,4.7a2.74,2.74,0,0,0,3.24-1.6,2.85,2.85,0,0,0-1.93-3.6A2.44,2.44,0,0,0,166.68,109.21Z"/><path d="M208.3,153.62a12.27,12.27,0,0,1,2.39-1.23,13.83,13.83,0,0,1,2.63-.64,19.23,19.23,0,0,1,5.41.05c3.6.55,6.94,1.93,10.21,3a36.51,36.51,0,0,0,4.91,1.32,27.27,27.27,0,0,0,4.79.51,12.56,12.56,0,0,0,9-3.08l.25.16a7.76,7.76,0,0,1-1.43,2.4,9.52,9.52,0,0,1-2.23,1.81,11.52,11.52,0,0,1-2.64,1.16,16,16,0,0,1-2.82.55,16.19,16.19,0,0,1-2.87,0,17.79,17.79,0,0,1-2.76-.59,48.32,48.32,0,0,1-5.06-2c-3.25-1.41-6.33-3-9.64-3.78a14.15,14.15,0,0,0-10,.6Z"/><circle cx="240.51" cy="135.21" r="1"/><circle cx="232.51" cy="143.21" r="1"/><circle cx="216.01" cy="131.71" r="1.5"/><circle cx="228.51" cy="128.21" r="1"/><circle cx="219.51" cy="141.21" r="1"/><path class="cls-18" d="M271,116.46a13.38,13.38,0,0,1,4.83,7.17,17.61,17.61,0,0,1-7.68,19.73,2.1,2.1,0,0,1-1.62.42,1.86,1.86,0,0,1-.94-.87C262.08,137.54,255.77,105.55,271,116.46Z"/><path d="M231.17,100.21c1.53.35,3,.8,4.38,1.21,1.17.8,2.38,1.53,3.59,2.26a80.16,80.16,0,0,0,7.54,3.89,77.47,77.47,0,0,0,7.92,3.05c1.34.43,2.7.82,4.07,1.18,1.25.79,2.54,1.53,3.84,2.41a32.35,32.35,0,0,1-4.59.49c-1.43-.37-2.84-.78-4.24-1.23a78,78,0,0,1-8.23-3.16,85.14,85.14,0,0,1-7.83-4c-1.26-.75-2.5-1.54-3.74-2.32A28.75,28.75,0,0,1,231.17,100.21Z"/><path class="cls-19" d="M238.15,104.57a2.22,2.22,0,0,0,0,.37,1.87,1.87,0,0,0,.13.42,2.43,2.43,0,0,0,.92,1c1.74,1.16,5.14,1.06,6.59-.31a2,2,0,0,0,.69-1.53c0-3.51-1.87-6.36-4.18-6.36S238.15,101.06,238.15,104.57Z"/><path class="cls-17" d="M242.86,100.59a1.3,1.3,0,0,0,.7,2.26,2.21,2.21,0,0,0,2.25-.77c.41-.74-.37-1.54-1.34-1.73A2.3,2.3,0,0,0,242.86,100.59Z"/></g></g></svg>