<svg xmlns="http://www.w3.org/2000/svg" viewBox="0 0 279.64 256.52"><defs><style>.cls-1{fill:#fff;}.cls-2,.cls-3,.cls-4,.cls-6{fill:none;}.cls-2,.cls-4{stroke:#000;}.cls-2,.cls-4,.cls-6{stroke-miterlimit:10;}.cls-2{stroke-width:3px;}.cls-4,.cls-6{stroke-width:2px;}.cls-5{fill:#ed1c24;}.cls-6{stroke:red;}.cls-7{fill:#8c6239;}.cls-8{fill:#a67c52;}.cls-9{fill:#f7931e;}</style></defs><g id="Warstwa_2" data-name="Warstwa 2"><g id="Warstwa_2-2" data-name="Warstwa 2"><ellipse class="cls-1" cx="43.5" cy="45.05" rx="16.5" ry="17.5"/><line class="cls-2" x1="102.77" y1="191.55" x2="102.5" y2="191.05"/><line class="cls-3" x1="134.5" y1="191.05" x2="134.26" y2="191.55"/><path class="cls-3" d="M170.9,101.43c-4.66.72-10.75,2.9-17.4,6.62"/><line class="cls-4" x1="80.5" y1="235.05" x2="114.5" y2="220.05"/><line class="cls-4" x1="89.5" y1="246.05" x2="114.5" y2="220.05"/><line class="cls-4" x1="106.5" y1="253.05" x2="114.5" y2="220.05"/><line class="cls-4" x1="134.5" y1="230.05" x2="114.5" y2="221.05"/><line class="cls-4" x1="150.5" y1="242.05" x2="176.5" y2="220.05"/><line class="cls-4" x1="157.5" y1="256.05" x2="176.5" y2="220.05"/><line class="cls-4" x1="175.5" y1="253.05" x2="176.5" y2="220.05"/><line class="cls-4" x1="199.5" y1="223.05" x2="176.5" y2="220.05"/><path class="cls-5" d="M24.15,10.5A16.73,16.73,0,0,1,31.53,15a12.9,12.9,0,0,1,1-9c.29-.54,3.31-6,8-6,4.2,0,8.57,4.54,9,11a9.93,9.93,0,0,1,4-5l.18-.1h0A10,10,0,0,1,58,4.57l.32,0h0A7.55,7.55,0,0,1,63.53,6C65.39,7.61,66,11,65,15.19v0a26.33,26.33,0,0,1-3.19,7.49h0a32.86,32.86,0,0,1-1.94,2.86l-.33.43A21.23,21.23,0,0,0,47,21.5a22,22,0,0,0-14,5,23.25,23.25,0,0,0-4,4,14.41,14.41,0,0,1-7-2,14.91,14.91,0,0,1-6-7c-1.22-2.7-2.85-6.34-1-9C16.64,10.19,20.37,9.37,24.15,10.5Z"/><path class="cls-6" d="M34.78,29.16C43,25.79,53,27.88,58,33.85s3.71,14.34-2.89,18.75C46.93,58,33.33,55.89,29,49.08c-2.66-4.14-2-10.24,2.9-14.06,5.06-3.94,13.53-4.6,18.84-1.17,3.06,2,6.56,6.29,4.35,10.55-2.1,4-8.2,5.88-13,4.68-3.23-.79-7.48-3.34-7.24-7,.16-2.6,2.52-5.07,5.79-5.86,2.94-.69,7.14-.16,8.7,2.35a4.14,4.14,0,0,1-1.45,5.86c-2.45,1.34-6.33.56-7.25-1.17-.63-1.2,0-3.21,1.45-3.52a3.35,3.35,0,0,1,2.9,1.17"/><line class="cls-3" x1="196.5" y1="90.05" x2="170.9" y2="101.43"/><path class="cls-3" d="M56,3.62l0-.06"/><polyline class="cls-7" points="97.77 190.55 114.5 221.05 129.26 190.55"/><path class="cls-7" d="M91.39,71c-.3,1-.59,2.07-.89,3.1,0,0-1.31,2.46-3,3-2,.65-3.66-1.72-5-1-.5.27-1,1-1,3l-5-1c-.33,1-.67,2-1,3l-5-1c.26.75.69,2.33,0,3-.86.83-3.31.17-6-2l-2,3-6-2-3,2-5-2c-.67,1.33-1.33,2.67-2,4l-1-1-8.7-8.7c-1.39-3.42-2.85-6.53-4.3-9.3a24.35,24.35,0,0,0,3.76,1.57l.05,0c8.68,2.84,17.89.59,23.19-5.59a19,19,0,0,0,4.39-12.76v0c.07-.72.11-1.46.11-2.2,0-11.87-9.18-21.5-20.5-21.5a19.39,19.39,0,0,0-6.57,1.14h0a18.11,18.11,0,0,0-2,.7,21.28,21.28,0,0,0-5,2.88h0c-.14,0-.29.07-.44.09a9.67,9.67,0,0,1-1.88.18h-.56c.27-.38.55-.76.84-1.12a25.83,25.83,0,0,1,10-7.59A21.84,21.84,0,0,1,48.5,21.05a18.43,18.43,0,0,1,8.84,3.44h0l.16.12c.45.32.89.66,1.32,1a61.23,61.23,0,0,1,8.67,9.43c7.71,9.66,6.77,17.64,15,27,1.82,2.08,4.8,5.1,7.87,8Z"/><path class="cls-8" d="M279.5,83.05c-1.32-6.36-12.74-12.77-27-10,11.57-3.73,16.35-16.47,12-25-4.73-9.26-22.31-7.22-24-7-23.89,3.18-36.24,30.9-38,35a227.59,227.59,0,0,0-50-4c-7.78.24-18.72,3.32-36,4-8,.31-14.54.18-19,0-1.82-1.46-4.24-3.48-7-6l-.11-.1c-.3,1-.59,2.07-.89,3.1,0,0-1.31,2.46-3,3-2,.65-3.66-1.72-5-1-.5.27-1,1-1,3l-5-1c-.33,1-.67,2-1,3l-5-1c.26.75.69,2.33,0,3-.86.83-3.31.17-6-2l-2,3-6-2-3,2-5-2c-.67,1.33-1.33,2.67-2,4l-9.7-9.7a101.28,101.28,0,0,1,4.7,14.7c4.37,18.39.07,23.36,3,40,1.2,6.83,6.44,36.61,31,52,5.21,3.26,17.64,9.86,37,9h51l14,29,27-43a39.92,39.92,0,0,0,27-32c1.53.67,14.56,6.16,27-1,1.67-1,15.69-9.32,14-23-1-7.9-6.83-14.75-15-18C272.18,100.92,280.88,89.7,279.5,83.05Zm-89,76c-13.46,15.37-34.24,16.41-46,17-10.57.53-21,1-32-5-17.55-9.64-22.82-28.33-24-33l82.4-36.62c4.3-.67,7.39-.11,8.6,1.62,2.22,3.18-1.62,10.72-8,18a21.26,21.26,0,0,1,16-3c.86.2,8.38,2,12,8C205.4,135.8,197.56,151,190.5,159.05Z"/><path class="cls-7" d="M190.5,159.05c-13.46,15.37-34.24,16.41-46,17-10.57.53-21,1-32-5-17.55-9.64-22.82-28.33-24-33l82.4-36.62c4.3-.67,7.39-.11,8.6,1.62,2.22,3.18-1.62,10.72-8,18a21.26,21.26,0,0,1,16-3c.86.2,8.38,2,12,8C205.4,135.8,197.56,151,190.5,159.05Z"/><path class="cls-7" d="M43,24.55a21.08,21.08,0,0,0-7,1.21h0a18.79,18.79,0,0,0-2.19.75,22.76,22.76,0,0,0-5.38,3.05h0a3.56,3.56,0,0,1-.47.1,27.89,27.89,0,0,0-3.18,3.82A26,26,0,0,0,20,46.86a22.11,22.11,0,0,0,3.5,12.46c.27.43.52.8.76,1.13a26.11,26.11,0,0,0,11,8.79l.06,0c9.29,3,19.16.63,24.84-5.94a20.09,20.09,0,0,0,4.7-13.55v0A22.77,22.77,0,0,0,65,47.39C65,34.78,55.17,24.55,43,24.55Zm.53,35.05c-8.28,0-15-7.13-15-15.93s6.71-15.93,15-15.93,15,7.14,15,15.93S51.85,59.6,43.57,59.6Z"/><ellipse class="cls-3" cx="44" cy="44.55" rx="14" ry="15"/><path class="cls-9" d="M22,47.55a21,21,0,0,0,3.27,11.73c-.64-.15-1.28-.3-1.92-.47A81.37,81.37,0,0,1,0,48.57L26.41,35A24.62,24.62,0,0,0,22,47.55Z"/><path class="cls-3" d="M27.81,59.83c-.83-.17-1.68-.35-2.53-.55"/><path class="cls-3" d="M27.81,34.25l-1.4.72"/></g></g></svg>