<svg xmlns="http://www.w3.org/2000/svg" viewBox="0 0 387.29 318.94"><defs><style>.cls-1{fill:#f2f2f2;}.cls-1,.cls-2,.cls-3,.cls-5,.cls-6,.cls-7,.cls-8{stroke:#000;stroke-miterlimit:10;stroke-width:2px;}.cls-2{fill:#202124;}.cls-3,.cls-8{fill:none;}.cls-4{fill:red;}.cls-5,.cls-9{fill:#fff;}.cls-6{fill:#2e3192;}.cls-8{stroke-linecap:round;}</style></defs><g id="Warstwa_2" data-name="Warstwa 2"><g id="Drawing"><path class="cls-1" d="M21.92,170a17.76,17.76,0,0,1-4.13,11.63,24.51,24.51,0,0,1-12.09-5.8c-2.28-2.07-5.19-4.73-4.63-7.18.83-3.54,9-6.92,18.71-7.38A18.4,18.4,0,0,1,21.92,170Z"/><path class="cls-2" d="M105.78,291.53c-10.43,3-28.52,6.38-49.11.9-4.73-1.26-46-12.86-53.75-44.86C-1,231.29,5.3,216.23,5.7,215.28c7.28-16.77,22.41-24.85,19.46-30.5-1.07-2.06-3.83-2.4-7.37-3.17A17.76,17.76,0,0,0,21.92,170a18.4,18.4,0,0,0-2.14-8.73c8.47-.4,18.08,1.44,24.84,7.38,5.61,4.94,10.44,13.78,8.34,21.53-1.44,5.31-5.74,7.82-9.27,10.77-12.2,10.2-21.26,30.79-16.67,46.64,5.47,18.93,29.37,27.57,43.55,29.61a61.38,61.38,0,0,0,19.83-.42c.87-.16,1.66-.32,2.4-.48l4.43,5.2,4.42,5.21Z"/><path class="cls-3" d="M101.65,286.69c-5.16-3-9-6.16-11.25-9.93"/><path class="cls-3" d="M191.3,307c-.09-.05-.18-.12-.28-.17"/><path class="cls-4" d="M101.14,63.68l-15.75.89c-1.13.52-3.68,1.86-4.63,4.49-1.82,5,3.9,10.12,4.63,10.76,3.61,3.21,7.85,4,11.12,4.49a130,130,0,0,0,28.73.9,22.87,22.87,0,0,0,6.48-14.36,19.11,19.11,0,0,0-2.78-11.66c-4.79-7.38-16.56-12.74-23.16-8.07C100.8,54.64,101.07,62.22,101.14,63.68Z"/><path class="cls-4" d="M130.8,17c-2.7-3.81-7.47-5.18-11.12-3.59A7.53,7.53,0,0,0,115,19.72c-.08,4.2,4.82,7,8.34,9a28.81,28.81,0,0,0,12.05,3.59l8.8-4.93A9,9,0,0,0,141,10.75,9.43,9.43,0,0,0,130.8,17Z"/><path class="cls-4" d="M233.18,10.3c.07-1.38.08-5.46-2.78-8.07C225.9-1.89,217,.1,212.8,4.92c-3.22,3.74-2.93,8.45-2.78,10.76a20.76,20.76,0,0,0,5.56,12.56l15.75.9c9.87,0,15.92-3.56,18.53-5.38s6.87-4.78,6.49-8.08c-.49-4.22-8.24-6.95-13.9-7.17A21.19,21.19,0,0,0,233.18,10.3Z"/><path class="cls-5" d="M373.1,292.88c.14,1.73-1.34,3.23-2.32,4l0,0a46.91,46.91,0,0,0-5.06,2.23l-6.95,2.24a16.51,16.51,0,0,1-1.86.63,39.14,39.14,0,0,1-24-1.11c1.11-9.73,11.1-17.46,23.61-18.28,3.11,1.5,7,2.95,12,5.75C371.23,289.94,373,291.14,373.1,292.88Z"/><path class="cls-5" d="M306.39,308.13a8.78,8.78,0,0,1-2.32,4.93c-2.07,2.1-5.09,2.71-9.22,3.19-2.86.34-6.26.62-10.24,1.29l-.65.11a27.54,27.54,0,0,1-8.62-.11,30.56,30.56,0,0,1-9.26-3.58c-3.14-1.87-6.5-5.24-9.6-9.85,3.68-5.23,13.64-9,25.35-9A45.94,45.94,0,0,1,298.4,298a33.5,33.5,0,0,1,5.21,5.65A36.49,36.49,0,0,1,306.39,308.13Z"/><path class="cls-3" d="M92.8,276.28c-.74.16-1.53.32-2.4.48l11.25,9.93-4.42-5.21Z"/><path class="cls-2" d="M349.47,277.18l-.48-.7c-.12-.19-.24-.38-.36-.59-2-3.41-4.68-10.74-3.79-31,.57-13.17,3.6-30,5.56-51.13a103.94,103.94,0,0,0,.46-12.11,42.57,42.57,0,0,0-.46-7.62c-1.75-7.78-7.88-8.38-12-16.15-.9-1.7-4.51-8.92-2.31-16.6,1.5-5.25,5.83-11.17,10.65-14.8a16.94,16.94,0,0,0,5.1-4.93,47.19,47.19,0,0,0,2.93-6.94c.62-1.65,1.16-3.08,1.24-3.38a27.39,27.39,0,0,0,.14-12.56,37.53,37.53,0,0,0-1.66-5.58,51.71,51.71,0,0,0-3.25-6.82c-.66-1.14-1.25-2.1-1.72-2.85a51.24,51.24,0,0,0-21.31-18.84l-8.34-19.73A29.11,29.11,0,0,0,308.7,30.49c-2.72-1.76-6.09-3.95-9.26-2.7-2.87,1.13-4.63,4.7-4.64,9Q289.7,48,284.61,59.19l-46.33,8.08-8.34,4.48a248.44,248.44,0,0,0-40.77-20.63c-6.12-2.39-11.95-4.34-14.82-1.8-4.49,4,1.38,16.1,1.85,17.05,4.33,5.8,9.83,15,11.12,26.91,1.09,10.07-1.66,14.46,0,21.53,1.7,7.29,8,17,29.65,26a25.25,25.25,0,0,1-5.1,13c-5.38,6.78-12.64,7.76-23.16,11.66-10.73,4-17.64,8.3-28.73,15.25-14,8.78-21.36,13.52-26.41,22.88-3.89,7.23-5.7,16-6,17.49-2.3,11.36-.32,16.38-4.63,20.63-2.23,2.21-3.73,1.81-14.83,4.49-18.87,4.56-21.22,7.32-22.23,9-3,4.91-1.33,11.12-.93,12.56a19.64,19.64,0,0,0,5.47,9c.87-.16,1.66-.32,2.4-.48l4.43,5.2,4.42,5.21a83.93,83.93,0,0,0,16.64,9.77c7.09,3.13,12.9,4.52,20.38,6.28,1.88.45,1.28.27,19.46,3.59,6.74,1.23,13.69,1.29,20.39,2.69,2,.42,6.89,1.51,11.11-.89A10.77,10.77,0,0,0,191.3,307c.2-.12.39-.23.59-.37a19.62,19.62,0,0,1,2.41-6.07,23.22,23.22,0,0,1,5-5.85,28.53,28.53,0,0,1,6.76-4.23,32,32,0,0,1,7.72-2.37,27.54,27.54,0,0,1,20.76,1.25c.2.09.37.18.55.28l.05,0L248.47,287a67.09,67.09,0,0,0,8,17.07c3.68-5.23,13.64-9,25.35-9A45.94,45.94,0,0,1,298.4,298c-4.41-3.8-8.48-5.51-11-10.05a17.6,17.6,0,0,1-1.85-10.76l.43-.13a34.18,34.18,0,0,0,5.73-2.21,75.26,75.26,0,0,0,8.88-7l0,0a33.7,33.7,0,0,1,3.17-3.12h0c.37-.31.77-.64,1.22-1a31.4,31.4,0,0,1,8.34-4.48c-.2,2.42-.43,6-.47,10.31-.05,6.27-.07,9.46.47,12.11,2.41,11.88,17.24,18.29,18.53,18.84.34.14.69.29,1,.42,1.11-9.73,11.1-17.46,23.61-18.28A50.5,50.5,0,0,1,349.47,277.18Zm-85.71-169.1c-5.91,2.12-14.08,1.49-18.53-3.59-.58-.67-4-4.59-2.78-9a7.35,7.35,0,0,1,.91-2c2.06-3.24,6.63-5.45,12.06-5.17a26,26,0,0,1,2.82-.33c9-.61,15.69,3.19,16.64,7.5C276,100.49,269.39,106.06,263.76,108.08Zm62.08-16.15c-4.29,2.28-10.21-.09-12-4.48a8.26,8.26,0,0,1,0-6.2,8.61,8.61,0,0,1,5.94-5.37h0l.49-.09c4-.59,8.08,2.41,9.27,6.28C330.65,85.63,329.38,90.05,325.84,91.93Z"/><path class="cls-3" d="M243,305.76a7.79,7.79,0,0,1-4.4,3.72l-.06,0c-3,1.23-10.4,2.54-27.86,3.47l-11.28-2.15c-1.15-.09-6.36-.6-7.65-3.6-1.67-3.87,4.38-9.15,6.24-10.77,9.66-8.42,27.69-13.6,38.19-5.38C240.36,294.34,245.14,301.1,243,305.76Z"/><path class="cls-3" d="M300.58,267.86a40.39,40.39,0,0,1-3,3,27.2,27.2,0,0,1-5.88,3.94A75.26,75.26,0,0,0,300.58,267.86Z"/><path class="cls-5" d="M263.76,108.08c-5.91,2.12-14.08,1.49-18.53-3.59-.58-.67-4-4.59-2.78-9a7.35,7.35,0,0,1,.91-2,15.23,15.23,0,0,0,8.58,2.9c.95,0,7.38.09,8.4-3.19.48-1.56-.36-3.53-2.1-5.21,9-.61,15.69,3.19,16.64,7.5C276,100.49,269.39,106.06,263.76,108.08Z"/><path class="cls-6" d="M260.34,93.23c-1,3.28-7.45,3.2-8.4,3.19a15.23,15.23,0,0,1-8.58-2.9c2.06-3.24,6.63-5.45,12.06-5.17a26,26,0,0,1,2.82-.33C260,89.7,260.82,91.67,260.34,93.23Z"/><path class="cls-5" d="M325.84,91.93c-4.29,2.28-10.21-.09-12-4.48a8.26,8.26,0,0,1,0-6.2c1.67,3,5.21,3.89,7.37,2.61a4.46,4.46,0,0,0,1.85-5.38,4.85,4.85,0,0,0-3.27-2.6l.49-.09c4-.59,8.08,2.41,9.27,6.28C330.65,85.63,329.38,90.05,325.84,91.93Z"/><path class="cls-6" d="M321.21,83.86c-2.16,1.28-5.7.38-7.37-2.61a8.61,8.61,0,0,1,5.94-5.37h0a4.85,4.85,0,0,1,3.27,2.6A4.46,4.46,0,0,1,321.21,83.86Z"/><path class="cls-3" d="M292.49,119.74c1.27.79,9.88,5.94,19.46,2.69a20.69,20.69,0,0,0,8.33-5.38,15,15,0,0,0,9.27.9,14.66,14.66,0,0,0,8.34-5.38"/><path class="cls-7" d="M311,97.32c4.3-.24,11.55-.63,13,2.69,1.32,3.06-3.09,7.47-3.71,8.07a47.6,47.6,0,0,1-14.82,0c-5.62-.91-6.3-2.14-6.49-2.69-.69-2.1,2.39-4.94,4.64-6.28C304.42,98.63,306.43,97.56,311,97.32Z"/><path class="cls-3" d="M242.45,80.27A15.54,15.54,0,0,1,250.79,74a16.05,16.05,0,0,1,9.27,0"/><path class="cls-3" d="M296.19,67.71a20.53,20.53,0,0,1,20.39,0"/><path class="cls-3" d="M286.93,109a54.47,54.47,0,0,0-25,4.48,52.6,52.6,0,0,0-16.68,11.67"/><path class="cls-3" d="M286.93,109a68.63,68.63,0,0,0-17.61,10.76,66.91,66.91,0,0,0-13.9,16.15"/><path class="cls-3" d="M286.93,110.77A44,44,0,0,0,277.66,126c-.69,2.08-2.78,9-2.78,9"/><path class="cls-3" d="M335.11,95.52a49.75,49.75,0,0,1,21.31-10.76,50.91,50.91,0,0,1,25.95.89"/><path class="cls-3" d="M337,96.42a87.14,87.14,0,0,1,50,0"/><path class="cls-3" d="M337.89,96.42a136.73,136.73,0,0,1,48.18,11.66"/><line class="cls-8" x1="318.15" y1="108.86" x2="320.28" y2="117.05"/><path class="cls-3" d="M242.91,213.49A85.91,85.91,0,0,0,248.47,287"/><path class="cls-3" d="M291.56,247.13a66.89,66.89,0,0,0-5.56,30.5"/><path class="cls-3" d="M291.7,274.84c-1,.69-2,1.31-2.92,1.89"/><path class="cls-3" d="M303.77,264.7c-1,1.1-2.1,2.15-3.17,3.12"/><path class="cls-3" d="M303.78,264.69c1.12-1.18,2.23-2.43,3.28-3.76C315,251,317,241.78,317.51,236.36"/><path class="cls-3" d="M283.68,310.37a6.49,6.49,0,0,1,3.71,2.69,6.08,6.08,0,0,1,.93,3.59"/><path class="cls-3" d="M293,306.78a5.18,5.18,0,0,1,4.63,4.49,5.09,5.09,0,0,1-3.7,5.38"/><path class="cls-3" d="M352.25,296a6.8,6.8,0,0,1,3.25,2.24,6.58,6.58,0,0,1,1.39,4"/><path class="cls-3" d="M361.52,293.32a5.18,5.18,0,0,1,2.78,1.8,4.78,4.78,0,0,1,.92,3.59"/><path class="cls-3" d="M236,145.76a87.75,87.75,0,0,1-23.16-7.85,97.78,97.78,0,0,1-21.31-14.58"/><path class="cls-3" d="M258.24,88a11.87,11.87,0,0,0-1.89-1.47"/><path class="cls-3" d="M243.36,93.52c-.37-.26-.67-.5-.91-.69"/><path class="cls-3" d="M313.84,81.25a.3.3,0,0,0,0-.08"/><path class="cls-9" d="M202,295c4.3-2.8,7.28-4.74,12-6,3.55-.93,9.37-2.45,16,0a24.59,24.59,0,0,1,12,10.94c.71,1.37,1.3,2.63,1,4-.38,1.74-1.94,2.92-4,4-4,2-7.6,2.51-12,3-8.4.91-12.67,1.36-16,1a43.17,43.17,0,0,1-9-2l-7-1-2-2a13.05,13.05,0,0,1,1-4C194.81,301,196.36,298.62,202,295Z"/><path class="cls-3" d="M215,305a9.26,9.26,0,0,1,6,3,9,9,0,0,1,2,4"/><path class="cls-3" d="M229,303a10.43,10.43,0,0,1,4,3,10.3,10.3,0,0,1,2,4"/></g></g></svg>