<svg xmlns="http://www.w3.org/2000/svg" viewBox="0 0 253 162"><defs><style>.cls-1{fill:none;}.cls-1,.cls-2,.cls-3,.cls-4{stroke:#000;stroke-miterlimit:10;}.cls-2{fill:#d9e021;}.cls-3{fill:#fff;}.cls-4{fill:#fbb03b;}</style></defs><g id="Warstwa_2" data-name="Warstwa 2"><g id="Drawing"><path class="cls-1" d="M53.9,150.81l-1.18-.36.06-.06Z"/><path class="cls-1" d="M72.64,156.3l-1.11-.17.06-.07Z"/><path class="cls-1" d="M98.22,160.28a2.15,2.15,0,0,1-.1.27L89,159.29s0,0,0-.06Q93.51,159.84,98.22,160.28Z"/><path class="cls-1" d="M111.2,161.19h-3.35l0-.17Z"/><path class="cls-1" d="M140.47,161.17l-.18,0v0Z"/><path class="cls-1" d="M164.93,159.29l-7.34.59c2.46-.25,4.85-.55,7.2-.88Z"/><path class="cls-1" d="M181.8,156.13l-6.49,1.27-.07-.12q3.28-.61,6.42-1.34Z"/><path class="cls-1" d="M193,152.93l-.13,0h0Z"/><path class="cls-2" d="M188.93,79.11l63.46-2.52c-.56-11.63-3.49-23.83-10.72-35,1.24,2.39,2.46,4.79,3.69,7.18L185,65.22c-.43-1.47-.86-2.95-1.3-4.42l57.69-19.56A63.26,63.26,0,0,0,235,33L181.8,57l-2-5,48-25.26L235,33C222,18.9,200.22,7.5,164.89,2.81q-7.12,15.73-14.23,31.47l-5.19-.63q5.84-15.79,11.68-31.57l5.54.45c-4.85-.6-10-1.08-15.34-1.41q-3.54,15-7.07,30l-5.19-.63Q137.7,15.66,140.28.82h1.4Q134.54.51,126.82.5q-7.51,0-14.47.32h2q2.59,16.1,5.19,32.2L115,35.54q-3.87-17.22-7.73-34.45-8.33.51-15.88,1.48l6.09-.49q7.14,18,14.27,36l-5.19,1.26Q98.14,21.06,89.72,2.79c-4.8.64-9.36,1.42-13.7,2.31l3.29-.5,20.76,33.47-3.9,1.26-25-33.15h0a147.32,147.32,0,0,0-15.26,4.43L61.15,9,90.34,40.59l-3.25,3.16-34.21-32C49.38,13,46.1,14.46,43,16L84.5,46.91,80,49.43l-44.76-29,7.43-4.22A84.68,84.68,0,0,0,20.8,31.42l4.67-4.09L70.88,50.06l-4.54,3.16L19.16,33.09a68.21,68.21,0,0,0-6.64,8.14L63.09,58.9c-.21,1.27-.43,2.53-.65,3.79L8.85,48.3q1.78-3.45,3.56-6.9A65.72,65.72,0,0,0,4.08,58.27L61.15,69v4.42l-59-6.94c.63-2.67,1.27-5.33,1.89-8A75,75,0,0,0,.5,81a69.07,69.07,0,0,0,7.65,32.78L63.74,98.05l4.54,3.15L12.5,120.78,9.31,115.9a67,67,0,0,0,9.75,13l56.36-25.22,5.19,1.89L26.12,135.3l-6.41-5.67c8,8.12,18.74,15.28,33.07,20.76l41.45-39.08h4.54L61.15,153l-7.25-2.17a144.24,144.24,0,0,0,17.68,5.25L104,111.31c1.3-.21,2.59-.43,3.89-.63Q93.92,134,80,157.4l-7.3-1.1q7.7,1.75,16.41,2.93,11.66-23.65,23.32-47.29l3.24-.63-17.41,49c3.13.31,6.35.55,9.67.74q5.16-23.91,10.34-47.82h3.24q-3.57,24-7.13,48H111.2q7.33.33,15.3.31,7.13,0,13.78-.33-2.59-15.13-5.19-30.29l5.19-.63q3.24,15.15,6.49,30.3l-6.29.62q8.9-.4,17-1.27l-.32,0-11-29.67h4.54L164.79,159q5.42-.75,10.44-1.72l-18.08-27,5.19-1.26q9.66,13.47,19.31,26.95,5.86-1.33,11.17-3l-22-24,5.19-1.9,25.3,22.73c-2.75,1-5.5,2.05-8.24,3.09a112.87,112.87,0,0,0,24.75-10.77l-6.14,3.26-31.78-22.73,3.24-3.79,35.62,22.69a71.93,71.93,0,0,0,22.4-20.92L191.53,103.1V98.68l53.62,15.09a64.05,64.05,0,0,0,3.88-9.45L192.18,93c-.22-1.47-.44-3-.65-4.42l59.67,6.31q-.7,3.47-1.42,6.91a75.07,75.07,0,0,0,2.61-16.39q-31.08-1.25-62.16-2.52C189.79,81.63,189.37,80.37,188.93,79.11ZM4.07,103.73,2.12,95.52l57.73-6.94c.21,1.47.43,3,.65,4.42ZM60.5,83.53.82,85.42V76.58l59.68,1.9ZM249.26,58.27c.65,2.73,1.29,5.48,1.94,8.21l-63.57,6.94c-.21-1.26-.43-2.52-.64-3.78ZM219.42,20.39,178.55,47.54c-.65-1.69-1.29-3.37-1.94-5l35-26.52Zm-18.16-8.84L173.36,38.7l-5.18-3.79L193.47,9Zm-25.95-7,8.43,1.9L163,33.65,156.5,33ZM131.2.82q-.64,14.51-1.3,29h-5.18q-.66-14.52-1.3-29ZM41.69,145.4l-6.49-3.79,49.3-32.83L89,110Zm81.73,15.79q.64-17.69,1.3-35.36l4.54,3.16,1.94,32.2ZM185.69,105a34.38,34.38,0,0,1-12.33,18.31l-39.56,3.16a10.75,10.75,0,0,1-6.49-6.95,10.29,10.29,0,0,1,1.95-8.83,26.79,26.79,0,0,1-11-1.9,26.06,26.06,0,0,1-6.49-3.79c-.37.15-.8.31-1.29.46s-1.19.38-1.88.57l-.57.14-.86.2-.68.14-.77.14-.8.13h0c-.26,0-.53.08-.8.1-.57.07-1.16.12-1.77.16l-.5,0h-.07l-.52,0c-.63,0-1.28,0-2,0-.39,0-.79,0-1.19-.06l-.61,0-.62-.06a31.43,31.43,0,0,1-15.56-6.32,15.81,15.81,0,0,1-11.68-2.52,14.54,14.54,0,0,1-5.19-7l3.24-30.3a10.57,10.57,0,0,1,3.9-5.69A11.34,11.34,0,0,1,80,53.22h5.19c1.21-1.43,3-3.42,5.19-5.68C94,43.81,95,43.33,95.53,43.12c2-.85,3.47-.52,9.08,0,2,.18,4.87.42,8.43.63a24.06,24.06,0,0,1,5.19-5c2-1.43,8-5.69,15.57-4.42A18.77,18.77,0,0,1,144.18,40a23.7,23.7,0,0,1,13-2.52c1.84.18,10.79,1.06,14.27,7.57a11.82,11.82,0,0,1,1.3,4.42l13.62,42.94A32.25,32.25,0,0,1,185.69,105Zm48.65,24-6.49,5.68L187,113.2l1.94-3.79Z"/><path class="cls-3" d="M185.69,105a34.38,34.38,0,0,1-12.33,18.31l-39.56,3.16a10.75,10.75,0,0,1-6.49-6.95,10.29,10.29,0,0,1,1.95-8.83,26.79,26.79,0,0,1-11-1.9,26.06,26.06,0,0,1-6.49-3.79c-.37.15-.8.31-1.29.46s-1.19.38-1.88.57l-.57.14-.86.2-.68.14-.77.14-.8.13h0l-.8.1c-.57.07-1.16.12-1.77.16l-.5,0h-.07l-.52,0c-.63,0-1.28,0-2,0-.39,0-.79,0-1.19-.06l-.61,0-.62-.06a31.43,31.43,0,0,1-15.56-6.32,15.81,15.81,0,0,1-11.68-2.52,14.54,14.54,0,0,1-5.19-7l3.24-30.3a10.57,10.57,0,0,1,3.9-5.69A11.34,11.34,0,0,1,80,53.22h5.19c1.21-1.43,3-3.42,5.19-5.68C94,43.81,95,43.33,95.53,43.12c2-.85,3.47-.52,9.08,0,2,.18,4.87.42,8.43.63a24.06,24.06,0,0,1,5.19-5c2-1.43,8-5.69,15.57-4.42A18.77,18.77,0,0,1,144.18,40a23.7,23.7,0,0,1,13-2.52c1.84.18,10.79,1.06,14.27,7.57a11.82,11.82,0,0,1,1.3,4.42l13.62,42.94A32.25,32.25,0,0,1,185.69,105Z"/><path class="cls-1" d="M83.85,68.37c-.81,5.31-1.48,11-1.94,17-.41,5.31-.61,10.37-.65,15.15"/><path class="cls-1" d="M112.39,69q-.78,8.88-1.29,18.31t-.65,18.31"/><path class="cls-1" d="M145.48,64.58a58.2,58.2,0,0,1,.64,43.57"/><path class="cls-1" d="M130.23,110a35.22,35.22,0,0,1,13.52-1.26,50.67,50.67,0,0,1,8.37,1.9c4.43,1.08,11.13,1.5,20.6-1.9"/><path class="cls-4" d="M70.88,50.06l-4.54,3.16L19.16,33.09c.53-.55,1.07-1.11,1.63-1.65v0l4.67-4.09Z"/><path class="cls-1" d="M20.79,31.44c-.56.54-1.1,1.1-1.63,1.65L19,33Z"/><path class="cls-4" d="M63.1,58.9c-.22,1.27-.44,2.53-.65,3.79L8.86,48.3l3.55-6.9.12-.17Z"/><path class="cls-1" d="M12.53,41.23l-.12.17.09-.18Z"/><path class="cls-4" d="M61.15,69v4.42l-59-6.94c.63-2.67,1.27-5.33,1.9-8v0l0-.1,0-.1Z"/><path class="cls-1" d="M4.08,58.27l-.06.2a1.46,1.46,0,0,0,.05-.2Z"/><path class="cls-4" d="M60.5,78.48v5L.83,85.42V76.58Z"/><path class="cls-4" d="M60.5,93,4.07,103.73,2.12,95.52l57.73-6.94C60.07,90.05,60.29,91.53,60.5,93Z"/><path class="cls-4" d="M68.29,101.2,12.5,120.78,9.31,115.9l0-.05c-.39-.69-.77-1.37-1.13-2.07L63.74,98.05Z"/><path class="cls-1" d="M9.28,115.85l-1.32-2,.19,0C8.51,114.48,8.89,115.16,9.28,115.85Z"/><path class="cls-4" d="M80.61,105.62,26.12,135.3l-6.41-5.67h0l-.64-.67,56.36-25.22Z"/><path class="cls-1" d="M19.7,129.62c-.24-.21-.47-.43-.71-.63l.07,0Z"/><path class="cls-4" d="M89,110,41.69,145.4l-6.49-3.79,49.3-32.83Z"/><path class="cls-4" d="M98.77,111.31,61.15,153l-7.25-2.17-1.12-.42,41.45-39.08Z"/><path class="cls-4" d="M107.85,110.68,80,157.4l-7.3-1.1h0l-1-.24L104,111.31Z"/><path class="cls-4" d="M115.64,111.31q-8.72,24.48-17.42,49-4.71-.43-9.15-1.05l23.32-47.29Z"/><path class="cls-4" d="M121.47,113.2q-3.57,24-7.13,48H111.2l-3.31-.17q5.17-23.91,10.34-47.82Z"/><path class="cls-4" d="M131.2,161.19h-7.78q.66-17.69,1.3-35.36l4.54,3.16Z"/><path class="cls-4" d="M146.77,160.55l-6.28.62h-.2q-2.61-15.13-5.19-30.29l5.19-.63Z"/><path class="cls-4" d="M164.79,159c-2.35.33-4.74.63-7.2.88l-.12,0-.32,0-11-29.67h4.54Z"/><path class="cls-4" d="M181.66,155.94q-3.14.72-6.42,1.34l-18.09-27,5.19-1.26Z"/><path class="cls-4" d="M201.26,149.82,193,152.91l-.06,0-.14,0-22-24,5.19-1.9Z"/><path class="cls-4" d="M218.71,141.57c-.29.19-.6.38-.9.55l0,0q-3.06,1.63-6.13,3.26l-31.79-22.73c1.09-1.26,2.16-2.52,3.25-3.79Z"/><path class="cls-1" d="M218.77,141.61l-1,.51c.3-.17.61-.36.9-.55Z"/><path class="cls-4" d="M234.34,129l-6.49,5.68L187,113.2l1.94-3.79Z"/><path class="cls-4" d="M245.15,113.77a60.62,60.62,0,0,1-4,6.88L191.53,103.1V98.68Z"/><path class="cls-1" d="M245.37,113.83c-1.3,2.32-2.6,4.63-3.89,7l-.37-.13a60.62,60.62,0,0,0,4-6.88Z"/><path class="cls-4" d="M251.21,94.89c-.48,2.31-1,4.61-1.43,6.91q-.34,1.26-.75,2.52L192.18,93c-.22-1.47-.44-3-.65-4.42Z"/><path class="cls-1" d="M249.78,101.8c-.17.86-.35,1.71-.52,2.56l-.23,0Q249.44,103.06,249.78,101.8Z"/><path class="cls-4" d="M252.5,81c0,1.48,0,3-.11,4.41q-31.08-1.25-62.16-2.52c-.43-1.26-.86-2.52-1.3-3.78l63.46-2.52C252.47,78.06,252.5,79.54,252.5,81Z"/><path class="cls-1" d="M252.5,76.58V81c0-1.46,0-2.94-.11-4.41Z"/><path class="cls-1" d="M252.39,85.41c.07-1.45.11-2.93.11-4.41v4.42Z"/><path class="cls-4" d="M251.21,66.48l-63.57,6.94c-.22-1.26-.44-2.52-.65-3.78l62.27-11.37Z"/><path class="cls-4" d="M245.37,48.8,185,65.22l-1.29-4.42,57.68-19.56.25.38Z"/><path class="cls-1" d="M241.68,41.62l-.25-.38,0,0C241.54,41.36,241.61,41.49,241.68,41.62Z"/><path class="cls-4" d="M235,33,181.8,57l-2-5,48-25.26Z"/><path class="cls-4" d="M219.42,20.39,178.56,47.54l-1.95-5,35-26.52Z"/><path class="cls-4" d="M201.26,11.55,173.37,38.7l-5.19-3.79L193.48,9Z"/><path class="cls-4" d="M183.75,6.5Q173.36,20.08,163,33.65L156.5,33,175.31,4.6Z"/><path class="cls-4" d="M164.89,2.81q-7.11,15.73-14.23,31.47l-5.18-.63L157.15,2.08l5.55.45h0Z"/><path class="cls-1" d="M164.93,2.71l0,.1-2.16-.28Z"/><path class="cls-4" d="M147.35,1.12q-3.53,15-7.06,30l-5.19-.63q2.6-14.83,5.19-29.67h1.39Q144.56.94,147.35,1.12Z"/><path class="cls-1" d="M147.42.82c0,.1,0,.2-.07.3q-2.79-.18-5.67-.3Z"/><path class="cls-4" d="M131.2.82l-1.29,29h-5.19q-.66-14.52-1.3-29Z"/><path class="cls-4" d="M119.53,33,115,35.54q-3.87-17.22-7.73-34.45c1.68-.1,3.37-.2,5.09-.27h2Z"/><path class="cls-1" d="M112.35.82c-1.72.07-3.41.17-5.09.27L107.2.82Z"/><path class="cls-4" d="M111.75,38.07l-5.19,1.26Q98.15,21.06,89.72,2.79l1.62-.21h0l6.09-.49Z"/><path class="cls-1" d="M91.34,2.58l-1.62.21s0,0,0-.08Z"/><path class="cls-4" d="M100.07,38.07l-3.89,1.26L71.12,6.18c1.6-.38,3.23-.74,4.9-1.08l3.29-.5Z"/><path class="cls-1" d="M76,5.1c-1.67.34-3.3.7-4.9,1.08h0l-.23-.31Z"/><path class="cls-4" d="M90.34,40.59,87.1,43.75l-34.22-32c.94-.35,1.89-.71,2.86-1l.11,0L61.15,9Z"/><path class="cls-1" d="M55.74,10.65c-1,.34-1.92.7-2.86,1l-.16-.15Z"/><path class="cls-4" d="M84.5,46.91,80,49.43l-44.76-29,7.43-4.22.09,0L43,16h0Z"/><path class="cls-1" d="M43,16l-.29.14L43,16Z"/></g></g></svg>