<svg xmlns="http://www.w3.org/2000/svg" viewBox="0 0 246.93 185.45"><defs><style>.cls-1{fill:#009245;}.cls-2{fill:none;}.cls-3{fill:#8cc63f;}.cls-4,.cls-8{stroke:#000;stroke-miterlimit:10;}.cls-5{fill:#754c24;}.cls-6{fill:#8c6239;}.cls-7{fill:#603813;}.cls-8{fill:#fff;}</style></defs><g id="Warstwa_2" data-name="Warstwa 2"><g id="Warstwa_1-2" data-name="Warstwa 1"><path d="M96.92,165.41a9.3,9.3,0,0,0,.81,8.7,10.63,10.63,0,0,0,2.66,2.63l.23.19c-.78.11-9.11,1.22-15.47-3.76a12.83,12.83,0,0,1-4.89-13,32,32,0,0,0,6.94,3.34A36.37,36.37,0,0,0,96.92,165.41Z"/><path class="cls-1" d="M29.59,103.3c0,37,41,66.94,91.62,66.94s91.63-30,91.63-66.94c0-13.39-9.61-34.75-29.26-49l-1-.69s-24.77-18.47-61.4-17.25C80.94,37.7,29.59,63.09,29.59,103.3Z"/><path class="cls-2" d="M43,98.66c-1.15,30,32.86,55.25,76,56.32s79-22.42,80.15-52.46-32.86-55.25-76-56.32c-39.27-1-75.61,24.09-79.76,48.31A28.19,28.19,0,0,0,43,98.66Z"/><path class="cls-3" d="M59.9,41.13a26.57,26.57,0,0,0-12-3.9,24.28,24.28,0,0,0-12.5,1.86,31.76,31.76,0,0,0-6,3.72c-3,2.34-4.66,3.39-5.09,5.2a5.76,5.76,0,0,0,1.38,4.83c2.37,2.74,6.43,2.95,7.41,3,3.77.08,4-2.38,8.79-3.72.65-.18,6.85-1.85,12,.38,4,1.73,4.75,4.66,7.41,4.45,1.17-.09,1.28-.68,4.16-2.6,4.09-2.72,5.85-2.85,6-4.08.13-1-.84-1.76-4.17-4.09C65.32,44.76,62.83,43.06,59.9,41.13Z"/><path class="cls-3" d="M16,106.73a23.7,23.7,0,0,0-11.21,5.59c-1,1-4.79,4.28-4.83,9.48a21.46,21.46,0,0,0,.93,6.32c1,3.44,1.32,5.22,3.16,6.63a11.58,11.58,0,0,0,6.35,2.08A9.69,9.69,0,0,0,18,133.75c2.19-2.46-.49-4.17.62-8.17a12.14,12.14,0,0,1,7.14-7.79c4.25-1.61,8-.25,9.27-2.15.55-.84-.07-1.28-.67-4.4-.86-4.42,0-5.67-1.36-6.55-1.05-.69-2.5-.54-7,.23C23.25,105.38,19.89,106,16,106.73Z"/><path class="cls-3" d="M167.26,159.46a9.79,9.79,0,0,1-1.39,6.69c-2.32,3.59-5.83,3.68-8.79,7.8-1.07,1.49-3,4.16-1.85,6.69,1.41,3.13,6.61,4.07,8.79,4.46a25.39,25.39,0,0,0,14.35-1.86,23.72,23.72,0,0,0,9.25-7.43c2.36-2.82,4-4.85,4.17-7.8.16-4.23-3-7.34-4.63-8.92a23.15,23.15,0,0,0-8.79-5.2"/><path class="cls-3" d="M210.76,102.62c7.4-.05,10.78,1.67,12.49,3.34s1.49,3.27,4.63,7.44c2,2.69,3.08,4,5.09,4.82a11.9,11.9,0,0,0,10.18-1.11c3.09-2,3.46-5,3.71-7.06a12.41,12.41,0,0,0-1.86-7.8,15.78,15.78,0,0,0-5.55-5.94c-1.66-1-4.39-2.31-13.42-3a119,119,0,0,0-17.12,0"/><path class="cls-3" d="M180.22,52.09c5.15,3.28,4.42,3.67,6.48,4.46,2.58,1,6,.79,13,.37,2-.12,2-.17,4.72-.37,10.5-.78,10.93.15,14.18-.74,2.24-.61,10-2.74,12.3-7.8.37-.85.56-2.67.94-6.32.24-2.31.44-4.89.47-6.31,0-1.16.26-9.4-3.31-15.61-3.69-6.45-10.78-9.5-18.91-13C203.9,4.12,190.49-1.65,173.63.45a50,50,0,0,0-17.5,5.2c-6.18,3.26-9.46,7-12.76,10.78-2,2.23-13.77,15.82-9,20.43,1.08,1,2.13.77,7.41,1.49A111.83,111.83,0,0,1,164,43.92a87.51,87.51,0,0,1,11.11,5.2C176.29,49.76,178,50.71,180.22,52.09Z"/><ellipse class="cls-4" cx="200.35" cy="27.95" rx="9.95" ry="7.43"/><path class="cls-4" d="M196,39.09c1.08-.57,3.33,2.06,7.87,4.09,6.48,2.89,12,2,12,3s-5.09,2.57-10.18,1.86c-.6-.09-6.93-1.06-9.26-5.2C195.7,41.54,195.11,39.53,196,39.09Z"/><path class="cls-2" d="M102.94,47.64l14.34-1.49,15.27.74"/><line class="cls-2" x1="46.02" y1="86.27" x2="62.67" y2="104.11"/><line class="cls-2" x1="47.87" y1="118.97" x2="62.67" y2="104.11"/><path class="cls-2" d="M45.79,86.28a40.78,40.78,0,0,0-2.55,15.6A41.59,41.59,0,0,0,47.65,119"/><path class="cls-5" d="M90.9,67H59A88.26,88.26,0,0,1,79.8,54.32a102.86,102.86,0,0,1,24.06-7.06Z"/><path class="cls-5" d="M92.29,136.8l-28.23.74a91.4,91.4,0,0,0,17.59,9.66A104.44,104.44,0,0,0,108,154.26Z"/><path class="cls-5" d="M154.62,135.34l-10.5,17.44a87.23,87.23,0,0,0,17-5,75.4,75.4,0,0,0,20.49-12.44Z"/><path class="cls-5" d="M61.75,103.74,45.55,86.27A38.34,38.34,0,0,0,43,99a39.52,39.52,0,0,0,4.91,20Q54.8,111.35,61.75,103.74Z"/><path class="cls-2" d="M182.35,135.73a91.37,91.37,0,0,1-16.94,10,103.65,103.65,0,0,1-21.93,7.1l11.28-17.51Z"/><path class="cls-5" d="M180.68,99.65,194.56,83.3a33,33,0,0,1,5.09,17.09,32.53,32.53,0,0,1-4.16,16Z"/><path class="cls-5" d="M146.44,64.73,133,47.26a92.74,92.74,0,0,1,24.07,5.21,79,79,0,0,1,23.14,13Z"/><path class="cls-2" d="M133.94,83.3c-4.49-.24-9.28-.38-14.35-.37-4.71,0-9.2.15-13.42.37q-6.7,9.28-13.42,18.58,6.72,8.53,13.42,17.09l31.47-1.49L152,101.14Z"/><path class="cls-6" d="M92.75,101.88q-8,.34-16.19.74-7.22.36-14.35.74L47.87,119a35.94,35.94,0,0,0,5.55,9.29,44.26,44.26,0,0,0,10.64,9.28l28.23-.74L106.17,119Q99.47,110.42,92.75,101.88Z"/><path class="cls-7" d="M136.72,117.85q-7.25.11-14.81.37-8.07.3-15.74.75L92.29,136.8q3.24,3.48,6.48,7.06,4.76,5.23,9.26,10.4a111.57,111.57,0,0,0,35.63-1.48l10.64-17.47Z"/><path class="cls-6" d="M132.55,46.89a109.87,109.87,0,0,0-28.69.37Q97.16,57.49,90.44,67.7l15.73,15.6h27.77l12.5-18.57Z"/><path class="cls-6" d="M133.94,83.3c-4.49-.24-9.28-.38-14.35-.37-4.71,0-9.2.15-13.42.37L92.29,102.62,106.17,119l29.62-.75L152,101.14Z"/><path class="cls-7" d="M178.83,65.47q-9.2-.15-18.51-.37-7-.16-13.88-.37l-13,19.32,18.05,17.83,28.69-1.49L194.1,83.3a34.83,34.83,0,0,0-6.48-10.4A42.43,42.43,0,0,0,178.83,65.47Z"/><path class="cls-6" d="M181.14,100.39c-5.29-.19-11-.22-17.12,0-4.22.15-8.23.41-12,.75l-15.27,16.71,17.58,17.46h27.77A63.84,63.84,0,0,0,190.4,126a57.36,57.36,0,0,0,5.55-9.29q-4.08-4.62-8.33-9.29Q184.38,103.88,181.14,100.39Z"/><path class="cls-7" d="M58.51,67a51,51,0,0,0-7.16,8,44.75,44.75,0,0,0-6,11.45l16.81,16.91,30.54-1.48q2.75-4.32,6-8.92c2.46-3.43,5-6.65,7.4-9.66Q98.09,75.13,90,67Z"/><path class="cls-2" d="M132.55,46.89a101.61,101.61,0,0,1,25,6,87.8,87.8,0,0,1,21.75,11.89"/><path class="cls-8" d="M203.82,26.09c-1.58-.52-3.8.75-3.7,1.86.06.75,1.21,1.41,2.31,1.48s2.59-.49,2.78-1.48A1.84,1.84,0,0,0,203.82,26.09Z"/></g></g></svg>