<svg xmlns="http://www.w3.org/2000/svg" viewBox="0 0 235 216.38"><defs><style>.cls-1{fill:#fff;stroke:#000;stroke-miterlimit:10;stroke-width:4px;}</style></defs><g id="Warstwa_2" data-name="Warstwa 2"><g id="Warstwa_2-2" data-name="Warstwa 2"><path class="cls-1" d="M2,44.94q.24,59.69.47,119.35a.75.75,0,0,0,0,.21,15.34,15.34,0,0,0,4.66,8.25,12.57,12.57,0,0,0,9.34,3.13H49.11a.85.85,0,0,1,.38.09l67.27,36.42a14.15,14.15,0,0,0,12.18,1.05,16.31,16.31,0,0,0,8.43-8.35l5.5-12.27a1,1,0,0,0,.09-.53,115.41,115.41,0,0,0-1.85-12.24q-.33-1.62-.69-3.18a1,1,0,0,1,.67-1.17,17.38,17.38,0,0,0,2.83-.87c11.25-4.47,15.61-19.1,16.8-23.73a.92.92,0,0,0,0-.52,31.76,31.76,0,0,0-2.74-7c-4.51-8.38-11.64-12-16.87-14.61-8.68-4.29-18.07-8.7-28.19-13.12-1-.42-.56-2,.46-1.83l101.74,20.17a12.36,12.36,0,0,0,10.31-2.09,15.43,15.43,0,0,0,5.61-9.33s0-.08,0-.13l.93-17.67a13.18,13.18,0,0,0-.93-6.26c-2.58-5.9-9.6-7.59-13.12-8.34-10.3-2.21-38.88-7.88-87.63-15.33a1,1,0,0,1,0-1.88c33.25-6.3,60.1-13,94.07-19.28a.79.79,0,0,0,.27-.1,17.36,17.36,0,0,0,6.44-7.23,20.13,20.13,0,0,0,1.87-10.43l-1.87-16.65a.31.31,0,0,0,0-.09,11.77,11.77,0,0,0-4.68-7.26A9.51,9.51,0,0,0,218,11l-.12,0L124.15,27a.92.92,0,0,1-1-1.2l1-4.32c.9-3.7,1.07-4.37.94-5.22A7.86,7.86,0,0,0,119.57,10L104.62,3.75l-.08,0a12.5,12.5,0,0,0-10.27-1,12.66,12.66,0,0,0-4.63,3.08l-.11.1L57,28.63a.82.82,0,0,1-.45.14H11.11a.77.77,0,0,0-.39.11A16.84,16.84,0,0,0,5.28,34,20,20,0,0,0,2,44.94Z"/><line class="cls-1" x1="77.41" y1="41.29" x2="62.42" y2="92.41"/><path class="cls-1" d="M33.38,101.8l29-9.39,2.81,6.26,6.56,6.26-4.68,9.39a58.39,58.39,0,0,0,0,20.87l-9.37,4.17a33.83,33.83,0,0,0-7.49,9.39C44,160.2,45.82,172.23,46.5,175.88"/><path class="cls-1" d="M71.79,104.93l10.31,4.18a15.14,15.14,0,0,0,5.62,1,15.33,15.33,0,0,0,7.49-2.09l26.23-81.37"/><line class="cls-1" x1="113.01" y1="73.64" x2="128.47" y2="74.16"/><line class="cls-1" x1="95.21" y1="108.06" x2="115.35" y2="115.89"/><line class="cls-1" x1="67.11" y1="135.19" x2="140.18" y2="175.88"/></g></g></svg>