<svg xmlns="http://www.w3.org/2000/svg" viewBox="0 0 669.15 471.94">
  <g id="Table">
    <path d="M337.22,142.31l-13.7,34.55,71.12,25.65L987,205.13V170.62l-18.62-8.42L991.52,158V113.84s-112.56-1.26-128.45,0-169.72,9.63-186.58,12.77S392,149.64,337.22,142.31Z" transform="translate(-322.87 -94.32)" style="fill: #4c2b00;stroke: #000;stroke-miterlimit: 10"/>
    <rect x="57.02" y="90.4" width="542.62" height="252.31" style="stroke: #000;stroke-miterlimit: 10"/>
    <polygon points="587.53 110.81 574.88 393.48 620.1 393.48 655 110.81 587.53 110.81" style="fill: #4c2b00;stroke: #000;stroke-miterlimit: 10"/>
    <polygon points="10.66 88.3 57.02 388.77 87.58 375.16 71.78 108.19 10.66 88.3" style="fill: #4c2b00;stroke: #000;stroke-miterlimit: 10"/>
    <path d="M339.33,427.08v13.4h21.54l-15.22,3.35,8.43,17.79,618.48,18.85v-21.9l-22-4.8h9.1l.26-20.41S343.54,429.17,339.33,427.08Z" transform="translate(-322.87 -94.32)" style="fill: #4c2b00;stroke: #000;stroke-miterlimit: 10"/>
    <g style="opacity: 0.75">
      <path d="M374.52,199.59a135.9,135.9,0,0,1,5.87,24.65,213,213,0,0,1,1.67,25.36c.07,8.47-.33,16.91-.76,25.32l-1.62,25.13-.37,6.26c-.13,2.08-.23,4.17-.29,6.25s-.2,4.16-.25,6.24l-.11,6.24c-.07,2.08,0,4.15,0,6.23s0,4.15.14,6.22c.19,4.15.42,8.3.78,12.44,1.45,16.59,4.41,33.1,7.64,49.63a251.59,251.59,0,0,1-12.29-49.1c-.62-4.19-1.07-8.42-1.38-12.66-.18-2.12-.27-4.25-.35-6.37s-.23-4.25-.23-6.37c-.16-8.5.23-17,.71-25.38s1.27-16.8,2-25.15,1.27-16.69,1.75-25,.44-16.66.08-25A199,199,0,0,0,374.52,199.59Z" transform="translate(-322.87 -94.32)" style="fill: #351000"/>
    </g>
    <g style="opacity: 0.75">
      <path d="M351.19,206.11c5.38,16,9.8,32.4,13.62,48.89.95,4.12,1.88,8.25,2.75,12.39l2.53,12.45c.79,4.15,1.5,8.32,2.26,12.49l2.08,12.52q3.9,25.09,5.89,50.44c1.34,16.87,2.06,33.79,1.77,50.72l-6.42-50.23q-3.3-25.06-7.17-50l-1.93-12.48c-.68-4.15-1.42-8.29-2.06-12.45l-2.1-12.46c-.76-4.14-1.47-8.29-2.17-12.45Z" transform="translate(-322.87 -94.32)" style="fill: #351000"/>
    </g>
    <g style="opacity: 0.75">
      <path d="M923.23,205.67a200.55,200.55,0,0,1,.84,25.22c-.21,8.39-.81,16.77-1.74,25.12s-2.23,16.64-3.89,24.88a197.87,197.87,0,0,1-6.44,24.4c.28-8.45,1-16.78,1.77-25.09s1.66-16.59,2.6-24.86,1.92-16.54,3-24.82S921.63,214,923.23,205.67Z" transform="translate(-322.87 -94.32)" style="fill: #351000"/>
    </g>
    <g style="opacity: 0.75">
      <path d="M965.07,210.52c-.36,8.41-1.31,16.7-2.19,24.95s-1.8,16.44-2.44,24.63-1,16.35-.92,24.58.43,16.48.85,24.89A107.21,107.21,0,0,1,954.81,285a134.82,134.82,0,0,1-.35-25.33,184.08,184.08,0,0,1,3.78-24.92A206.53,206.53,0,0,1,965.07,210.52Z" transform="translate(-322.87 -94.32)" style="fill: #351000"/>
    </g>
    <g style="opacity: 0.75">
      <path d="M913.07,420.09c.34-16.53,1.27-33,2.41-49.47.52-8.23,1.24-16.44,1.87-24.67l2.2-24.63q2.36-24.63,5.39-49.18c2-16.37,4.25-32.73,7.07-49-.34,16.53-1.27,33-2.41,49.47s-2.48,32.89-4.08,49.3L923,346.5c-1,8.19-1.8,16.39-2.86,24.57C918.11,387.44,915.88,403.79,913.07,420.09Z" transform="translate(-322.87 -94.32)" style="fill: #351000"/>
    </g>
    <g style="opacity: 0.75">
      <path d="M364.79,200.24c4.11,3.65,6.86,8.78,8.56,14a68,68,0,0,1,2.77,16.17c.33,5.39.35,10.68.19,16a112.63,112.63,0,0,1-1.56,16.07,109.86,109.86,0,0,1-3.15-15.84c-.72-5.28-1.15-10.64-1.46-15.88s-.65-10.39-1.37-15.48A64.91,64.91,0,0,0,364.79,200.24Z" transform="translate(-322.87 -94.32)" style="fill: #351000"/>
    </g>
    <g style="opacity: 0.75">
      <path d="M667.17,451.52a222.88,222.88,0,0,1,23.09-1.85c7.73-.16,15.47-.16,23.19.21s15.41.86,23.09,1.41l23,1.94c15.29,1.34,30.53,2.58,45.81,3s30.62.18,46-.49a261.33,261.33,0,0,1-46,5.17A397.6,397.6,0,0,1,759,459.2q-11.52-1.08-23-2.27c-7.64-.87-15.27-1.59-22.9-2.39L707.4,454q-2.86-.23-5.73-.49c-3.81-.37-7.64-.62-11.46-.89C682.55,452,674.89,451.8,667.17,451.52Z" transform="translate(-322.87 -94.32)" style="fill: #351000"/>
    </g>
    <g style="opacity: 0.75">
      <path d="M412.07,444.28c23.39-4.18,47.28-5.5,71.06-5.49,11.9-.05,23.78.38,35.65.84s23.71,1.26,35.55,1.93,23.7,1.61,35.55,2.77,23.68,2.63,35.42,4.76c23.46,4.13,46.75,10.61,68,21.33-22.23-8.41-45.37-13.47-68.72-16.7-11.69-1.56-23.42-2.84-35.2-3.73s-23.58-1.75-35.41-2.44l-35.48-2.26c-11.81-.78-23.62-1.34-35.44-1.84A649,649,0,0,0,412.07,444.28Z" transform="translate(-322.87 -94.32)" style="fill: #351000"/>
    </g>
    <g style="opacity: 0.75">
      <path d="M667.22,451.59a115.74,115.74,0,0,1,24.4-9.3A143.14,143.14,0,0,1,717.49,438a141.67,141.67,0,0,1,26.21.5,115,115,0,0,1,25.49,5.68c-8.7-.46-17.25-.91-25.78-1s-17,.17-25.49.78-16.91,1.58-25.33,2.89S675.76,449.86,667.22,451.59Z" transform="translate(-322.87 -94.32)" style="fill: #351000"/>
    </g>
    <g style="opacity: 0.75">
      <path d="M779.08,134.3a206.6,206.6,0,0,1,29-7.45,273.12,273.12,0,0,1,59.6-4.37,206.49,206.49,0,0,1,29.75,3.16c-10,.65-19.86,1-29.72,1.56S848,128.3,838.17,129s-19.64,1.55-29.47,2.49S789,133.49,779.08,134.3Z" transform="translate(-322.87 -94.32)" style="fill: #351000"/>
    </g>
    <g style="opacity: 0.75">
      <path d="M429.91,173.67a18.06,18.06,0,0,0,7,.31c2.33-.28,4.63-.78,7-1.28A72.86,72.86,0,0,1,458.25,171c4.8-.12,9.57,0,14.26-.08s9.33-.45,14-1c9.33-1.13,18.89-2.54,28.59-2.79s19,.11,28.18-1.15c4.62-.56,9.3-1.36,14.1-2s9.63-1,14.44-1.17,9.6-.23,14.37-.23,9.55.08,14.32.24a514.7,514.7,0,0,1,57,4.55c-19.06-.13-38-.23-57,.13-9.48.25-19,.33-28.36,1-4.69.31-9.35.72-14,1.37s-9.33,1.44-14.14,2c-9.74,1.21-19.44.81-28.81.87-4.7,0-9.33.23-14,.61s-9.44.85-14.24,1.15a126.85,126.85,0,0,1-14.47.27c-4.82-.22-9.55-.67-14.26-.9-2.35-.13-4.69-.2-7-.14s-4.65.26-7,.52-4.75.53-7.17.55A17.68,17.68,0,0,1,429.91,173.67Z" transform="translate(-322.87 -94.32)" style="fill: #351000"/>
    </g>
    <text x="-322.87" y="-94.32"/>    <text transform="translate(221.24 80.06) scale(1.01 1)" style="font-size: 76.42542266845703px;fill: #fff3a4;stroke: #000;stroke-miterlimit: 10;font-family: Algerian;letter-spacing: -0.0010030409457501728em">Stats</text>
    <path d="M421,500.84v15.88s26.82-1.93,23.49,0S431.1,522,431.1,522l6,43.76H902V539.33l-18.14-6,8.73-4.19,1.35-23Z" transform="translate(-322.87 -94.32)" style="fill: #4c2b00;stroke: #000;stroke-miterlimit: 10"/>
    <g style="opacity: 0.75">
      <path d="M490.48,540.54a129.63,129.63,0,0,1,17-7.52,60.69,60.69,0,0,1,18.64-3.48,127.34,127.34,0,0,1,18.74,1.24q9.18,1.11,18.32,2.37c6.12.89,12.14,1.63,18.37,2.8a68.81,68.81,0,0,1,9.25,2.44c3,1,5.83,2.11,8.66,3a66,66,0,0,0,35.71.78,56.19,56.19,0,0,1-37,3.77c-3.11-.73-6.08-1.68-9-2.49a73.53,73.53,0,0,0-8.69-1.9c-3-.47-6-.85-9-1.24l-9.15-1.22q-9.14-1.27-18.27-2.68a165.82,165.82,0,0,0-18-2.17,67.67,67.67,0,0,0-17.82,1.6C502.34,537.06,496.46,538.92,490.48,540.54Z" transform="translate(-322.87 -94.32)" style="fill: #351000"/>
    </g>
    <g style="opacity: 0.75">
      <path d="M757.44,516.77a131.59,131.59,0,0,1,15.3-1.45c5.07-.23,10.12-.3,15.16-.26s10,.18,15,.12a144.83,144.83,0,0,0,15.08-.92,38.82,38.82,0,0,1-14.6,5.61,79.37,79.37,0,0,1-15.48,1.19,130.47,130.47,0,0,1-15.3-1A84.69,84.69,0,0,1,757.44,516.77Z" transform="translate(-322.87 -94.32)" style="fill: #351000"/>
    </g>
    <g style="opacity: 0.75">
      <path d="M706.52,538.67c4.49-1.21,9.26-1.18,13.87-1s9.16.6,13.73,1,9.11.87,13.66,1.39,9,1,13.8,2a42.36,42.36,0,0,1,7,2.15l3.18,1.33c1,.43,2,.78,3.07,1.18a85.36,85.36,0,0,0,12.76,3.44,108.83,108.83,0,0,0,13.32,1.57,120,120,0,0,0,13.66-.14A61.76,61.76,0,0,1,801,554.62a73.35,73.35,0,0,1-14.06.16A68.44,68.44,0,0,1,773,552.07c-2.29-.71-4.52-1.62-6.57-2.38a37.77,37.77,0,0,0-6.11-1.82c-2.11-.46-4.31-.79-6.56-1.13l-6.77-1c-4.52-.74-9-1.52-13.53-2.37s-9-1.77-13.45-2.74A70.84,70.84,0,0,0,706.52,538.67Z" transform="translate(-322.87 -94.32)" style="fill: #351000"/>
    </g>
  </g>
  <g id="ButtonsGameOver">
    <text id="__btn_playAgain" transform="translate(390.14 456.66) scale(0.59 1)" style="font-size: 45px;fill: #fff3a4;stroke: #000;stroke-miterlimit: 10;stroke-width: 0.25px;font-family: Algerian;letter-spacing: -0.0010118350180276345em">Play again</text>
    <text id="__btn_changeSettings" transform="translate(134.14 456.66) scale(0.59 1)" style="font-size: 45px;fill: #fff3a4;stroke: #000;stroke-miterlimit: 10;stroke-width: 0.25px;font-family: Algerian;letter-spacing: -0.000993438017699859em">Change settings</text>
    <text transform="translate(173.57 160.78) scale(0.72 1)" style="font-size: 56px;fill: #fff3a4;stroke: #000;stroke-miterlimit: 10;stroke-width: 0.5px;font-family: LinuxLibertineG, Linux Libertine G;letter-spacing: -0.0019968616013760093em">Pai<tspan x="70.13" y="0" style="letter-spacing: -0.00004811714702110866em">r</tspan><tspan x="90.93" y="0" style="letter-spacing: -0.002008890888131287em">s</tspan></text>
    <text transform="translate(171.57 227.78) scale(0.72 1)" style="font-size: 56px;fill: #fff3a4;stroke: #000;stroke-miterlimit: 10;stroke-width: 0.5px;font-family: LinuxLibertineG, Linux Libertine G;letter-spacing: -0.0019968616013760093em">Time</text>
    <text transform="translate(172.57 294.78) scale(0.72 1)" style="font-size: 56px;fill: #fff3a4;stroke: #000;stroke-miterlimit: 10;stroke-width: 0.5px;font-family: LinuxLibertineG, Linux Libertine G;letter-spacing: -0.0019968616013760093em">Sco<tspan x="78.99" y="0" style="letter-spacing: -0.009815897992306167em">r</tspan><tspan x="99.25" y="0" style="letter-spacing: -0.002008890888131287em">e</tspan></text>
    <g id="__btn_score">
      <polygon id="_3x4_Button" data-name="3x4 Button" points="312.13 124.81 312.13 135.77 337.23 135.24 312.13 139.11 337.23 167.46 517.13 167.67 517.13 151.2 481.57 146.24 517.13 146.24 517.13 124.81 312.13 124.81" style="fill: #f6c13f;stroke: #000;stroke-miterlimit: 10"/>
      <text transform="translate(376.13 154.27) scale(1.73 1)" style="font-size: 30.64957618713379px;stroke: #000;stroke-miterlimit: 10;font-family: Microsoft-Yi-Baiti, Microsoft Yi Baiti;font-style: italic;letter-spacing: -0.0009962746065216676em">0/0</text>
    </g>
    <g id="__btn_time">
      <polygon id="_3x4_Button-2" data-name="3x4 Button" points="312.13 189.81 312.13 200.77 337.23 200.24 312.13 204.11 337.23 232.46 517.13 232.67 517.13 216.2 481.57 211.24 517.13 211.24 517.13 189.81 312.13 189.81" style="fill: #f6c13f;stroke: #000;stroke-miterlimit: 10"/>
      <text transform="translate(390.13 219.27) scale(1.73 1)" style="font-size: 30.64957618713379px;stroke: #000;stroke-miterlimit: 10;font-family: Microsoft-Yi-Baiti, Microsoft Yi Baiti;font-style: italic;letter-spacing: -0.0009962746065216676em">0s</text>
    </g>
    <g id="__btn_points">
      <polygon id="_3x4_Button-3" data-name="3x4 Button" points="311.13 254.81 311.13 265.77 336.23 265.24 311.13 269.11 336.23 297.46 516.13 297.67 516.13 281.2 480.57 276.24 516.13 276.24 516.13 254.81 311.13 254.81" style="fill: #f6c13f;stroke: #000;stroke-miterlimit: 10"/>
      <text transform="translate(354.13 284.27) scale(1.73 1)" style="font-size: 30.64957618713379px;stroke: #000;stroke-miterlimit: 10;font-family: Microsoft-Yi-Baiti, Microsoft Yi Baiti;font-style: italic;letter-spacing: -0.0009962746065216676em">15pts.</text>
    </g>
  </g>
</svg>
