<svg xmlns="http://www.w3.org/2000/svg"  viewBox="0 0 114 154" preserveAspectRatio="none"><defs><style>.cls-1{fill:#e1ae2a;}.cls-2,.cls-6,.cls-7{fill:none;}.cls-3{fill:#fff9f0;}.cls-4,.cls-8{fill:#f6c13f;}.cls-5{fill:#e6e6e6;}.cls-6,.cls-7,.cls-8,.cls-9{stroke:#000;stroke-miterlimit:10;}.cls-6{stroke-width:3px;}.cls-7{stroke-width:5px;}.cls-8{font-size:33.59px;font-family:Rockwell;}.cls-9{fill:#fff;}</style></defs><g id="Warstwa_2" data-name="Warstwa 2"><g id="Drawing_key" data-name="Drawing key"><path class="cls-1" d="M102.28,3,72.64,10.71,65.89,3Z"/><path class="cls-2" d="M20.07,28.63h0Q11.28,15.78,2.5,3L20.11,28.46,37.42,54Z"/><path class="cls-2" d="M20.11,28.46a.75.75,0,0,1,0,.16Q11.28,15.78,2.5,3Z"/><path class="cls-2" d="M37.42,54,20.07,28.63h0a.75.75,0,0,0,0-.16Z"/><path class="cls-2" d="M36.55,35.12h0Q35.8,19,35.08,3Z"/><path class="cls-2" d="M110.2,86.15v53.26a.08.08,0,0,0,0,0V86.2S110.2,86.17,110.2,86.15Z"/><path class="cls-2" d="M80.56,65.63,68.24,53.43c-.26-.29-.53-.57-.8-.86l.85.85Z"/><path class="cls-2" d="M110.5,21.25l-.3,48.26a.19.19,0,0,0,0-.07V21.84Z"/><path class="cls-2" d="M28.91,143.29l-.06,0,0-4.66Z"/><path class="cls-2" d="M36.55,35.12h0Q35.8,19,35.08,3Z"/><path class="cls-2" d="M68.29,53.42h-.05c-.26-.29-.53-.57-.8-.86Z"/><path class="cls-2" d="M80.57,65.63,68.24,53.43h.05Z"/><path class="cls-2" d="M110.18,71.71l-11.12-8.3L82.33,50.65Z"/><path class="cls-2" d="M110.2,71.73h0v0Z"/><path class="cls-2" d="M110.18,86.16,88.79,93.51,42.41,109.45,88.78,93.36Z"/><path class="cls-2" d="M110.2,71.73V86.15h0V71.73Z"/><path class="cls-2" d="M88.79,93.51,42.41,109.45,88.78,93.36Z"/><path class="cls-2" d="M110.18,86.16,88.79,93.51v-.15Z"/><path class="cls-2" d="M110.18,86.2v0h0S110.19,86.18,110.18,86.2Z"/><path class="cls-2" d="M110.2,139.41V150.5h0V139.36A.08.08,0,0,1,110.2,139.41Z"/><path class="cls-2" d="M28.91,143.29v7.21l-.06-7.26,0-4.66Z"/><path class="cls-2" d="M28.91,143.29v7.21l-.06-7.26Z"/><path class="cls-2" d="M110.5,3v18.3l-.32.59V3Z"/><path class="cls-2" d="M110.18,71.71l-11.12-8.3L82.33,50.65Z"/><path class="cls-2" d="M110.2,69.51v2.22l0,0V69.44A.19.19,0,0,1,110.2,69.51Z"/><path class="cls-3" d="M82.33,50.65l-14,2.77-.85-.85-5.95-6.36L80.86,20.14Z"/><path class="cls-2" d="M35.08,3Q35.8,19,36.54,35.12h0Q35.81,19,35.08,3Zm2.34,51L20.11,28.46,2.5,3q8.79,12.83,17.57,25.67h0ZM67.94,27.91l-15.26,10L80.86,20.14Zm-6.45,18.3-8.81-8.32L67.44,52.57ZM9.84,75.61Q6.16,72,2.5,68.4l39.91,41.05Q26.12,92.53,9.84,75.61Zm87.45,37.73L89.08,97.8l21,41.42Q103.71,126.28,97.29,113.34Zm-8.51-20L42.41,109.45,88.79,93.51l21.39-7.35ZM42.41,109.45,2.5,118.88l25.83-5.54q.24,12.61.49,25.24-.09-12.9-.2-25.8ZM28.82,138.58c0,1.55,0,3.11,0,4.65l.06,7.27v-7.21ZM67.94,27.91l-15.26,10L80.86,20.14Zm-6.45,18.3-8.81-8.32L67.44,52.57Zm6.45-18.3-15.26,10L80.86,20.14Zm-6.45,18.3-8.81-8.32L67.44,52.57Zm6.45-18.3-15.26,10L80.86,20.14Zm-6.45,18.3-8.81-8.32L67.44,52.57Zm6.45-18.3-15.26,10L80.86,20.14Zm-6.45,18.3-8.81-8.32L67.44,52.57Zm6.45-18.3-15.26,10L80.86,20.14Zm-6.45,18.3-8.81-8.32L67.44,52.57Zm6.8,7.21-.85-.85c.27.29.54.57.8.86l12.32,12.2Zm-.35-25.51-15.26,10L80.86,20.14Zm-6.45,18.3-8.81-8.32L67.44,52.57Zm5.95,6.36c.27.29.54.57.8.86h.05Zm.5-24.66-15.26,10L80.86,20.14Zm-6.45,18.3-8.81-8.32L67.44,52.57Zm0,0-8.81-8.32L67.44,52.57Zm5.95,6.36c.27.29.54.57.8.86h.05Zm.5-24.66-15.26,10L80.86,20.14Zm0,0-15.26,10L80.86,20.14Zm0,0-15.26,10L80.86,20.14Zm4.7-17.2L65.89,3H65.6L80.86,20.14Zm-4.7,17.2-15.26,10L80.86,20.14Zm0,0-15.26,10L80.86,20.14ZM82.33,50.65,99.06,63.41l11.12,8.3ZM67.94,27.91l-15.26,10L80.86,20.14Zm-.5,24.66c.27.29.54.57.8.86h.05Zm-5.95-6.36-8.81-8.32L67.44,52.57Zm6.45-18.3-15.26,10L80.86,20.14Zm-6.45,18.3-8.81-8.32L67.44,52.57Zm5.95,6.36c.27.29.54.57.8.86h.05Zm.5-24.66-15.26,10L80.86,20.14Zm-6.45,18.3-8.81-8.32L67.44,52.57Zm6.45-18.3-15.26,10L80.86,20.14Zm-6.45,18.3-8.81-8.32L67.44,52.57Zm6.45-18.3-15.26,10L80.86,20.14Zm-6.45,18.3-8.81-8.32L67.44,52.57Zm6.45-18.3-15.26,10L80.86,20.14Zm-6.45,18.3-8.81-8.32L67.44,52.57Zm6.45-18.3-15.26,10L80.86,20.14Zm-6.45,18.3-8.81-8.32L67.44,52.57Zm6.45-18.3-15.26,10L80.86,20.14Zm-6.45,18.3-8.81-8.32L67.44,52.57Zm6.45-18.3-15.26,10L80.86,20.14Zm-6.45,18.3-8.81-8.32L67.44,52.57Z"/><path class="cls-4" d="M110.18,86.2v53.16l-.07-.14q-6.4-12.93-12.82-25.89Q103.74,99.77,110.18,86.2Z"/><path class="cls-4" d="M97.88,150.5H61.78l-2.64-12.2L89.08,97.8Q93.48,124.16,97.88,150.5Z"/><path class="cls-4" d="M28.85,143.24,2.5,118.88l25.83-5.55q.24,12.63.49,25.25Z"/><path class="cls-3" d="M42.41,109.45,32.14,150.5H28.91v-7.21l-.09-4.71q-.09-12.9-.2-25.8Z"/><path class="cls-3" d="M110.18,86.16v0q-6.45,13.58-12.89,27.13L89.08,97.8c-.1-1.43-.19-2.86-.29-4.29Z"/><path class="cls-4" d="M61.78,150.5H32.14l10.27-41q8.37,14.43,16.73,28.85Z"/><path class="cls-3" d="M110.18,139.36V150.5H97.88q-4.39-26.34-8.8-52.7l21,41.42Z"/><path class="cls-3" d="M89.08,97.8,59.14,138.3q-8.36-14.43-16.73-28.85L88.79,93.51C88.89,94.94,89,96.37,89.08,97.8Z"/><path class="cls-3" d="M18.35,150.5H2.5V118.88Z"/><path class="cls-4" d="M28.91,150.5H18.35L2.5,118.88l26.35,24.36Z"/><path class="cls-3" d="M108.74,3,80.86,20.14l-8.22-9.43L102.28,3Z"/><path class="cls-4" d="M80.86,20.14,35.08,3H65.6Z"/><path class="cls-3" d="M9.84,75.61Q6.16,72,2.5,68.4V32.35Q6.16,54,9.84,75.61Z"/><path class="cls-3" d="M110.18,69.44v2.27L82.33,50.65l17.9-10.54Q105.21,54.78,110.18,69.44Z"/><path class="cls-4" d="M110.18,21.84v47.6q-5-14.65-10-29.33Z"/><path class="cls-4" d="M110.18,3V21.84l-10,18.27q-9.69-10-19.37-20L108.74,3Z"/><path class="cls-4" d="M80.86,20.14,61.49,46.21l-8.81-8.32Z"/><path class="cls-4" d="M100.23,40.11,82.33,50.65,80.86,20.14Q90.55,30.13,100.23,40.11Z"/><path class="cls-3" d="M110.18,71.71v0l-29.62-6.1L68.29,53.42l14-2.77L99.06,63.41Z"/><path class="cls-3" d="M42.41,109.45,2.5,118.88V68.4Q22.47,88.92,42.41,109.45Z"/><path class="cls-4" d="M110.18,71.73V86.16l-21.4,7.2L42.41,109.45,80.57,65.63Z"/><path class="cls-3" d="M80.86,20.14,67.94,27.91,35.08,3Z"/><path class="cls-5" d="M80.57,65.63,64.42,62.3,52.69,37.89,67.44,52.57l.8.86Z"/><path class="cls-3" d="M64.42,62.3q-11,23.58-22,47.15,5.15-35.78,10.28-71.56Z"/><path class="cls-3" d="M37.42,54,9.84,75.61l10.23-47Z"/><path class="cls-4" d="M20.07,28.62h0l-10.23,47Q6.16,54,2.5,32.35V3Q11.29,15.78,20.07,28.62Z"/><path class="cls-3" d="M37.42,54,20.11,28.46,2.5,3H22.75Z"/><path class="cls-4" d="M37.42,54,22.75,3H35.08Q35.8,19,36.54,35.12h0Q37,44.55,37.42,54Z"/><path class="cls-3" d="M67.94,27.91l-15.25,10L36.55,35.12,35.08,3Z"/><path class="cls-4" d="M52.69,37.89,37.42,54q-.44-9.43-.87-18.86Z"/><path class="cls-3" d="M52.69,37.89q-5.14,35.79-10.28,71.56-2.49-27.74-5-55.47Z"/><path class="cls-4" d="M42.41,109.45,9.84,75.61,37.42,54Q39.93,81.72,42.41,109.45Z"/><path class="cls-3" d="M80.57,65.63,42.41,109.45q11-23.58,22-47.15Z"/><path class="cls-6" d="M83.72,38.72c-.29-5.44-5.27-9.58-11.17-9.25s-10.49,5-10.24,10.5,5.26,9.62,11.17,9.29l.52,0"/><ellipse class="cls-6" cx="90.9" cy="35.11" rx="7.35" ry="7.04" transform="translate(-4.46 15.08) rotate(-9.26)"/><path class="cls-6" d="M87.76,42.74l.51,0A10,10,0,0,1,99.05,52a10.24,10.24,0,0,1-9.84,10.47,10,10,0,0,1-10.76-9.09"/><ellipse class="cls-6" cx="80.88" cy="45.98" rx="7.81" ry="7.54" transform="translate(28.68 122.99) rotate(-85.49)"/><path class="cls-6" d="M20.6,107.56,23.46,110a1.5,1.5,0,0,0,2.05-.11L70.07,62.48l-5-4.32L20.51,105.59A1.36,1.36,0,0,0,20.6,107.56Z"/><path class="cls-6" d="M41.44,81.77a2.22,2.22,0,0,1,.3-1.92A1.92,1.92,0,0,1,43.29,79a1.5,1.5,0,0,1,.81.33Z"/><path class="cls-6" d="M50.33,85.09a1.73,1.73,0,0,1,.08,1.52c-.51,1.06-2.15,1.21-2.35.89S48.29,86.72,50.33,85.09Z"/><path class="cls-6" d="M72,62.08a1.91,1.91,0,0,1,.15,1.64,2.16,2.16,0,0,1-2.46,1.06Z"/><path class="cls-6" d="M62.52,59.41a1.86,1.86,0,0,1-.23-1.63,2.18,2.18,0,0,1,2.41-1.17Z"/><path class="cls-6" d="M28.29,107l4.19,3.94L34,109.28l2.09,2.17-1.51,1.61,4.33,3.38,7-7.66-2.73-2.12s-3.54,1-4.81-.87-.62-4.55.54-5.37,3.8-1.36,5.3-.3,2.11,3.46,1.5,4.38l2.62,1.87,6.79-7.63L51,95.54l-1.52,1.61L47,95l1.51-1.61-4.21-3.51Z"/><path class="cls-6" d="M66.86,50.35c-.47.58-2,2.64-1.55,5a4.82,4.82,0,0,0,.61,1.47,8.4,8.4,0,0,0,4.58,4,8.3,8.3,0,0,0,6.77-.92"/><path class="cls-6" d="M66,48.77a5.15,5.15,0,0,0,3,1.6,16.18,16.18,0,0,0,3.48.15"/><path class="cls-6" d="M70.08,48.87A12.07,12.07,0,0,0,77.4,56.3"/><path class="cls-6" d="M77.37,53.31c-.64,2-.13,4.85,1.42,7.82"/><rect class="cls-7" x="2.5" y="2.5" width="107.45" height="147.55"/><text class="cls-8" transform="matrix(0.83, -0.01, 0.02, 1, 10.27, 36.54)">A</text><path class="cls-9" d="M15.1,39.76c-1.59,0-2.75,1.67-3.12,3.41A11.76,11.76,0,0,0,13.52,51a32.37,32.37,0,0,0,4.95,6.24,54.64,54.64,0,0,0,5.63-7.89,9.84,9.84,0,0,0,1.5-5.28c-.11-1.93-1.38-4-3.05-4.21a2.93,2.93,0,0,0-2.16.67c-.47.34-1.11,1.46-1.68,1.34S17.46,40.72,17,40.41A3.42,3.42,0,0,0,15.1,39.76Z"/><text class="cls-8" transform="matrix(-0.83, 0, -0.01, -1, 103.16, 120.33)">A</text><path class="cls-9" d="M99.39,117.06c1.59,0,2.76-1.64,3.15-3.38a11.8,11.8,0,0,0-1.46-7.87,32.28,32.28,0,0,0-4.88-6.29,55.11,55.11,0,0,0-5.71,7.83,9.86,9.86,0,0,0-1.56,5.27c.09,1.93,1.33,4,3,4.24a2.93,2.93,0,0,0,2.16-.65c.47-.34,1.13-1.45,1.7-1.32s1.23,1.18,1.69,1.5A3.35,3.35,0,0,0,99.39,117.06Z"/></g></g></svg>
