<svg xmlns="http://www.w3.org/2000/svg" viewBox="0 0 149.28 245"><defs><style>.cls-1,.cls-3{fill:#f6c13f;}.cls-1,.cls-2,.cls-3,.cls-4{stroke:#000;}.cls-1,.cls-2{stroke-miterlimit:10;}.cls-1,.cls-3,.cls-4{stroke-width:2px;}.cls-2{fill:none;stroke-width:5px;}.cls-3,.cls-4{stroke-linecap:round;stroke-linejoin:round;}.cls-4{fill:#ffd2a6;}</style></defs><g id="Warstwa_2" data-name="Warstwa 2"><g id="Drawing_Klepsi" data-name="Drawing Klepsi"><path class="cls-1" d="M144.19,19.78A363.72,363.72,0,0,0,4.26,21.48q-1.48-4.26-3-8.52A255.43,255.43,0,0,1,147.17,10.4Q145.67,15.1,144.19,19.78Z"/><path class="cls-1" d="M127.12,28.12a272.57,272.57,0,0,0-104.68,1.7l-6.27-10.9a398.33,398.33,0,0,1,116.11-1.7Z"/><path class="cls-1" d="M123,35.07a347,347,0,0,0-95.5,1.22c-.63-2.44-1.25-4.87-1.87-7.31a296.35,296.35,0,0,1,98.31,0C123.63,31,123.31,33,123,35.07Z"/><path class="cls-2" d="M121.36,217.5a203.32,203.32,0,0,1-42.67,6A204.81,204.81,0,0,1,34,220.05c-3.93-3.79-9.6-10.4-11.91-19.6-5.06-20.16,9.67-38.24,11.91-40.91,3.53-4.2,15.75-17.47,20.84-23,2.07-2.24,5.86-6.35,6-11.93.08-4.8-2.63-8.4-4-10.22,0,0-8.58-12-18.86-29.83-3.47-6-7.4-12.87-9.72-22.55a68.66,68.66,0,0,1-1.19-25.18,439.53,439.53,0,0,1,94.27-1.7c2,27.88-5.72,46.11-13.89,58C96.51,109,83.75,114.93,84.64,128c.58,8.38,6,8.93,23.82,32.39,17,22.4,18.9,30.93,18.86,37.5A38.42,38.42,0,0,1,121.36,217.5Z"/><path class="cls-1" d="M127.68,232.18A369.09,369.09,0,0,1,72,236.13a370.27,370.27,0,0,1-52-3.95l1.24-15.52a240.51,240.51,0,0,0,48.63,6,241,241,0,0,0,54.58-5.12Q126.08,224.85,127.68,232.18Z"/><path class="cls-1" d="M148.28,237.34a450,450,0,0,1-67.48,6.54A459.06,459.06,0,0,1,2.4,239l1-9.27a381.13,381.13,0,0,0,78.4,6.54,375.87,375.87,0,0,0,66.49-7.08Z"/><path class="cls-3" d="M16.17,219.81a2.43,2.43,0,0,1,.41.14c2.27.92,4.17,4.53,2.36,7s-6.64,3.26-9.5,1.36A5,5,0,0,1,7,223.82,4.63,4.63,0,0,1,10.51,220c-3.77-.92-6-4.12-5.32-7.12.61-2.58,3.3-4.59,6.59-4.82q-.09-8.35-.17-16.71l-.56.22a13.4,13.4,0,0,1,0-16.42l-.42.36a41.7,41.7,0,0,0,.61-14c-1-7.74-3.67-10.91-4-17.87a31.73,31.73,0,0,1,2.83-14.24l-.56.15a7.77,7.77,0,0,1,.76-12.23,10.7,10.7,0,0,1-4-5.18C4.8,107.69,8,104.44,10.21,96a50.84,50.84,0,0,0,1.23-6.2l-.2-.68.21-16.24.25.57a13.93,13.93,0,0,1-2.48-7.24,13.63,13.63,0,0,1,1.5-6.74l-.19.54q.11-6,.23-11.95l-.13,0a12.12,12.12,0,0,1-3.39-9A12.29,12.29,0,0,1,11,31.22l-.37-.11A6,6,0,0,1,8.54,24.9a7.18,7.18,0,0,1,5.18-4.71l2.3.26a6.9,6.9,0,0,1,4.6,5.13,6.22,6.22,0,0,1-2.85,6l.76-.27c.55.41,5,3.9,4.59,9.33A11.13,11.13,0,0,1,19,48.06l.68,0q-.11,6-.23,11.95l-.11-.6a11.31,11.31,0,0,1,2.77,6.8,11.12,11.12,0,0,1-2.35,7.19l.61-.52q-.11,8.11-.2,16.24l.12-.31a31.47,31.47,0,0,0,.83,6.34c2,8.66,6.7,12.32,5,17a9.12,9.12,0,0,1-3.85,4.4l-1.62.37A6.83,6.83,0,0,1,23.54,124c-.45,2.59-2,5-3.46,7.24l.15.47a33.47,33.47,0,0,1,1.89,12c-.2,7.08-2.67,10.44-4,18.72a56.85,56.85,0,0,0-.46,13.39l0,.22a15.45,15.45,0,0,1,2.48,7.67,15.22,15.22,0,0,1-2,8.09c.29,5.86-.15,10.1.13,15.95.68.15,4,.94,5,3.19C24.56,213.6,22,218,16.17,219.81Z"/><path class="cls-3" d="M136.37,219.87a3,3,0,0,1,.42.14c2.27.93,4.16,4.58,2.36,7.09-1.92,2.66-6.65,3.31-9.51,1.38a5.13,5.13,0,0,1-2.41-4.56,4.68,4.68,0,0,1,3.49-3.88c-3.78-.93-6-4.17-5.32-7.21.61-2.6,3.29-4.64,6.59-4.87q-.09-8.44-.17-16.9l-.57.23a13.66,13.66,0,0,1,0-16.61l-.42.36a42.63,42.63,0,0,0,.6-14.14c-1-7.83-3.66-11-4-18.08a32.54,32.54,0,0,1,2.83-14.4l-.56.16a7.92,7.92,0,0,1,.76-12.37,10.8,10.8,0,0,1-4-5.24c-1.45-4.49,1.74-7.78,4-16.35a49.75,49.75,0,0,0,1.22-6.27l-.19-.69q.11-8.2.2-16.42l.26.57a14.16,14.16,0,0,1-2.48-7.32,13.79,13.79,0,0,1,1.49-6.81l-.19.54L131,46.14l-.13,0a12.35,12.35,0,0,1-3.4-9.15,12.52,12.52,0,0,1,3.8-7.8l-.38-.11a6.16,6.16,0,0,1-2.12-6.28A7.22,7.22,0,0,1,133.93,18l2.29.26a6.93,6.93,0,0,1,4.6,5.19A6.32,6.32,0,0,1,138,29.51l.75-.28c.55.42,5,3.95,4.59,9.44a11.26,11.26,0,0,1-4.11,7.51l.69,0-.24,12.08-.1-.6a11.63,11.63,0,0,1,2.77,6.87A11.4,11.4,0,0,1,140,71.77l.6-.53q-.09,8.2-.2,16.42l.13-.32a32.2,32.2,0,0,0,.83,6.42c2,8.76,6.7,12.46,5,17.21a9.2,9.2,0,0,1-3.86,4.45l-1.62.38a6.92,6.92,0,0,1,2.92,7.13c-.44,2.63-2,5-3.46,7.33l.15.48a34.05,34.05,0,0,1,1.9,12.08c-.2,7.16-2.67,10.56-4,18.94a57.5,57.5,0,0,0-.47,13.54l0,.22a15.36,15.36,0,0,1,.49,15.94c.28,5.92-.16,10.21.13,16.13.68.15,4,.95,5,3.22C144.76,213.59,142.2,218,136.37,219.87Z"/><path class="cls-4" d="M25.37,206.13A12.87,12.87,0,0,0,27.28,212a13.82,13.82,0,0,0,6,5c9.6,4.53,34.66,4.09,44,4,8.68-.08,17.33-.86,26-1,6.87-.11,12.47-.09,17-4a17.29,17.29,0,0,0,5.24-9l.16.47c-.5-4.93-5.71-8.5-11-10.15s-11-2-16.18-4A32.64,32.64,0,0,1,84.88,182.9c-3.5-4.4-6-9.32-8.59-14.21l.62,1.06a299.15,299.15,0,0,1,.24-46.95l-.28.6a36.3,36.3,0,0,1,11-23.56c4.26-4.21,9.64-7.67,12.58-12.68l-.18-.24c-4.25-5.64-12.51-8.67-20-7.37-4.35.76-8.27,2.79-12,5l.81-.56a20.93,20.93,0,0,0-12-.07c-1.72.55-5.65,1.8-6.33,4.48-.34,1.3.22,2.44,1.26,4.47a27.3,27.3,0,0,0,3.8,5.6c1.4,1.51,3.66,5.5,8.17,13.47,2.22,3.92,4.77,8.66,7.45,14.12l-.3-2a345.47,345.47,0,0,1-1,47.39l.09-1.54c-3.47,11.42-13.6,21.09-26.23,25-3.91,1.21-8,1.91-11.77,3.53s-7.12,4.45-7.74,8.08Z"/></g></g></svg>