<svg xmlns="http://www.w3.org/2000/svg" viewBox="0 0 129.47 126.27"><defs><style>.cls-1,.cls-2{stroke:#000;stroke-miterlimit:10;}.cls-1{stroke-width:7px;}.cls-2{stroke-width:9px;}.cls-3{fill:#fff;}</style></defs><g id="Warstwa_2" data-name="Warstwa 2"><g id="Drawing_MagicWand" data-name="Drawing MagicWand"><polygon class="cls-1" points="76.64 45.58 53.04 52.35 44.38 75.33 31.64 55.33 7.38 55.21 23.1 36.08 16.77 13.02 39.23 21.2 59.58 7.07 57.74 31.26 76.64 45.58"/><path class="cls-2" d="M53,52.35l64.27,67,6-8Z"/><path d="M80.81,24.29a27.72,27.72,0,0,1-12,5.54"/><path d="M81,24.56a16.77,16.77,0,0,1-2,3.13c-.4.47-.82.94-1.26,1.39a16.81,16.81,0,0,1-1.42,1.24c-.49.38-.94.9-1.44,1.34a2.57,2.57,0,0,1-1.76.67,4.9,4.9,0,0,1-2.07-.48A6.41,6.41,0,0,1,70,31.22l-.55-.48-.27-.25-.27-.32a.68.68,0,0,1-.14-.68h0a10.93,10.93,0,0,1,1.08-2.41A5.66,5.66,0,0,1,71,25.67a1.83,1.83,0,0,1,1.38-.46,7.34,7.34,0,0,0,1.62,0L75.53,25c.54-.08,1.08-.17,1.63-.28,1.11-.18,2.23-.45,3.43-.7a.4.4,0,0,1,.47.3A.42.42,0,0,1,81,24.56Z"/><path d="M37.85,1.83l1.55,13"/><path d="M38.2,1.79c.68,1,1.22,2.05,1.78,3.08l.76,1.56c.24.52.46,1,.67,1.57a12.35,12.35,0,0,0,.85,1.54,2.17,2.17,0,0,1,.23,1.63,5.13,5.13,0,0,1-.84,1.74,7.53,7.53,0,0,1-.76.92l-.53.47-.27.24-.34.25a.74.74,0,0,1-.7.08l-.39-.16-.31-.17-.63-.33a8,8,0,0,1-1-.71A5,5,0,0,1,35.54,12a2.1,2.1,0,0,1-.16-1.63,13.46,13.46,0,0,0,.47-1.7Q36,7.82,36.12,7l.38-1.69c.3-1.14.58-2.27,1-3.42A.4.4,0,0,1,38,1.64.4.4,0,0,1,38.2,1.79Z"/><path d="M2.33,35l12.48.2"/><path d="M2.34,34.67a32.62,32.62,0,0,1,3.14-1.35l1.57-.55c.52-.16,1-.31,1.57-.45a12.05,12.05,0,0,0,1.57-.64,1.93,1.93,0,0,1,1.56,0,4.68,4.68,0,0,1,1.54,1.07,6.79,6.79,0,0,1,.77.87l.38.6.19.29.19.37a.78.78,0,0,1,0,.7l-.21.37-.2.29-.4.58a7.32,7.32,0,0,1-.79.85,4.67,4.67,0,0,1-1.58,1,1.93,1.93,0,0,1-1.56-.06,13,13,0,0,0-1.54-.69c-.52-.15-1-.32-1.56-.5l-1.55-.6c-1-.45-2.06-.88-3.09-1.45a.4.4,0,0,1-.16-.54A.37.37,0,0,1,2.34,34.67Z"/><path d="M24.15,75.26A56.79,56.79,0,0,1,28.9,62.83"/><path d="M23.81,75.17a23.75,23.75,0,0,1-.42-3.64c0-.61,0-1.21,0-1.82s.08-1.2.15-1.8,0-1.25,0-1.88a2.42,2.42,0,0,1,.67-1.64,5.09,5.09,0,0,1,1.69-1.15,6.85,6.85,0,0,1,1.16-.39l.72-.12.36,0h.42a.69.69,0,0,1,.61.31h0l.23.36.16.31.34.63a9.82,9.82,0,0,1,.42,1.11,5.43,5.43,0,0,1,.27,1.86A2,2,0,0,1,30,68.68a11.49,11.49,0,0,0-1.2,1.22l-1,1.34-1.05,1.34c-.73.9-1.44,1.83-2.25,2.77a.39.39,0,0,1-.55,0A.4.4,0,0,1,23.81,75.17Z"/><polygon class="cls-3" points="63.77 43.88 49 47.55 44.15 61.97 35.53 48.86 20.16 48.11 29.59 36.34 24.94 21.46 39.4 27.3 51.89 18.85 51.4 34.23 63.77 43.88"/></g></g></svg>