<svg xmlns="http://www.w3.org/2000/svg" viewBox="0 0 236 216.38"><defs><style>.cls-1{fill:#fff;stroke:#000;stroke-miterlimit:10;stroke-width:4px;}</style></defs><g id="Warstwa_2" data-name="Warstwa 2"><g id="Warstwa_2-2" data-name="Warstwa 2"><path class="cls-1" d="M17.56,53.06c-.85,0-1.69,0-2.54-.06a13,13,0,0,0-8,2,12.28,12.28,0,0,0-5,6.63,1,1,0,0,0,0,.24v91.44a8.33,8.33,0,0,0,3,5.75A9,9,0,0,0,11,161H52.49a8.41,8.41,0,0,1,4.58,1.36L134,213.05a8.76,8.76,0,0,0,7,1,7.91,7.91,0,0,0,4-2.89l11.91-13.39a.6.6,0,0,0,.14-.21,11.13,11.13,0,0,0,1-6.63c-.82-4.7-5.18-7.46-7-8.67-6.38-4.24-17.76-12.45-32.87-23.3a.91.91,0,0,1,.88-1.58l70.93,24.86.1,0c.7.34,6.54,3,12,0a11.67,11.67,0,0,0,4.95-5.66.64.64,0,0,1,.14-.22A22.23,22.23,0,0,0,213,163c.16-2.57.57-5.15-1-7.71-2.28-3.7-6.73-4.61-7.93-4.81l-.15,0-67.12-23.92a.9.9,0,0,1,.38-1.75l87.6,4.49a1,1,0,0,0,.41-.06,14.52,14.52,0,0,0,6.81-5.71,13.66,13.66,0,0,0,2-7.71V103.49a.91.91,0,0,0-.16-.51A20.46,20.46,0,0,0,226,96.46a21.36,21.36,0,0,0-10.94-1.93h-.13l-76.23-4.22a.9.9,0,0,1-.05-1.8l74.24-8.42a.71.71,0,0,0,.2,0A16.54,16.54,0,0,0,221,74.3a15.51,15.51,0,0,0,3-9.56,1,1,0,0,0,0-.16q-1.46-6.55-2.92-13.12a.82.82,0,0,0-.28-.47A27.74,27.74,0,0,0,211,45.4a30.36,30.36,0,0,0-14-1c-10.33,1.44-48.13,6.2-100,13.09A.9.9,0,0,1,96.24,56L126,30c.29-.25,5.38-4.91,4-11.56a13,13,0,0,0-6.83-8.59.92.92,0,0,1-.28-.24C122,8.4,116.18,1.44,107,2A18.38,18.38,0,0,0,95,7.8l0,0L48.26,51.89a1,1,0,0,1-.63.26Z"/><path class="cls-1" d="M53.5,106.58l20.23-4.71A7.47,7.47,0,0,0,79,97.39C84.32,84.09,91,70.13,96,57"/></g></g></svg>