<svg xmlns="http://www.w3.org/2000/svg" viewBox="0 0 340 167"><defs><style>.cls-1,.cls-2{fill:#fff;}.cls-1{stroke:#fff;stroke-linecap:round;stroke-miterlimit:10;stroke-width:5px;}</style></defs><g id="Warstwa_2" data-name="Warstwa 2"><g id="Drawing"><rect width="104" height="167" rx="10.12"/><line class="cls-1" x1="19" y1="38" x2="83" y2="38"/><line class="cls-1" x1="19" y1="57" x2="83" y2="57"/><line class="cls-1" x1="19" y1="77" x2="83" y2="77"/><ellipse class="cls-2" cx="51" cy="118" rx="11" ry="9"/><rect x="125" y="5" width="215" height="122" rx="12.54"/><rect class="cls-2" x="139.5" y="14.5" width="189" height="90"/><path d="M211.5,126.5q-4,13.5-8,27h-18a10.27,10.27,0,0,0-3,1c-4.67,2.45-5.8,7.9-6,9h113c.65-3.81-.48-7.35-3-9a6.41,6.41,0,0,0-3-1h-22q-4-13.5-8-27"/></g></g></svg>