<svg xmlns="http://www.w3.org/2000/svg" viewBox="0 0 146.85 190.5"><defs><style>.cls-1{fill:#4d4d4d;}.cls-2{fill:#fff;}.cls-3{fill:#666;}.cls-4{fill:#f7931e;}.cls-5,.cls-6,.cls-8,.cls-9{fill:none;}.cls-5,.cls-6,.cls-7,.cls-9{stroke:#000;stroke-miterlimit:10;}.cls-5,.cls-6,.cls-7{stroke-linecap:round;}.cls-5{stroke-width:3px;}.cls-6{stroke-width:1.5px;}.cls-7{fill:red;}</style></defs><g id="Warstwa_2" data-name="Warstwa 2"><g id="Drawing"><path class="cls-1" d="M94.84,2.07a42.48,42.48,0,0,0-6-.42C64.09,1.65,44,23.14,44,49.65V166.52l-29.7,20.91a2.35,2.35,0,0,0-.89,2.55L2.3,190A2.3,2.3,0,0,1,1,185.78L25.13,170a17.14,17.14,0,0,0,7.72-14.33V48.71C32.85,22.87,53,1.1,78.81,0A48,48,0,0,1,94.84,2.07Z"/><path d="M128.85,48V165.34A25.15,25.15,0,0,1,103.7,190.5H32.85V190L14,190a.63.63,0,0,1-.63-.59,2.31,2.31,0,0,1,1-2L37.8,170.9a14.67,14.67,0,0,0,6.22-12V49.65c0-26.51,20.07-48,44.82-48a43.15,43.15,0,0,1,5.94.41l.12,0A48,48,0,0,1,128.85,48Z"/><path class="cls-2" d="M128.85,69.5V184.92a5.07,5.07,0,0,1-5.08,5.08H70.85V109.08a39.4,39.4,0,0,1,6.57-21.84,6.6,6.6,0,0,0-3.09-9.7,33,33,0,1,1,36.66-8Z"/><path class="cls-3" d="M141.71,71.08l-5-.33-9.31-17L143.34,67A2.29,2.29,0,0,1,141.71,71.08Z"/><path d="M136.79,70.5l-16.15-1.12a2.29,2.29,0,0,1-2-3.11l4.8-11.8a2.35,2.35,0,0,1,3.65-.88l.16.13Z"/><path class="cls-1" d="M94.52,149.31,82.26,145l-6.88-23.41L97,145.6A2.3,2.3,0,0,1,94.52,149.31Z"/><path d="M82.26,145l-24.53-8.62a2.29,2.29,0,0,1-1.15-3.44l10.7-16.06a2.29,2.29,0,0,1,3.62-.26l4.48,5Z"/><path class="cls-4" d="M124.85,170h4.9a17.1,17.1,0,0,1,17.1,17.1V190a0,0,0,0,1,0,0h-22a0,0,0,0,1,0,0V170A0,0,0,0,1,124.85,170Z"/><line class="cls-5" x1="41.85" y1="36" x2="23.85" y2="27"/><line class="cls-5" x1="43.09" y1="28.27" x2="26.61" y2="16.73"/><polygon class="cls-6" points="105.6 93.23 93.85 101.36 98.34 114.5 112.86 114.5 117.35 101.36 105.6 93.23"/><polygon class="cls-6" points="110.58 112.25 105.51 109.58 100.44 112.25 101.41 106.6 97.31 102.61 102.97 101.79 105.51 96.65 108.04 101.79 113.71 102.61 109.61 106.6 110.58 112.25"/><path class="cls-7" d="M115.85,170h4.9a17.1,17.1,0,0,1,17.1,17.1V190a0,0,0,0,1,0,0h-22a0,0,0,0,1,0,0V170A0,0,0,0,1,115.85,170Z"/><path d="M110.35,48.5A17,17,0,0,1,78,55.69a12.5,12.5,0,1,0,7.9-22.19,4.61,4.61,0,0,0-.53,0,17,17,0,0,1,25,15Z"/><line class="cls-8" x1="135.49" y1="73.71" x2="133.76" y2="70.56"/><line class="cls-8" x1="128.65" y1="52.86" x2="128.35" y2="52.5"/><line class="cls-9" x1="75.38" y1="121.59" x2="75.35" y2="121.5"/></g></g></svg>