<?xml version="1.0" encoding="utf-8"?>
<!-- Generator: Adobe Illustrator 25.4.1, SVG Export Plug-In . SVG Version: 6.00 Build 0)  -->
<svg version="1.1" id="Warstwa_1" xmlns="http://www.w3.org/2000/svg" xmlns:xlink="http://www.w3.org/1999/xlink" x="0px" y="0px"
	 viewBox="0 0 240 269" style="enable-background:new 0 0 240 269;" xml:space="preserve">
<style type="text/css">
	.st0{stroke:#FFFFFF;stroke-miterlimit:10;}
	.st1{stroke:#000000;stroke-miterlimit:10;}
	.st2{fill:#B3B3B3;}
	.st3{fill:#FFFFFF;}
	.st4{fill:#CCCCCC;}
	.st5{fill:none;}
	.st6{fill:none;stroke:#0071BC;stroke-width:3;stroke-miterlimit:10;}
	.st7{fill:none;stroke:#000000;stroke-width:3;stroke-miterlimit:10;}
	.st8{fill:none;stroke:#000000;stroke-miterlimit:10;}
	.st9{fill:none;stroke:#000000;stroke-linecap:round;stroke-linejoin:round;}
	.st10{fill:#ED1E79;stroke:#000000;stroke-miterlimit:10;}
	.st11{fill:#FFFFFF;stroke:#000000;stroke-miterlimit:10;}
	.st12{fill:#F6C13F;stroke:#000000;stroke-miterlimit:10;}
	.st13{fill:none;stroke:#FF00FF;stroke-miterlimit:10;}
	.st14{font-family:'CurlzMT';}
	.st15{font-size:30.87px;}
	.st16{fill:#FFFFFF;stroke:#000000;stroke-linejoin:round;}
	.st17{font-family:'MyriadPro-Regular';}
	.st18{font-size:45.933px;}
</style>
<g id="Warstwa_2_00000096021425507862991910000012371500219694339970_">
	<g id="Warstwa_1-2">
		<g id="Warstwa_2-2">
			<g id="Warstwa_1-2-2">
				<rect x="88.5" y="1.4" class="st0" width="150" height="89"/>
				<rect x="158.5" y="91.4" width="11" height="65"/>
				<path class="st1" d="M33,143.4h112c5.2,0,9.5,4.3,9.5,9.5v1c0,5.2-4.3,9.5-9.5,9.5H33c-5.2,0-9.5-4.3-9.5-9.5v-1
					C23.5,147.6,27.8,143.4,33,143.4z"/>
				<path class="st2" d="M74,159.4l1.9-0.3c0.2,0,0.4-0.1,0.5-0.3c0.2-0.1,0.3-0.2,0.4-0.4c0.1-0.2,0.2-0.3,0.2-0.5
					c0-0.2,0-0.4,0-0.6c-0.1-0.4-0.3-0.7-0.7-0.9l-0.4-0.1c-0.3-0.1-0.5-0.1-0.8,0l-1.9,0.3c-0.2,0-0.4,0.1-0.5,0.3
					c-0.2,0.1-0.3,0.2-0.4,0.4c-0.2,0.4-0.2,0.8-0.2,1.2c0.1,0.4,0.4,0.7,0.7,0.9l0.4,0.1C73.5,159.5,73.8,159.5,74,159.4L74,159.4z
					"/>
				<path class="st2" d="M32,165c0.4-0.5,0.4-0.9,0-1.1l-0.4-0.2c-0.3-0.3-0.6-0.5-1-0.7c-0.5-0.4-0.5-0.3-0.2,0.3
					c0,0.6,0.1,0.7,0.3,0.4c0.2-0.1,0.6-0.5,0.8-0.7c1-1,2.1-1.8,3.4-2.5c2.9-1.5,5.9-2.5,9.1-3c3.1-0.6,6.3-0.5,9.4-0.8
					c2.4-0.2,5.6-0.2,7-2.6c0.4-0.7,0.1-1.6-0.5-2c-1.1-0.7-2.6-0.3-3.3,0.9l0,0c-1,1.5,1.1,2.9,2.4,1.8c1-0.9,2.1-1.7,3.4-2.1
					c1.5-0.4,3,0.5,4.4,1c3,1.1,6,1.8,9.1,2.3c0.8,0.1,1.5-0.3,1.8-1.1c0.2-0.8-0.2-1.7-1-1.9h-0.1c-3.7-0.6-7.3-1.5-10.8-2.9
					c-3.5-1.3-6.3,0.3-9,2.6l2.3,1.8l-0.8,0.2l-0.5-2.1c-0.7,1.3-3.6,1.1-4.8,1.2c-2.1,0.1-4.2,0.2-6.3,0.4c-4,0.4-7.9,1.4-11.6,3
					c-1.7,0.7-3.2,1.6-4.6,2.8c-1.1,1-3.2,2.3-2.6,4c0.3,0.9,1.1,1.3,1.8,1.8c0.7,0.5,1.4,1,2.3,1.2c1.3,0.4,2.7-0.4,3.1-1.7
					c0.1-0.4,0.1-0.8,0-1.2c-0.4-1.9-3.2-1.1-2.9,0.8L32,165z"/>
				<path class="st2" d="M34.4,164l0.2-0.3L34.4,164c0.4-0.5,0.8-1,1.3-1.4l-0.3,0.2c0.2-0.1,0.4-0.3,0.6-0.4
					c0.3-0.2,0.6-0.5,0.7-0.9c0.1-0.2,0.1-0.4,0-0.6c0-0.2-0.1-0.4-0.2-0.6c-0.2-0.3-0.5-0.6-0.9-0.7c-0.4-0.1-0.8-0.1-1.2,0.1
					c-1.1,0.7-2,1.6-2.7,2.6c-0.1,0.2-0.2,0.4-0.2,0.6c-0.1,0.2-0.1,0.4,0,0.6c0.1,0.4,0.4,0.7,0.7,0.9c0.3,0.2,0.8,0.3,1.2,0.1
					l0.4-0.1C34,164.4,34.2,164.2,34.4,164L34.4,164z"/>
				<path class="st2" d="M31.3,164.4c0.8,0.7,2,0.8,2.9,0.3c0.3-0.1,0.6-0.3,0.9-0.5c-0.8-0.5-1.1-0.6-0.9-0.1
					c0,0.2,0.1,0.3,0.1,0.5c0.1,0.3,0.2,0.6,0.3,0.8c1,1.7,3.3,2.3,5,1.3c0.5-0.3,1-0.7,1.3-1.3c0.4-0.7,0.1-1.7-0.6-2.1
					c0,0,0,0,0,0l0,0c-0.2-0.1-0.5-0.2-0.7-0.2c-0.2,0-0.5,0-0.7,0c0.2,0.2,0.2,0.1,0-0.2c-0.2-0.5-0.3-1.1-0.2-1.7
					c0.4-0.8,2-1.3,2.7-1.6c2.1-1,4.4-1.6,6.7-1.9l-1.2-2.7l-5.9,3.8c-1.6,1-3.2,1.9-3.4,3.9c0,0.8,0.7,1.5,1.5,1.5
					c0,0,0.6,2.6,0.7,2.9c0.4,0.8,1.1,1.5,1.9,2c1.5,0.9,3.4,1.2,5.1,0.7c4-0.9,5.9-5,6.2-8.7c0-0.8-0.7-1.5-1.5-1.5c0,0,0,0,0,0
					l0,0c-0.4,0-0.7,0.2-1,0.4l-2.4,2.8l-1.2,1.4c-0.2,0.2-0.3,0.4-0.5,0.6l0.5-0.3c-0.1-0.1-0.3-0.2-0.4-0.3
					c-1.2-1.5-2.7-2.6-4.5-3.4c-0.8-0.2-1.6,0.2-1.8,1c-0.2,1.8,0.5,3.5,2,4.6c1.2,1,3,1.5,4.2,0.2s0.5-2.9,0-4.3
					c-0.2-0.8,0.3-1,0.9-1.5c0.6-0.4,1.2-1,1.6-1.5c1-1.3-0.8-2.6-2-2c-1.1,0.5-2.2,1.2-3.2,2c-1.4,1.1,0.4,3.1,1.8,2.4l5.4-2.9
					l-1.8-2.4c-1.5,1.4-2.9,3-4,4.7c-0.8,1.2,0.5,2.4,1.7,2.2c1.5-0.2,3-0.8,4.3-1.6l-2-2c-0.3,0.7-1,1.3-1.8,1.4l1.5,2.5
					c1.8-2.2,3.9-4.1,6.4-5.6l-2-2c-0.5,0.6-1,1.2-1.6,1.7c-1.2,0.9,0.1,3,1.5,2.5c2.1-0.7,4.1-1.6,6-2.5c1.6-0.8,4-1.7,4.5-3.5
					c0.3-0.8-0.2-1.6-1-1.9c0,0,0,0,0,0c-0.6-0.2-1.2,0-1.6,0.4l-8,6.6c-1,0.8-2.2,1.8-1.7,3.2c0.4,1.2,1.9,1.9,3,2.5l0.8-2.8
					l-1.7,0.1c-0.8,0-1.5,0.7-1.5,1.5s0.7,1.5,1.5,1.5c1.5,0.2,2.9-0.6,3.5-2l-2.4,0.3c0.2,0.1,0.3,0.3,0.2,0.5
					c0.2,0.8,1.1,1.2,1.9,1c0.4-0.1,0.7-0.3,0.9-0.7c1.3-2.5,2.8-4.9,4.6-7.2c0.4-0.5,0.8-1,1.2-1.5c0.2-0.3,0.5-0.5,0.7-0.8
					c0.1-0.1,0.7-0.6,0.3-0.5c0.4-0.1,1.6,0.7,2,0.8l2.1,0.9c1.3,0.6,2.6-1.6,1.4-2.5c-2.9-2.2-5.8-0.3-7.8,2.1s-5.1,5.2-5.2,8.6
					c0,0.8,0.7,1.5,1.6,1.5c0.4,0,0.7-0.2,1-0.4c3.1-2.7,6.1-5.4,9-8.3c1.2-1.2-0.4-3.4-1.8-2.4c-3,2.3-5.4,5.4-6.6,9
					c-0.6,1.6,1.5,2.3,2.5,1.5c3.3-2.6,6.4-5.5,9.1-8.7c1.2-1.4-0.8-3.6-2.1-2.1c-1.6,1.7-3.1,3.4-4.4,5.2c-1,1.4-3.2,3.6-2.5,5.4
					c0.3,0.8,1.1,1.2,1.9,1c0.1,0,0.2-0.1,0.3-0.1c3.5-2.3,5.9-5.6,8.3-9l-2.6-1.5c-1.1,2.6-2.5,5.1-4.2,7.4
					c-0.3,0.6-0.2,1.3,0.2,1.8c1.7,2,4.1-0.8,5.3-1.9c1.8-1.6,3.1-3.7,3.8-6c0.2-0.8-0.3-1.6-1.1-1.8c-0.4-0.1-0.8,0-1.1,0.1
					c-1.8,1.2-1.8,3-2.5,4.8c-0.4,0.9-1.1,1.6-1.5,2.5c-0.5,1.1-0.5,2.3,0.1,3.3c0.4,0.7,1.3,0.9,2,0.5l0,0c0.1-0.1,0.2-0.1,0.3-0.2
					c2.5-2.6,4.5-5.6,6.1-8.8c0.4-0.7,0.2-1.6-0.5-2.1c-0.7-0.4-1.6-0.2-2.1,0.5c-0.9,1.4-1.7,3-2.1,4.6c-0.5,1.4-0.9,2.8-0.1,4.2
					c0.4,0.7,1.4,0.9,2.1,0.5c0,0,0,0,0,0c0.2-0.1,0.4-0.3,0.5-0.5c1.6-2.8,3-5.7,4.2-8.7c0.6-1.6-1.9-2.6-2.7-1.2
					c-1.1,2.1-1.3,4.7-2.7,6.6c-0.8,0.9-1.9,1.5-3.1,1.6c-1.7,0.3-3.3,0.5-5,0.6c-1.9,0.1-1.9,3.1,0,3c1.9-0.1,3.7-0.4,5.6-0.7
					c1.6-0.2,3.1-0.9,4.3-2c2-2.1,2.1-5.2,3.5-7.7l-2.7-1.2c-1,2.8-2.3,5.5-3.8,8h2.6c-0.3-0.6,0.5-2.1,0.7-2.7
					c0.4-1.1,0.9-2.1,1.6-3.1l-2.6-1.5c-1.5,3-3.4,5.8-5.7,8.2l2.3,0.3c-0.3-0.5,0.6-1.4,0.9-1.8c0.4-0.5,0.7-1.1,0.9-1.8
					c0.3-0.8,0.3-2.4,1.1-3l-2.2-1.6c-0.4,1.4-1.1,2.6-2,3.6c-0.4,0.5-0.9,1-1.4,1.4l-0.9,0.8l-0.3,0.3c-0.4,0.3-0.2,0.4,0.5,0.4
					l0.2,1.8c1.7-2.3,3.1-4.8,4.2-7.4c0.4-0.7,0.2-1.6-0.5-2.1c-0.7-0.4-1.6-0.2-2.1,0.5l0,0l0,0c-2.1,2.9-4.2,5.9-7.2,7.9l2.2,0.9
					c0.4-0.6,0.8-1.2,1.3-1.8c0.5-0.7,1-1.3,1.4-2c1-1.4,2.2-2.7,3.3-4l-2.1-2.1c-2.7,3.2-5.8,6.1-9.1,8.7l2.5,1.5
					c1-2.8,2.8-5.2,5.2-7.1l-1.8-2.4c-2.9,2.9-5.9,5.7-9,8.3l2.6,1.1c0-2,2.2-3.9,3.4-5.4c0.7-0.8,3-4.3,4.4-3.2l1.4-2.5l-2.5-1
					c-0.7-0.4-1.5-0.7-2.3-0.8c-1.7,0-2.8,1.7-3.8,2.9c-2.2,2.6-4.1,5.5-5.7,8.6l2.7,0.4c-0.1-0.7-0.5-1.3-1-1.8
					c-0.6-0.6-1.5-0.6-2.1,0c0,0,0,0,0,0c-0.1,0.1-0.1,0.2-0.2,0.3c-0.2,0.5-0.4,0.6-1,0.5v3l1.7-0.1c0.8,0,1.5-0.7,1.5-1.5
					c0-0.5-0.3-1-0.7-1.3c-0.5-0.3-1.6-0.7-1.8-1.3l0.2,1.2c0.1-0.5,1.6-1.4,2-1.8l2.3-1.9l4.5-3.9l-2.5-1.5c-0.1,0.3-1.4,0.8-1.7,1
					c-0.7,0.4-1.5,0.8-2.2,1.1c-1.4,0.7-2.9,1.3-4.4,1.8l1.5,2.5c0.8-0.7,1.5-1.4,2.1-2.3c0.9-1.3-0.8-2.8-2-2.1c-2.7,1.6-5,3.6-7,6
					c-0.6,0.6-0.6,1.6,0,2.1c0.4,0.4,0.9,0.5,1.4,0.4c1.5-0.4,2.8-1.4,3.6-2.8c0.6-1.3-0.7-2.9-2-2.1c-1.1,0.7-2.3,1.1-3.6,1.3
					l1.7,2.2c1-1.5,2.2-2.9,3.6-4.1c1.3-1.2-0.4-3.1-1.8-2.4l-5.4,2.9l1.8,2.4c0.8-0.6,1.7-1.1,2.6-1.6l-2-2c-1.1,1.5-3,2-3,4.1
					c0,0.5,0.1,1,0.3,1.5c0.1,0.5,0.3,0.9,0.5,1.3c0.2,0.1,0.4,0,0.3-0.2s-0.4-0.4-0.5-0.5c-0.3-0.3-0.9-0.8-0.8-1.2l-1.8,1
					c2.1,0.7,3.1,3.5,5.5,3.8c1.3,0.1,2-0.9,2.8-1.8l3.2-3.7l-2.6-1.1c-0.2,2.8-1.9,6.2-5.2,5.9c-0.6,0-1.3-0.3-1.8-0.7
					c-0.5-0.5-0.8-1.3-0.8-2c-0.2-1.7-1.3-3.2-3.1-3.1l1.5,1.5c0-0.4,1.2-0.9,1.5-1l2.1-1.3l4.2-2.7c0.7-0.5,0.9-1.4,0.4-2.1
					c-0.3-0.5-1-0.8-1.6-0.7c-1.9,0.3-3.7,0.7-5.5,1.4c-1.8,0.6-3.4,1.5-4.9,2.6c-1.4,1.2-1.5,3-1,4.7c0.3,1.7,1.9,2.9,3.7,2.7
					l-1.3-2.2c-0.5,0.7-1.1,0.1-1.2-0.4c-0.2-0.9-0.3-1.7-1.3-2.1c-0.6-0.3-1.3-0.3-1.9,0c-0.3,0.1-0.6,0.2-0.8,0.4
					c-0.8,0.4-0.2,0,0.3,0.4C32,161,29.8,163.1,31.3,164.4L31.3,164.4z"/>
				<path class="st2" d="M79.6,153.9c-2,1.8-3.5,4-4.3,6.5c-0.1,0.5-0.4,1-0.8,1.3c-0.4,0.4-0.9,0.8-1.3,1.2c-0.7,0.5-1,1.4-0.8,2.2
					c0.2,0.7,0.7,1.3,1.4,1.5c1.5,0.5,2.5-0.6,3.3-1.7c0.8-0.9,1.7-1.7,2.6-2.4c1-0.8,1.9-1.7,2.7-2.8c0.7-1.2,1.3-2.4,1.7-3.7
					c0.2-0.7-0.1-1.4-0.7-1.7c-0.6-0.3-1.3-0.2-1.8,0.2c-2.8,2.3-1.9,6.7-5,8.8l1.8,2.4c3.1-2.8,5.8-6.1,8-9.6
					c0.4-0.7,0.2-1.6-0.5-2.1c-0.6-0.4-1.4-0.3-1.9,0.3c-1.6,1.5-2.1,3.6-3,5.5s-3.2,3.2-3,5.5c0,0.8,0.7,1.5,1.6,1.5
					c0.4,0,0.7-0.2,1-0.4c2.9-3.1,5.4-6.4,7.6-10l-2.7-1.1c-0.4,3.2-1.8,6.3-4,8.7c-0.6,0.6-0.5,1.6,0.1,2.1
					c0.5,0.4,1.2,0.5,1.7,0.2c2-1.2,3.7-3,4.8-5.1c1.2-2.1,1.8-4.4,1.8-6.8h-3c0,1.6-0.4,3.2-1.3,4.5c-0.9,1.5-1.6,3.1-2.2,4.7
					c-0.6,1.9,2.3,2.6,2.9,0.8c1-3.4,3.9-6.2,3.6-10c0-0.8-0.7-1.5-1.5-1.5s-1.5,0.7-1.5,1.5c0,1.8-0.5,3.7-1.4,5.3
					c-0.9,1.7-2.2,3.1-3.8,4l1.8,2.4c2.6-2.8,4.2-6.3,4.8-10c0.2-0.7-0.2-1.5-0.9-1.8c-0.7-0.3-1.5,0-1.9,0.6
					c-2,3.4-4.4,6.5-7.1,9.3l2.6,1.1c0-0.7,0.6-1.2,1-1.8c0.7-0.7,1.2-1.5,1.7-2.4c0.8-1.6,1.2-3.5,2.5-4.7l-2.4-1.8
					c-2.1,3.3-4.6,6.3-7.5,9c-1.2,1.1,0.4,3.3,1.8,2.4c1.7-1.2,3-2.9,3.6-4.9c0.5-1.5,0.7-3.3,2-4.3l-2.5-1.5
					c-0.4,1-0.8,1.9-1.3,2.8c-0.6,0.8-1.2,1.5-2,2.1c-0.8,0.6-1.6,1.3-2.3,2c-0.4,0.4-0.7,0.7-1,1.2c-0.1,0.1-0.2,0.2-0.3,0.4
					c-0.1,0.1-0.2,0.1-0.1,0.2c0.4-0.1,0.7,0,1,0.5v0.8c-0.1,0.1-0.1,0,0.1-0.1l0.2-0.2c0.2-0.2,0.4-0.4,0.6-0.5
					c0.4-0.3,0.7-0.6,1-0.9c0.6-0.9,1.1-1.9,1.4-2.9c0.7-1.7,1.9-3.3,3.3-4.5c0.6-0.6,0.6-1.5,0-2.1
					C81.2,153.3,80.3,153.3,79.6,153.9L79.6,153.9z"/>
				<path class="st2" d="M83,156.2c-0.2,0.9-0.3,1.8-0.3,2.7c0.1,0.6,0.1,1.2,0.2,1.8c0.2,0.8,0.2,0.6-0.1-0.8l1.8-4.2
					c0.7-0.6,0.9-0.7,0.4-0.4s-0.3,0.2,0.3-0.1c-2.8,1.1-4.7,3.5-4.3,6.6s2.9,4.9,5.9,5.2c1.4,0.1-0.9-0.2,0.4,0
					c0.6,0.1,1.2,0.2,1.7,0.3c1.1,0.2,2.1,0.5,3.1,0.9c3.2,0.9,6.5-1,7.4-4.2l0,0c0.8-3.2-1-6.4-4.2-7.4c-2.7-0.9-5.5-1.4-8.4-1.7
					l1.6,11.8c1.9-0.6,3.7-1.6,5-3.1c0.9-1.1,1.3-2.4,1.3-3.8c0-0.6-0.1-1.2-0.3-1.8c0.1,0.5,0.1,1,0,1.5c0.7-3.1-0.9-6.6-4.2-7.4
					C87.4,151.3,83.8,152.9,83,156.2L83,156.2z"/>
				<path class="st2" d="M103.1,155.1l-4,0.2v10c3.4-0.2,8.2-0.3,10.2-3.7c1.5-2.7,0.6-6.2-2.2-7.7c0,0,0,0,0,0l0,0
					c-0.4-0.2-0.9-0.4-1.3-0.5L103,163c1.3,0.3,2.6,0.3,3.9,0c0.5-0.2,1.1-0.4,1.6-0.6c1.4-0.6,0.9-1.2-1.4-1.6l-0.5-3.9
					c1.9-1.4,2.3-1.9,1.2-1.6c-0.4,0.1-0.8,0.2-1.3,0.2c-0.9,0.2-1.8,0.4-2.8,0.5c-2.1,0.2-4-0.1-5.9,1.3c-3.4,2.5-3.2,7.8,1.2,9.1
					c2.8,0.9,5.2,0.3,8,0.1s5.7,0.1,8.7-0.4c5.3-1,4.2-8.1,0-9.6l-0.6-0.2c-5.3-1.9-9,6.8-3.9,9.1c0.5,0.1,0.9,0.3,1.2,0.7
					c4.7,4.4,11.8-2.7,7.1-7.1c-0.9-0.9-2-1.7-3.2-2.2l-3.8,9.1l0.7,0.2v-9.6c-2,0.4-4-0.1-6,0.1c-1.8,0.1-3.6,0.8-5.3,0.3l1.2,9.1
					l0.6-0.4l-2.5,0.7c5-0.3,14-0.2,15.2-6.6c0.6-3-1.2-5.6-3.8-7c-1.5-0.7-3.2-1-4.9-0.7c-1.4,0.2-2.4,1.1-3.7,1.6h2.7l-0.8-0.1
					c-6.2-1.1-9,8.2-2.7,9.6l0.4,0.1l-3-2.3l0.2,0.4l-0.7-2.5v0.4l1.5-3.5c1.4-0.7,1.4-0.8-0.1-0.4c-0.7,0.1-1.5,0.2-2.2,0.2
					c-6.4,0.3-6.4,10.3,0,10l4-0.2C109.5,164.8,109.5,154.8,103.1,155.1L103.1,155.1z"/>
				<path class="st2" d="M120.5,164.4c0.6,0.4,1.4,0.4,2,0c0.2-0.1,0.4-0.3,0.6-0.5l0.2-0.2c0.1-0.1,0.1-0.1,0,0s-0.1,0,0,0h0.3
					c0.2,0,0.4,0,0.6-0.1c0.5-0.1,1-0.3,1.5-0.5c1.8-0.8,3.4-1.8,5.1-2.7c0.7-0.4,0.9-1.3,0.5-2c-0.4-0.7-1.3-0.9-2-0.5
					c-1.5,0.8-3,1.7-4.5,2.5c-0.6,0.3-1.3,0.5-2,0.6c-0.4,0.1-0.8,0.2-1.1,0.4c-0.2,0.1-0.4,0.3-0.6,0.5l-0.1,0.2
					c0.3-0.2,0.7-0.2,1,0c-0.7-0.4-1.6-0.1-2,0.6c-0.4,0.7-0.1,1.6,0.5,2L120.5,164.4z"/>
				<path class="st2" d="M131.7,159.6l6-3.1c0.7-0.4,0.9-1.4,0.5-2.1c-0.2-0.3-0.5-0.6-0.9-0.7c-0.8-0.2-1.7-0.1-2.5,0.3l1.8,2.4
					c1.3-1.2,2.7-2.3,4.2-3.2c1.4-0.7,2.8-1.5,4-2.5c2.4-2.3,3.9-5.9,4.8-9s1.2-6.8,3.4-9.4c1-1.2,2.4-2,4-2c1.6,0,2.7,1.3,3.6,2.5
					c0.4,0.7,1.3,0.9,2,0.5c0.7-0.4,0.9-1.3,0.5-2c-1-1.5-2.4-2.8-4-3.5c-1.6-0.6-3.3-0.5-4.8,0.1c-3.5,1.3-5.4,4.8-6.4,8.2
					c-1.2,4-1.9,7.9-4.3,11.4c-1.1,1.6-2.7,2.3-4.3,3.3c-1.7,1-3.3,2.3-4.8,3.7c-1.3,1.3,0.4,3,1.8,2.4h0.2l-0.4-2.8l-6,3.1
					c-1.7,0.9-0.2,3.5,1.5,2.6L131.7,159.6z"/>
				<path class="st2" d="M124.6,164.2l5.3-0.8c1.6-0.2,3.2-0.4,4.8-0.9c1.5-0.5,2.9-1.1,4.4-1.5c1.5-0.3,3-0.8,4.4-1.4
					c2.5-1.3,4.8-3.9,6.5-6.1c0.4-0.5,0.8-1.1,1.2-1.6c0.3-0.3,0.4-0.7,0.6-1.1c0.2-0.3,0.2-0.4-0.2-0.2c-0.5,0-0.5,0.1,0,0.3
					c0.6,0.4,1.3,0.8,2.1,1.1l2.5,1.3c1.7,0.9,3.2-1.7,1.5-2.6s-3.1-1.7-4.8-2.5c-1.4-0.7-2.7-0.6-3.5,0.8c-0.7,1.3-1.5,2.5-2.4,3.6
					c-1.1,1.2-2.2,2.4-3.4,3.4c-1.3,1-2.7,1.6-4.3,1.9c-1.6,0.4-3.2,1-4.8,1.6c-1.6,0.5-3.1,0.8-4.8,0.9l-5.8,0.8
					C121.9,161.6,122.7,164.4,124.6,164.2L124.6,164.2z"/>
				<path class="st2" d="M152.1,140.2l-0.6,1.7c-0.1,0.8-0.1,1.7,0,2.5v1.8c0,0.2,0,0.5,0,0.7c0.8-0.5,1.3-1.3,1.5-2.2
					c0.1-0.8,0.1-1.7,0-2.5v-1.8c0-0.2,0-0.5,0-0.7c-0.8,0.8-1.6,1.5-2.4,2.3c-0.7,0.5-1.2,1.2-1.6,1.9c-0.2,0.8-0.3,1.7-0.2,2.5
					c0,1.3,0,2.6,0.1,3.9v-4.9c-0.2,1.8-1.8,2.6-3.2,3.5c-1.5,1-2.4,2.7-3.9,3.7c-1.6,0.9-3.4,1.6-5.1,2.1l-6,2.1
					c-0.1,0.8-0.1,1.7,0,2.5c0.1,0.8,0.1,1.7,0,2.5l7.2-2.6c2.2-0.8,4.1-1.4,5.7-3.3c0.7-0.8,1.5-1.6,2.3-2.1
					c0.9-0.5,1.7-1.1,2.4-1.9c0.5-0.8,0.7-1.8,0.6-2.8c0-1.5,0-3-0.1-4.5v4.9c0.3-1,0.8-1.8,1.6-2.4c0.8-0.9,1.7-1.7,2.6-2.5v-5
					c-0.2,0.9-0.7,1.7-1.5,2.2v5l0.6-1.7c0.1-0.8,0.1-1.7,0-2.5V141C152,140.8,152,140.5,152.1,140.2L152.1,140.2z"/>
				<path class="st2" d="M146.8,149.4l-1,0.5c0,0.1,0,0.1,0,0.2v4.8l1-0.5c0-0.1,0-0.1,0-0.2V149.4z"/>
				<path class="st2" d="M146.8,149.6c2.1,0.8,4.3,1.4,6.5,1.9c1.3,0.3,4.3,1.4,4.4-0.7c0.1-2.3,0.1-4.6,0.1-6.9v-2.7
					c0.1-0.4,0.1-0.8,0-1.1c-0.3-1-1.1,0.1-1.2,0.6c-0.1,0.8-0.1,1.7,0,2.5v2.5c0.5,0.2,0.9,0.7,1,1.3v-5c-0.1,1.2-1.1,0.9-1.9,0.4
					c-0.8-0.5-1.7-0.8-2.6-0.9c-0.9-0.1-1.9-0.1-2.8,0.1c-0.6,0.1-1.8,0.4-1.9-0.5v5c0.5-2,3.1-1.9,4.6-1.6c0.9,0.3,1.9,0.4,2.9,0.3
					c1-0.2,1-1,1-1.9v-2.7c0.1-0.5,0.1-1.1,0-1.6c-0.2-0.8-0.9-1.4-1.7-1.5c-1-0.1-1.9-0.3-2.8-0.6c-0.9-0.4-1.6-0.9-2.3-1.6v5
					c0.5,0.5,1.2-0.6,1.6-1c1.9-1.7,4.4-2.4,6.8-2.1c-0.2,0,0.3-4.6,0-5c-0.9-1.4-2.9-1.9-4.5-1.9c-0.6,0-1.2,0.2-1.3,0.9
					c-0.1,1.6-0.1,3.2,0,4.9v0.1c1.5-0.4,2.9-0.9,4.3-1.5c1.1-0.3,2.6-0.1,2.8,1.3v-4.7c-0.4,2.2-3.1,2.3-4.4,3.8c0,0.2,0,0.5,0,0.7
					v1.8c-0.1,0.8-0.1,1.7,0,2.5l3.4,0.9c1.1,0.4,2.2,0.7,3.4,0.9c0.8,0.1,1.6-0.3,2-1c0.3-0.4,0.5-0.7,0.6-1.1
					c0.1-0.2,0.1-0.4,0.3-0.3s0.2,0.3,0.3,0.4v-4.8c-0.5,1.6-2.2-0.6-2.6-1c-0.9-1-2.1-1.7-3.4-2v5c2.1-0.4,4.2,0.4,5.4,2.2
					c0-0.2,0-0.5,0-0.7v-3.5c0-0.2,0-0.5,0-0.7c-1.2-1.8-3.3-2.6-5.4-2.2c-0.1,1.7-0.1,3.3,0,5c0.9,0.3,1.8,0.7,2.5,1.2
					c0.7,0.6,1.2,1.4,1.9,2s1.5,0.4,1.6-0.5v-2.4c0.1-0.8,0.1-1.6,0-2.4c-0.1-0.3-0.2-0.6-0.5-0.4s-0.4,0.9-0.6,1.2
					c-0.4,0.8-1.2,1.2-2,1.2c-1.1-0.2-2.3-0.4-3.4-0.9l-3.6-1v5c0.9-1.1,2.4-1.3,3.5-2.2c0.5-0.4,0.8-1,0.9-1.6
					c0.1-1.4,0.1-2.8,0-4.2c0.1-0.7,0-1.4-0.5-1.9c-0.5-0.4-1.2-0.6-1.8-0.5c-0.8,0.2-1.5,0.5-2.2,0.8c-0.8,0.3-1.7,0.6-2.6,0.7v4.9
					c0.3-1,2.1-0.6,2.8-0.4c1.2,0.1,2.3,0.7,3,1.7v-5c-1.6-0.2-3.3,0.1-4.8,0.8c-0.7,0.3-1.4,0.8-2,1.3c-0.4,0.3-1.1,1.5-1.7,1v4.3
					c0,0.1-0.1,0.6,0,0.7c0.9,1,2.2,1.8,3.6,2c1.3,0.2,2.9,0.2,3.2,1.8v-4.8c-0.3,1.3-2,0.9-3,0.8c-1.3-0.4-2.6-0.4-3.9-0.1
					c-0.6,0.2-1.1,0.6-1.4,1.1c-0.2,0.5-0.3,1.1-0.2,1.7c-0.1,1.2-0.1,2.4,0,3.7c0.1,0.5,0.2,0.7,0.8,0.7c0.6,0,1.2-0.1,1.7-0.2
					c0.6-0.1,1.3-0.1,1.9,0c0.6,0,1.3,0.2,1.9,0.4c0.6,0.2,1.1,0.7,1.7,0.9c1.7,0.6,1.2-2.1,1.2-3c0.1-0.9,0.1-1.9,0-2.8
					c-0.1-0.6-0.5-1.1-1-1.3v5c0.2-0.6,1.1-1.6,1.2-0.4v-0.7c-0.1-7.1,0-1-0.1,0.9c0,0.6,0,1.2-0.6,1.5c-0.5,0.1-1,0.1-1.5,0
					c-3-0.5-5.9-1.3-8.7-2.3c0.1,0.8,0.1,1.7,0,2.5C146.7,147.8,146.7,148.7,146.8,149.6L146.8,149.6z"/>
				<path class="st2" d="M166,134c1.5-0.9,3.2-1.8,4.8-2.6c0.7-0.3,3.3-0.9,3.2,0.7c0,0.4-0.4,0.6-0.7,0.9c-0.5,0.4-0.9,0.9-1.1,1.5
					c-0.3,1.1,0.1,2.3,1.1,2.9c0.4,0.3,0.9,0.6,1.3,0.9c0,0,0.3,0.2,0.2,0.2c-0.2,0.1,0-0.7,0-0.6c-0.3,0.1-0.6,0.2-0.9,0.2
					c-0.5,0.1-1,0.3-1.5,0.6c-3.2,2-0.1,5.9,2.6,6.4l-0.7-2.5c-1.4,1.1-3,1.5-3.5,3.5c-0.2,0.8-0.1,1.6,0.4,2.3
					c0.5,0.8,1.3,0.8,2,1.2l0.4-2.7l-5.6,1.5c-1.1,0.3-2.7,0.6-3.6-0.4v2.1c0.6-0.6,1.4-1,2.2-1.2c1-0.1,1.9-0.3,2.8-0.6
					c1.6-0.7,2.7-2.1,3.2-3.8c0.2-0.8-0.3-1.6-1.1-1.9c-0.2-0.1-0.5-0.1-0.8,0l-4.4,1.2l-2.1,0.6l-1.1,0.3c-0.9,0.2,0.1-0.1,0.3,0.8
					v0.8c-0.3,0.4-0.3,0.4,0.1,0.1c0.2-0.1,0.4-0.2,0.6-0.3c0.4-0.2,0.8-0.4,1.2-0.6c0.8-0.3,1.5-0.5,2.3-0.7
					c1.6-0.3,3.1-0.3,4.3-1.4s-0.1-2.7-1.5-2.5c-2.2,0.3-4.5,0-6.6-0.8l0.9,2.2c0.4-0.7,0.9-0.6,1.4-0.2c1.1,0.6,2.4,0.6,3.5-0.1
					c1.9-0.9,3.6-2,4.3-4c0.6-1.6-1.9-2.6-2.8-1.2c-0.6,1-1.5,0.1-2.3-0.2c-1.1-0.5-2.4-0.3-3.3,0.4l2.4,0.3
					c-0.1-0.3-0.2-0.6-0.4-0.9c0-0.3-0.1-0.7-0.2-1c0-0.3-0.1-0.3-0.3,0l0.2-0.1c0.4-0.1,0.8-0.3,1.1-0.5l2.2-0.9
					c0.6-0.4,1.3-0.7,2.1-0.9l-0.8-0.2l-0.2-0.2l-0.2-0.8v0.2l0.2-0.8c-0.4,0.8-1.1,1.4-1.9,1.6c-1,0.3-1.7,1.3-1.5,2.3
					c0.4,1.5,2,2.4,3.5,2l0,0c0.3-0.1,0.6-0.2,0.8-0.4c0.6-0.4,0.9-1.2,0.6-1.9c-0.3-0.7-1-1.1-1.8-0.9c-0.9,0.4-1.8,0.5-2.8,0.3
					c-0.8-0.2-1.6,0.2-1.9,1c-0.3,1.1-0.4,2.2-0.3,3.3c0,0.8,0.7,1.5,1.5,1.5c0.8,0,1.5-0.7,1.5-1.5c-0.1-0.8-0.1-1.7,0.1-2.5
					l-1.8,1.1c1.4,0.4,3,0.3,4.4-0.3l-1.2-2.7c-0.4,0.3,0-0.1,0.1,0.2v0.8c0,0.3-0.9,0.6-0.2,0.5c0.2-0.1,0.4-0.2,0.6-0.3
					c0.4-0.2,0.8-0.5,1.2-0.8c0.7-0.5,1.3-1.3,1.6-2.1c0.3-1-0.2-2-1.1-2.3c-1-0.3-2,0.2-2.9,0.6l-2.9,1.2c-0.9,0.3-1.7,0.7-2.5,1.3
					c-1.4,1.4-0.3,4,0.4,5.5c0.4,0.7,1.4,0.9,2.1,0.5c0,0,0,0,0,0l0,0c0.1-0.1,0.2-0.1,0.3-0.2c-0.3,0.2,0,0.1,0.1,0.2
					c0.2,0.2,0.5,0.3,0.8,0.4c0.6,0.3,1.3,0.5,2,0.5c1.3-0.1,2.5-0.8,3.1-2l-2.7-1.1c-0.4,0.7-1,1.3-1.8,1.6
					c-0.4,0.2-0.7,0.4-1.1,0.6c-0.5,0.2-0.7-0.1-1.2-0.3c-1.8-0.7-3.9,0-4.8,1.7c-0.4,0.7-0.1,1.7,0.6,2.1c0,0,0,0,0,0l0,0
					c0.1,0.1,0.2,0.1,0.3,0.1c2.6,1,5.4,1.2,8.2,0.8l-1.4-2.5c-0.5,0.5-1.5,0.4-2.2,0.5c-1,0.2-1.9,0.4-2.8,0.7
					c-1.5,0.6-4.6,1.5-4.4,3.6c0.3,2.3,2.9,1.6,4.4,1.3l6.8-1.8l-1.9-1.9c-0.4,1.3-1.6,2.2-2.9,2.2c-1.7,0.2-3.3,1-4.5,2.1
					c-0.6,0.6-0.6,1.5,0,2.1c1.4,1.5,3.4,1.7,5.4,1.4c2.3-0.5,4.5-1,6.7-1.7c0.8-0.2,1.2-1.1,1-1.9c-0.1-0.4-0.3-0.7-0.7-0.9
					c-0.1-0.1-1.3-0.6-1.3-0.5c0.2,0.3,0.3,0.4,0.3,0.3c0,0,0-0.1,0-0.1c0.1,0,0.1-0.3,0.2-0.3c0.3-0.3,0.7-0.6,1.1-0.7
					c0.5-0.3,1-0.6,1.4-1c0.6-0.6,0.6-1.5,0-2.1c-0.2-0.2-0.4-0.3-0.7-0.4c-0.8-0.1-1.2-0.7-1.8-1.2c0.4,0.3-0.5,0.2,0.1,0.2
					l0.4-0.1c1.1-0.3,2.3-0.6,2.9-1.6c0.6-1.1,0.3-2.5-0.7-3.3c-0.4-0.4-0.9-0.7-1.3-1l-0.3-0.3c0.1,0,0,0.4,0.1,0.5
					c0.3,0,1.2-1,1.3-1.3c0.4-0.6,0.7-1.4,0.6-2.2c-0.1-1.6-1.2-3-2.7-3.5c-3.4-1.3-7,1.4-9.8,3C162.8,132.3,164.3,134.9,166,134
					L166,134z"/>
				<path class="st2" d="M86,106.1c0.6-0.6,1.4-1.1,2.3-1.5c1-0.2,2-0.2,3,0.1c2.2,0.3,4.6-0.2,6.7,0.6L97,103c-0.2,0.3-0.1,0.1,0,0
					s-0.2,0.1-0.1,0.1c-0.2,0.1-0.5,0.1-0.7,0.2c-0.8,0.1-1.7,0-2.5,0.1l-5.5,0.1c-0.8,0-1.5,0.7-1.5,1.5s0.7,1.5,1.5,1.5l6.5-0.2
					c1.8,0,3.9,0,4.9-1.8c0.4-0.7,0.1-1.7-0.6-2.1c0,0,0,0,0,0l0,0c-0.1-0.1-0.2-0.1-0.3-0.1c-1.2-0.4-2.6-0.6-3.9-0.5
					c-1.3,0-2.5,0-3.8-0.2c-1.3-0.3-2.7-0.2-3.9,0.2c-1.2,0.5-2.3,1.2-3.3,2.1c-0.6,0.6-0.6,1.5,0,2.1
					C84.4,106.6,85.4,106.6,86,106.1L86,106.1z"/>
				<path class="st3" d="M80.4,117c0.4-0.2,0.9-0.3,1.3-0.3h0.4c0,0,0.5,0.2,0.2,0.1c0.2,0.1,0.2,0.1,0.1,0l0.2,0.2
					c0.2,0.2,0.4,0.4,0.7,0.6c0.3,0.2,0.8,0.4,1.1,0.7c0,0,0.2,0.2,0.1,0.1s0.3,0.5,0.2,0.3c0.3,0.7,0.3,1.5,0.1,2.3
					c-0.1,0.3-0.1,0.7-0.1,1v0.4c0,0.3,0,0.3,0.1-0.1l0.5-0.5c0.1-0.1,0.1,0,0,0l-0.4,0.1c-0.2,0.1-0.4,0.1-0.6,0.2
					c-0.6,0.1-1.1,0.1-1.7,0l1.3,2.3c0.2-0.4,0.4-0.9,0.6-1.3c0.2-0.4,0.5-0.8,0.8-1.2c0.8-1,1.8-1.8,1.8-3.1
					c-0.2-1.8-1.3-3.5-2.9-4.3c-0.6-0.2-1.2-0.4-1.9-0.6c-1.1-0.5-2.3-0.6-3.5-0.2c-1.1,0.5-2.1,1.3-2.8,2.3
					c-0.7,1.1-1.1,2.3-1.2,3.6c-0.1,0.6-0.2,1.2-0.2,1.8c0.1,0.7,0.3,1.4,0.7,2.1c0.8,1.3,2.2,1.6,3.6,1.8c1.4,0.1,2.8-0.2,4.1-0.8
					c0.5-0.3,0.8-0.8,0.8-1.3c0-1.1-0.9-1.7-1.9-2c-0.4-0.1-0.8-0.2-1.2-0.3c-0.2,0-0.3,0-0.5-0.1H80c-0.2-0.1-0.2,0,0.3,0.2
					l0.4,0.7V121l-0.4,1.5c0,0,0.3-0.3,0.2-0.2l0.3-0.1c0.2-0.1,0.5-0.2,0.8-0.3c0.6-0.2,1.3-0.4,1.9-0.6c0.8-0.2,1.2-1.1,1-1.8
					c-0.3-0.8-1.1-1.2-1.8-1c-0.4,0.1-0.8,0.1-1.2,0.1c0.2,0-0.2-0.1-0.2-0.1c0.2,0.1-0.3-0.3-0.2-0.1l-0.3,2.4
					c0.5-0.3,1-0.6,1.5-0.8c0.7-0.4,0.9-1.2,0.6-1.9c-0.3-0.7-1-1.1-1.8-0.9l-1.2,0.3l-0.6,0.1c-0.5,0.1-0.1,0,0.2,0.2
					c-0.7-0.4-1.6-0.1-2,0.5L77,119c-0.4,0.7-0.1,1.6,0.5,2c0.7,0.4,1.6,0.1,2-0.5l0.4-0.8l-2,0.5c1.1,0.7,2.7,0,3.9-0.2l-1.2-2.7
					c-0.5,0.2-1.1,0.5-1.6,0.8c-0.7,0.4-0.9,1.4-0.5,2.1l0,0c0.1,0.1,0.1,0.2,0.2,0.3c1.3,1.2,2.8,1.2,4.5,0.9l-0.8-2.9
					c-0.8,0.2-1.6,0.4-2.4,0.8c-0.8,0.3-1.6,0.8-2.1,1.5c-0.5,0.8-0.3,1.9,0.6,2.4c0.2,0.1,0.4,0.2,0.7,0.3c0.3,0.1,0.7,0.1,1.1,0.2
					l0.6,0.1l0.4,0.1c0.4,0.1,0.3,0-0.3-0.3l-0.2-0.8v0.1l0.7-1.3c-0.6,0.2-1.3,0.4-2,0.4c-0.3,0-0.7,0-1-0.1l-0.6-0.2
					c-0.4-0.1,0.1,0,0.1,0.1s-0.4-0.7-0.4-0.8c0-0.3,0-0.7,0.1-1c0-0.8,0.3-1.6,0.7-2.3c0.4-0.5,0.8-0.9,1.4-1.2
					c0.2-0.1,0.4-0.1,0.7-0.1c0.4,0.1,0.8,0.2,1.1,0.3c0.4,0.1,0.8,0.2,1.2,0.3c0.3,0.1,0.5,0.2,0.7,0.5c0.2,0.2,0.4,0.4,0.6,0.7
					c0.1,0.1,0.1,0.2,0.2,0.3v0.2l0,0l-0.1,0.1c-0.2,0.2-0.3,0.3-0.5,0.5c-0.4,0.4-0.7,0.8-1,1.2c-0.3,0.3-0.5,0.7-0.7,1.1
					c-0.1,0.3-0.2,0.6-0.3,0.8l-0.1,0.2c0.1-0.2-0.1,0.2-0.1,0.2c-0.3,0.5-0.3,1.1,0,1.5c0.3,0.5,0.8,0.7,1.3,0.7
					c0.9,0.1,1.8,0,2.7-0.2c1-0.2,2.1-0.5,2.4-1.6c0.1-0.4,0.1-0.9,0.1-1.3c0-0.4,0.1-0.9,0.2-1.3c0.1-0.8,0-1.7-0.3-2.5
					c-0.2-0.8-0.6-1.5-1.2-2c-0.3-0.3-0.7-0.5-1.1-0.7c-0.2-0.1-0.5-0.3-0.7-0.5c-1.5-1.3-3.3-1.2-5.1-0.7c-0.8,0.3-1.2,1.2-0.9,1.9
					c0.3,0.7,1,1.1,1.7,0.9L80.4,117z"/>
				<path class="st3" d="M89.5,118.8c0.5-0.4,0.9-0.9,1.3-1.5c0.1-0.2,0-0.1,0,0s-0.1,0.1,0.1,0c-0.1,0-0.2,0.1,0,0h0.9
					c0.2,0,0.4,0.1,0.6,0.1c0.4,0.1,0.8,0.2,1.2,0.2c0.3,0,0.7,0,1-0.1h0.2c-0.2-0.1,0.2,0.1,0.2,0.1s0.3,0.2,0.4,0.3
					c-0.2-0.1,0.2,0.2,0.2,0.2c-0.2-0.2,0.1,0.1,0.1,0.2s0.2,0.4,0.1,0.2c0.2,0.6,0.3,1.1,0.4,1.7c0.1,0.3,0.1,0.6,0.2,1
					s0,0.2,0,0.1v0.2c0,0.2,0,0.3,0,0.5c0,0.4,0,0.7-0.1,1.1l-0.1,0.5v0.2c0,0.3,0,0.2,0.1-0.3l0.5-0.5h-0.1l1.2-0.2
					c0.2,0.1,0.3,0.1,0.1,0l-0.3-0.2c-0.2-0.1-0.4-0.2-0.6-0.3c-0.5-0.2-0.9-0.4-1.4-0.5v2.9c0.9-0.3,1.6-1.2,1.6-2.2
					c0-0.8-0.3-1.6-0.8-2.2c-0.5-0.6-1.1-1.1-1.8-1.5c-0.7-0.3-1.5-0.6-2.3-0.8c-0.7-0.2-1.4-0.4-2.1-0.6c-1.1-0.3-2.2,0.3-2.5,1.4
					c0,0,0,0,0,0l0,0v0.1c0,0.4,0,0.9,0.2,1.3v0.3c0,0.2,0,0.4,0,0.6v0.9c0,0-0.1,0.3-0.1,0.4c0.1-0.2,0.1-0.2,0,0
					c0.1-0.2,0.3-0.3,0.5-0.4c-0.7,0.2-1.1,0.8-1.1,1.4c0,0.6,0.5,1.2,1.1,1.4c0.5,0.2,1.1,0.1,1.6-0.1l0.3-0.1h0.4
					c0.2,0,0.3,0,0.5-0.1c1-0.4,1.8-1.3,1.9-2.5l-2.5,0.7c0.3,0.4,0.6,0.7,1,1c0.2,0.1,0.4,0.3,0.6,0.4l0.3,0.1
					c0.6,0.3-0.4-0.2-0.2-1l2.2-0.9l-0.7-0.4c-0.7-0.4-1.6-0.1-2,0.5c-0.4,0.7-0.1,1.6,0.5,2l0.7,0.4c0.7,0.4,1.6,0.2,2.1-0.6
					c0.1-0.1,0.1-0.2,0.1-0.3c0.2-1-0.3-2-1.2-2.3c-0.1-0.1-0.3-0.1-0.4-0.2l-0.2-0.1l0,0c-0.2-0.2-0.5-0.4-0.7-0.7
					c-0.6-0.6-1.5-0.6-2.1,0c0,0,0,0,0,0c-0.2,0.2-0.3,0.4-0.4,0.6c0,0.1,0,0.2-0.1,0.4c0,0.1,0.1-0.1,0,0l0,0
					c0.1-0.1,0.2-0.1,0.4-0.2c-0.2,0.1-0.6,0.1-0.9,0.2l-0.4,0.1c-0.4,0.2,0.6,0.1,0.2,0v3c1.2-0.2,1.6-1.5,1.8-2.6
					c0.1-0.5,0.1-1.1,0.1-1.6c0-0.3-0.1-0.7-0.1-1c0-0.1,0-0.3-0.1-0.4v-0.2c-0.1-0.2-0.1-0.1,0,0.4l-0.4,0.7
					c-0.2,0.2-0.5,0.3-0.8,0.2h0.1l0.5,0.1l1,0.3c0.6,0.2,1.2,0.3,1.9,0.5c0.1,0,0.3,0.1,0.1,0c0.1,0.1,0.3,0.1,0.4,0.2
					c-0.2-0.2,0.1,0.1,0.1,0.1s0.3,0.3,0.1,0.1c0.1,0.1,0.2,0.2,0.2,0.3c0,0,0.3,0.4,0.1,0.2c0.1,0.1,0,0.2,0,0s0.3-0.4,0.6-0.5
					c-0.8,0.2-1.3,1-1,1.8c0.1,0.5,0.5,0.9,1,1l0.5,0.2l0.2,0.1l0,0c0.3,0.2,0.6,0.4,0.9,0.5c0.5,0.3,1.2,0.3,1.7,0
					c0.5-0.4,0.9-1,0.8-1.7c0.3-1.6,0.2-3.2-0.2-4.7c-0.1-0.7-0.3-1.4-0.6-2.1c-0.4-0.8-1-1.4-1.7-1.8c-0.7-0.5-1.6-0.7-2.5-0.7
					h-0.8c-0.4-0.1-0.9-0.2-1.3-0.3c-0.9-0.1-1.9,0-2.7,0.5c-0.4,0.3-0.8,0.6-1,1.1l-0.2,0.4l-0.1,0.2c-0.1,0.1,0.1-0.1,0.2-0.2
					c-0.7,0.4-0.9,1.4-0.5,2.1c0.4,0.7,1.3,0.9,2,0.5L89.5,118.8z"/>
				<path class="st3" d="M91,116.1C91,116.1,91,116.1,91,116.1l0.2,0.3c0,0,0-0.1,0-0.1v0.4c0,0,0-0.1,0-0.1v0.4c0,0,0-0.1,0-0.1
					c0.1-0.2,0.1-0.4,0-0.6c0-0.2-0.1-0.4-0.2-0.6c-0.1-0.2-0.2-0.3-0.4-0.4c-0.1-0.1-0.3-0.2-0.5-0.3h-0.4c-0.3,0-0.5,0.1-0.8,0.2
					l-0.3,0.2c-0.2,0.2-0.3,0.4-0.4,0.7v0.6l0,0v0.4l0,0v0.1l0,0c0,0.1,0.1,0.2,0.2,0.4l0,0v0.1c0.1,0.2,0.2,0.3,0.4,0.4
					c0.1,0.1,0.3,0.2,0.5,0.3c0.2,0.1,0.4,0.1,0.6,0c0.2,0,0.4-0.1,0.6-0.2l0.3-0.2c0.2-0.2,0.3-0.4,0.4-0.7v-0.4
					C91.1,116.6,91.1,116.3,91,116.1L91,116.1z"/>
				<path class="st3" d="M83.4,113.7l-2.3,0.1c-0.4,0-0.7,0-1.1,0c-0.5,0-1,0-1.5,0.1c-0.8,0.2-1.2,1.1-1,1.8
					c0.1,0.4,0.3,0.7,0.7,0.9l0.3,0.2c0.3,0.1,0.5,0.1,0.8,0h-0.3c0.4,0,0.7,0,1.1,0c0.4,0,0.7,0,1.1,0l2.2-0.1
					c0.8,0,1.5-0.7,1.5-1.5S84.2,113.7,83.4,113.7L83.4,113.7z"/>
				<path class="st4" d="M111.5,120.1l2.7,2.2c0.3,0.3,0.7,0.4,1.1,0.4c0.3,0,0.6-0.1,0.9-0.3c0.6-0.5,0.8-1.3,0.4-1.9
					c-0.4-0.7-0.8-1.4-1.1-2.1l0.2,0.4l-0.2-0.4l-1,1.8h0.1l-0.4,0.1H114l-0.4-0.2c0.1,0,0.2,0.1,0.2,0.1l-0.3-0.2
					c0.4,0.3,0.7,0.7,1.1,1l1.1,1c0.6,0.6,1.6,0.5,2.1-0.1c0.5-0.6,0.5-1.5,0-2l-1.6-1.4c-0.7-0.7-1.6-1.6-2.7-1.1
					c-0.4,0.1-0.7,0.4-0.9,0.7c-0.2,0.3-0.3,0.8-0.2,1.2c0.4,1,0.9,2,1.4,2.9l2.4-1.8l-2.7-2.2c-0.3-0.3-0.7-0.4-1.1-0.4
					c-0.8,0-1.5,0.7-1.5,1.5C111.1,119.5,111.2,119.8,111.5,120.1L111.5,120.1z"/>
				<path class="st2" d="M101.2,112c3.1,2.1,5.9,4.6,8.3,7.4c0.6,0.6,1.6,0.6,2.1,0c0.4-0.4,0.5-0.9,0.4-1.4
					c-0.6-1.7-1.3-3.3-2.3-4.9c-0.8-1.2-1.7-2.8-3.2-3c-0.8-0.2-1.6,0.3-1.8,1.1l0,0c-0.1,0.5,0,1,0.4,1.4l6.3,6.6
					c1.4,1.4,3.3-0.7,2.1-2.1l-1.7-2.1l-2.1,2.1c1.8,1.5,3.4,3.2,4.9,5c0.9,1.2,2.9-0.1,2.5-1.5c-0.9-2.9-2.4-5.5-4.2-7.8
					c-0.9-1.2-3,0.1-2.5,1.5c0.8,2.1,2,4,3.5,5.7c1.6,2,3.2,4,4.8,5.9c0.9,1.1,3.1-0.1,2.5-1.5c-0.5-1.1-1-2.2-1.6-3.3l-2.6,1.5
					c1.7,2.2,3.2,4.6,4.6,7c0.9,1.7,3.5,0.2,2.6-1.5l-3.5-6.9c-0.4-0.9-0.9-1.8-1.6-2.5c-0.8-0.6-1.7-1.1-2.7-1.4
					c-0.8-0.2-1.6,0.3-1.8,1.1c0,0,0,0,0,0l0,0c-0.1,0.4,0,0.8,0.2,1.1l1.4,2.3l0.9-2.2c-0.9,0.3-2.2-0.3-3.1-0.6s-2-0.7-3-1
					c-1-0.4-2-0.8-3-1.3c-1-0.5-1.5-0.8-1.8-1.9c-0.4-1.8-1.3-3.4-2.5-4.8c-1.1-1.2-3.2-2.5-4.6-1c-0.6,0.6-0.6,1.5,0,2.1
					c0,0,0,0,0,0c0.1,0.1,0.2,0.1,0.3,0.2c2.2,1.2,4.3,2.4,6.5,3.6c0.7,0.4,1.6,0.1,2-0.6c0.3-0.6,0.2-1.3-0.2-1.7
					c-0.6-0.6-1.1-1.3-1.5-2l-2,2l5.6,2.7c0.8,0.3,1.7,0,2-0.8c0.2-0.5,0.1-1.1-0.2-1.6c-1.8-2.1-4,1.2-4.9,2.4
					c-1.6,2.1-3,4.3-4.3,6.7l2.7,1.2c0.5-3,0.8-6.4-1.1-9.1c-0.7-0.9-2.4-1-2.7,0.4l-0.5,2.2h2.9l-0.6-3.5c-0.3-1.6-2.5-1.3-2.9,0
					c-0.1,0.3-0.3,0.5-0.5,0.7c-0.7,0.4-1,1.4-0.5,2.1c1.3,2.3,2.7,4.6,4.2,6.9l2.1-2c-2-0.8-2.6-3.5-4-5c-0.6-0.6-1.6-0.6-2.1,0
					c-0.4,0.4-0.5,0.9-0.4,1.4c0.5,2,1,4.1,1.3,6.2c0,0.6,0.1,1.1,0.2,1.7v0.3c0.6,0.3,1.3,0.1,1.8-0.4c0.7-0.5,1.5-1,2.3-1.4
					l-1.8-1.8c-0.2,0.7-0.3,1.4-0.3,2.1c0,0.8,0.7,1.5,1.5,1.5c0.3,0,0.5-0.1,0.7-0.2c1.5-1.1,2.8-2.3,4-3.7l-2.4-1.8
					c-0.5,0.7-1,1.3-1.6,1.9l2.6,1.4v-0.2l-2-2c-1.9,4.1-4,8.1-6.2,12c-0.4,0.7-0.1,1.6,0.6,2c0.4,0.2,0.9,0.2,1.4,0
					c1.1-0.7,2.1-1.6,2.9-2.8c0.4-0.7,0.2-1.6-0.5-2.1c-0.7-0.5-1.6-0.6-2.4-0.3l1.9,1.4c0-1,0-2.1,0.2-3.1c0.3-1.9-2.5-2.7-2.9-0.8
					c-0.2,1-1.3,1.7-2.1,2.3c-1,0.8-1.9,1.6-3,2.3c-0.7,0.4-1,1.3-0.5,2.1c0.4,0.7,1.3,1,2.1,0.5l0,0l0,0c0.9-0.4,1.7-1,2.3-1.7
					c1-1,0-3-1.5-2.5c-3.3,1.2-6.6,2.2-9.9,3c-1.6,0.4-1.3,3.2,0.4,2.9l0.6-0.1l-1.5-1.5c0.2-0.3,0.1-0.3-0.3,0l-0.7,0.4
					c-0.4,0.2-0.8,0.4-1.1,0.6c-0.9,0.4-1.9,0.8-2.9,1.1l1.2,2.7c1.7-0.7,3.3-1.5,5-2.4c0.7-0.5,0.9-1.4,0.5-2.1
					c-0.3-0.5-1-0.8-1.6-0.7c-0.7,0.2-1.3,0.7-1.7,1.3c-0.4,0.7-0.1,1.6,0.6,2.1c0.3,0.2,0.7,0.2,1.1,0.1l3.6-0.9c1-0.2,2-0.7,3-0.3
					l-0.7-2.5c-1,0.8-2,1.4-3.2,1.9l2,2c0.6-0.9,1.5-1.7,2.6-2.1l-1.5-2.6c-2.2,1.1-4.3,2.3-6.3,3.6c-0.7,0.4-0.9,1.3-0.5,2.1l0,0
					c0.2,0.3,0.5,0.5,0.8,0.6l2.6,0.9l0.4-2.9c-1.2,0.1-2.5,0-3.7-0.2l-0.4,3l4.2,0.1c1.4,0,2.7,0.4,3.7-0.9s1.7-2.2,2.6-3.3
					c0.5-0.6,1.6-2.4,2.5-2.2l-1-1.8c-0.1,0.9-0.5,1.7-1,2.4c-1.2,1.5,1.4,3,2.6,1.5c0.7-0.9,1.2-2,1.3-3.1c0.2-0.8-0.2-1.6-1-1.9
					c-1.8-0.5-3.3,0.5-4.5,1.9c-1.5,1.6-2.8,3.4-4.1,5.2l1.1-0.7l-6.4-0.2c-1.6-0.1-2.1,2.7-0.4,2.9c1.5,0.2,3,0.3,4.5,0.3
					c0.8,0.1,1.6-0.5,1.7-1.3c0.1-0.8-0.5-1.6-1.3-1.7l-2.6-0.9l0.4,2.7c2-1.3,4.2-2.5,6.4-3.6c1.7-0.9,0.2-3.4-1.5-2.6
					c-1.5,0.7-2.7,1.8-3.6,3.2c-1,1.4,0.8,2.6,2,2.1c1.4-0.6,2.6-1.4,3.8-2.3c1-0.8,0.2-2.1-0.7-2.5c-1.2-0.4-2.4-0.4-3.6,0
					l-4.5,1.1l1.7,2.2l-0.1,0.1l-1.2-2.7c-1.6,0.9-3.3,1.6-5,2.4s-0.4,3.2,1.1,2.7c1.6-0.5,3.1-1.1,4.5-1.9c1.2-0.7,2.8-1.5,2.7-3.2
					c0-0.8-0.7-1.5-1.5-1.5c0,0,0,0,0,0l0,0l-0.6,0.1l0.4,3c3.4-0.8,6.7-1.8,9.9-3l-1.5-2.5c-0.5,0.5-1.1,1-1.7,1.3l1.5,2.6
					c1.3-1,2.7-2,3.9-3.1c1.2-0.8,2.1-2,2.5-3.4l-2.9-0.8c-0.2,1.3-0.3,2.6-0.3,3.9c0,0.8,0.7,1.5,1.5,1.5l0,0c0.1,0,0.3,0,0.4-0.1
					h0.1l-0.5-2c-0.5,0.7-1.1,1.3-1.8,1.7l2,2.1c2.2-3.9,4.3-7.9,6.2-12c0.6-1.3-0.7-2.9-2-2c-0.7,0.4-1.3,1.2-1.4,2
					c-0.2,0.8,0.3,1.6,1.1,1.8c0.5,0.1,1,0,1.4-0.4c0.8-0.8,1.5-1.6,2.1-2.5c1-1.4-1.2-3.1-2.3-1.8c-1,1.2-2.2,2.3-3.4,3.2l2.3,1.3
					c0-0.5,0.1-0.9,0.2-1.3c0.3-1-0.8-2.3-1.8-1.8c-1.7,0.7-3.7,1.6-4.5,3.3c-0.7,1.2-0.2,2.8,1,3.4c0,0,0,0,0,0l0,0
					c0.3,0.2,0.7,0.3,1.1,0.3c2.4,0,2.2-2.6,1.9-4.2c-0.3-2.4-0.8-4.7-1.4-7.1l-2.5,1.4c1.7,1.7,2.2,4.4,4.6,5.5c1.2,0.5,3-0.7,2-2
					c-1.4-2.3-2.8-4.6-4.2-6.9l-0.5,2.1c0.9-0.6,1.6-1.4,1.9-2.5H100l0.6,3.5c0.2,1.5,2.6,1.4,2.9,0l0.5-2.2l-2.8,0.4
					c1.5,2,1.2,4.5,0.8,6.8c-0.2,1.6,1.9,2.8,2.7,1.2c0.8-1.5,1.7-3,2.7-4.5c0.5-0.7,1-1.4,1.5-2c0.3-0.4,0.6-0.8,0.9-1.1l0.3-0.3
					c0.6-0.5,0.3-0.7-0.8-0.5l1.8-2.4l-5.6-2.7c-1.3-0.6-2.9,0.7-2,2c0.6,0.9,1.2,1.8,2,2.6l1.8-2.4c-2.2-1.2-4.4-2.3-6.5-3.6
					l0.3,2.4c-0.8,0.1-0.9,0.2-0.4,0.3C100.9,111.6,101.1,111.8,101.2,112c0.3,0.2,0.5,0.5,0.7,0.8c0.5,0.7,0.9,1.5,1.2,2.3
					c0.5,2,1.1,3.2,3.1,4.2c1.9,1,3.8,1.8,5.8,2.4c1.7,0.6,4,1.6,5.8,0.9c0.8-0.2,1.2-1.1,1-1.9c0-0.1-0.1-0.2-0.1-0.3l-1.4-2.3
					l-1.7,2.2c0.7,0.2,1.4,0.6,1.9,1.2c0.5,0.8,1,1.7,1.4,2.7l2.8,5.6l2.6-1.5c-1.4-2.4-2.9-4.8-4.6-7c-1.1-1.5-3.6-0.2-2.6,1.5
					c0.5,0.8,1,1.7,1.3,2.6l2.5-1.5l-4.3-5.3c-1.4-1.5-2.5-3.3-3.3-5.2l-2.5,1.5c1.5,2,2.7,4.2,3.4,6.5l2.5-1.5
					c-1.4-1.9-3.1-3.5-4.9-5c-0.7-0.5-1.6-0.3-2.1,0.4c-0.3,0.5-0.4,1.1-0.1,1.6l1.7,2.1l2.1-2.1l-6.3-6.6l-1.4,2.4
					c0.8,0.1,1.5,1.7,1.9,2.4c0.6,1.1,1.1,2.2,1.5,3.4l2.5-1.4c-2.6-3-5.7-5.6-8.9-7.9c-1.6-1.1-3.1,1.5-1.5,2.6V112z"/>
				<path class="st2" d="M98.2,139.4l2.7-4.4c1-1.6-1.1-2.8-2.3-1.8c-0.9,0.7-1.7,1.4-2.5,2c-0.9,0.6-1.8,1.4-2.5,2.2
					c-0.6,0.7-0.6,1.7-0.1,2.5c0.7,0.7,1.6,1.1,2.5,1.3c1.6,0.6,2.7-1.9,1.2-2.7c-1-0.5-2.3-1.1-3.3-0.3s-0.7,1.8-0.2,2.8l-0.2-1.2
					v0.2l1.4-1.1h-0.3l-0.8,2.8c3.2,0.1,6.5-1,7-4.5l-2.8,0.8c0.2,0.2,0.3,0.5,0.2,0.8c-0.2,0.8,0.3,1.6,1.1,1.8
					c0.8,0.2,1.6-0.3,1.8-1c0.9-2.6,2.3-4.9,3.9-7.1l-2.5-1.5c-0.2,0.8-0.5,1.6-1,2.3l2.6,1.1c0-0.2,0-0.5,0.1-0.7l-2.9-0.8
					c-0.3,1.8-0.8,3.6-1.5,5.3c-0.4,0.7-0.1,1.7,0.6,2.1c0,0,0,0,0,0l0,0c0.2,0.1,0.5,0.2,0.7,0.2c0.5,0,1-0.1,1.4-0.4
					c0.2-0.1,0.4-0.2,0.5-0.4l0.2-0.2c0.4-0.4,0-0.8-1.3-1h2c0.3,0.3,0,0.5,0.2,0.1c0.1-0.3,0.1-0.5,0.2-0.8
					c0.1-0.6,0.3-1.2,0.5-1.8c0.4-1.1,1-2.2,1.6-3.1l-2.8-0.8c-0.2,1.7-0.6,3.3-1.3,4.9l3,0.4c-0.1-4.2,1.2-8.1,2.6-12
					c0.6-1.8-2.2-2.6-2.9-0.8l-1.4,3.9c-0.7,1.8,2.2,2.6,2.9,0.8c0.8-2.1,2-4,3.5-5.7l-2.5-1.5c-0.4,1.1-1,2-1.8,2.8l2.3,1.8
					c0.6-1.2,1.3-2.4,2.2-3.4l-2.5-0.7c0.5,2-0.3,4.4-0.6,6.3c-0.2,1.1-0.4,2.2-0.6,3.3c-0.1,0.5-0.2,0.9-0.3,1.4l-0.2,0.9
					c-0.1,0.4-0.1,0.4,0.1,0.1l2.2,0.9c-0.2-1-0.2-2,0-3c0.4-1.9-2.4-2.7-2.9-0.8l-1.6,6.3c-0.3,1.2,1.1,2.5,2.2,1.7
					c2.6-1.9,4.7-4.8,3.9-8.2c-0.3-1.4-1.2-3-2.7-3.3c-1.2-0.2-2.3,0.6-2.6,1.8l0,0c-0.1,0.3,0,0.7,0.1,1c0.2,0.8,1.1,1.2,1.9,1
					c0.4-0.1,0.6-0.3,0.8-0.6l6.6-10.7l-2.8-0.8c-0.1,1.6-1,2.9-1.5,4.4c-0.4,1.6-0.5,3.3-0.4,5l2.9-0.4c-0.2-0.6-0.7-1.2-1.2-1.6
					c-0.7-0.4-1.6-0.1-2,0.5c-0.1,0.1-0.1,0.2-0.2,0.4c-0.3,1.1-0.4,2.2-0.3,3.3c0,0.8,0.7,1.5,1.5,1.5c0.7,0,1.2-0.4,1.4-1.1
					c0.7-2.1,1.4-4.3,1.9-6.4l-3-0.4l0.9,7.3c0,0.8,0.7,1.5,1.5,1.5s1.5-0.7,1.5-1.5c0.2-2.1,0.5-4.1,0.9-6.1l-2.7,0.3l0.8,1.2
					c0.5,0.7,1.4,0.9,2.1,0.5c0.4-0.3,0.7-0.7,0.7-1.2c0-1.3-0.2-2.6-0.6-3.9l-2.7,1.2l1.8,2.6l2.3-1.8c-0.9-0.9-1.5-1.9-2-3l-2,2
					c2,1.3,3.7,3.2,4.6,5.5c0.7,1.8,3.6,1,2.9-0.8c-1.2-3-3.3-5.5-6-7.3c-1.4-0.9-2.6,0.8-2,2c0.6,1.4,1.4,2.6,2.5,3.6
					c1.2,1.1,3.4-0.4,2.4-1.8l-1.8-2.6c-0.9-1.3-3.3-0.6-2.8,1.2c0.3,1,0.5,2,0.5,3.1l2.8-0.8l-0.8-1.2c-0.4-0.7-1.4-0.9-2.1-0.5
					c0,0,0,0,0,0l0,0c-0.3,0.2-0.5,0.5-0.6,0.8c-0.5,2.3-0.8,4.6-1,6.9h3l-0.9-7.3c-0.2-1.6-2.5-2.2-2.9-0.4
					c-0.6,2.2-1.2,4.3-1.9,6.5l3,0.4c-0.1-0.8,0-1.7,0.2-2.5l-2.2,0.9l-0.2-0.2c0.1,0.8,0.9,1.4,1.7,1.3s1.4-0.9,1.3-1.7
					c-0.1-1.7,0.1-3.4,0.6-5c0.7-1.4,1.1-2.9,1.3-4.4c0.1-1.6-2.1-1.9-2.8-0.8l-6.6,10.7l2.8,0.4l-1,1c0.1,0.2,0.2,0.3,0.2,0.5
					c0.1,0.2,0.1,0.5,0.2,0.7c0.1,0.6,0,1.3-0.3,1.9c-0.5,1.1-1.3,2.1-2.3,2.8l2.2,1.7l1.6-6.3l-2.9-0.8c-0.3,1.5-0.3,3.1,0,4.6
					c0.3,0.8,1.1,1.2,1.9,1c0.1,0,0.2-0.1,0.3-0.1c1.1-0.6,1.3-1.7,1.5-2.8c0.3-1.5,0.6-3,0.8-4.4c0.5-2.6,1.3-5.5,0.7-8.2
					c-0.2-0.8-1.1-1.2-1.9-1c-0.2,0.1-0.4,0.2-0.6,0.4c-1.1,1.2-1.9,2.6-2.6,4c-0.7,1.4,1.1,3.1,2.4,1.8c1.1-1.2,2-2.6,2.5-4.2
					c0.2-0.8-0.3-1.6-1.1-1.8c0,0,0,0,0,0l0,0c-0.5-0.1-1,0-1.4,0.4c-1.8,2.1-3.2,4.5-4.2,7l2.9,0.8l1.4-3.9l-2.9-0.8
					c-1.4,4.1-2.8,8.4-2.7,12.8c-0.1,0.8,0.5,1.6,1.3,1.7s1.6-0.5,1.7-1.3c0.7-1.8,1.2-3.8,1.4-5.7c0.2-1.6-2.1-1.9-2.8-0.8
					c-1,1.5-1.8,3.1-2.2,4.9c-0.4,1.4-0.9,3.3,0.2,4.4c0.6,0.6,1.5,0.6,2.1,0c0.9-1.1,1.4-2.8,0-3.7c-0.6-0.4-1.3-0.5-1.9-0.2
					c-0.3,0.1-0.5,0.3-0.7,0.4c-0.2,0.1-0.8,0.4-0.3,0.4l1.3,2.3c0.8-1.9,1.4-3.9,1.8-5.9c0.2-0.8-0.3-1.6-1.1-1.8
					c-0.8-0.2-1.5,0.3-1.7,1c-0.2,0.5-0.3,1-0.2,1.5c0,1.2,1.7,2.1,2.6,1.1c0.9-1,1.5-2.3,1.8-3.6c0.3-1.3-1.5-2.7-2.5-1.5
					c-2,2.5-3.6,5.4-4.7,8.4l2.9,0.8c0.2-1.1,0-2.2-0.6-3.1c-0.4-0.7-1.4-0.9-2.1-0.5c-0.4,0.3-0.7,0.7-0.7,1.2
					c-0.2,1.6-2.8,1.6-4,1.5c-1.4-0.1-2.2,2.2-0.8,2.8c0.6,0.3,1.2,0.4,1.8,0.4c0.7,0,1.3-0.5,1.4-1.1c0.1-0.7-0.2-1.1-0.3-1.7
					l-0.4,1.5c-0.6,0.2-0.6,0.4-0.1,0.5l1.2-2.7l-0.8-0.3c-0.5-0.2-0.6-0.2-0.2,0l0.4,1.1c-0.1,0.3,0,0.2,0.3-0.2
					c0.2-0.2,0.5-0.4,0.7-0.6l1.1-0.9c0.8-0.7,1.7-1.4,2.5-2l-2.4-1.8l-2.9,4.4c-0.4,0.7-0.2,1.6,0.5,2.1
					C96.9,140.3,97.8,140,98.2,139.4L98.2,139.4L98.2,139.4z"/>
				<path class="st2" d="M116.7,137.4c0.4-2.1,1.8-4,1.4-6.2c-0.3-1.9-2.4-3.9-4.1-2c-0.6,0.9-1.2,1.8-1.7,2.8
					c-0.2,0.4-0.6,0.5,0.1,0.4s0.4-0.4,0.2,0.2s0,0.3,0.4,0.1l0.7-0.4c1.9-1.1,3.6-2.6,4.9-4.4c0.9-1.2-0.8-2.8-2.1-2
					c-1,0.6-1.9,1.5-2.5,2.4c-0.4,0.7-0.1,1.6,0.5,2c2.9,1.4,5.5-1.7,7.1-3.8l-2.5-0.7c0.1,0.9,0,1.8-0.4,2.7
					c-0.3,0.9-0.5,1.9-0.4,2.9c0.1,0.9,0.9,1.8,1.9,1.4l2-0.8l-1.9-1.4c0.1,0.9-0.3,1.7-1,2.2l2.2,1.7c0.2-0.7,0.4-1.3,0.8-1.9
					l-2.7-1.1c-0.7,2.6-1.9,5.1-3.4,7.3c-1,1.4,1.2,3,2.4,1.8c2.7-2.8,0.8-6.1,1.1-9.4c0.2-1.7-2.6-2-3-0.4
					c-0.6,2.3-1.1,4.6-1.8,6.9l2.7-0.4c-0.5-0.9-1.6-1.2-2.6-0.7l0,0c-1,0.6-1.2,2-1.6,3l2.9,0.8l0.3-1.1c0.4-1.6-2-2.7-2.8-1.2
					c-0.4,0.9-0.6,1.8-0.6,2.8l1.5-1.5c-0.7,0-1.3,0.1-2,0.2l1.8,1c-0.6-2.1-0.5-4.3,0.4-6.3l-2.8-0.8c-0.2,2.1-0.6,4.1-1.2,6.1
					l3,0.4l-0.2-6.4c0-1.4-2.1-2.2-2.8-0.8l-1.3,2.8l2.7,0.4l-0.3-1.2c-0.3-0.8-1.1-1.3-1.9-1c0,0,0,0,0,0l0,0
					c-0.3,0.1-0.6,0.3-0.8,0.6c-0.5,0.8-0.9,1.7-1.2,2.6l3,0.4c0.1-0.6,0.4-1.2,0.8-1.6l-2.5-0.7c0.3,2.3,0,4.7-0.9,6.9l2.9,0.8
					l1.1-3.1c0.6-1.5-1.5-2.3-2.5-1.4c-1.3,1.1-2.5,2.5-3.4,4c-0.4,0.7-0.2,1.6,0.6,2.1c0.1,0.1,0.2,0.1,0.3,0.1
					c1.7,0.3,3.4,0.1,5.1-0.4l-1.8-1.9c0,0.2-0.2,0.3-0.4,0.3l1.5,2.6l2.6-1.9c1.5-1.1,0.1-3.7-1.5-2.6c-4.6,3-10.3,3.4-14.8,6.6
					c-0.7,0.5-0.8,1.4-0.3,2.1c0.3,0.5,0.9,0.7,1.5,0.6c3.7-0.7,7.5-1.5,10.7-3.6c1.3-0.9,0.5-3.4-1.2-2.7c-4.3,1.5-8.5,3.6-12.4,6
					c-0.8,0.4-1.1,1.3-0.7,2c0.3,0.7,1.2,1.1,1.9,0.8l0,0c2.4-0.6,3.7-3,5.3-4.6c1.9-1.9,4-3.6,6.2-5.2l-2-2.1
					c-1.4,2.1-3.5,3.5-5.6,4.9l1.5,2.6c2.2-1.7,4.5-3.3,6.6-5c1.8-1.4,3.4-3.8,2.2-6.1c-0.5-1-1.6-1.5-2.7-1.3c-1,0.4-1.9,1.1-2.5,2
					c-1.5,2-3.3,3.8-5.3,5.3c-1.6,1.1-0.1,3.7,1.5,2.6c1.4-0.9,2.6-2,3.7-3.3c0.6-0.6,1.1-1.3,1.7-1.9c0.2-0.3,1.7-1.6,1.6-1.9
					l-0.7-0.1c0,0.3,0,0.6-0.2,0.8c-0.2,0.4-0.4,0.7-0.8,1c-0.7,0.6-1.4,1.2-2.1,1.7l-4.6,3.6c-1.5,1.1-0.1,3.7,1.5,2.6
					c2.5-1.6,5-3.4,6.6-5.9c0.8-1.2-0.8-3-2-2.1c-2,1.5-4,3-5.8,4.7c-0.9,0.8-1.7,1.7-2.5,2.6c-0.7,0.8-1.4,1.9-2.5,2.2l1.2,2.7
					c3.6-2.3,7.5-4.2,11.5-5.7l-1.2-2.8c-3,2-6.5,2.6-10,3.3l1.2,2.7c4.5-3.2,10.2-3.6,14.8-6.6l-1.5-2.6l-2.5,1.9
					c-0.7,0.4-0.9,1.4-0.5,2.1c0.4,0.7,1.3,0.9,2,0.5c0.9-0.4,1.5-1.2,1.8-2.1c0.2-0.8-0.3-1.6-1.1-1.9c-0.2-0.1-0.5-0.1-0.8,0
					c-1.1,0.4-2.3,0.5-3.5,0.4l0.9,2.2c0.8-1.3,1.7-2.5,2.9-3.4L110,139l-1.1,3.1c-0.7,1.8,2.2,2.6,2.9,0.8c1-2.7,1.3-5.6,0.9-8.5
					c-0.2-0.8-1.1-1.2-1.8-1c-0.2,0.1-0.5,0.2-0.7,0.4c-1,1-1.6,2.3-1.7,3.8c-0.2,1.7,2.5,2,3,0.4c0.2-0.7,0.5-1.3,0.9-1.9l-2.7-0.4
					l0.3,1.2c0.3,1.1,2.2,1.6,2.7,0.4l1.3-2.8l-2.8-0.8l0.2,6.4c-0.1,0.8,0.5,1.6,1.3,1.7s1.6-0.5,1.7-1.3c0.7-2.3,1.1-4.6,1.3-6.9
					c0.1-1.4-2.2-2.1-2.8-0.8c-1.3,2.7-1.5,5.8-0.7,8.6c0.3,0.8,1.1,1.2,1.8,1c0.4-0.1,0.8-0.1,1.2-0.1c0.8,0,1.5-0.7,1.5-1.5
					c-0.1-0.4,0-0.9,0.2-1.3l-2.8-1.1l-0.3,1.1c-0.5,1.9,2.3,2.6,2.9,0.8l0.3-0.9l0.1-0.4c0.2-0.6-0.1-0.4-1,0.3l-0.9-0.7l0.1,0.2
					c0.5,0.7,1.4,0.9,2.1,0.5c0.3-0.2,0.5-0.5,0.6-0.8c0.6-2.3,1.2-4.6,1.8-6.9l-3-0.4c0,1.4,0.1,2.7,0.3,4.1
					c0.3,1.1,0.1,2.3-0.6,3.2l2.3,1.8c1.7-2.4,3-5.1,3.7-8c0.2-0.8-0.3-1.6-1.1-1.8c-0.6-0.1-1.2,0.1-1.6,0.7
					c-0.5,0.8-0.9,1.7-1.1,2.6c-0.2,0.8,0.3,1.6,1.1,1.8c0,0,0,0,0,0l0,0c0.4,0.1,0.8,0,1.1-0.1c1.6-1,2.6-2.8,2.5-4.8
					c0-0.8-0.7-1.5-1.5-1.5c-0.1,0-0.3,0-0.4,0.1l-2,0.8l1.9,1.4c-0.2-2.2,1.4-4.1,0.7-6.3c-0.2-0.8-1.1-1.2-1.9-1
					c-0.2,0.1-0.5,0.2-0.6,0.4c-0.5,0.6-1.1,1.3-1.7,1.8c-0.2,0.2-1.5,1.6-1.9,1.4l0.5,2c0.4-0.5,0.9-1,1.5-1.4l-2-2
					c-1.4,1.7-3.2,3.1-5.2,4.1c-1.8,1.1-1.1,3.9,0.6,4.7c2.2,1,3.5-1.8,4.4-3.3c0.2-0.2,0.3-0.5,0.4-0.7l-1.2,0.2l0.1,0.3
					c-0.1,0.4,0,0.9-0.1,1.3c-0.3,1.3-1,2.4-1.3,3.7c-0.4,1.9,2.5,2.7,2.9,0.8L116.7,137.4z"/>
				<path class="st2" d="M100,149c0.7-0.8,1.5-1.4,2.3-2.1c0.7-0.4,0.9-1.4,0.5-2.1c-0.1-0.1-0.1-0.2-0.2-0.2
					c-0.8-0.9-2.1-1-3.1-0.3l2.1,2.1c0.3-0.5,0.8-1,1.3-1.4c1.5-1.1,0.1-3.7-1.5-2.6c-1.1,0.8-2.4,1.3-3.7,1.7
					c-0.8,0.2-1.2,1.1-1,1.9c0.2,0.8,1,1.2,1.8,1c2.2-0.6,4.4-1.6,5-4c0.3-1.3-1.5-2.7-2.5-1.5c-1.3,1.8-3.4,2.8-5.6,2.9l0.4,3
					c2.1-0.7,4-1.7,5.7-3.1c1.3-1-0.4-3.4-1.8-2.4c-0.9,0.7-2,1.2-3.1,1.5l0.8,2.9l1.7-0.6l-1.7-2.2c-1.3,2-2.7,4-4.2,5.8
					c-0.5,0.6-0.5,1.6,0.2,2.1c0.4,0.4,1.1,0.5,1.6,0.2l2-0.9l-1.8-2.4c-1.3,1.2-2.3,2.8-2.7,4.6c-0.2,0.8,0.3,1.6,1.1,1.8
					c0,0,0,0,0,0c0.2,0.1,0.5,0.1,0.7,0c1.2-0.4,2.2-1.3,2.6-2.5c0.2-0.8-0.3-1.6-1.1-1.8c-0.4-0.1-0.8,0-1.1,0.1l-2,1.4l1.8,2.4
					c1.3-1.7,2.9-3.3,4.7-4.6l-2-2.1c-1.1,1.8-2.9,3-4.9,3.4l1.8,1.8c0.4-1.9,1.2-3.6,2.3-5.2l-2.8-0.8c-0.1,1.1-0.4,2.2-0.9,3.1
					l2.7,1.2l1.8-4.6c0.6-1.6-1.5-2.3-2.5-1.4l-1.6,1.3l2.4,1.8c0.8-1.4,1.8-2.6,3-3.7c1.5-1.3-0.6-3.3-2.1-2.1l-2.1,1.7l2.4,1.8
					l0.5-1c0.3-0.8,0-1.6-0.7-2c-0.4-0.2-0.9-0.2-1.3,0l-3.5,1.5l2.3,1.3c0-0.4,0.1-0.8,0.3-1.1c0.4-0.7,0.1-1.6-0.6-2
					c-0.7-0.4-1.6-0.1-2,0.5c-0.3,0.5-0.4,1.1-0.3,1.7c0.2,1.2,1.8,1.3,2.5,0.7l1.6-1.4l-2.5-1.5c-0.1,0.5-0.3,1.1-0.6,1.6l2.8,0.8
					v-0.8c0-1.6-2.6-2.1-3-0.4c-0.4,1.9-1.1,3.8-2.1,5.5l2.7,1.2c0.2-1.1,0.6-2.1,1.2-3l-2.7-1.2c-0.5,1.8-1,3.5-1.8,5.2h2.9
					c-0.4-1.4-0.7-2.8-0.9-4.2c0-0.8-0.7-1.5-1.5-1.5c-0.7,0-1.2,0.4-1.4,1.1l-1.4,3.8H90c-0.3-1.2-0.5-2.4-0.4-3.6
					c0-0.7,0-1.9,0.7-2.3l-2.3-1.3v0.9c-0.1,1.6,2,1.9,2.8,0.8l1.3-1.8l-2.7-1.2c-0.4,0.9-0.7,1.9-0.9,2.8c-0.2,0.8,0.3,1.6,1.1,1.8
					c0.1,0,0.2,0,0.4,0.1c1.3,0,2.4-1,2.6-2.2c0.3-1.4-0.6-2.6-1.6-3.5c-0.6-0.6-1.5-0.6-2.1,0c-1.9,1.7-2.1,5.1-2.4,7.5
					c-0.2,1.2-0.6,2.7-0.1,3.9c0.5,1.1,1.7,1.7,2.8,1.4c0.8-0.2,1.2-1.1,1-1.9c-0.1-0.2-0.2-0.5-0.4-0.6c-0.9-0.8-2.3-1.1-3.4-0.6
					c-0.5,0.3-1.1,0.4-1.7,0.3c-0.7-0.2-1.3-0.6-1.8-1.2l-1.5,2.5c1.5,0.4,3.1,0.3,4.6-0.1c1.3-0.4,1.5-2.6,0-2.9
					c-2.8-0.5-5.6-0.6-8.4-0.8c-0.8,0-1.5,0.7-1.5,1.5c0,0,0,0,0,0c0,0.3,0.1,0.5,0.2,0.7c0.9,1.6,2.9,1.3,4.4,1
					c3.2-0.7,5.9-2.7,7.5-5.5c0.7-1.3,1-3.3-0.8-3.8c-0.7-0.2-1.3,0.1-1.7,0.7l-1.2,2l2.7,1.5l1.7-3.5c0.8-1.7-1.8-3.2-2.6-1.5
					l-1.7,3.5c-0.4,0.7-0.1,1.6,0.6,2c0.7,0.4,1.6,0.1,2-0.5l1.2-2l-1.7,0.7h0.2l-0.9-0.7c0-0.4-0.1-0.4-0.3,0
					c-0.1,0.2-0.2,0.4-0.4,0.6c-0.2,0.3-0.4,0.5-0.6,0.8c-1.1,1.2-2.5,2.1-4,2.5c-0.3,0.1-0.7,0.2-1,0.2c-0.2,0-0.4,0-0.7,0.1
					c-0.4-0.1-0.5,0-0.1,0.3l-1.3,2.2c2.5,0.2,5.1,0.2,7.6,0.7v-2.9c-1,0.3-2,0.3-3,0.1c-0.8-0.2-1.6,0.3-1.8,1.1
					c-0.1,0.5,0,1,0.4,1.4c0.9,1,2,1.7,3.3,2c0.6,0.1,1.2,0.1,1.7,0c0.7-0.2,1.3-0.4,2-0.6l0.7-2.5l0.7,0.1c0-0.2,0-0.5,0.1-0.7
					c0-0.2,0.1-0.6,0.1-0.9c0.1-0.8,0.2-1.6,0.4-2.3c0.2-1.2,0.3-3,1.3-3.8h-2.2c0.2,0.2,0.4,0.5,0.6,0.6c0,0.1,0.1,0.1,0.1,0.1
					c0.1,0.1,0.3,0,0.4-0.2l1.4,1.9c0.2-1,0.5-1.9,0.9-2.8c0.7-1.7-1.8-2.4-2.7-1.2l-1.3,1.8l2.8,0.8v-0.9c0-0.8-0.7-1.5-1.5-1.4
					c-0.3,0-0.5,0.1-0.7,0.2c-3,1.7-2.3,6.5-1.6,9.3c0.3,0.8,1.1,1.2,1.9,1c0.5-0.1,0.8-0.5,1-1l1.4-3.8l-3-0.4c0.2,1.7,0.6,3.4,1,5
					c0.4,1.6,2.4,1.3,2.9,0c0.7-1.7,1.3-3.4,1.8-5.2c0.2-0.8-0.4-1.6-1.2-1.7c-0.6-0.1-1.2,0.2-1.5,0.7c-0.8,1.1-1.3,2.4-1.5,3.7
					c-0.3,0.8,0,1.7,0.8,2c0.8,0.3,1.7,0,2-0.8l0,0c1.2-2,2-4.1,2.5-6.3l-2.9-0.4v0.8c0,0.8,0.7,1.5,1.6,1.5c0.5,0,1-0.3,1.2-0.7
					c0.4-0.7,0.7-1.5,0.9-2.3c0.2-0.8-0.3-1.6-1.1-1.8l0,0c-0.5-0.1-1,0-1.4,0.4l-1.6,1.4l2.5,0.7v-0.3l-0.2,1.1l0.2-0.2l-2.6-1.5
					c-0.5,0.8-0.7,1.7-0.7,2.6c0,0.8,0.7,1.5,1.6,1.5c0,0,0,0,0,0l0,0c0.2,0,0.5-0.1,0.7-0.2l3.5-1.5l-2-2l-0.5,1
					c-0.4,0.7-0.1,1.7,0.6,2c0.6,0.3,1.2,0.2,1.7-0.2l2.1-1.7l-2.1-2.1c-1.4,1.2-2.6,2.7-3.6,4.3c-0.9,1.6,1.1,2.8,2.3,1.8l1.6-1.3
					l-2.5-1.4l-1.8,4.6c-0.6,1.6,2,2.6,2.7,1.2c0.8-1.4,1.2-3,1.3-4.6c0.1-1.6-2-1.9-2.8-0.8c-1.2,1.8-2.1,3.8-2.6,5.9
					c-0.2,0.8,0.3,1.6,1.1,1.8c0,0,0,0,0,0c0.2,0.1,0.5,0.1,0.8,0c2.8-0.6,5.2-2.4,6.7-4.8c0.7-1.2-0.8-3-2-2.1
					c-2,1.4-3.8,3.1-5.3,5.1c-1,1.2,0.3,3.4,1.8,2.4l2-1.4l-2.2-1.7c-0.1,0.2-0.3,0.4-0.5,0.5l1.8,1.9c0.2-1.3,0.9-2.4,1.9-3.3
					c1.3-1.2-0.4-3-1.8-2.4l-2,0.9l1.8,2.4c1.7-2,3.3-4.2,4.7-6.4c0.4-0.7,0.2-1.7-0.5-2.1l0,0c-0.3-0.2-0.7-0.2-1.1-0.1l-1.7,0.6
					c-0.8,0.2-1.2,1.1-1,1.9c0.2,0.8,1,1.2,1.8,1c1.4-0.4,2.7-1,3.8-1.8l-1.8-2.4c-1.3,1-2.8,1.8-4.4,2.3c-1.5,0.5-1.4,3,0.4,2.9
					c3-0.1,5.8-1.5,7.7-3.8l-2.5-1.5c-0.3,1.3-1.7,1.6-2.9,1.9l0.8,2.9c1.6-0.4,3-1.1,4.4-2l-1.5-2.6c-0.9,0.7-1.8,1.5-2.4,2.4
					c-0.8,1.2,0.8,3,2,2.1l-0.5-0.1l0.3-2.4c-1.1,0.8-2.1,1.6-3,2.6C96.4,148.3,98.5,150.4,100,149L100,149z"/>
				<path class="st2" d="M80.8,142.5c1.2,0.1,2.5-0.1,3.6-0.4c0.8-0.3,1.2-1.1,1-1.9c-0.1-0.5-0.5-0.8-1-1c-0.9-0.2-1.8-0.4-2.8-0.3
					c-0.8,0-1.5,0.7-1.5,1.5c-0.1,1.3,0.7,2.4,1.9,2.9c1.2,0.4,2.5,0.5,3.8,0.4h0.3c0.3,0,0.2-0.1-0.2-0.4c-0.1,0-0.3,0.6-0.4,0.6
					c-0.4,0.6-0.7,1.2-1,1.8c-0.6,1.3-0.9,2.7-1,4.1h3c0-1.5,0.2-3,0.5-4.5c0.2-0.6,0.1-1.3-0.3-1.9c-0.4-0.6-0.7-1.2-0.9-1.9
					c-0.1-0.8-0.9-1.4-1.7-1.3s-1.4,0.9-1.3,1.7c-0.2,1.5-0.3,3-0.3,4.5l3-0.4c-0.7-2-1.3-4.1-1.7-6.2c-0.2-0.7-0.9-1.2-1.7-1.1
					c-0.7,0.1-1.3,0.7-1.3,1.5c-0.3,2.6-0.2,5.3,0.3,7.9l2.7-1.1l-0.6-1.1c-0.6-1.3-3-0.7-2.8,0.8c0.1,1.1,0.4,2.2,1,3.1
					c0.4,0.7,1.4,0.9,2.1,0.5c0.7-0.4,0.9-1.3,0.5-2c-1.2-2.5-2.2-5.1-3-7.8c-0.3-0.8-1.1-1.2-1.9-1c-0.6,0.2-1,0.7-1.1,1.4l0.2,3.2
					c-0.1,0.8,0.5,1.6,1.3,1.7c0.8,0.1,1.6-0.5,1.7-1.3l0,0l0,0c0.4-1.1,0.6-2.3,0.5-3.5c0-0.8-0.7-1.5-1.6-1.5
					c-0.5,0-1,0.3-1.2,0.7l-0.5,0.9l2.8,0.4c-0.4-1-0.6-2-0.6-3.1h-3c0,0.8,0.1,1.5,0.4,2.2c0.2,0.8,1.1,1.2,1.9,1
					c0.6-0.2,1-0.7,1.1-1.4l0.1-1.7l-2.1,1.3c0.2,0.1,0.4,0.3,0.5,0.5c1.1,1.2,2.7-0.1,2.5-1.5c-0.4-2.7-3.7-4.1-5.7-5.4l-8.2-5.3
					c-1.4-0.9-2.6,0.8-2,2c2.2,4.9,7.3,7.1,11.5,10.1l1.4-2.5c-3.2-1.7-6.6-3.3-10-4.6c-0.8-0.2-1.6,0.3-1.8,1.1c0,0,0,0,0,0l0,0
					c-0.1,0.2-0.1,0.5,0,0.7c0.7,2.1,2.4,3.7,3.8,5.3c1.7,1.8,3.4,3.6,5.1,5.3c0.6,0.6,1.6,0.5,2.1-0.1c0.3-0.4,0.5-0.9,0.4-1.4
					c-0.4-1.2-0.9-2.4-1.4-3.4c-1-1.7-3.3-0.2-2.6,1.5c0.6,1.3,1.3,2.5,2.1,3.6c0.5,0.7,1.4,0.9,2.1,0.5c0.4-0.3,0.7-0.7,0.7-1.2
					c0.1-1.1,0-2.1-0.2-3.2c-0.3-1.7-3-1.3-3,0.4c0.1,1.7,0.4,3.4,0.9,5c0.2,0.6,0.8,1.1,1.4,1.1l-0.6-0.5l2.5-1.5l-1.3-1.1
					c-0.6-0.6-1.5-0.7-2.1-0.1c-0.6,0.5-0.6,1.4-0.2,2c0.5,1.1,1.2,2.1,2,3c1.3,1.4,3.4-0.7,2.1-2.1l-4.3-4.9
					c-0.6-0.6-1.6-0.6-2.1,0c0,0,0,0,0,0l0,0c-0.2,0.2-0.3,0.4-0.4,0.6c-0.3,1.4-0.4,2.8-0.3,4.2l2.8-0.8l-0.5-0.9
					c-0.8-1.5-3.2-0.5-2.7,1.2c0.1,0.6,0.5,1.1,1.1,1.5c0.7,0.4,1.7,0.1,2.1-0.6c0,0,0,0,0,0l0,0c0.1-0.2,0.2-0.5,0.2-0.7
					c0.1-1.9-0.3-3.9-1.3-5.5c-1-1.6-3.3-1.8-3.9,0.2c-0.2,0.8,0.3,1.6,1.1,1.9H73h0.3c1,0.1,1.9-0.2,2.7-0.9
					c0.3-0.3,0.6-0.6,0.8-0.9c0.1-0.2,0.3-0.5,0.3-0.7c0-0.1,0.1-0.2,0.1-0.3c0.1-0.4,0-0.3-0.5,0.1l-0.3-2.4
					c-3,3.8-1.3,8.1-0.7,12.4l2.3-1.3c-1.8-0.9-3-2.7-5.2-2.6c-0.8,0-1.5,0.7-1.5,1.5c0,0,0,0,0,0l0,0c0,0.2,0.1,0.5,0.2,0.7
					c0.2,0.4,0.5,0.7,0.8,1c1,0.9,3,0,2.5-1.5c-0.8-2.2-1.4-4.4-1.9-6.6c-0.3-1.6-3.2-1.3-2.9,0.4l0.2,2c0,0.8,0.8,1.5,1.6,1.5
					c0.6,0,1.2-0.5,1.4-1.1c0.2-0.9,0.4-1.9,0.5-2.9h-3c0.2,1.9,0.3,3.7,0.2,5.6l2.8-0.8c-0.6-0.9-1.2-1.9-1.8-2.9
					c-0.9-1.7-3.5-0.2-2.6,1.5c0.5,1,1.1,2,1.7,2.9c0.5,0.7,1.4,0.9,2.1,0.5c0.4-0.3,0.7-0.7,0.7-1.2c0.1-1.9,0-3.8-0.2-5.6
					c0-0.8-0.7-1.5-1.5-1.5s-1.5,0.7-1.5,1.5c-0.1,0.7-0.2,1.4-0.4,2.1l3,0.4l-0.2-2l-3,0.4c0.4,2.3,1.1,4.5,1.9,6.7l2.5-1.5
					c-0.2-0.1-0.3-0.2-0.4-0.4l-1.3,2.2c1.4-0.1,2.6,1.6,3.7,2.2c0.9,0.4,2.4-0.1,2.3-1.3c-0.4-3-2.3-7.5-0.1-10.3
					c0.6-0.6,0.5-1.6-0.1-2.2c-0.1-0.1-0.2-0.1-0.2-0.2c-1-0.7-2.3-0.5-3.2,0.3c-0.7,0.7-0.4,2.1-1.7,2l1.4,1.9
					c-1.3,0-1.8,0.2-1.4,0.8c0.1,0.2,0.2,0.3,0.2,0.5c0.1,0.3,0.2,0.7,0.3,1.1c0.1,0.7,0.2,1.4,0.2,2.2l2.3-1.3l0.3,0.4l-2.7,1.1
					l0.5,0.9c0.6,1.3,3,0.7,2.8-0.8c-0.2-1.1-0.1-2.3,0.2-3.4l-2.5,0.7l4.2,4.9l2.1-2.1c-0.6-0.7-1.1-1.5-1.5-2.4l-2.4,1.8l1.3,1.1
					c0.6,0.6,1.6,0.5,2.1-0.1c0,0,0,0,0,0l0,0c0.4-0.4,0.5-0.9,0.4-1.4c-0.3-1.1-1.2-1.8-2.3-1.7l1.4,1.1c-0.5-1.4-0.7-2.8-0.8-4.2
					l-3,0.4c0.1,0.8,0.2,1.6,0.1,2.4l2.8-0.8c-0.8-1.1-1.6-2.3-2.1-3.6l-2.6,1.5c0.5,0.9,0.9,1.8,1.2,2.8l2.5-1.5
					c-1.5-1.5-3-3.1-4.5-4.7c-1.2-1.3-3.1-2.8-3.7-4.6l-1.8,1.9c3.2,1.3,6.3,2.7,9.3,4.3c0.7,0.5,1.6,0.3,2.1-0.4
					c0.5-0.7,0.3-1.6-0.4-2.1c-0.1,0-0.1-0.1-0.2-0.1l0,0c-3.7-2.7-8.4-4.6-10.4-9l-2.1,2l7.1,4.6c1.2,0.7,2.3,1.5,3.5,2.2
					c0.8,0.5,1.8,1,2,2l2.5-1.5c-0.3-0.4-0.7-0.7-1.1-1c-0.7-0.4-1.7-0.1-2.1,0.6c-0.1,0.2-0.2,0.5-0.2,0.7l-0.1,1.7l3-0.4
					c-0.2-0.5-0.3-0.9-0.3-1.4c0-0.8-0.7-1.5-1.5-1.5s-1.5,0.7-1.5,1.5c0,1.3,0.3,2.7,0.7,3.9c0.3,0.8,1.1,1.2,1.9,1
					c0.3-0.1,0.6-0.3,0.8-0.6l0.5-0.9l-2.8-0.8c0.1,0.9,0,1.8-0.3,2.7l2.9,0.4l-0.2-3.2l-2.9,0.4c0.9,2.9,2,5.7,3.3,8.5l2.6-1.5
					c-0.3-0.5-0.5-1-0.6-1.6l-2.8,0.8l0.6,1.1c0.8,1.6,3.1,0.4,2.7-1.2c-0.4-2.3-0.5-4.7-0.2-7.1l-2.9,0.4c0.4,2.1,0.9,4.1,1.7,6.1
					c0.5,1.5,3,1.4,2.9-0.4c0-1.5,0-3,0.2-4.5l-3,0.4c0.3,1,0.8,2,1.4,2.9l-0.1-1.1c-0.4,1.9-0.7,3.8-0.6,5.7c0,0.8,0.7,1.5,1.5,1.5
					s1.5-0.7,1.5-1.5c0.1-1.4,0.5-2.8,1.2-4c0.6-1,1.3-2,1-3.2c-0.3-1.1-1.4-1.9-2.5-1.9c-0.4,0-3.2,0.1-3.2-0.3l-1.5,1.5
					c0.7,0,1.3,0.1,2,0.2v-2.9c-0.9,0.3-1.9,0.4-2.8,0.3C78.8,139.3,78.8,142.3,80.8,142.5L80.8,142.5z"/>
				<path class="st2" d="M70.4,148.1c-0.8-1.9-0.3-4.1,1.2-5.5l-2.4-1.8l-1.2,2.4c-0.1,0.2-0.3,1-0.5,1.1h0.1
					c-0.2-0.1-0.4-0.3-0.6-0.5c-0.9-0.8-2.7-0.3-2.6,1.1c0.1,1.1,0.4,2.1,0.8,3.1c0.8,1.8,3.3,0.2,2.6-1.5c-0.9-2.2,0.7-4.6,1.8-6.4
					L67,139l-0.6,3.1c-0.4,1.9,2.4,2.7,2.9,0.8c0.6-2,0.9-4,1.1-6c0-2-1.8-3.8-2.9-5.4c-0.5-0.7-1.4-0.9-2.1-0.5
					c-0.5,0.3-0.8,1-0.7,1.6c0.5,1.8,1.1,3.7,1.8,5.5l2.9-0.8c-1.2-3.7-1.9-7.6-2-11.5c-0.1-1.6-2.7-2.2-3-0.4l-1.3,7.8
					c-0.3,2.1-1.2,4.6,0,6.5c0.4,0.7,1.4,0.9,2.1,0.5c0.4-0.3,0.7-0.8,0.7-1.3c0.1-1.3,0.2-2.7,0.1-4l-3,0.4
					c0.4,2.4,0.5,4.9,0.5,7.4c0,0.8,0.7,1.5,1.5,1.5c0.7,0,1.2-0.4,1.4-1.1l0.6-1.9l-2.9-0.4c-0.3,2.1-0.8,4.1-1.5,6.1l2.7-0.4
					c-0.9-2-1.6-4-2.2-6.1l-2.7,1.2c0.9,1.5,1.9,2.8,3,4.1c0.6,0.6,1.5,0.6,2.1,0c0.3-0.3,0.4-0.6,0.5-1c-0.1-1.7-0.6-3.4-1.4-4.9
					c-0.4-0.7-1.4-0.9-2.1-0.5c0,0,0,0,0,0l0,0c-0.3,0.2-0.5,0.5-0.6,0.8c-0.1,0.3-0.2,0.5-0.5,0.6h2.1c-0.5-0.5-0.9-1-1.3-1.5
					c-0.9-1.3-3.4-0.5-2.7,1.1l1,2.7l2.2-1.7c-2.6-1.9-5.4-3.5-8.2-5.1c-0.7-0.4-1.7-0.1-2.1,0.6c0,0,0,0,0,0l0,0
					c-0.2,0.3-0.2,0.7-0.1,1.1c0.5,3.8,4.3,5.4,6.7,7.8c0.6,0.6,1.5,0.6,2.1,0c0.5-0.5,0.6-1.2,0.2-1.8c-1.7-2.8-4.6-4.1-6.9-6.2
					c-2.8-2.6-3.5-6.9-4.4-10.5c-0.3-1.4-2.6-1.5-2.9,0c-0.4,2-0.5,4.1-0.4,6.2c-0.1,0.8,0.5,1.6,1.3,1.7s1.6-0.5,1.7-1.3
					c0.9-3.1,2.5-6,4.6-8.4l-2.3-1.9l-1,1.4c-0.9,1.2,0.8,2.8,2.1,2c2-1.3,3.8-3,5-5.1c0.4-0.7,0.1-1.6-0.6-2
					c-0.6-0.3-1.3-0.2-1.8,0.2c-1,1.1-2,2.2-3,3.3c-1.2,1.5,0.8,3.5,2.1,2.1l4.2-4.4l-2.3-1.8c-2.7,3.7-4.9,7.8-6.7,12.1
					c-0.6,1.5,1.5,2.5,2.5,1.5c2-2.2,3.8-4.5,5.5-7l-2.6-1.5c-2.8,4.3-3.3,9.6-1.4,14.4l2.5-1.5c-1.4-1.3-2.6-2.9-3.6-4.5l-2.6,1.5
					c1.7,2.5,3.8,4.6,6.2,6.3c0.7,0.4,1.6,0.2,2.1-0.6c0.1-0.2,0.2-0.5,0.2-0.7c0-0.8-0.2-1.6-0.6-2.3l-2.4,1.8l1.4,1.7
					c0.6,0.6,1.5,0.6,2.1,0c0,0,0,0,0,0c0.2-0.2,0.3-0.4,0.4-0.6c0.1-1.5-0.1-3.1-0.6-4.5c-0.3-1.7-0.5-3.4-0.6-5.1
					c-0.1-3.4,0.3-6.8,1.1-10.1l-2.9-0.4c-0.1,2.9-0.4,5.8-0.8,8.7c-0.3,1.9,2.4,2.7,2.9,0.8l3-10.7l-2.9-0.8
					c-1.6,5.9-2.2,12-1.7,18.1c0,0.8,0.7,1.5,1.5,1.5c0,0,0,0,0,0c0.2,0,0.5-0.1,0.7-0.2c1.1-0.5,1.4-1.8,1.9-2.8l1.8-4.1l3.5-8
					l-2.7-1.2c-1.5,4.8-2.6,9.7-3.4,14.7c-0.3,1.9,2.6,2.7,2.9,0.8c0.4-2.4,0.9-4.8,1.5-7.1l-2.9-0.8c-0.6,3.5-1.6,6.9-3.1,10.1
					l2.8,0.4c-0.1-0.6-0.1-1.1,0-1.7l-2.8,0.3l1.3,2.5c0.4,0.7,1.4,0.9,2.1,0.5c0,0,0,0,0,0l0,0c0.1-0.1,0.2-0.1,0.3-0.2
					c2-2.3,1-6,1-8.9c0-3.5,0.3-7,0.9-10.5c0.3-1.9-2.4-2.7-2.9-0.8l-1.2,4.4l3,0.4c-0.2-2.2-0.1-4.3,0.2-6.5c0.2-1.7-2.5-2-3-0.4
					c-1,3.5-1.7,7-2.1,10.6c-0.2,1.7,2.5,2,3,0.4c1.1-3.7,2.5-7.2,4.3-10.7c0.4-0.7,0.1-1.6-0.5-2c-0.6-0.4-1.4-0.6-2.1-0.6l0.8,2.7
					c2.1-1.2,4.3-2.4,6.5-3.4c1.7-0.8,0.2-3.4-1.5-2.6c-2.2,1.1-4.4,2.2-6.5,3.4c-1.2,0.7-0.8,3,0.8,2.8c0.2-0.1,0.5-0.1,0.6,0.1
					l-0.5-2.1c-1.9,3.7-3.4,7.5-4.6,11.4l2.9,0.4c0.4-3.3,1-6.6,2-9.8l-2.9-0.4c-0.3,2.1-0.4,4.3-0.2,6.5c0,0.8,0.7,1.5,1.5,1.5
					c0.7,0,1.2-0.5,1.4-1.1l1.2-4.3l-2.9-0.8c-0.5,3.1-0.8,6.3-1,9.4c-0.1,1.5-0.1,3,0,4.5c0,1.1,0.6,3.2-0.2,4.1l2.4,0.4l-1.4-2.5
					c-0.4-0.7-1.4-0.9-2.1-0.5c0,0,0,0,0,0l0,0c-0.3,0.2-0.5,0.5-0.6,0.8c-0.2,1.1-0.2,2.2,0,3.3c0.2,0.8,1.1,1.3,1.9,1
					c0.4-0.1,0.7-0.3,0.9-0.7c1.6-3.4,2.7-7,3.3-10.8c0.3-1.9-2.4-2.7-2.9-0.8c-0.6,2.4-1.1,4.7-1.5,7.1l2.9,0.8
					c0.7-5,1.9-9.9,3.4-14.7c0.5-1.6-2-2.7-2.7-1.2l-3.1,7l-1.5,3.4l-0.8,1.8c-0.1,0.3-0.4,1.4-0.7,1.5l2.3,1.3
					c-0.5-5.8,0.1-11.7,1.6-17.3c0.2-0.8-0.3-1.6-1.1-1.8c-0.8-0.2-1.6,0.3-1.8,1L56,128.4l2.9,0.8c0.5-3.2,0.8-6.3,0.9-9.5
					c0.1-0.8-0.5-1.6-1.3-1.7c-0.8-0.1-1.6,0.5-1.7,1.3l0,0c-0.8,3.3-1.3,6.6-1.2,10c0,1.7,0.2,3.3,0.4,5c0.1,0.8,0.2,1.5,0.4,2.3
					c0.3,0.8,0.4,1.6,0.5,2.5l2.5-0.7l-1.4-1.7c-1.1-1.4-3.1,0.4-2.3,1.8c0.1,0.2,0.2,0.5,0.2,0.8l2.3-1.3c-2-1.4-3.7-3.2-5.2-5.2
					c-1.1-1.6-3.7-0.1-2.6,1.5c1.1,1.9,2.4,3.6,4,5.1c1,0.9,3.1,0,2.5-1.5c-1.7-4-1.2-8.5,1.2-12.1c1.1-1.6-1.5-3.1-2.6-1.5
					c-1.5,2.3-3.2,4.4-5,6.4l2.5,1.5c1.7-4,3.8-7.8,6.3-11.4c1-1.4-1.2-3-2.4-1.8l-4.2,4.4l2.1,2.1c1-1.1,2-2.2,3-3.3l-2.4-1.8
					c-1,1.6-2.3,3-3.9,4l2,2l1-1.4c1-1.4-1.2-3.1-2.4-1.8c-2.5,2.8-4.3,6.2-5.4,9.8l2.9,0.4c-0.1-1.8,0-3.6,0.3-5.4h-2.8
					c0.9,3.7,1.7,8.2,4.4,11.1c2.2,2.4,5.5,3.6,7.2,6.4l2.4-1.7c-2-2-5.5-3.4-6-6.5l-2.2,1.7c2.8,1.5,5.6,3.2,8.2,5.1
					c0.7,0.4,1.6,0.1,2-0.6l0,0c0.2-0.3,0.2-0.7,0.2-1.1l-1-2.7l-2.7,1.2c0.5,0.8,1.1,1.5,1.8,2.1c0.6,0.6,1.5,0.6,2.1,0
					c0.6-0.5,1-1.2,1.2-2l-2.7,0.4c0.6,1,0.9,2.2,0.9,3.4l2.6-1.1c-0.9-1.1-1.7-2.3-2.4-3.6c-0.5-0.7-1.4-0.9-2.1-0.5
					c-0.5,0.3-0.8,1-0.7,1.6c0.7,2.3,1.6,4.6,2.5,6.8c0.6,1.3,2.3,0.7,2.7-0.4c0.8-2.2,1.4-4.6,1.7-6.9c0.2-1.7-2.5-2-3-0.4
					l-0.6,1.9l3,0.4c0-2.7-0.2-5.5-0.6-8.2c-0.3-1.7-3-1.3-2.9,0.4c0,1.3,0,2.7-0.1,4l2.8-0.8c-0.5-0.7-0.1-1.8,0-2.6l0.5-3.1l1-6.4
					l-2.9-0.4c0.3,4.2,0.7,8.4,2.2,12.3c0.7,1.8,3.6,1,2.9-0.8s-1.2-3.6-1.8-5.5l-2.7,1.2l1.5,2.2c0.4,0.6,1,1.1,0.9,1.9
					c-0.2,1.7-0.5,3.4-1,5l2.9,0.8l0.6-3.1c0.2-0.8-0.3-1.6-1.1-1.8c-0.6-0.1-1.2,0.1-1.6,0.7c-1.8,2.9-3.2,6-1.8,9.4l2.7-1.5
					c-0.2-0.5-0.4-1-0.4-1.6l-2.6,1.1c1.2,1.1,2.8,2,4.3,0.9c1.3-0.9,1.9-3.1,2.6-4.5c0.4-0.7,0.1-1.7-0.6-2
					c-0.6-0.3-1.2-0.2-1.7,0.2c-2.4,2.4-3.1,6-1.7,9.1C68.6,151.3,71.2,149.8,70.4,148.1L70.4,148.1z"/>
				<path class="st2" d="M68.4,120.2c2.1-1.9,3.9-4,5.6-6.3c1-1.3-0.8-2.6-2-2c-3,1.4-7,3.6-7.4,7.4c-0.1,1.5,0.5,3.3,2.3,3
					c1.6-0.4,3-1.3,4-2.5c0.6-0.6,0.5-1.6-0.1-2.1c-0.6-0.5-1.5-0.5-2,0c-1.2,0.9-2.2,2.2-2.6,3.7c-0.4,1.8,0.1,3.5-0.4,5.2
					c-0.2,0.8,0.3,1.6,1.1,1.8c0.4,0.1,0.7,0,1.1-0.1c1.5-0.8,2.8-1.7,4-2.8c1.3-1.2-0.4-3.2-1.8-2.4l-1.7,0.9l1.5,2.6
					c1.4-1,3-1.6,4.8-1.7c1.6-0.1,2.2-2.6,0.4-2.9c-1.5-0.3-3.1-0.2-4.6,0.3l1.5,0.4c0.4,0.4-0.1,0.7,0.4,0.2
					c0.2-0.3,0.4-0.6,0.5-0.9c0.3-0.5,0.7-1.1,1.1-1.5c1-1.2-0.3-3.3-1.8-2.4c-1.6,1-3.1,2.3-4.3,3.8c-0.7,0.9-0.3,2.6,1.1,2.6
					c2-0.1,6-0.3,6.1-3c0.1-1.4-0.2-2.8-0.3-4.2c-0.1-1.6,0-3.1,0.1-4.7s-2.2-2.1-2.8-0.8c-0.9,1.7-1.3,3.5-1.4,5.4
					c0,0.8,0.7,1.5,1.6,1.5c0.5,0,1-0.3,1.2-0.7c0.9-1.3,1.7-2.6,2.4-4l-2.8-1.2c-0.5,1.6-1.1,3.2-1.7,4.7l2.9,0.8
					c0.4-1.4,1.3-2.6,2.6-3.4l-2-2.1l-1.3,2.4l2.6,1.5c1-2,2.4-3.7,4.2-5l-1.8-2.4c-1,0.9-1.9,1.8-3,2.6c-0.6,0.6-0.6,1.5,0,2.1
					c0,0,0,0,0,0c0.3,0.3,0.6,0.4,1,0.4l9.9-0.5c0.8,0,1.5-0.7,1.5-1.5c0-0.7-0.4-1.2-1.1-1.4l-4.5-1.4l-0.8,2.9
					c1.3,0.2,2.5,0.7,3.6,1.5c1,0.8,1.4,1.8,2.8,2.2c0.8,0.2,1.6-0.2,1.8-1c0.5-1.6-0.4-3.3-2-3.8l-0.2-0.1l0.4,2.8
					c1.1-0.6,3.1,0,4.2,0.2l4.7,0.5c1.7,0.2,2-2.6,0.4-3c-3.7-0.8-7.5-1.3-11.3-1.5v3l7.6,0.2c0.9,0,2.6-0.3,3.3,0.3s1,1.6,1.6,2.2
					c0.6,0.6,1.6,0.6,2.2,0l0,0c0.3-0.3,0.4-0.7,0.4-1.1l0.1-0.9l-2.3,1.3c0.4,0.2,0.9,0.4,1.3,0.5c0.8,0.2,1.6-0.3,1.8-1.1
					c0,0,0,0,0,0l0,0c0.1-0.4,0-0.7-0.1-1.1c-0.4-0.8,0.4-1.2,1.1-1c0.8,0.2,1.6-0.3,1.8-1.1c0.2-0.8-0.3-1.5-1-1.7
					c-2-0.7-4.1,0.4-4.8,2.4c-0.3,1-0.2,2.1,0.3,3l1.7-2.2c-0.2,0-0.4-0.1-0.6-0.2c-0.7-0.4-1.7-0.1-2.1,0.6c0,0,0,0,0,0l0,0
					c-0.1,0.2-0.2,0.5-0.2,0.7l-0.1,0.9l2.6-1.1c-0.7-0.7-1.1-1.7-1.9-2.4c-1.1-0.7-2.4-1.1-3.7-0.9l-9-0.2c-0.8,0-1.5,0.7-1.5,1.5
					s0.7,1.5,1.5,1.5c3.5,0.2,7.1,0.7,10.5,1.4l0.4-3l-5.6-0.6c-1.7-0.2-3.3-0.5-4.8,0.4c-0.7,0.4-0.9,1.4-0.5,2.1
					c0.2,0.3,0.5,0.6,0.9,0.7c0.2,0,0.2,0,0.2,0.2l1.8-1c-0.5-0.1-0.8-0.9-1.2-1.2c-0.5-0.4-1-0.8-1.5-1.1c-1.1-0.6-2.4-1.1-3.6-1.4
					c-0.8-0.2-1.6,0.3-1.8,1.1c-0.2,0.8,0.3,1.6,1,1.8L86,114l0.4-3l-9.9,0.5l1.1,2.6c1-0.8,2-1.7,3-2.6c1.2-1.1-0.4-3.4-1.8-2.4
					c-2.2,1.6-4,3.7-5.2,6.1c-0.9,1.7,1.7,3.2,2.6,1.5l1.3-2.4c0.7-1.3-0.7-2.9-2-2c-1.9,1.1-3.3,2.9-3.9,5
					c-0.6,1.9,2.2,2.5,2.9,0.8c0.7-1.5,1.2-3.1,1.7-4.7s-2-2.7-2.7-1.2c-0.7,1.4-1.5,2.7-2.4,4l2.8,0.8c0-1.4,0.4-2.7,1-3.9
					l-2.8-0.8c-0.1,2.2-0.1,4.4,0,6.6c0,0.5,0.1,0.9,0.1,1.4c0,0.3,0.1,0.5,0.1,0.8c0.4-0.4,0.3-0.5-0.2-0.3
					c-0.4,0.1-0.8,0.2-1.2,0.3c-0.6,0.1-1.1,0.2-1.7,0.2l1,2.5c1-1.3,2.3-2.5,3.7-3.3l-1.8-2.3c-1.3,1.6-3.9,4.5-2,6.5
					c0.4,0.4,0.9,0.5,1.5,0.4c1-0.4,2-0.5,3-0.3l0.4-3c-2.3,0.1-4.4,0.9-6.3,2.2c-0.8,0.2-1.3,1.1-1.1,1.9s1.1,1.3,1.9,1.1l0,0
					c0.2-0.1,0.4-0.2,0.6-0.3l1.7-0.9l-1.8-2.3c-1.1,0.9-2.2,1.7-3.5,2.3l2.2,1.7c0.4-1.4,0.5-2.9,0.4-4.4c-0.1-1.6,0.6-2.3,1.8-3.4
					l-2.1-2.1c-0.7,0.6-1.4,1.1-2.1,1.6c-0.8,0.2-0.5,0.5,0.9,0.9c-0.1-0.3-0.1-0.5,0-0.8c0.1-0.5,0.3-0.9,0.7-1.3
					c1.3-1.6,3.4-2.7,5.2-3.5l-2-2c-1.5,2.1-3.2,4-5.1,5.7C64.8,119.5,66.9,121.6,68.4,120.2L68.4,120.2z"/>
				<path class="st2" d="M88.4,109.2c1.6-0.1,3.2-0.2,4.7-0.5c0.4-0.1,0.7-0.4,0.9-0.7c0.2-0.4,0.2-0.8,0.2-1.2
					c-0.1-0.4-0.4-0.7-0.7-0.9c-0.4-0.2-0.8-0.2-1.2-0.2c-0.4,0.1-0.9,0.1-1.3,0.2h0.4c-1,0.1-2,0.2-3,0.2c-0.8,0-1.5,0.7-1.5,1.5
					S87.6,109.3,88.4,109.2L88.4,109.2z"/>
				<path class="st2" d="M92,108.3c3.1-0.2,6.1-0.8,9-2l-1.5-2.5c-1,1.2-2.2,2.6-3.9,2.5l0.4,3l3.7-1.2c1-0.2,1.9-0.7,2.6-1.4
					c1.3-1.6,0.6-3.7-0.2-5.4c-0.3-0.6-1-0.9-1.7-0.7c-0.6,0.2-1.2,0.6-1.6,1.2l2.6,1.5c1.4-2.3,2.6-4.7,3.6-7.2l-2.9-0.8
					c-1,3.2-1.6,6.6-1.8,10c-0.1,0.8,0.5,1.6,1.3,1.7c0.8,0.1,1.6-0.5,1.7-1.3c0.5-2,1.2-3.9,2.1-5.6l-2.8-0.8
					c0,2.6-0.4,5.2-1.3,7.7c-0.5,1.6,1.9,2.6,2.7,1.2c2-3.6,4.6-6.8,7.6-9.5l-2.3-1.8c-1.1,1.7-2.4,3.2-3.8,4.6l2.5,1.5
					c0.4-2.2,1.1-4.3,2.1-6.3c0.8-1.5-1.2-3.1-2.4-1.8c-0.9,0.9-1.7,1.9-2.4,3l2.7,1.1l0.9-4c0.2-0.8-0.3-1.6-1.1-1.8c0,0,0,0,0,0
					l0,0c-0.4-0.1-0.7,0-1.1,0.1l-2.6,1.3l2.2,1.7l0.7-2.5c0.5-1.6-1.4-2.3-2.5-1.4l-1.2,0.9c-1.3,1,0.5,3.4,1.8,2.4l0.8-0.6
					l-2.2-1.7c-0.3,1.3-0.4,2.7-0.4,4c0.1,0.8,0.8,1.4,1.6,1.4c0,0,0,0,0,0l0,0c0.3,0,0.5-0.1,0.8-0.3c2.1-1.6,4.1-3.3,6-5.1
					c1.4-1.3-0.7-3.4-2.1-2.1c-1.2,1-2.2,2.3-2.8,3.8c-0.3,0.8,0,1.7,0.7,2c0.4,0.2,0.9,0.2,1.3,0c1.7-0.8,3.3-1.7,4.8-2.7l-2-2
					c-0.7,1.5-1.6,3-2.6,4.4c-1.1,1.6,1.4,3,2.6,1.5c0.9-1.2,1.9-2.2,2.9-3.2l-2.6-1c0,0.3-0.1,0.7-0.2,1c-0.4,0.7-0.1,1.6,0.6,2
					c0.6,0.3,1.3,0.2,1.7-0.2l1.5-1.4l-2.1-2.1c-1.1,1.3-2.4,2.6-3.8,3.7c-1.4,1.1,0.4,3.1,1.8,2.4c2.4-1.3,4.8-2.9,6.9-4.6
					c1.5-1.2-0.6-3.3-2.1-2.1c-1.9,1.6-4.1,3-6.3,4.2L112,99c1.4-1.1,2.6-2.3,3.8-3.7c0.6-0.6,0.6-1.5,0-2.1s-1.5-0.6-2.1,0
					l-1.5,1.4l2.4,1.8c0.4-0.8,0.6-1.7,0.6-2.5c-0.1-0.8-0.8-1.5-1.6-1.4c0,0,0,0,0,0c-0.3,0-0.6,0.2-0.9,0.4
					c-1.2,1.2-2.4,2.4-3.4,3.8l2.6,1.5c1-1.4,1.9-2.8,2.6-4.3c0.6-1.2-0.7-3-2-2.1c-1.5,1.1-3.1,2-4.8,2.7l2.1,2.1
					c0.6-1.2,1.4-2.3,2.4-3.1l-2.1-2.1c-1.9,1.8-3.9,3.5-6,5.1l2.6,1.1c0-1.1,0.1-2.1,0.3-3.2c0.2-1.1-1-2.6-2.2-1.7l-0.8,0.6
					l1.8,2.4l1.2-0.9l-2.5-1.5l-0.7,2.5c-0.2,0.8,0.3,1.6,1.1,1.8c0.4,0.1,0.8,0,1.1-0.1l2.6-1.3l-2.2-1.7l-0.9,4
					c-0.1,0.8,0.5,1.6,1.3,1.7c0.5,0.1,1-0.1,1.3-0.5c0.6-0.9,1.2-1.7,1.9-2.4l-2.3-1.8c-1.2,2.2-2,4.6-2.4,7
					c-0.2,0.8,0.3,1.6,1.1,1.8c0.5,0.1,1,0,1.4-0.4c1.6-1.6,3-3.3,4.2-5.2c1-1.5-1.1-2.9-2.4-1.8c-3.2,2.9-5.9,6.3-8.1,10.1l2.7,1.2
					c0.9-2.7,1.4-5.6,1.4-8.4c-0.1-0.8-0.8-1.4-1.6-1.4c-0.5,0-1,0.3-1.2,0.7c-1.1,2-1.9,4.1-2.4,6.3l3,0.4c0.2-3.1,0.7-6.2,1.7-9.2
					c0.6-1.9-2.2-2.6-2.9-0.8c-0.9,2.2-1.9,4.4-3.2,6.4c-1,1.7,1.5,3,2.6,1.5l-0.2,0.2l-1.7-0.7c0.3,0.4,0.5,0.9,0.5,1.4
					c0,0.6-0.1,0.6-0.7,0.8c-1.4,0.5-2.8,0.9-4.1,1.3c-0.8,0.2-1.3,1.1-1,1.9c0.2,0.6,0.8,1.1,1.4,1.1c2.5,0.1,4.4-1.6,6-3.4
					c0.9-1,0-3.1-1.5-2.5c-2.6,1.1-5.4,1.7-8.3,1.9C90.1,105.4,90.1,108.4,92,108.3z"/>
				<path class="st2" d="M107.2,94.8c1-3.3,3.3-6,5.4-8.6c2.1-2.7,4.3-5.3,6.8-7.7c2.4-2.2,5.1-4.2,8-5.8c1.3-0.8,2.6-1.4,4-0.4
					c1.2,0.9,2.1,2.2,2.6,3.6c1.2,3.2,0.7,6.9,0.6,10.2c-0.1,3.7-0.2,7.4-0.5,11.1c-0.2,1.8-0.4,3.6-0.6,5.3
					c-0.4,1.7-0.5,3.5-0.4,5.3c0.3,1.6,0.2,3.3-0.2,4.8c-0.1,0.3-0.2,0.5-0.3,0.8l-0.2,0.4c0.9,0.3,1,0.3,0.5-0.1
					c-0.6-0.6-1.2-1.2-1.8-1.8c-4.8-5.2-7.7-11.8-10.5-18.2c-0.8-1.8-3.4-0.2-2.6,1.5c2.9,6.6,6,13.4,11,18.8c1,1.1,2.4,3,4.1,2.8
					s2.6-2.3,3-3.8c0.6-2,0.2-3.9,0.1-5.9c0.1-2,0.3-4.1,0.7-6.1c0.5-4.2,0.8-8.5,0.9-12.7c0.1-2.2,0.1-4.3,0.1-6.5
					c0.1-2-0.1-3.9-0.5-5.8c-0.9-3.1-3.1-6.7-6.6-7.2c-2-0.3-3.6,0.7-5.2,1.7c-1.6,0.9-3.1,2-4.6,3.1c-3.4,2.7-6.6,5.8-9.2,9.3
					c-2.7,3.4-5.8,7-7.2,11.2C103.8,95.9,106.7,96.7,107.2,94.8L107.2,94.8z"/>
				<path class="st2" d="M117.3,80.3c-1.5,3.3-3.6,6.3-6.3,8.8l2.5,1.5c0.8-1.6,1.9-3,3.2-4.1c1.4-1.4,2.8-2.8,4.3-4.2l-2.4-1.8
					c-1.6,2.8-3.7,5.3-6.2,7.3c-1.5,1.3,0.6,3.3,2.1,2.1c2.7-2,5.3-4.3,7.6-6.8l-2.4-1.8c-1.7,4-3.6,8.5-7.5,10.9l1.8,2.4
					c2.7-2.9,5.6-5.7,8.7-8.3l-2.1-2.1c-3.5,4-7.7,7.3-12.3,9.8l2,0.5l-0.1-0.2l0.2,1.2c0.2-0.7,0.6-1.3,1.1-1.9l1.5-2.4l2.7-4.4
					c0.4-0.7,0.1-1.6-0.6-2c-0.6-0.3-1.3-0.2-1.8,0.2c-1.9,1.9-4.1,3.5-6.4,4.8l1.8,2.3c2.2-2.1,4.6-4.2,6.9-6.2
					c1.1-1,2.3-1.9,3.5-2.8l1.8-1.5c0.5-0.4,1.1-0.9,1.7-1.2l-1.1-0.4l0.1,0.2l-0.2-1.8c-0.4,0.9-1.1,1.7-2,2.1l1.8,1.8l1-3.4
					c0.5-1.7-1.8-2.5-2.7-1.2c-1.6,2.3-3.6,4.3-5.8,6l2.1,2.1c4.7-4,10.9-6.2,14.9-11.1c1-1.2-0.3-3.3-1.8-2.3
					c-4,2.6-8.3,4.7-12.8,6.3l1.5,2.5c2.5-2.6,5.4-4.9,8.6-6.7l-2.3-1.3c-0.1,0.7-0.3,1.4-0.7,2c-0.3,0.8,0,1.7,0.7,2
					c0.4,0.2,0.9,0.2,1.3,0c2.6-1.5,4.7-3.7,6.1-6.4l-2.7-0.3c0.5,1.5-0.2,3.1,0.3,4.7c0.3,1.4,1.3,2.4,2.7,2.8
					c0.7,0.2,1.3-0.1,1.7-0.7c0.3-0.5,0.4-1.1,0.4-1.7h-3l0.1,2.7h3c-0.1-2-0.2-4-0.1-6c0.1-1.8-2.4-2-2.9-0.4
					c-1.5,4.8-5.8,7.9-9.6,10.8c-1.3,0.9-0.6,3.4,1.2,2.7c2.1-0.8,4-1.9,5.7-3.3l-2.1-2.1l-9.5,9.9l2.4,1.8c3.9-6.1,9.6-11,16.2-14
					l-1.5-2.6c-3.4,2.1-5.8,5.2-8,8.4s-4.1,7.4-7.8,9l1.8,2.3c2-1.6,3.7-3.5,5-5.7c0.8-1.4-1.2-3.2-2.3-1.8l-2.1,2.6
					c-0.6,0.6-0.5,1.6,0.1,2.1c0.6,0.5,1.5,0.5,2,0l13.2-11.7c1.5-1.3-0.6-3.3-2.1-2.1c-5.2,4.2-8,10.6-12.8,15.2l2.4,1.8
					c3.3-4.8,8.7-7.7,12.7-11.9l-2.4-1.8c-3.3,5.8-9.4,9.2-12.9,14.8c-0.9,1.4,1.2,3.1,2.3,1.8c2.1-2.5,4.4-4.7,6.9-6.6
					c2.3-1.8,5.2-3.1,6.8-5.6c0.9-1.4-1.3-3.2-2.4-1.8c-3.9,5.1-9.7,8.5-12.9,14.2c-0.4,0.7-0.1,1.6,0.6,2c0.7,0.4,1.6,0.1,2-0.5
					c3-4.1,7.3-6.9,11.5-9.6l-2.1-2.2c-2.9,4.5-6.9,8.1-10.9,11.7c-1.4,1.3,0.7,3.4,2.1,2.1c3.6-3.1,7.3-6.1,11.1-8.9l-1.8-2.4
					c-4,3.3-7.5,7.1-10.3,11.4c-1,1.5,1.1,2.9,2.3,1.8c2.8-2.6,5.9-5,9-7.2l-1.8-2.3c-2.3,2.9-4.8,5.8-7.4,8.5
					c-0.6,0.6-0.6,1.5,0,2.1c0.5,0.5,1.2,0.6,1.8,0.2c2.7-1.4,5.3-3.1,7.8-5c0.5-0.5,0.6-1.2,0.2-1.8c-0.5-0.8-1.4-1.1-2.3-0.8
					c-1,0.4-1.5,1.3-2.1,2.2c-1.4,1.9-3,3.8-4.7,5.4c-1.4,1.4,0.7,3.4,2.1,2.1c1.9-1.6,3.9-3.1,6-4.3l-2-2c-1.5,1.9-3.1,3.8-4.9,5.4
					c-1.3,1.3,0.3,3,1.8,2.4l2.8-1.2l-2-2l-1.4,2.5c-0.3,0.8,0,1.7,0.8,2c0.5,0.2,1.1,0.1,1.5-0.2l3-2.6l-2.6-1.1l-0.6,6.2l1.9-1.4
					c-0.8-0.3-1.5-0.6-2.1-1.2v2.1l0,0c1.9-0.4,1.1-3.3-0.8-2.9c-0.5,0.1-1,0.4-1.4,0.7c-0.6,0.6-0.6,1.5,0,2.1c1,0.9,2.2,1.5,3.4,2
					c0.8,0.2,1.6-0.3,1.9-1.1c0-0.1,0-0.2,0.1-0.4l0.6-6.2c0.1-1.4-1.7-1.8-2.6-1.1l-3,2.6l2.4,1.8l1.4-2.5c0.4-0.7,0.1-1.6-0.6-2
					c-0.4-0.2-1-0.2-1.4,0l-2.8,1.2l1.8,2.4c1.9-1.9,3.7-3.9,5.4-6.1c0.9-1.2-0.9-2.8-2.1-2c-2.3,1.4-4.6,3-6.6,4.8l2.1,2.1
					c1.1-1.1,2.2-2.2,3.2-3.4c0.5-0.6,0.9-1.1,1.3-1.7l0.7-0.9c0.1-0.2,0.8-0.8,0.3-0.8l-1.3-0.7l0.1,0.2l0.2-1.8
					c-2.2,1.7-4.6,3.2-7.2,4.5l1.8,2.4c2.6-2.7,5-5.6,7.4-8.5c0.9-1.2-0.3-3.4-1.8-2.4c-3.4,2.3-6.6,4.9-9.7,7.7l2.4,1.8
					c2.7-4.1,6-7.7,9.9-10.8c1.3-1.1-0.5-3.4-1.8-2.4c-4,3-7.9,6.1-11.7,9.4l2.1,2.1c4.1-3.8,8.2-7.6,11.3-12.3c0.3-0.8,0-1.7-0.7-2
					c-0.4-0.2-0.9-0.2-1.3,0c-4.7,3-9.3,6.1-12.6,10.6l2.6,1.5c3-5.5,8.7-8.8,12.4-13.6l-2.4-1.8c-0.8,1.1-1.8,2-3,2.6
					c-1.2,0.8-2.5,1.7-3.6,2.6c-2.4,1.9-4.6,4-6.6,6.3l2.4,1.8c3.4-5.7,9.6-9.1,12.9-14.8c0.8-1.4-1.2-3.1-2.4-1.8
					c-4.3,4.4-9.8,7.4-13.3,12.4c-1,1.4,1.2,3,2.3,1.8c4.8-4.6,7.6-11,12.9-15.2l-2.1-2.1l-13.2,11.7l2.1,2.1l2.1-2.6l-2.4-1.8
					c-1.1,2-2.7,3.7-4.5,5.1c-0.6,0.5-0.6,1.4-0.1,2c0.5,0.6,1.3,0.8,1.9,0.4c3.7-1.6,5.8-5.6,8-8.7s4.4-6.6,7.8-8.7
					c0.7-0.4,0.9-1.4,0.5-2.1c-0.4-0.7-1.3-0.9-2-0.5c-7.1,3.2-13.1,8.5-17.3,15.1c-0.4,0.7-0.2,1.6,0.6,2c0.6,0.3,1.3,0.2,1.8-0.2
					l9.5-9.9c1.4-1.4-0.7-3.3-2.1-2.1c-1.3,1.1-2.8,1.9-4.3,2.6l1.2,2.7c4.6-3.3,9.2-6.9,11.1-12.5l-3-0.4c-0.1,2-0.1,4,0.1,6
					c0.1,1.9,3,2,3,0l-0.1-2.7c0-0.8-0.7-1.5-1.5-1.5s-1.5,0.7-1.5,1.5v0.2l1.7-0.7c-0.8-0.2-0.7-1.4-0.6-2c0.2-1.1,0.1-2.3-0.2-3.4
					c-0.3-0.8-1.1-1.2-1.9-1c-0.3,0.1-0.6,0.3-0.8,0.6c-1.2,2.2-2.9,4-5,5.2l2,2c0.6-1.1,0.9-2.2,1-3.5c0.1-1.2-1.3-1.8-2.2-1.3
					c-3.4,1.9-6.6,4.3-9.3,7.1c-1,1,0,3,1.5,2.5c4.7-1.7,9.3-3.9,13.5-6.7l-1.8-2.4c-4,4.8-10.2,7.1-14.9,11.1
					c-1.5,1.3,0.6,3.3,2.1,2.1c2.4-1.9,4.5-4.1,6.2-6.6l-2.7-1.2l-1,3.4c-0.3,1,0.8,2.3,1.8,1.8c1.7-0.6,3.1-1.9,3.8-3.6
					c0.3-0.6,0.2-1.3-0.2-1.8c-1.2-1.4-2.9-0.1-4,0.7c-1.5,1.1-3,2.3-4.5,3.5c-3,2.4-6,5-8.8,7.7c-0.6,0.6-0.5,1.6,0.1,2.1
					c0.5,0.4,1.2,0.5,1.7,0.2c2.5-1.5,4.9-3.2,7-5.2l-2.4-1.7l-3.5,5.7c-0.9,1.4-2.6,3.2-1.7,5c0.4,0.7,1.3,1,2.1,0.5
					c4.8-2.7,9.2-6.2,12.9-10.3c0.6-0.6,0.6-1.5,0-2.1s-1.5-0.6-2.1,0c-3,2.6-5.9,5.4-8.6,8.3c-1.1,1.2,0.3,3.3,1.8,2.4
					c4.4-2.7,6.6-7.4,8.6-12c0.6-1.4-1.1-3.2-2.4-1.8c-2.3,2.5-4.9,4.8-7.6,6.8l2.1,2.2c2.7-2.3,4.9-4.9,6.7-7.9
					c0.4-0.7,0.2-1.6-0.6-2c-0.6-0.3-1.3-0.2-1.8,0.2c-1.7,1.6-3.3,3.2-4.9,4.8c-1.4,1.4-2.5,3-3.3,4.8c-0.6,1.5,1.5,2.4,2.5,1.5
					c2.8-2.7,5.1-5.9,6.7-9.5C120.7,80.1,118.1,78.6,117.3,80.3z"/>
				<path class="st2" d="M97.4,103.7c-2.5,1.5-5.6,0.8-8.3,1c-0.7,0-1.5,0.1-2.2,0.2c-0.4,0.1-0.7,0.2-1.1,0.3s-0.2,0.1-0.6-0.1
					c-0.3-0.2-0.5-0.4-0.8-0.6c-0.3-0.1-0.7-0.3-1-0.5c-0.1-0.1-0.1-0.1,0,0.1c-0.1,0-0.1-0.1-0.1-0.2l0,0l-2.5-0.7
					c0.3,1.9,1.6,3.4,3.3,4.2c1.1,0.5,2.7-0.3,2.2-1.7c-0.4-1.2-1.2-2.3-2.2-3.2c-0.7-0.5-1.9-1.1-2.1-2c-0.3-0.8-1.2-1.2-1.9-0.9
					c-0.7,0.3-1.1,1-1,1.7c0.4,1.2,1.2,2.2,2.2,2.8c0.9,0.5,1.7,1.3,2.1,2.3l2.2-1.7c-1-0.4-1.8-1.3-1.9-2.4c-0.2-0.8-1.1-1.2-1.9-1
					c-0.2,0.1-0.4,0.2-0.6,0.4c-1.2,1.2-1.2,3.2,0,4.4l0,0c0.1,0.1,0.3,0.3,0.5,0.4c0.4,0.2,0.8,0.3,1.2,0.6c0.3,0.3,0.7,0.5,1,0.8
					c1,0.4,2.2,0.4,3.2,0c1.9-0.3,3.9-0.4,5.8-0.3c2,0.1,4.1-0.4,5.8-1.4c0.7-0.4,1-1.3,0.5-2.1C99,103.6,98,103.3,97.4,103.7
					L97.4,103.7L97.4,103.7L97.4,103.7z"/>
				<path class="st2" d="M82.2,100.7c-0.2,0-0.3-0.1-0.2-0.3l-1.4,1.9l-0.3-0.1c0.7,0.4,1.7,0.1,2.1-0.6c0,0,0,0,0,0l0,0
					c0.1-0.2,0.2-0.5,0.2-0.7c-0.1-1.8-1.3-2.3-2.4-3.6c-0.4-0.7-0.8-1.3-1.1-2c-0.5-0.8-1.3-1.2-2-1.8c-0.4-0.6-0.8-1.2-1.1-1.9
					c-0.5-0.8-1.1-1.4-1.8-2c-1.3-1.2-2.5-2.6-3.5-4c-2.1-2.8-5-4.5-7.8-6.6c-1.3-1-2.6-2.2-3.7-3.4c-0.6-0.7-1.5-1.1-2.4-1.2
					c-0.9,0-1.8-0.4-2.4-1.1c-1.3-1.4-3.4,0.7-2.1,2.1c0.5,0.6,1.2,1.1,2,1.5c0.8,0.3,1.7,0.2,2.5,0.5s1.1,1.2,1.6,1.7
					c0.6,0.5,1.1,1,1.8,1.5c2.6,2,5.5,3.5,7.6,6c1,1.3,1.9,2.7,3,3.9c0.6,0.6,1.3,1.2,1.9,1.8c0.5,0.6,1,1.3,1.3,2
					c0.4,0.6,0.9,1.2,1.5,1.6c0.7,0.4,1.2,1,1.5,1.8c0.3,0.6,0.7,1.2,1.2,1.8c0.3,0.3,1.4,1,1.4,1.4l2.2-1.3
					c-0.4-0.2-0.8-0.3-1.2-0.3c-0.8,0-1.5,0.7-1.5,1.6c0,0,0,0,0,0l0,0c0,0.1,0,0.2,0,0.3c0.3,1.2,1.2,2.1,2.3,2.4
					c0.8,0.2,1.6-0.3,1.8-1.1C83.4,101.7,83,101,82.2,100.7L82.2,100.7z"/>
				<path class="st2" d="M56.2,74.1c-0.5-0.2-1-0.6-1.4-1.1c-0.4-0.4-0.8-0.7-1.3-1c-0.9-0.7-1.9-1.2-3-1.7c-2.3-1-4.7-1.9-7.1-2.6
					c-4.3-1.4-10-3.4-14.3-1c-0.7,0.4-0.9,1.3-0.5,2c7.1,15.6,20.6,26.8,35.6,34.4c4.3,2.3,8.9,4,13.7,5c1.9,0.4,2.7-2.5,0.8-2.9
					c-8.1-1.6-15.6-5.8-22.5-10.2c-6.8-4.3-12.8-9.7-17.9-16c-2.9-3.7-5.3-7.6-7.2-11.9l-0.5,2c1.9-1.1,4.2-0.7,6.3-0.3
					c2.4,0.5,4.7,1.2,7,2.1c2.1,0.7,4.2,1.5,6.2,2.4c1,0.5,1.9,1.1,2.7,1.8c0.7,0.8,1.6,1.4,2.5,1.8C57.2,77.5,58.1,74.6,56.2,74.1
					L56.2,74.1z"/>
				<path class="st2" d="M82.2,106.4h-3.6v3c3-0.3,3.7-3.1,3.4-5.8c0-0.8-0.7-1.5-1.6-1.5c-0.2,0-0.5,0.1-0.7,0.2
					c-1.1,0.6-2.1,1.4-3.1,2.3l2.5,1.5c0.3-0.9,0.8-1.8,1.4-2.6c0.6-0.6,0.5-1.6-0.1-2.1c-0.6-0.5-1.5-0.5-2,0l-2.5,2.2l2.6,1.1
					c0.1-1.1,0.6-2.2,1.2-3.1c0.4-0.7,0.2-1.6-0.5-2c-0.5-0.3-1-0.3-1.5,0c-1.6,1-3,2.2-4.4,3.5l2.1,2.1c1.4-1.8,2.6-3.8,3.4-5.9
					c0.5-1.2-1.2-2.4-2.2-1.7c-1.9,1.3-3.7,2.8-5.2,4.6L74,104l3.6-5.8c0.8-1.2-0.8-3-2-2l-5.4,3.9c-1.2,0.8-2.7,2.4-1.2,3.8
					c0.6,0.5,1.4,0.5,2-0.1c1.3-1.4,2.4-2.8,3.6-4.3s2-2.8,1.4-4.6c-0.2-0.8-1.1-1.2-1.8-1c-0.3,0.1-0.5,0.2-0.7,0.4
					c-1.6,2-3.6,3.7-5.9,5l2,2c1.7-2.9,5.2-4.4,5.8-8c0.2-1.2-1-2.5-2.2-1.7c-3.4,2.2-6.4,5.1-8.8,8.3c-1.1,1.4,1.2,2.9,2.3,1.8
					c2.7-2.5,4.7-5.7,6-9.1c0.5-1.3-1.1-2.2-2.2-1.7c-3.5,1.8-6.4,4.5-8.4,7.8l2.8,1.2c1.3-3.5,4.9-5.7,6.7-9c0.3-0.8,0-1.7-0.7-2
					c-0.4-0.2-0.9-0.2-1.3,0c-3.9,1.9-7.2,4.7-9.6,8.3l2.7,1.2c1.2-3.7,5.1-6,7.2-9.2c0.3-0.8,0-1.7-0.7-2c-0.4-0.2-0.9-0.2-1.3,0
					c-2.3,1.2-4.5,2.6-6.6,4.1c-1.8,1.2-3.2,2.9-3.8,5c-0.2,0.8,0.3,1.6,1.1,1.8c0.6,0.2,1.3-0.1,1.6-0.7c1.5-2.5,3.3-4.8,5.3-6.9
					c0.9-0.9,2.2-1.8,2.7-3c0.5-1.1,0.2-2.5-0.8-3.2c-1.1-0.8-2.4-0.2-3.3,0.5C63.1,86,62,86.9,61,87.9c-1.1,1-2.1,2-3.1,3.1
					c-0.5,0.6-1,1.1-1.5,1.7c-0.2,0.3-0.5,0.6-0.7,0.9l-0.3,0.4c-0.4,0.4-0.4,0.5,0,0.2l1.2,0.2c0.2,0.8,0.5,1,0.6,0.6
					c0.1-0.2,0.2-0.3,0.3-0.5s0.3-0.5,0.5-0.7c0.4-0.5,0.9-1,1.3-1.5c1-1,2-1.9,2.9-2.8c1.5-1.5,4.7-4.5,3-6.8
					c-0.9-1.1-2.3-1.4-3.6-0.8c-1.3,0.7-2.4,1.7-3.2,3L51.7,93c-0.6,0.6-0.5,1.6,0.1,2.1c0.6,0.5,1.5,0.5,2,0
					c3.3-2.6,6.4-5.5,9.3-8.6c0.6-0.6,0.6-1.6,0-2.2l0,0c-0.1-0.1-0.2-0.1-0.3-0.2C63,84.4,63,84.3,63,84s0.1-0.5,0.2-0.7
					c0.1-0.4,0.2-0.8,0.2-1.2c0.1-0.9-0.3-1.7-1-2.2c-1.7-1-3.6,1-4.8,2c-2.9,2.5-5.4,5.5-7.3,8.8c-0.3,0.8,0,1.7,0.7,2
					c0.4,0.2,0.9,0.2,1.3,0c3.8-2,6.6-5.4,8-9.5c0.4-1.1,0.9-2.6,0.2-3.6c-1.1-1.6-2.5-0.4-3.5,0.5l-4,3.7c-1.4,1.2-2.8,2.3-4,3.6
					s-1.6,2.5-0.9,4c0.4,0.7,1.4,0.9,2.1,0.5c0.3-0.2,0.6-0.5,0.7-0.9c0.7-2.9,2.1-5.5,4.2-7.6c1.7-1.7,5.2-3.6,3.4-6.4
					c-0.4-0.7-1.3-0.9-2-0.5l0,0c-0.1,0.1-0.2,0.1-0.3,0.2C52.3,80,49,83.8,46,87.9l2.7,0.3c-0.2-0.7,1.2-1.9,1.5-2.4l2-2.5l4-5
					c0.6-0.5,0.7-1.5,0.2-2.1c0,0,0,0,0,0l0,0c-0.1-0.1-0.2-0.2-0.4-0.3c-2.3-1.3-4.9,1.7-6.4,3.2c-1.9,2-3.7,4.2-5.4,6.4l2.5,1.5
					c2.1-3.7,4.3-7.2,6.7-10.7c0.8-1.1-0.5-2.5-1.7-2.2c-2,0.5-3.3,2.7-4.6,4.2l-4.7,5.5l2.5,1.5c1.3-4.1,4.1-7.4,6.8-10.6
					c0.6-0.6,0.6-1.6,0-2.2c-0.1-0.1-0.2-0.1-0.3-0.2c-1.8-1.3-3.8-0.1-5,1.3c-1.4,1.7-2.7,3.5-3.8,5.4c-0.3,0.5-0.6,1-0.9,1.5
					c-0.2,0.2-0.3,0.5-0.4,0.8c-0.5,0.7-0.1,0.8,1.2,0.6c0.2-0.4,0.3-0.7,0.5-1.1c0.3-0.5,0.7-1,1-1.6l4.2-6.5
					c0.4-0.6,0.3-1.3-0.2-1.8c-1.8-1.7-4.5-0.9-5.8,1c-0.6,1.1-1.1,2.2-1.5,3.4c-0.6,1.2-1.4,2.3-2.4,3.2h2.1c0.2,0.2-0.1,0.3,0.2,0
					c0.1-0.2,0.2-0.5,0.3-0.8c0.3-0.7,0.6-1.4,0.9-2.1c0.5-1.2,1.1-2.5,1.8-3.7c0.4-0.7,0.1-1.7-0.6-2c-0.6-0.3-1.2-0.2-1.7,0.2
					c-2.2,1.8-4.1,3.9-5.7,6.2l2.7,1.2c0.9-2.5,2-4.9,3.2-7.2c0.4-0.8,0-1.7-0.7-2c-0.4-0.2-0.9-0.2-1.3,0c-2.2,1.4-4.2,3.3-5.7,5.5
					l2.7,1.2c0.4-1.8,1.1-3.5,2.2-5c0.3-0.6,0.2-1.3-0.2-1.8c-0.7-0.7-1.8-0.9-2.7-0.5c-0.4,0.2-0.8,0.5-1.1,0.8
					c-0.3,0.3-0.3,0.5-0.5,0.1v1.5l-0.7,0.3L32,69.4c0.3,0.9,0.5,1.8,0.7,2.7c0.4,1.9,3.3,1.1,2.9-0.8c-0.2-0.9-0.4-1.8-0.7-2.7
					c-0.2-0.6-0.8-1.1-1.5-1.1c-2.1,0.3-2.8,2.4-1,3.8c1.1,0.8,2.5,0.8,3.6,0c0.2-0.1,0.4-0.3,0.6-0.5c0.4-0.3,0.3-0.4-0.3-0.5
					l-0.2-1.8c-1.2,1.7-2.1,3.7-2.5,5.7c-0.2,0.8,0.3,1.6,1.1,1.8c0.6,0.2,1.3-0.1,1.6-0.7c1.2-1.8,2.8-3.3,4.6-4.4l-2-2
					c-1.4,2.5-2.6,5.1-3.5,7.8c-0.7,1.7,1.8,2.5,2.7,1.2c1.5-2.1,3.2-4,5.2-5.6l-2.3-1.8c-0.9,1.8-1.8,3.7-2.6,5.6
					c-0.6,1.5-1.4,3.2,0,4.6c0.6,0.6,1.5,0.6,2.1,0c1.3-1.3,2.3-2.7,3.1-4.4c0.2-0.5,1.4-4.2,2.3-3.3l-0.2-1.8
					c-1.5,2.4-3.1,4.9-4.6,7.3c-1,1.6-2.7,5,0,6.1c2.4,0.9,3.5-2.7,4.4-4.2c0.5-0.8,3.7-6.1,4.6-5.4l-0.3-2.3
					c-3.1,3.6-6.1,7.3-7.6,12c-0.2,0.8,0.3,1.6,1.1,1.8c0.5,0.1,1,0,1.4-0.4l4.1-4.8l1.9-2.3c0.5-0.6,1.2-1.8,2-2l-1.7-2.2
					c-2.4,3.5-4.6,7-6.7,10.7c-1,1.7,1.4,3,2.6,1.5s2.5-3.2,3.9-4.7c0.7-0.8,1.4-1.5,2.1-2.2c0.3-0.3,0.7-0.6,1-0.8s0.5-0.4,0.7-0.6
					s0.4-0.2,0-0.3l-0.3-2.3l-5.3,6.6c-1.4,1.8-3.7,3.8-3.1,6.3c0.2,0.8,1.1,1.2,1.9,1c0.4-0.1,0.6-0.3,0.8-0.6
					c2.8-3.8,6-7.4,9.6-10.6l-2.4-0.3c0.2,0.4-1.9,1.8-2.2,2.1c-0.9,0.9-1.7,1.8-2.5,2.8c-1.5,2-2.5,4.4-3.1,6.8l2.7-0.3
					c0,0.3,0,0.3,0.2-0.1c0.2-0.2,0.3-0.4,0.5-0.5c0.3-0.3,0.7-0.7,1.1-1l2.4-2.2l2.4-2.2c0.8-0.8,1.6-1.6,2.5-2.3l-1.2,0.2l0.2,0.1
					l-0.9-0.7c-0.2-0.3-0.3,0.7-0.4,0.9c-0.1,0.5-0.3,0.9-0.5,1.4c-0.4,1-1,1.9-1.6,2.7c-1.2,1.6-2.8,3-4.6,3.9l2,2
					c1.6-2.8,3.6-5.3,6-7.5c0.6-0.5,1.2-1,1.8-1.5l0.5-0.4c0.5-0.3,0.2-0.5-0.8-0.7c-0.1,0.4-0.2,0.8-0.3,1.3
					c-0.3,1.3,0.2,2.7,1.3,3.5L61,84.4c-2.8,3.1-5.9,6-9.2,8.6l2.1,2.1l4.3-5.3c1.2-1.8,2.6-3.5,4.2-5c0.2-0.2,0.8-0.3,0.5-0.6
					s-0.5,0.5-0.7,0.8c-0.5,0.7-1,1.3-1.6,1.9c-1.2,1.2-2.5,2.4-3.7,3.6c-1,1.1-2.5,2.7-2.7,4.2s1.6,3,3,1.8
					c0.7-0.7,1.3-1.4,1.8-2.2c0.7-0.8,1.4-1.6,2.1-2.3c1.4-1.5,3-2.9,4.6-4.2c0.2-0.2,0.5-0.3,0.7-0.5l-0.7-0.6l-0.3,0.3
					c-0.5,0.3-0.9,0.7-1.2,1.2c-0.8,0.8-1.6,1.7-2.4,2.5c-1.5,1.7-2.8,3.6-4,5.6l2.7,1.2c0.5-1.8,1.9-2.9,3.4-3.9
					c1.8-1.2,3.7-2.4,5.6-3.4l-2.1-2c-2.3,3.6-6.1,5.7-7.5,9.9c-0.6,1.7,1.8,2.5,2.7,1.2c2.1-3.1,5.1-5.6,8.5-7.2l-2.1-2
					c-1.9,3.6-5.5,5.8-7,9.7c-0.6,1.6,1.9,2.6,2.7,1.2c1.8-2.9,4.3-5.2,7.3-6.8L70,92.2c-1.1,2.9-2.9,5.6-5.3,7.7l2.4,1.8
					c2.1-2.9,4.7-5.3,7.7-7.3l-2.2-1.7c-0.3,1.4-1.2,2.7-2.3,3.6c-1.2,1.1-2.3,2.3-3.2,3.6c-0.3,0.8,0,1.7,0.7,2
					c0.4,0.2,0.9,0.2,1.3,0c2.5-1.4,4.7-3.3,6.5-5.5l-2.4-0.6c0.3,0.9-1.2,2.4-1.8,3c-0.8,1-1.6,1.9-2.5,2.9H71l-0.2-0.2l0.4,1.1
					c0,0.3,1.2-0.7,1.3-0.8l1.4-1l3-2.2l-2-2l-3.6,5.8c-0.9,1.4,1.2,3.1,2.4,1.8c1.3-1.6,2.9-3,4.6-4.1l-2.2-1.7
					c-0.7,1.6-1.6,3.2-2.7,4.6c-1.2,1.5,0.7,3.5,2.1,2.1c1.1-1.1,2.4-2.1,3.8-3l-2-2c-0.9,1.4-1.5,3-1.7,4.7
					c-0.2,1.4,1.7,1.8,2.6,1.1l2.5-2.2l-2.1-2.1c-1,1.1-1.7,2.5-2.2,3.9c-0.5,1.5,1.5,2.5,2.5,1.5c0.7-0.7,1.6-1.3,2.4-1.8l-2.4-1.5
					c0.1,0.5,0.5,2.7-0.4,2.8c-1.9,0.2-2,3.1,0,3c1.2-0.1,2.4-0.1,3.6,0c0.8,0,1.5-0.7,1.5-1.5S83,106.5,82.2,106.4L82.2,106.4z"/>
				<rect x="87.4" class="st5" width="152.6" height="91.8"/>
				<path class="st1" d="M154.2,249.5c0,0-21.6,17.2-64.2,18.9s-69-18.9-69-18.9c10.2-8.6,13-36.7,13.6-56.3c6,2,12,3.8,18.1,5.4
					c7.5,2.3,15.2,3.8,23,4.5h0.2c3.4,0.4,6.9,0.7,10.4,0.8c18.6,0.6,37.2-3.1,54.1-11C141,211.7,143.8,238.4,154.2,249.5z"/>
				<path class="st6" d="M140.3,173.2v0.1"/>
				<path class="st7" d="M140.7,190.9l-0.5,0.3"/>
				<polyline class="st8" points="158.2,127.8 158.2,91.8 169.3,91.8 169.3,128.6 				"/>
				<line class="st8" x1="158.2" y1="154.4" x2="158.2" y2="139.7"/>
				<polyline class="st8" points="169.3,151.3 169.3,155.5 169.3,156.1 167.6,156.1 164.6,156.1 				"/>
				<path class="st8" d="M54.7,156.6c-5-0.1-9.7,2-13,5.7c-0.2,0.2-0.4,0.5-0.6,0.7c-0.8,1-1.2,2.2-1.1,3.5"/>
				<path class="st8" d="M51.8,165.1c0.3-1.4,0.5-3,1.7-3.7s2.6,0.1,3.7,0.9"/>
				<path class="st8" d="M40.1,166.3c0.1,0,0,0.2-0.1,0.2l0,0"/>
				<path class="st8" d="M34.9,166.4c-0.9-1.1-1.1-2.7-0.4-4c0.1-0.2,0.2-0.4,0.4-0.6c0.4-0.5,0.8-0.9,1.4-1.2
					c3-1.7,6.2-3.2,9.4-4.6"/>
				<path class="st8" d="M35,166.3l-0.1,0.1"/>
				<path class="st8" d="M28.8,160.7l0.7-0.6c2.2-1.9,4.8-3.2,7.7-4c2.8-0.9,5.6-1.4,8.5-1.7c0,0,6.4-0.6,8.6,0.2"/>
				<path class="st8" d="M171.5,151.4c0.1,0.5,0.1,1.1-0.1,1.6"/>
				<path class="st8" d="M167.6,156.1c0.4-0.1,0.9-0.2,1.3-0.4c0.1,0,0.3-0.1,0.4-0.2"/>
				<path class="st8" d="M158.2,154.4c1.7,0.6,3.6,1.1,5.4,1.4c0.3,0.1,0.7,0.1,1,0.2"/>
				<path class="st8" d="M151.6,151c-0.3-0.2-0.7-0.5-1-0.8"/>
				<path class="st8" d="M161.9,148.3c1.4,0.7,3,0.9,4.6,0.6c3.1-0.4,6.1-1.5,8.7-3.2c0.6-0.3,1-0.8,1.4-1.3
					c0.4-0.5,0.4-1.2,0.1-1.8c-0.4-0.5-1-0.7-1.6-0.7c-0.6,0.1-1.2,0.2-1.7,0.4c-3.2,1-6.6,1.6-10,1.8c-1.2,0.1-3.2-0.4-3.4,1.1
					C160,146.4,160.7,147.6,161.9,148.3z"/>
				<path class="st8" d="M162.6,143.9c-0.8-0.4-1.2-1.1-1.2-2"/>
				<path class="st8" d="M167.1,137.5c2,0,4.1-0.4,6-1.1c0.6-0.3,1.2-0.6,1.9-0.8c0.7-0.2,1.4-0.2,2,0.1c1,0.8,1.2,2.2,0.6,3.3
					c-0.7,1-1.6,1.8-2.7,2.4"/>
				<path class="st8" d="M163.9,131.3c1-0.8,2.1-1.5,3.2-2c1.4-0.7,2.9-1,4.4-1c1.5,0,3.1,0.5,4.3,1.4c0.7,0.5,1.2,1.3,1.3,2.1
					c0.2,1.5-1.1,2.9-2.6,3.4"/>
				<path class="st8" d="M154,137c2.1,1.9,4.7,3.2,7.4,3.8c1,0.3,2.1,0.2,3-0.2c1.4-0.7,1.8-2.6,1.6-4.1c-0.4-4-3.7-7.1-7.4-8.6
					c-1.2-0.5-2.5-0.7-3.7-0.4c-1.3,0.4-2.4,1.2-3.2,2.3c-3.6,4.2-5.7,9.5-5.9,15"/>
				<path class="st8" d="M160.9,148.3c0.1,1.1,0.8,2.1,1.9,2.6c1,0.5,2.1,0.7,3.2,0.6c2.3,0,4.6-0.3,6.8-0.9
					c0.6-0.2,1.2-0.4,1.8-0.8c0.5-0.4,0.9-1,0.9-1.7c0-0.7-0.5-1.3-1.2-1.4"/>
				<path class="st8" d="M109.7,151.7c1.5,0.2,2.9,0.8,4,1.7c1.1,0.9,2.2,2,3.1,3.1l4.3,4.9"/>
				<path class="st8" d="M52.6,156.3c1.2-1.3,2.4-2.5,3.6-3.7s2.8-2.4,4.6-2.5c0.9,0,1.8,0.2,2.6,0.5l13.2,4"/>
				<path class="st8" d="M110.3,151.5c-2.8-0.3-5.4,1-7.8,2.3s-5,2.7-7.8,2.7"/>
				<path class="st8" d="M76.4,108.2c-10,2.1-19.2,6.8-26.7,13.6l-0.2,0.2c-1.4,1.3-2.7,2.7-3.7,4.3c-0.7,1.1-1.2,2.3-1.4,3.6v0.2
					c-0.2,2.3,0.3,4.5,1.5,6.5c0.9,1.5,2,2.8,3.3,4"/>
				<path class="st8" d="M51.6,142.8c5.5,4.5,12,7.6,18.9,9.3"/>
				<path class="st8" d="M99.6,154.5c6.9-2.3,13.2-6,18.7-10.7c2.7-2.2,5-4.8,6.7-7.9c1.7-3,2.2-6.6,1.5-10
					c-1.1-4.2-4.5-7.2-7.7-10.1c-4.2-3.7-8.6-7.5-14-8.5"/>
				<path class="st9" d="M76.9,107.8C56.5,102.5,39.3,89,29.2,70.5c-0.4-0.7-0.7-1.5-0.9-2.3c-0.1-0.9,0.3-1.7,1-2.2
					c0.5-0.2,1-0.3,1.6-0.3c8.9,0,17.7,2.6,25.1,7.6c2.3,1.5,4.4,3.3,6.5,5c2.4,2,4.8,3.9,7,6c5.8,5.4,10.5,11.8,15.1,18.3
					c2.2-0.8,4.5-1.2,6.9-1.3c2.4,0,4.8,0.4,7,1.1c9.9-14.2,17.5-25.1,21.4-28.7c1.6-1.6,3.5-3,5.6-4c2.1-1,4.5-1.2,6.7-0.4
					c2.3,1,4,3,4.7,5.4c0.7,2.4,1.1,4.8,1,7.3c0.1,10.7-1.2,21.3-2.5,31.9c0,0.8-0.3,1.5-0.8,2.1c-0.9,0.9-2.4,0.4-3.4-0.2
					c-4-2.3-6.5-6.7-8.7-10.8l-5.1-9.4c-4.9,2.9-9.2,6.7-12.6,11.2"/>
				<path d="M79.5,103.2c-2.7-3.2-5.6-6.3-8.7-9.2c-3-2.9-6.2-5.7-9.6-8.2c-3.3-2.6-6.9-4.8-10.3-7.2s-7.1-4.4-11.4-4.3v-0.2
					c2.1-0.6,4.4-0.5,6.5,0.1c2.1,0.6,4.1,1.5,6,2.7c3.6,2.3,7.1,4.8,10.3,7.6c3.3,2.8,6.4,5.7,9.3,8.8c2.9,3.1,5.6,6.4,8.2,9.8
					L79.5,103.2z"/>
				<path d="M39,74.1c2.8,5.5,6.6,10.4,11.3,14.4c4.6,4.1,9.7,7.5,14.6,11.4c-5.6-2.7-10.9-6.2-15.6-10.3c-2.4-2.1-4.5-4.4-6.3-7
					C41.2,80,39.8,77.2,39,74.1z"/>
				<path class="st10" d="M89.1,132.8c2.7-1,5.6-1.8,8.4-2.4c1-0.2,2.2-0.7,2.3-1.7c0-0.7-0.3-1.3-0.8-1.7c-2.3-2.2-5.9-2.3-9.1-2.3
					H79.2c-1.9-0.1-3.7,0.1-5.6,0.4c-1.9,0.4-3.5,1.4-4.7,2.8c-0.4,0.3-0.5,1-0.2,1.4c0,0,0,0,0,0c0.1,0.1,0.2,0.2,0.4,0.3l11.1,6.6
					c2.1,1.2,2.3,0.6,4.1-0.7C85.7,134.4,87.4,133.5,89.1,132.8z"/>
				<path class="st8" d="M76.3,124.6c-1.8-1.9-2.2-4.7-1.2-7.1c1.1-2.4,3.4-4,6-4.1c2.6-0.1,5,1.3,6.3,3.6c1.3,2.3,1.2,5.1-0.1,7.3"
					/>
				<path class="st8" d="M87.9,117c-0.1-1.1,0.6-2.2,1.6-2.5c1-0.3,2.1-0.4,3.2-0.2c1.7,0.2,3.5,0.4,4.7,1.6
					c0.9,1.2,1.5,2.6,1.6,4.1c0.2,1.1,0.3,2.2,0.3,3.3c0,1.1-0.5,2.1-1.3,2.9"/>
				<path class="st11" d="M91,121.3c-0.3,1.1,0.3,2.4,1.3,2.9c1.1,0.5,2.4,0,2.9-1C96.5,120.5,91.9,117.9,91,121.3z"/>
				<path class="st11" d="M79.8,123.6c0.9,0.3,1.8,0,2.3-0.8c1-1.5-0.4-4.9-2.5-4C77.9,119.5,78.2,122.9,79.8,123.6z"/>
				<path class="st12" d="M139.4,192.9c-33,16.6-71.9,16.6-104.8-0.2v-19.1c18.1,2.6,36.3,3.8,54.6,3.6c16.8-0.2,33.6-1.5,50.3-4.1
					V192.9z"/>
				<path d="M81.6,137.9c2.7,1.1,5.4,2,8.3,2.4c2.8,0.5,5.6,0.6,8.4,0.3c2.8-0.2,5.5-0.9,7.9-2.3c1.2-0.7,2.1-1.7,2.8-2.9
					c0.7-1.2,1-2.7,0.8-4.1c0.6,1.4,0.6,3,0.1,4.5c-0.5,1.5-1.5,2.8-2.8,3.8c-1.2,0.9-2.7,1.7-4.2,2.1c-4.4,1.3-9.1,1.4-13.5,0.1
					C86.6,141.1,83.9,139.7,81.6,137.9z"/>
				<path d="M81.6,137.8c-2.6,1.2-5.4,2-8.2,2.3c-2.9,0.3-5.8,0.2-8.6-0.3c-1.4-0.3-2.8-0.6-4.2-1.1c-1.5-0.5-2.8-1.3-3.9-2.4
					c-0.6-0.6-1-1.3-1.3-2c-0.3-0.7-0.4-1.5-0.4-2.3c0-0.8,0.2-1.5,0.6-2.2c0.4-0.7,0.9-1.2,1.6-1.4c-1,0.9-1.5,2.3-1.2,3.6
					c0.1,0.6,0.3,1.2,0.6,1.8c0.3,0.5,0.7,1,1.2,1.4c2,1.6,4.7,2.2,7.4,2.7c2.7,0.5,5.4,0.7,8.2,0.7C76,138.4,78.8,138.2,81.6,137.8
					z"/>
				<path d="M100.9,103.2c0.9-2.1,2-4.1,3.1-6.1c1.2-1.9,2.5-3.8,3.8-5.7c1.3-1.9,2.7-3.7,4.3-5.4c0.9-0.9,1.9-1.6,3-2.1
					c1.1-0.5,2.4-0.5,3.5-0.1V84c-1.1,0-2.1,0.4-3,1c-0.9,0.6-1.7,1.3-2.3,2.1c-0.7,0.8-1.4,1.7-2.2,2.5s-1.5,1.7-2.2,2.5
					c-1.4,1.7-2.8,3.5-4.1,5.3c-1.3,1.8-2.5,3.7-3.6,5.7L100.9,103.2z"/>
				<path d="M118,83.7c1.1-0.2,2.1,0.3,2.6,1.3c0.4,1,0.2,2.1-0.4,3c-1.2,1.7-2.5,3.2-4,4.5c-1.4,1.4-2.9,2.8-4.4,4
					c-0.8,0.6-1.5,1.3-2.2,1.9c-0.7,0.7-1.5,1.3-2.4,1.9l-0.1-0.1c0.6-0.8,1.3-1.5,1.9-2.3c0.6-0.7,1.3-1.5,2-2.1
					c1.4-1.4,3-2.6,4.5-3.9c1.5-1.2,2.9-2.7,4.1-4.2c0.6-0.7,0.9-1.7,0.6-2.6C119.8,84.3,118.9,83.7,118,83.7L118,83.7z"/>
				<line class="st13" x1="64.9" y1="138.8" x2="64.9" y2="138.8"/>
				<path class="st1" d="M158.2,154.4c-2.3-0.8-4.5-2-6.5-3.4c-0.1,0.2-0.1,0.3-0.2,0.5c1.2,0.5,1.9,1.8,1.9,3.1
					c-0.2,1.8-2.2,2.8-3.9,3.4c-30.9,10.8-64.5,9.1-97.2,7.2l-0.4-0.1v0.1c-0.5,1.9-1.8,3.4-3.5,4.3c-1.7,0.9-3.7,0.9-5.5,0.2
					c-1.4-0.5-2.4-1.6-2.8-2.9c0-0.1,0-0.2,0-0.3l0,0c-1.2,1.2-3.1,1.4-4.5,0.4c-0.2-0.1-0.3-0.3-0.5-0.5c-0.7,0.5-1.4,0.7-2.3,0.7
					c-0.9-0.1-1.7-0.5-2.5-1c-1.2-0.7-2.6-1.6-2.7-3c0-0.5,0.1-1.3,1.3-2.5l-0.5-0.1c-1.6-0.3-2.7-1.7-2.7-3.3
					c0.1-1.6,0.9-3.1,2.2-4c1.3-0.9,2.7-1.6,4.2-2c7.3-2.5,14.8-4.5,22.3-6.1l-2.8-2.4l-0.1-0.1l-1.2-0.8c-0.4-0.4-0.8-0.7-1.2-1.1
					l0,0l-0.9-0.9l-1.9,0.2l0.6,0.1c-27.6,3.2-46.5,9.7-46.5,17.2c0,10.7,38.7,19.3,86.5,19.3s86.5-8.6,86.5-19.3
					c-0.1-1.7-0.9-3.2-2.1-4.3c-0.4,1.1-1.1,1.9-2.1,2.5v0.6h-1.7c-1,0.2-2,0.2-3.1,0"/>
				<path class="st8" d="M171.4,153c-0.5-0.5-1-0.9-1.6-1.4"/>
				<path class="st8" d="M51.5,142.7c-0.8-0.7-1.5-1.4-2.3-2"/>
				<path class="st1" d="M145.7,142.7c-6.9-1.3-14.7-2.4-23.2-3.2l-2,2.2l-2.9,3.1c8,0.8,16,2.1,23.9,3.8l4.3-3.9"/>
				<path class="st8" d="M146,142.8l-0.3-0.1"/>
				<line class="st8" x1="151.4" y1="151.5" x2="150.6" y2="150.2"/>
				<path class="st8" d="M143.5,159.1c3.4-1.5,6.2-4.2,7.9-7.6"/>
				<path class="st8" d="M151.7,150.8l-0.1,0.2"/>
				<path class="st8" d="M146.3,144.5c-7.4,7-15.9,12.5-25.3,16.4"/>
				<text transform="matrix(0.99 0 0 1 94.0303 26.71)" class="st3 st14 st15">Moves:</text>
				<path class="st16" d="M72.2,141c0,0.8-0.2,1.5-0.2,2.3c2.4-0.3,1.4,2.6,1.5,4.3c0.4-0.1,0.9,0.1,1.3,0c0,0.3,0,0.5,0,0.8h0.2
					c3.8,1.1,7.8,1.4,11.8,0.9c0.1-0.4,0.1-0.8,0-1.2l-0.2-0.3c0.1,0.1,0,0.2,0.3,0.3c0.1-1.6,0.1-3.1,0.2-4.7c0.5,0,1,0.1,1.4,0.2
					c0.1-0.6,0-1.2,0.1-1.8"/>
				<path class="st2" d="M104.1,110.4c3.9,0.9,7,3.2,10,5.8c1.5,1.3,3,2.7,4.5,4.1c0.8,0.7,1.6,1.4,2.3,2.2c0.5,0.7,0.9,1.6,1,2.5
					c0.4,1.9,3.3,1.1,2.9-0.8c-0.2-1-0.5-2-1-2.9c-0.6-1-1.4-1.8-2.3-2.5c-1.7-1.6-3.4-3.1-5.1-4.7c-3.3-2.9-6.9-5.5-11.3-6.6
					C103.1,107.1,102.3,110,104.1,110.4L104.1,110.4z"/>
				<path class="st2" d="M121.8,123.9c0.7,1.2,1.2,2.5,1.6,3.8c0.1,1.3,0,2.6-0.5,3.8c-0.2,1.2-0.7,2.3-1.4,3.2
					c-0.8,0.9-1,2.1-1.8,3c-0.7,0.8-1.5,1.6-2.4,2.3c-0.9,0.7-1.7,1.6-2.5,2.3c-1,0.7-2,1.3-3,1.9c-1.1,0.8-2.2,1.6-3.3,2.4
					c-1.5,1.2,0.6,3.3,2.1,2.1c1.2-1,2.4-1.9,3.7-2.7c1.2-0.7,2.2-1.5,3.2-2.4c1.8-1.8,4.1-3.1,5.3-5.4c0.2-0.6,0.5-1.1,0.8-1.6
					c0.4-0.4,0.7-0.9,1-1.4c0.6-1.4,1.1-2.8,1.3-4.3c0.4-1.3,0.4-2.7,0.2-4c-0.5-1.5-1.3-3-1.9-4.5
					C123.5,120.6,121,122.2,121.8,123.9L121.8,123.9z"/>
				<path d="M119.1,125.2c4.6-2.1,9.4-3.7,14.3-4.8c2.5-0.5,5.1-0.7,7.6-0.6c2.6,0.2,5,0.9,7.3,2.2l0,0c-2.4-0.7-4.8-1.2-7.3-1.3
					c-2.5-0.1-5,0-7.4,0.3C128.6,122,123.8,123.4,119.1,125.2L119.1,125.2z"/>
				<path d="M121.8,128.3c3.5-1.8,7.3-2.9,11.2-3.3c2-0.3,3.9-0.3,5.9-0.1c2,0.2,3.9,0.7,5.7,1.5v0.1c-1.9-0.2-3.9-0.5-5.8-0.6
					c-1.9-0.1-3.8-0.2-5.8-0.1c-3.9,0.2-7.7,1.1-11.2,2.6L121.8,128.3z"/>
				<path d="M122.9,132.4c3.2-1.4,6.7-2.2,10.2-2.3c1.8-0.1,3.5,0,5.3,0.3c1.7,0.3,3.4,0.9,5,1.7v0.1c-1.7-0.3-3.4-0.6-5.1-0.8
					s-3.4-0.4-5.1-0.5c-3.4,0-6.9,0.5-10.1,1.6L122.9,132.4z"/>
				<path class="st2" d="M108.6,146.6c-0.9,0-1.7,0.3-2.3,0.8c-0.3,0.2-0.7,0.4-1,0.5c-0.2,0.1,0.2-0.1-0.1,0l-0.2,0.1l-0.6,0.2
					c-1.6,0.6-3.1,1.4-4.5,2.4c-0.6,0.6-0.6,1.5,0,2.1l0,0c0.6,0.6,1.5,0.6,2.1,0c-0.2,0.2,0.2-0.1,0.2-0.2l0.4-0.3
					c0.3-0.2,0.6-0.4,0.9-0.5l0.5-0.2c0,0,0.6-0.2,0.2-0.1l0.9-0.4c0.7-0.2,1.5-0.5,2.1-0.9c0.3-0.2,0.5-0.4,0.8-0.5
					c0.1,0,0.5-0.3,0.2-0.1h0.2c0.8,0,1.5-0.7,1.5-1.5C110,147.2,109.4,146.6,108.6,146.6L108.6,146.6z"/>
				<path class="st2" d="M106.8,147.3c-3.5,1.8-7.1,3.3-10.8,4.5c-0.8,0.2-1.2,1.1-1,1.9c0.1,0.2,0.2,0.5,0.4,0.6
					c1.1,1.1,3.2,1.7,4-0.1c0.4-0.7,0.2-1.6-0.6-2.1l0,0c-0.2-0.1-0.5-0.2-0.8-0.2c-1,0-2,0.2-3,0.5c-0.8,0.2-1.2,1.1-1,1.9l0.2,0.6
					l1.4-1.9c-4.2-0.2-8.3-0.3-12.5-0.7c-3.9-0.4-7.8-1.3-11.5-2.7c-1.8-0.7-2.6,2.2-0.8,2.9c8,3,16.3,3.1,24.8,3.6
					c0.8,0,1.5-0.7,1.5-1.5l0,0c0-0.1,0-0.3,0-0.4l-0.2-0.6l-1,1.9c0.7-0.2,1.5-0.4,2.2-0.4l-1.3-2.3c1,0,1.2-0.1,0.7-0.5l-0.7,2.5
					c3.9-1.3,7.7-2.9,11.4-4.8C110,149.1,108.5,146.6,106.8,147.3L106.8,147.3z"/>
				<path class="st2" d="M70.3,148.2c-3.7-0.5-6.9-2.3-10.2-4c-3.1-1.6-5.9-3.7-8.3-6.3c-2.2-2.5-5-5.2-3.5-8.8
					c0.6-1.6,1.6-2.9,2.9-3.9c1.2-0.8,2.3-1.9,3-3.2c0.9-1.7-1.7-3.2-2.6-1.5c-0.4,0.8-0.9,1.5-1.6,2c-0.7,0.4-1.4,1-2,1.6
					c-1.2,1.4-2.1,3.1-2.7,4.8c-1.4,4.1,1,7.3,3.5,10.3c2.6,3.1,5.7,5.6,9.2,7.5c3.6,1.9,7.3,4,11.5,4.6c0.8,0.2,1.6-0.2,1.8-1
					c0.2-0.8-0.2-1.6-1-1.8L70.3,148.2z"/>
				<path class="st2" d="M54.2,122.8c3.1-2.8,6.6-5.1,10.4-6.9c4-1.9,8.2-3.4,12.6-4.4c2-0.5,4-0.8,6.1-0.7c2.3,0.1,4.5,0.2,6.8,0.3
					s4.5,0.3,6.8,0.4c1,0.1,2-0.1,3-0.5c0.7-0.3,1.9-1.1,2.7-0.7c1.7,0.8,3.3-1.8,1.5-2.6c-0.9-0.5-1.9-0.6-2.9-0.4
					c-1.1,0.2-2,0.9-3.1,1.1c-1.1,0.1-2.3,0.1-3.4-0.1l-3.9-0.2c-4.7-0.3-9.4-0.8-14,0.3c-8.9,2.3-17.9,5.7-24.7,12.2
					C50.6,122,52.7,124.1,54.2,122.8L54.2,122.8z"/>
				<path d="M83.5,107.7c-0.8,0.6-1.5,1.1-2.3,1.6s-1.6,1-2.4,1.5c-0.8,0.6-1.6,1-2.5,1.3c-1,0.3-2,0.4-2.9,0.2l-0.1-0.2
					c0.6-0.8,1.4-1.4,2.2-1.9c0.8-0.4,1.7-0.7,2.6-0.9l2.6-0.9l2.7-0.9L83.5,107.7z"/>
				<path d="M95.1,108.6c0.6,0.4,1.2,0.8,1.8,1.1s1.2,0.6,1.9,0.9c0.6,0.2,1.3,0.4,1.9,0.8c0.6,0.4,1.2,0.9,1.6,1.5v0.2
					c-0.8,0.3-1.6,0.3-2.4,0.1c-0.7-0.2-1.4-0.6-1.9-1.2c-0.6-0.4-1.2-1-1.7-1.5c-0.5-0.5-0.9-1.1-1.3-1.8L95.1,108.6z"/>
				<path d="M62.8,126.2c-2.3-1.6-4.9-2.7-7.7-3.2c-2.7-0.6-5.5-0.9-8.3-0.7c-2.8,0.2-5.5,0.5-8.3,1c-2.8,0.4-5.5,1-8.3,1.4v-0.1
					c2.7-0.9,5.4-1.7,8.1-2.3c2.8-0.6,5.6-0.9,8.5-0.9c2.8,0,5.7,0.3,8.4,1c2.7,0.7,5.3,2,7.6,3.7L62.8,126.2z"/>
				<path d="M50.5,126.9c-3.7-0.5-7.5-0.5-11.2,0c-1.9,0.2-3.7,0.7-5.5,1s-3.6,0.8-5.5,1.2V129c1.7-0.9,3.5-1.6,5.3-2.1
					c1.9-0.5,3.8-0.7,5.7-0.8C43,125.8,46.8,126.1,50.5,126.9L50.5,126.9z"/>
				<path d="M47.1,130.2c-3.1,0-6.1,0.4-9.1,1.1c-1.4,0.5-2.7,1.1-4,1.9c-1.3,0.8-2.5,1.7-3.8,2.6l-0.1-0.1c0.9-1.3,2-2.4,3.3-3.3
					c1.3-0.9,2.8-1.5,4.4-1.8c3.1-0.6,6.2-0.7,9.3-0.4L47.1,130.2z"/>
			</g>
		</g>
	</g>
</g>
<text id="nrOfMoves" transform="matrix(3.2148 0 0 1 143.3096 72.1201)" class="st3 st17 st18">0</text>
</svg>
