<svg xmlns="http://www.w3.org/2000/svg" viewBox="0 0 236.01 197.94"><defs><style>.cls-1{fill:#fff;stroke:#000;stroke-miterlimit:10;stroke-width:4px;}</style></defs><g id="Warstwa_2" data-name="Warstwa 2"><g id="Warstwa_2-2" data-name="Warstwa 2"><path class="cls-1" d="M2.15,42V163.39a11.54,11.54,0,0,0,1.25,7.39,14.51,14.51,0,0,0,2.51,3.16c3.42,3.22,14,5.12,27.57,4.23l37.6-1.06,6.26,1.06,6.27,3.16,92.74,13.72a21.55,21.55,0,0,0,15-1.06,15.4,15.4,0,0,0,8.77-11.6q1.26-6.33,2.51-12.67l-7.52-12.66,12.53-4.22a25,25,0,0,0,8.77-5.28c9.42-9,5.49-21.77,5-23.21q-5-6.33-10-12.67c.86.14,8.12,1.18,13.79-3.16a12.73,12.73,0,0,0,5-8.44l3.76-19a13.62,13.62,0,0,0-2.51-7.39c-4-5.68-11.11-7.12-12.53-7.38a20.61,20.61,0,0,0,6.27-3.17,18.17,18.17,0,0,0,5.94-8.24,20.56,20.56,0,0,0,1.58-8.64c-.18-6,1.54-9,0-12.67C230.16,27.42,224,24.2,221.47,23L165.07,22a15.61,15.61,0,0,0-2.5-9.5C156.9,4,141.8,0,125,3L69.83,29.37H17.19a19.64,19.64,0,0,0-10,4.22A14.58,14.58,0,0,0,2.15,42Z"/><path class="cls-1" d="M101.16,39.93,83.61,86.36c-3.76,6.33-.83,5.63-1.25,8.44l-37.6,7.39"/><path class="cls-1" d="M82.36,94.8l12.53,10.55-2.51,6.33a26.68,26.68,0,0,0-2.5,7.39,28.69,28.69,0,0,0,1.25,13.72,38.42,38.42,0,0,0,2.51,6.33,38.6,38.6,0,0,0-16.3,10.55c-10.26,11.7-6.86,25.23-6.26,27.44"/><path class="cls-1" d="M94.89,105.35l11.28,5.28a22.32,22.32,0,0,0,11.28,1.05,19.89,19.89,0,0,0,13.78-9.49L165.07,22"/><line class="cls-1" x1="150.03" y1="56.81" x2="217.71" y2="67.36"/><line class="cls-1" x1="133.74" y1="99.02" x2="211.44" y2="111.68"/><path class="cls-1" d="M93.64,139.12,201.42,155"/></g></g></svg>